<svg width="352" height="352" viewBox="0 0 352 352" fill="none" xmlns="http://www.w3.org/2000/svg">
<path d="M226.758 68.5273C226.028 69.1139 225.177 69.5322 224.266 69.7523C221.767 70.3085 215.114 70.0269 213.987 73.0822C213.627 73.999 213.067 74.8238 212.347 75.4961C211.627 76.1685 210.766 76.6715 209.827 76.9683C209.827 76.9683 204.554 77.2499 204.272 78.3763C203.991 79.5027 202.055 81.4317 202.055 81.4317H292.864C292.864 81.4317 295.919 76.7149 290.921 72.2797C286.549 68.3936 278.558 74.279 277.545 69.4637" stroke="#263238" stroke-linecap="round" stroke-linejoin="round"/>
<path d="M276.722 62.3955C275.708 58.7417 273.575 53.8137 269.245 51.9833C262.022 48.9279 255.918 53.0956 254.25 57.2563C252.581 61.4169 251.476 64.1977 245.098 60.5862C238.72 56.9747 233.13 57.2563 231.215 61.9942C230.663 63.3658 229.972 64.6774 229.152 65.9084" stroke="#263238" stroke-linecap="round" stroke-linejoin="round"/>
<path d="M72.5469 116.934H104.079C104.079 116.934 105.924 114.118 102.903 111.394C99.8832 108.669 93.9978 113.745 94.8426 108.036C94.8426 108.036 94.1386 100.996 89.8019 99.1371C88.6858 98.6258 87.4554 98.4153 86.2328 98.5265C85.0102 98.6376 83.8379 99.0665 82.8323 99.7707" stroke="#263238" stroke-linecap="round" stroke-linejoin="round"/>
<path d="M80.7344 102.326C79.7277 104.847 79.0518 106.55 75.1939 104.34C71.336 102.129 67.9709 102.326 66.7952 105.185C65.6195 108.043 64.1059 109.549 62.5712 109.88C61.0365 110.211 57.0307 110.049 56.3549 111.901C56.1354 112.455 55.7954 112.954 55.3595 113.36C54.9236 113.767 54.4027 114.072 53.8346 114.252C53.8346 114.252 50.6454 114.414 50.4765 115.09C50.1406 115.779 49.6854 116.404 49.1318 116.934H67.5837" stroke="#263238" stroke-linecap="round" stroke-linejoin="round"/>
<path d="M230.383 116.934H245.273C245.273 116.934 247.117 114.118 244.097 111.394C241.077 108.669 235.199 113.745 236.036 108.036C236.036 108.036 235.368 100.996 230.996 99.1371C226.624 97.2786 222.942 99.8411 221.928 102.326C220.915 104.811 220.253 106.55 216.388 104.34C212.523 102.129 209.165 102.326 207.996 105.184C206.828 108.043 205.307 109.549 203.772 109.88C202.237 110.211 198.232 110.049 197.563 111.901C197.343 112.454 197.002 112.952 196.567 113.359C196.131 113.766 195.61 114.071 195.043 114.252C195.043 114.252 191.853 114.414 191.684 115.09C191.349 115.779 190.893 116.404 190.34 116.934H225.413" stroke="#263238" stroke-linecap="round" stroke-linejoin="round"/>
<g opacity="0.1">
<path opacity="0.1" d="M16.3538 163.448C19.1276 163.997 25.2876 162.511 25.2876 162.511C25.2876 162.511 23.077 158.745 22.9081 158.527C20.9298 155.978 15.6076 152.191 12.2213 153.458C11.6642 153.679 11.1598 154.016 10.7409 154.444C10.322 154.873 9.99778 155.385 9.78937 155.948C9.58097 156.51 9.49299 157.109 9.53113 157.708C9.56927 158.306 9.73269 158.89 10.0108 159.421C11.1161 161.716 13.9954 162.976 16.3538 163.448Z" fill="black"/>
<path opacity="0.1" d="M22.4007 180.928C25.1041 180.738 30.2785 177.936 30.6938 177.711C32.293 180.673 34.0875 183.526 36.0654 186.25C37.2058 187.841 38.4097 189.411 39.6346 190.967C38.9658 190.341 38.3674 189.784 38.2759 189.714C35.6993 187.785 29.5745 185.567 26.6318 187.651C26.1528 188.012 25.7551 188.47 25.4643 188.994C25.1735 189.518 24.9961 190.098 24.9437 190.695C24.8912 191.293 24.9649 191.895 25.1599 192.462C25.3549 193.029 25.6669 193.548 26.0756 193.987C27.7511 195.902 30.8558 196.36 33.2564 196.191C35.657 196.022 40.1556 193.713 41.3242 193.093C41.803 193.685 42.2676 194.283 42.7322 194.874C45.0273 197.69 47.3294 200.506 49.5047 203.365C50.2721 204.364 50.9831 205.378 51.7082 206.385C51.1169 205.829 50.617 205.364 50.5326 205.301C47.9489 203.365 41.8311 201.147 38.8884 203.238C38.4076 203.597 38.0081 204.054 37.716 204.579C37.424 205.103 37.2458 205.683 37.1933 206.281C37.1409 206.879 37.2152 207.482 37.4114 208.049C37.6077 208.616 37.9215 209.136 38.3322 209.574C40.0078 211.496 43.1124 211.946 45.5131 211.777C47.9137 211.608 51.9758 209.524 53.3697 208.792C54.0737 209.848 54.7777 210.904 55.4254 211.96C55.8478 212.664 56.2983 213.368 56.6785 214.122L57.8471 216.325C58.5511 217.733 59.2551 219.226 59.8958 220.634C60.3463 221.612 60.7617 222.549 61.177 223.499C60.4238 222.492 58.9172 220.556 58.7694 220.408C56.5166 218.113 50.8001 214.995 47.5687 216.607C47.0408 216.89 46.5784 217.282 46.2116 217.756C45.8448 218.23 45.5818 218.776 45.4397 219.358C45.2977 219.94 45.2797 220.546 45.3869 221.136C45.4941 221.725 45.7242 222.286 46.0622 222.781C47.4279 224.935 50.427 225.85 52.8276 226.047C55.4676 226.266 60.8039 224.379 61.4657 224.14C62.1697 225.709 62.8033 227.237 63.3946 228.694C63.8405 229.765 64.2559 230.799 64.6407 231.799L66.8372 231.32C66.3679 230.217 65.8774 229.063 65.3658 227.857C64.6618 226.266 63.9086 224.576 63.099 222.851C64.6077 221.832 66.0535 220.722 67.4286 219.528C69.6602 221.091 74.7854 222.344 75.4471 222.534C75.1514 224.217 74.8558 225.85 74.546 227.392C74.3841 228.209 74.2222 228.976 74.0602 229.743L76.3834 229.237C76.475 228.758 76.5594 228.286 76.6439 227.786C76.9537 226.076 77.2423 224.266 77.5239 222.358C78.2279 222.358 83.8599 222.267 86.2887 221.148C88.4711 220.127 90.9633 218.226 91.4983 215.734C91.6432 215.152 91.6641 214.546 91.5595 213.956C91.4549 213.365 91.2272 212.803 90.8912 212.307C90.5552 211.81 90.1185 211.39 89.6093 211.073C89.1002 210.756 88.5301 210.55 87.9361 210.468C84.3527 210.074 80.0724 214.98 78.7841 217.923C78.7066 218.099 78.0801 220.077 77.6999 221.331C77.8055 220.556 77.9252 219.81 78.0238 219.014C78.242 217.445 78.411 215.875 78.601 214.178C78.6644 213.361 78.7278 212.531 78.7911 211.693C78.8545 210.855 78.8545 209.982 78.8897 209.116C78.8897 207.103 78.8897 205.068 78.763 203.02C80.171 203.203 85.0356 203.794 87.3518 203.118C89.6679 202.442 92.4206 200.936 93.3217 198.556C93.5543 198.004 93.6678 197.408 93.6548 196.808C93.6417 196.209 93.5025 195.619 93.2461 195.077C92.9896 194.535 92.6218 194.053 92.1666 193.663C91.7114 193.272 91.1791 192.982 90.6042 192.812C87.0842 191.875 82.1562 196.078 80.3962 198.789C80.2906 198.957 79.2558 201.041 78.7066 202.196C78.6362 200.964 78.5658 199.739 78.4532 198.493C78.1223 194.902 77.6788 191.277 77.2564 187.658C77.1226 186.546 77.003 185.441 76.8833 184.335C77.369 184.406 83.177 185.237 85.7748 184.476C88.0839 183.772 90.8366 182.294 91.7447 179.914C91.9761 179.361 92.0884 178.765 92.0744 178.166C92.0603 177.566 91.9203 176.976 91.6633 176.434C91.4063 175.893 91.0382 175.411 90.5828 175.021C90.1275 174.631 89.5951 174.341 89.0202 174.17C85.5002 173.233 80.5722 177.443 78.8193 180.147C78.6855 180.351 77.2001 183.357 76.8622 184.138C76.5946 181.695 76.3482 179.267 76.2074 176.859C75.9962 173.61 75.9962 170.351 76.2074 167.101C76.4327 167.137 82.4871 168.031 85.1482 167.249C87.4574 166.545 90.217 165.074 91.1182 162.687C91.3496 162.135 91.4622 161.539 91.4487 160.94C91.4351 160.341 91.2956 159.751 91.0394 159.21C90.7831 158.668 90.4157 158.186 89.9612 157.796C89.5066 157.405 88.9749 157.114 88.4007 156.943C84.8807 156.013 79.9527 160.216 78.1927 162.927C78.059 163.138 76.4609 166.362 76.2145 166.975C76.2145 166.785 76.2145 166.588 76.2145 166.397C76.5164 163.146 77.1077 159.927 77.9815 156.781C78.4391 155.035 78.9812 153.395 79.5374 151.811C80.6497 152.092 85.7396 153.324 88.2106 152.888C90.6817 152.451 93.4836 151.276 94.6452 149.009C94.9352 148.484 95.1118 147.905 95.1633 147.308C95.2149 146.711 95.1404 146.11 94.9445 145.543C94.7487 144.977 94.4359 144.458 94.0266 144.021C93.6172 143.583 93.1204 143.237 92.5684 143.004C89.2033 141.687 83.8036 145.327 81.769 147.826C81.6634 147.96 80.6919 149.466 79.995 150.572C80.2625 149.868 80.5159 149.121 80.7834 148.46C81.7761 145.918 82.8391 143.651 83.7966 141.645C84.3527 140.511 84.8737 139.533 85.3735 138.554C86.6055 138.266 91.5687 137.027 93.5258 135.527C95.483 134.028 97.4612 131.669 97.4471 129.121C97.4638 128.521 97.3541 127.925 97.1252 127.37C96.8962 126.816 96.5531 126.316 96.1181 125.903C95.6831 125.49 95.1661 125.173 94.6006 124.973C94.0351 124.773 93.4339 124.694 92.8359 124.742C89.2455 125.129 86.1268 130.838 85.4791 133.999C85.4228 134.267 85.0286 138.639 85.0919 138.625H85.1623C84.6625 139.526 84.1415 140.49 83.5854 141.56C82.5857 143.546 81.4734 145.784 80.4174 148.326C79.2652 151.021 78.2709 153.78 77.4394 156.591C76.4847 159.758 75.8155 163.005 75.4401 166.292C75.4367 166.332 75.4367 166.372 75.4401 166.412C75.2289 165.377 74.553 162.497 74.4756 162.279C73.3914 159.245 69.5124 154.021 65.9009 154.134C65.3036 154.171 64.7207 154.333 64.1901 154.61C63.6594 154.887 63.1928 155.272 62.8205 155.74C62.4482 156.209 62.1784 156.75 62.0287 157.33C61.879 157.909 61.8527 158.514 61.9514 159.104C62.2894 161.624 64.6266 163.715 66.7246 164.905C69.09 166.236 74.9543 166.749 75.419 166.792C75.1182 170.146 75.0406 173.516 75.1866 176.88C75.2641 178.837 75.3978 180.808 75.5598 182.787C75.3556 181.893 75.1585 181.097 75.1233 180.991C74.0391 177.957 70.153 172.733 66.5486 172.846C65.9502 172.881 65.366 173.042 64.834 173.318C64.302 173.594 63.8341 173.979 63.4608 174.448C63.0875 174.917 62.8172 175.459 62.6675 176.04C62.5179 176.62 62.4922 177.225 62.5921 177.816C62.93 180.344 65.2673 182.435 67.3652 183.617C69.4631 184.8 74.4826 185.363 75.8132 185.49C75.8836 186.243 75.9399 187.004 76.0174 187.757C76.3623 191.389 76.7214 195.008 76.9748 198.577C77.0663 199.83 77.1015 201.069 77.1508 202.309C76.9607 201.52 76.7988 200.858 76.7636 200.76C75.6794 197.718 71.8356 192.495 68.1889 192.607C67.5903 192.643 67.0059 192.805 66.4739 193.082C65.9418 193.359 65.474 193.744 65.1008 194.214C64.7277 194.683 64.4575 195.226 64.3078 195.807C64.1582 196.388 64.1325 196.993 64.2324 197.585C64.5703 200.112 66.9146 202.203 69.0055 203.386C71.0964 204.568 75.6372 205.075 77.2071 205.23C77.2071 206.497 77.2071 207.772 77.2071 209.004C77.1508 209.848 77.1578 210.658 77.0593 211.503C76.9607 212.348 76.8974 213.164 76.8199 213.981C76.6017 215.558 76.3975 217.177 76.1159 218.705C75.954 219.768 75.778 220.781 75.602 221.802C75.5316 220.549 75.3345 218.099 75.2993 217.902C74.6471 215.139 73.297 212.589 71.378 210.496C71.3226 210.185 71.2353 209.881 71.1175 209.588C70.9184 209.022 70.6024 208.505 70.19 208.07C69.7776 207.635 69.2782 207.292 68.7242 207.062C68.1702 206.833 67.5742 206.723 66.9749 206.74C66.3756 206.757 65.7866 206.899 65.2462 207.159C62.0359 208.806 61.177 215.262 61.7262 218.423C61.7262 218.606 62.3246 220.605 62.6977 221.859C62.3668 221.155 62.05 220.451 61.698 219.747C60.994 218.339 60.29 216.931 59.5086 215.396L58.2977 213.221C57.9034 212.517 57.4036 211.756 56.953 211.017C55.8759 209.32 54.7002 207.652 53.4823 206.005C54.7354 205.399 59.1143 203.189 60.7054 201.344C62.2964 199.5 63.7255 196.733 63.1694 194.248C63.0543 193.66 62.8174 193.104 62.474 192.614C62.1305 192.124 61.6881 191.711 61.1753 191.403C60.6624 191.094 60.0907 190.897 59.4968 190.823C58.9029 190.749 58.3002 190.801 57.7274 190.974C54.306 192.122 52.4826 198.373 52.5178 201.59C52.5178 201.795 52.8065 204.104 52.9825 205.371C52.2785 204.385 51.5111 203.393 50.7297 202.414C48.4769 199.598 46.1044 196.824 43.753 194.044C43.049 193.192 42.345 192.333 41.6411 191.481C42.0846 191.27 47.3857 188.757 49.1316 186.687C50.6875 184.849 52.1518 182.076 51.5956 179.59C51.4843 179.001 51.2499 178.441 50.9076 177.948C50.5654 177.456 50.1231 177.041 49.6095 176.73C49.0959 176.42 48.5227 176.222 47.9272 176.148C47.3317 176.074 46.7274 176.127 46.1537 176.303C42.7322 177.443 40.9089 183.695 40.9441 186.919C40.9441 187.158 41.3665 190.481 41.5073 191.319C39.9444 189.439 38.3956 187.546 36.9524 185.617C34.9868 183.022 33.1903 180.304 31.5738 177.478C31.778 177.38 37.3185 174.782 39.1066 172.663C40.6625 170.826 42.1338 168.052 41.5706 165.567C41.4592 164.978 41.225 164.419 40.8832 163.927C40.5414 163.435 40.0997 163.02 39.587 162.71C39.0743 162.4 38.5019 162.201 37.9073 162.127C37.3126 162.053 36.709 162.104 36.1358 162.279C32.7073 163.42 30.8839 169.671 30.9191 172.895C30.9191 173.149 31.3767 176.725 31.5034 177.366C31.4119 177.197 31.2922 177.042 31.2007 176.873C29.6634 173.992 28.3818 170.981 27.371 167.876C26.7937 166.172 26.3361 164.504 25.963 162.87C27.0471 162.497 31.9681 160.716 33.7914 158.984C35.6148 157.253 37.3115 154.76 37.0158 152.205C36.9706 151.607 36.7999 151.025 36.5147 150.497C36.2294 149.97 35.8362 149.508 35.3605 149.143C34.8849 148.777 34.3375 148.516 33.7542 148.377C33.1708 148.237 32.5646 148.222 31.9751 148.333C28.4551 149.093 25.9489 155.105 25.6391 158.316C25.6391 158.492 25.6391 160.28 25.6814 161.589C25.5054 160.85 25.3153 160.09 25.1604 159.379C24.5831 156.71 24.217 154.232 23.9143 152.036C23.7524 150.783 23.6327 149.649 23.5271 148.586C24.393 147.664 27.8426 143.891 28.6522 141.546C29.4618 139.202 29.8068 136.154 28.3918 134.042C28.0745 133.532 27.6537 133.095 27.1567 132.759C26.6597 132.423 26.0975 132.195 25.5067 132.09C24.9159 131.985 24.3096 132.006 23.7272 132.15C23.1448 132.295 22.5993 132.56 22.1262 132.929C19.3524 135.231 19.9015 141.722 21.0983 144.714C21.1969 144.975 23.2807 148.833 23.323 148.783L23.3793 148.727C23.4567 149.755 23.5553 150.839 23.682 152.05C23.9425 154.253 24.2522 156.746 24.7732 159.442C25.3099 162.348 26.0151 165.221 26.8852 168.045C27.8364 171.211 29.0686 174.285 30.5671 177.232C30.5671 177.232 30.6094 177.302 30.6234 177.338C29.9194 176.584 27.73 174.557 27.547 174.423C24.9633 172.487 18.8455 170.269 15.9028 172.36C15.422 172.72 15.0225 173.177 14.7304 173.701C14.4384 174.226 14.2602 174.806 14.2077 175.404C14.1553 176.002 14.2296 176.604 14.4258 177.172C14.6221 177.739 14.9359 178.259 15.3466 178.696C16.8954 180.625 20.0001 181.076 22.4007 180.928Z" fill="black"/>
<path opacity="0.1" d="M79.2557 151.156C79.3191 151.156 79.488 146.798 79.4669 146.524C79.2205 143.306 76.8551 137.245 73.3492 136.4C72.7624 136.276 72.1562 136.278 71.57 136.404C70.9837 136.53 70.4306 136.778 69.9465 137.132C69.4625 137.486 69.0583 137.938 68.7603 138.458C68.4624 138.979 68.2772 139.556 68.217 140.152C67.8791 142.68 69.5828 145.313 71.2865 147.009C73.2928 149.002 79.2557 151.156 79.2557 151.156Z" fill="black"/>
</g>
<g opacity="0.1">
<path opacity="0.1" d="M330.219 224.076C327.84 224.161 322.919 222.105 322.919 222.105C322.919 222.105 325.256 219.289 325.432 219.113C327.411 217.261 332.331 214.854 334.986 216.297C335.419 216.555 335.793 216.902 336.084 217.315C336.375 217.727 336.576 218.196 336.675 218.691C336.773 219.186 336.766 219.696 336.655 220.189C336.543 220.681 336.329 221.144 336.028 221.549C334.796 223.337 332.24 223.999 330.219 224.076Z" fill="black"/>
<path opacity="0.1" d="M322.862 237.776C320.637 237.262 316.716 234.256 316.399 233.995C314.668 236.246 312.786 238.377 310.767 240.374C309.605 241.549 308.402 242.69 307.177 243.823C307.81 243.387 308.38 243.007 308.472 242.964C310.873 241.697 316.251 240.676 318.419 242.803C318.77 243.166 319.04 243.598 319.212 244.073C319.384 244.547 319.454 245.052 319.418 245.555C319.382 246.059 319.241 246.549 319.004 246.994C318.766 247.439 318.437 247.829 318.039 248.139C316.392 249.512 313.752 249.469 311.781 249.012C309.81 248.554 306.374 246.034 305.487 245.358C305.008 245.787 304.544 246.224 304.079 246.646C301.798 248.702 299.51 250.737 297.321 252.806C296.553 253.51 295.821 254.278 295.089 255.017C295.652 254.637 296.131 254.313 296.208 254.271C298.609 253.01 303.994 251.99 306.163 254.116C306.513 254.478 306.783 254.911 306.955 255.384C307.127 255.858 307.197 256.363 307.161 256.865C307.125 257.368 306.984 257.857 306.747 258.302C306.509 258.746 306.181 259.136 305.783 259.445C304.135 260.853 301.495 260.783 299.517 260.325C297.539 259.867 294.448 257.587 293.385 256.805C292.681 257.587 291.928 258.375 291.273 259.163C290.823 259.713 290.358 260.212 289.943 260.797L288.675 262.472C287.915 263.563 287.12 264.69 286.402 265.774C285.895 266.527 285.43 267.252 284.951 267.985C285.712 267.245 287.225 265.873 287.366 265.739C289.548 264.127 294.709 262.303 297.18 264.07C297.58 264.377 297.912 264.765 298.154 265.208C298.395 265.651 298.541 266.14 298.581 266.643C298.622 267.146 298.556 267.652 298.389 268.128C298.221 268.604 297.956 269.04 297.609 269.407C296.201 271.012 293.568 271.378 291.548 271.216C289.33 271.047 285.148 268.766 284.627 268.477C283.846 269.688 283.1 270.871 282.417 271.997C281.91 272.828 281.424 273.638 280.967 274.412L279.207 273.708C279.735 272.849 280.298 271.962 280.889 271.026C281.678 269.794 282.544 268.499 283.445 267.168C282.327 266.121 281.274 265.006 280.291 263.831C278.228 264.831 273.8 265.239 273.251 265.239C273.251 266.647 273.3 268.055 273.356 269.393C273.356 270.097 273.413 270.758 273.441 271.413L271.582 270.709C271.582 270.294 271.582 269.892 271.582 269.463C271.582 267.999 271.582 266.436 271.582 264.838C271.005 264.739 266.302 263.915 264.458 262.662C262.782 261.522 260.938 259.607 260.853 257.467C260.81 256.964 260.872 256.458 261.038 255.981C261.203 255.504 261.467 255.067 261.812 254.699C262.158 254.331 262.577 254.04 263.043 253.845C263.508 253.65 264.01 253.555 264.514 253.567C267.541 253.722 270.442 258.368 271.146 260.987C271.188 261.142 271.449 262.867 271.596 263.965C271.596 263.303 271.596 262.669 271.632 261.994C271.632 260.663 271.73 259.332 271.793 257.903C271.857 257.199 271.913 256.495 271.969 255.791C272.026 255.087 272.145 254.383 272.237 253.637C272.469 251.962 272.793 250.279 273.152 248.589C271.984 248.589 267.837 248.399 266 247.526C264.162 246.653 262.085 245.041 261.649 242.936C261.531 242.446 261.518 241.937 261.609 241.441C261.701 240.945 261.896 240.474 262.181 240.059C262.467 239.643 262.836 239.292 263.266 239.029C263.696 238.765 264.176 238.595 264.676 238.529C267.696 238.219 271.265 242.373 272.357 244.865C272.427 245.02 273.011 246.893 273.307 247.921C273.532 246.907 273.751 245.893 274.011 244.879C274.764 241.937 275.616 238.987 276.454 236.037C276.714 235.129 276.954 234.228 277.207 233.327C276.792 233.327 271.857 233.235 269.801 232.257C267.971 231.384 265.88 229.764 265.45 227.667C265.33 227.176 265.315 226.666 265.406 226.17C265.497 225.673 265.691 225.201 265.977 224.785C266.263 224.369 266.634 224.018 267.064 223.755C267.495 223.492 267.977 223.323 268.478 223.259C271.498 222.95 275.067 227.103 276.158 229.595C276.236 229.779 277.074 232.475 277.25 233.165C277.799 231.179 278.327 229.187 278.763 227.209C279.373 224.539 279.808 221.832 280.066 219.106C279.868 219.106 274.722 219.035 272.617 218.029C270.787 217.163 268.696 215.544 268.259 213.446C268.14 212.955 268.126 212.445 268.217 211.948C268.309 211.452 268.503 210.98 268.789 210.564C269.074 210.147 269.444 209.796 269.875 209.532C270.305 209.268 270.786 209.097 271.287 209.032C274.314 208.722 277.876 212.883 278.967 215.368C279.059 215.565 279.953 218.465 280.08 219C280.08 218.838 280.122 218.676 280.136 218.522C280.318 215.778 280.255 213.024 279.946 210.292C279.798 208.785 279.573 207.349 279.319 205.955C278.362 206.04 273.969 206.385 271.969 205.695C269.97 205.005 267.802 203.653 267.14 201.611C266.969 201.137 266.899 200.631 266.935 200.128C266.972 199.625 267.114 199.135 267.352 198.69C267.591 198.245 267.92 197.855 268.319 197.546C268.718 197.237 269.177 197.015 269.667 196.895C272.631 196.254 276.637 199.992 277.996 202.344C278.066 202.47 278.7 203.85 279.101 204.864C278.981 204.237 278.862 203.59 278.735 202.991C278.249 200.746 277.665 198.718 277.137 196.93C276.827 195.916 276.524 195.001 276.236 194.114C275.25 193.706 271.308 192.002 269.9 190.509C268.492 189.017 267.14 186.778 267.492 184.666C267.557 184.165 267.727 183.684 267.99 183.253C268.254 182.822 268.606 182.451 269.022 182.166C269.439 181.88 269.911 181.685 270.408 181.595C270.905 181.504 271.415 181.519 271.906 181.639C274.835 182.442 276.665 187.602 276.792 190.312C276.792 190.552 276.545 194.227 276.496 194.205H276.433C276.729 195.022 277.038 195.895 277.355 196.859C277.925 198.641 278.552 200.661 279.087 202.9C279.697 205.311 280.167 207.756 280.495 210.221C280.864 212.981 280.989 215.768 280.868 218.55C280.864 218.582 280.864 218.616 280.868 218.648C281.178 217.811 282.128 215.508 282.22 215.339C283.522 212.967 287.443 209.137 290.428 209.707C290.921 209.817 291.385 210.029 291.79 210.33C292.195 210.631 292.532 211.013 292.78 211.453C293.027 211.892 293.18 212.379 293.227 212.881C293.274 213.383 293.215 213.89 293.054 214.368C292.435 216.424 290.238 217.888 288.316 218.592C286.169 219.387 281.227 219.028 280.84 219C280.598 221.823 280.17 224.626 279.559 227.392C279.235 229.011 278.855 230.63 278.46 232.25C278.749 231.546 279.017 230.905 279.066 230.842C280.375 228.462 284.297 224.639 287.274 225.21C287.767 225.318 288.232 225.53 288.638 225.83C289.043 226.131 289.381 226.513 289.629 226.953C289.876 227.393 290.029 227.88 290.076 228.383C290.122 228.885 290.063 229.392 289.9 229.87C289.281 231.919 287.084 233.348 285.162 234.052C283.241 234.756 279.017 234.552 277.897 234.474C277.742 235.094 277.587 235.72 277.426 236.333C276.651 239.304 275.87 242.267 275.187 245.196C274.947 246.231 274.743 247.252 274.546 248.28C274.807 247.646 275.025 247.118 275.067 247.041C276.377 244.661 280.298 240.838 283.283 241.409C283.775 241.518 284.239 241.731 284.644 242.031C285.049 242.332 285.386 242.714 285.634 243.154C285.882 243.593 286.034 244.08 286.081 244.582C286.129 245.084 286.07 245.591 285.909 246.069C285.289 248.118 283.093 249.547 281.164 250.251C279.235 250.955 275.433 250.765 274.124 250.687C273.948 251.743 273.772 252.799 273.645 253.834C273.582 254.538 273.469 255.242 273.434 255.946L273.307 258.058C273.272 259.396 273.23 260.769 273.23 262.071C273.23 262.979 273.23 263.845 273.23 264.711C273.455 263.683 273.934 261.677 274.004 261.515C274.907 259.307 276.362 257.368 278.228 255.883C278.317 255.638 278.431 255.402 278.566 255.179C278.808 254.737 279.14 254.35 279.541 254.045C279.942 253.739 280.402 253.521 280.893 253.405C281.384 253.289 281.893 253.277 282.388 253.37C282.884 253.464 283.354 253.66 283.769 253.947C286.218 255.749 286.071 261.226 285.177 263.803C285.127 263.951 284.395 265.542 283.916 266.534C284.29 265.992 284.62 265.464 285.029 264.908C285.789 263.817 286.578 262.74 287.429 261.585L288.725 259.938C289.147 259.382 289.661 258.84 290.133 258.283C291.259 257.023 292.456 255.791 293.688 254.58C292.723 253.912 289.358 251.49 288.309 249.751C287.26 248.012 286.409 245.527 287.211 243.521C287.383 243.05 287.651 242.62 287.999 242.259C288.347 241.898 288.766 241.614 289.23 241.425C289.695 241.236 290.193 241.146 290.694 241.162C291.195 241.177 291.687 241.297 292.139 241.514C294.828 242.922 295.511 248.357 295.054 251.032C295.054 251.194 294.476 253.081 294.16 254.102C294.906 253.398 295.645 252.659 296.426 251.955C298.679 249.913 301.017 247.921 303.34 245.928L305.452 244.077C305.107 243.844 301.038 241.05 299.862 239.099C298.813 237.368 297.968 234.875 298.764 232.876C298.936 232.405 299.204 231.976 299.552 231.615C299.899 231.253 300.318 230.969 300.782 230.779C301.246 230.59 301.745 230.499 302.246 230.514C302.747 230.528 303.239 230.647 303.692 230.863C306.381 232.271 307.064 237.706 306.606 240.381C306.606 240.585 305.783 243.288 305.55 243.964C307.106 242.612 308.641 241.24 310.098 239.832C312.113 237.925 314 235.885 315.744 233.728C315.582 233.615 311.33 230.722 310.112 228.723C309.063 226.984 308.211 224.499 309.007 222.492C309.18 222.018 309.45 221.585 309.801 221.223C310.152 220.86 310.575 220.574 311.042 220.385C311.51 220.196 312.013 220.107 312.517 220.125C313.021 220.142 313.516 220.265 313.97 220.486C316.659 221.894 317.342 227.329 316.885 230.004C316.85 230.215 315.998 233.123 315.808 233.636C315.906 233.517 316.019 233.397 316.117 233.27C317.782 231.084 319.25 228.754 320.503 226.308C321.207 224.963 321.813 223.64 322.369 222.344C321.517 221.887 317.666 219.747 316.385 218.071C315.104 216.395 314.034 214.065 314.604 212.003C314.721 211.511 314.941 211.05 315.249 210.65C315.557 210.25 315.946 209.919 316.39 209.679C316.835 209.439 317.325 209.296 317.829 209.258C318.332 209.221 318.838 209.29 319.314 209.461C322.13 210.566 323.418 215.889 323.256 218.613C323.256 218.761 322.988 220.246 322.791 221.323C323.031 220.739 323.291 220.134 323.495 219.563C324.326 217.451 324.96 215.41 325.509 213.622C325.811 212.608 326.065 211.679 326.29 210.806C325.692 209.919 323.326 206.328 322.967 204.287C322.608 202.245 322.728 199.647 324.185 198.084C324.516 197.703 324.923 197.396 325.381 197.183C325.838 196.97 326.335 196.855 326.84 196.846C327.345 196.838 327.845 196.935 328.31 197.133C328.774 197.33 329.192 197.623 329.536 197.993C331.542 200.281 330.24 205.596 328.832 207.919C328.712 208.123 326.466 211.052 326.438 211.01L326.396 210.954C326.199 211.798 325.966 212.692 325.692 213.671C325.248 215.424 324.629 217.48 323.84 219.648C323.013 221.993 322.049 224.287 320.954 226.519C319.742 229.024 318.307 231.416 316.666 233.665C316.648 233.692 316.626 233.718 316.603 233.742C317.307 233.221 319.384 231.82 319.553 231.729C321.954 230.468 327.339 229.441 329.507 231.567C329.858 231.93 330.128 232.363 330.3 232.837C330.472 233.311 330.542 233.816 330.506 234.32C330.47 234.823 330.329 235.313 330.092 235.758C329.854 236.203 329.525 236.593 329.127 236.903C327.48 238.276 324.833 238.241 322.862 237.776Z" fill="black"/>
<path opacity="0.1" d="M279.587 205.476C279.531 205.476 279.974 201.823 280.03 201.59C280.664 198.957 283.438 194.233 286.465 194.001C286.969 193.976 287.472 194.058 287.942 194.241C288.412 194.424 288.839 194.704 289.193 195.063C289.548 195.421 289.823 195.851 290.001 196.323C290.178 196.795 290.255 197.299 290.224 197.803C290.175 199.915 288.408 201.907 286.761 203.09C284.825 204.477 279.587 205.469 279.587 205.476Z" fill="black"/>
</g>
<path d="M146.89 23.4856L155.69 107.114" stroke="#263238" stroke-linecap="round" stroke-linejoin="round"/>
<path d="M173.282 41.2546L166.721 42.7612L160.716 54.6377L151.205 51.9202L150.938 54.511L162.765 59.4178L166.996 53.5465V63.7897L179.696 64.3388L182.294 52.7298L186.933 56.8271V67.6124H189.665L191.305 54.0956L184.068 42.3529L173.282 41.2546Z" fill="white" stroke="#263238" stroke-linecap="round" stroke-linejoin="round"/>
<path d="M166.997 53.5464L166.898 47.7666" stroke="#263238" stroke-linecap="round" stroke-linejoin="round"/>
<path d="M173.185 45.056L174.966 48.4C174.966 48.4 179.894 49.9629 180.767 50.1812C181.64 50.3994 184.336 49.5124 186.561 49.0688C188.785 48.6253 195.931 52.1876 195.931 52.1876L202.175 52.4128L198.831 48.4L186.786 46.6119L180.541 48.6253L176.317 47.506L177.218 45.76L175.212 42.6343L173.185 45.056Z" fill="black" stroke="#263238" stroke-linecap="round" stroke-linejoin="round"/>
<path d="M173.826 40.2972C173.463 40.2286 173.088 40.3053 172.781 40.5107C172.474 40.7161 172.26 41.0339 172.186 41.3954C171.918 42.7612 171.644 46.1756 171.644 46.1756L174.917 45.2182L178.747 46.8585C178.747 46.8585 179.972 43.3033 179.289 42.0783C178.606 40.8534 175.466 39.206 173.826 40.2972Z" fill="white" stroke="#263238" stroke-linecap="round" stroke-linejoin="round"/>
<path d="M173.142 38.3892C173.142 38.3892 173.55 42.2119 173.691 43.5776C173.832 44.9434 174.648 46.992 175.19 46.5837C175.732 46.1754 177.647 42.3597 177.647 42.3597L178.605 39.769L173.142 38.3892Z" fill="white" stroke="#263238" stroke-linecap="round" stroke-linejoin="round"/>
<path d="M173.185 32.8067C173.185 32.8067 171.988 32.7011 171.988 34.6582C171.988 36.6153 172.854 36.7209 172.854 36.7209L173.185 32.8067Z" fill="white" stroke="#263238" stroke-linecap="round" stroke-linejoin="round"/>
<path d="M181.19 34.4399C181.345 34.4482 181.496 34.4904 181.634 34.5635C181.771 34.6366 181.89 34.7388 181.983 34.8629C182.076 34.987 182.141 35.1301 182.173 35.2821C182.205 35.434 182.204 35.5911 182.169 35.7423C181.95 36.9391 179.888 38.5583 179.888 38.5583L181.19 34.4399Z" fill="white" stroke="#263238" stroke-linecap="round" stroke-linejoin="round"/>
<path d="M177.238 28.8642C177.238 28.8642 175.056 28.315 173.824 30.9128C172.592 33.5106 172.866 36.6504 173.12 38.4245C173.373 40.1986 175.035 41.0152 176.675 41.0152C178.315 41.0152 180.765 37.6078 181.314 35.0101C181.863 32.4123 181.469 28.8642 177.238 28.8642Z" fill="white" stroke="#263238" stroke-linecap="round" stroke-linejoin="round"/>
<path d="M148.565 50.4064L149.108 54.5037L151.564 54.7782L151.156 50.1318L148.565 50.4064Z" fill="white" stroke="#263238" stroke-linecap="round" stroke-linejoin="round"/>
<path d="M151.205 50.3432L152.198 50.2095L152.395 52.3919L151.402 52.5256L151.205 50.3432Z" fill="white" stroke="#263238" stroke-linecap="round" stroke-linejoin="round"/>
<path d="M186.934 67.6123L185.441 69.9496L185.829 72.2939L187.131 72.1672L189.349 71.3857L189.665 67.6123H186.934Z" fill="white" stroke="#263238" stroke-linecap="round" stroke-linejoin="round"/>
<path d="M166.996 63.7898L166.031 67.9997L155.345 82.0656L162.511 102.263L164.335 101.869L162.772 82.5866L171.502 73.336L172.543 73.9908L172.572 84.3114L182.575 101.221L184.659 100.693L179.971 84.41L180.231 67.0845L179.696 64.3389L166.996 63.7898Z" fill="#263238" stroke="#263238" stroke-linecap="round" stroke-linejoin="round"/>
<path d="M162.513 102.263L160.95 104.474C160.95 104.474 158.472 105.65 158.085 106.297C157.698 106.945 160.197 106.818 160.197 106.818L163.062 106.558L166.061 104.608L164.364 101.869L162.513 102.263Z" fill="white" stroke="#263238" stroke-linecap="round" stroke-linejoin="round"/>
<path d="M147.263 26.4636C147.263 26.4636 145.953 29.4486 140.547 31.4972C135.14 33.5459 127.312 34.6652 125.263 38.9526C123.214 43.2399 123.214 42.8739 122.841 45.2886C122.642 46.7001 121.987 48.0079 120.976 49.0127C120.976 49.0127 122.841 49.2028 123.792 47.9004C124.742 46.598 125.101 42.8668 126.608 42.3036C128.114 41.7404 130.853 40.8323 130.853 40.8323C130.853 40.8323 128.248 43.071 128.037 44.1903C127.826 45.3097 127.664 47.9215 127.29 49.5971C127.128 50.5131 126.682 51.3552 126.016 52.0047C126.016 52.0047 128.438 52.0047 129.184 50.3292C129.93 48.6537 129.184 46.415 131.606 44.7324C134.028 43.0499 136.64 43.8031 140.758 43.9862C144.876 44.1692 148.777 41.7545 148.777 41.7545L147.263 26.4636Z" fill="black" stroke="#263238" stroke-linecap="round" stroke-linejoin="round"/>
<path d="M182.576 101.221L180.781 107.184L185.238 107.008L184.66 100.693L182.576 101.221Z" fill="white" stroke="#263238" stroke-linecap="round" stroke-linejoin="round"/>
<path d="M175.747 34.0948C175.669 34.4468 175.423 34.6932 175.183 34.6439C174.944 34.5946 174.817 34.2637 174.895 33.9399C174.972 33.616 175.219 33.3415 175.458 33.3908C175.697 33.44 175.817 33.7428 175.747 34.0948Z" fill="#263238"/>
<path d="M179.007 34.8553C178.93 35.2073 178.684 35.4537 178.444 35.4044C178.205 35.3551 178.078 35.0242 178.156 34.7004C178.233 34.3765 178.479 34.102 178.719 34.1513C178.958 34.2005 179.078 34.4962 179.007 34.8553Z" fill="#263238"/>
<path d="M176.838 34.5454L175.972 37.1572H177.387" stroke="#263238" stroke-linecap="round" stroke-linejoin="round"/>
<path d="M174.889 37.9175C174.889 37.9175 175.649 39.2199 177.606 38.4596" stroke="#263238" stroke-linecap="round" stroke-linejoin="round"/>
<path d="M174.775 32.2645C175.059 32.1116 175.386 32.0603 175.702 32.1193C176.018 32.1782 176.305 32.3437 176.514 32.5883" stroke="#263238" stroke-linecap="round" stroke-linejoin="round"/>
<path d="M178.147 33.0248C178.338 32.9203 178.548 32.8573 178.765 32.8398C178.981 32.8222 179.199 32.8506 179.403 32.923C179.608 32.9955 179.795 33.1104 179.952 33.2601C180.11 33.4099 180.233 33.5912 180.316 33.7921" stroke="#263238" stroke-linecap="round" stroke-linejoin="round"/>
<path d="M172.713 31.9406L180.534 30.9761C180.534 30.9761 180.211 32.2785 180.647 32.6024C181.083 32.9262 181.189 34.4539 181.189 34.4539L180.865 36.1928L182.604 33.1515C182.604 33.1515 183.146 30.7579 182.71 29.9976C182.567 29.7681 182.377 29.5716 182.152 29.4211C181.928 29.2706 181.674 29.1695 181.407 29.1246C180.942 28.4203 180.286 27.8629 179.515 27.5176C178.745 27.1723 177.892 27.0533 177.057 27.1745C174.015 27.4984 172.713 29.019 172.713 30.2158V31.9406Z" fill="#263238" stroke="#263238" stroke-linecap="round" stroke-linejoin="round"/>
<path d="M166.939 327.501L180.737 248.322L128.656 200.528L147.558 136.126L127.325 136.576L118.778 144.222L100.918 143.785L98.5032 152.494L93.6034 151.881L91.9138 154.937L83.5573 171.621L79.2136 188.285L63.0216 208.525L61.2475 256.284L35.1432 293.962L26.9346 327.501H166.939Z" fill="#808080" stroke="#39515E" stroke-linecap="round" stroke-linejoin="round"/>
<path d="M284.457 327.501L267.174 289.605L295.334 308.366V278.341L278.783 258.734L281.233 236.678L256.1 188.883L254.847 172.339L246.273 164.37L202.258 167.552L199.119 152.099L170.959 136.168L154.063 177.077L138.497 183.962L149.465 199L147.691 210.918L151.359 229.321L90.1112 242.803C90.1112 242.803 89.4988 272.216 89.4988 274.666C89.4988 277.116 77.2421 291.21 77.2421 291.21L76.6719 327.501H284.457Z" fill="#ABABAB" stroke="#39515E" stroke-linecap="round" stroke-linejoin="round"/>
<path d="M318.567 327.501L311.252 324.298L302.058 304.691L291.027 296.729L286.127 285.085L281.227 275.891L255.038 263.099L259.1 327.501H318.567Z" fill="#CCCCCC" stroke="#39515E" stroke-linecap="round" stroke-linejoin="round"/>
<path d="M44.4579 327.423H77.201L77.7923 308.366L74.7299 297.341V267.928L67.3802 266.703L61.2483 273.441L51.4487 278.96L30.209 327.501H44.4579V327.423Z" fill="#CCCCCC" stroke="#39515E" stroke-linecap="round" stroke-linejoin="round"/>
<path d="M55.7842 295.518L56.5023 292.463" stroke="#39515E" stroke-miterlimit="10"/>
<path d="M44.458 327.501L48.8228 310.26L52.9412 307.641L55.3489 297.377" stroke="#39515E" stroke-miterlimit="10"/>
<path d="M37.3896 327.684L44.3241 308.014" stroke="#39515E" stroke-miterlimit="10"/>
<path d="M67.4786 274.842L66.8027 278.038" stroke="#39515E" stroke-miterlimit="10"/>
<path d="M69.0479 267.365L67.7666 273.469" stroke="#39515E" stroke-miterlimit="10"/>
<path d="M77.2005 327.423L77.7919 308.366L74.7295 297.342V267.928L68.6047 307.141L63.0853 308.979L61.2479 320.01L60.1074 327.423H77.2005Z" fill="white" stroke="#39515E" stroke-linecap="round" stroke-linejoin="round"/>
<path d="M182.061 305.691C185.544 305.219 188.95 304.291 192.191 302.931C194.779 301.876 197.056 300.18 198.809 298.003C199.013 297.729 199.203 297.44 199.386 297.151L194.55 275.327L185.011 267.006L183.419 259.868L174.267 252.729L171.099 263.838L165.939 270.977L165.545 297.158L170.473 306.578C174.351 306.545 178.223 306.249 182.061 305.691Z" fill="white" stroke="#39515E" stroke-linecap="round" stroke-linejoin="round"/>
<path d="M182.061 305.691L181.09 297.539L183.955 289.816V285.24L183.378 278.087" stroke="#39515E" stroke-miterlimit="10"/>
<path d="M187.869 280.91L189.39 289.527L192.248 290.098L191.678 297.25L192.818 300.974" stroke="#39515E" stroke-miterlimit="10"/>
<path d="M186.812 274.94L187.319 277.813" stroke="#39515E" stroke-miterlimit="10"/>
<path d="M177.372 256.629L179.66 280.086" stroke="#39515E" stroke-miterlimit="10"/>
<path d="M149.424 305.107C156.006 306.107 162.654 306.601 169.312 306.585C170.649 306.585 171.959 306.55 173.247 306.501L173.106 299.137L170.727 295.969V273.356L174.697 269.386L174.296 252.736L169.537 261.466L163.201 267.013L159.231 278.517L152.895 286.056L151.304 293.99L143.771 300.326L140.765 303.53C143.604 304.135 146.491 304.661 149.424 305.107Z" fill="#CCCCCC" stroke="#39515E" stroke-linecap="round" stroke-linejoin="round"/>
<path d="M264.07 327.501L297.334 327.438L254.263 301.629L243.851 276.503L235.269 275.278L227.919 265.479L224.238 269.153L226.687 290.597L217.5 305.916V315.723L213.213 326.748L233.939 327.501H264.07Z" fill="white" stroke="#39515E" stroke-linecap="round" stroke-linejoin="round"/>
<path d="M247.385 327.459L245.815 318.694L248.286 313.52L247.611 303.403L249.638 305.431L263.352 327.459H247.385Z" fill="#CCCCCC" stroke="#39515E" stroke-linecap="round" stroke-linejoin="round"/>
<path d="M247.61 303.403L257.283 308.127L261.099 312.844L272.117 318.469L279.762 323.193L284.458 327.501L263.352 327.459L247.61 303.403Z" fill="white" stroke="#39515E" stroke-linecap="round" stroke-linejoin="round"/>
<path d="M217.501 305.916V315.723L212.883 327.304L230.377 327.529L226.688 306.529L234.045 299.791L224.238 269.153L226.688 290.597L217.501 305.916Z" fill="#CCCCCC" stroke="#39515E" stroke-linecap="round" stroke-linejoin="round"/>
<path d="M235.27 275.278L241.739 288.957L244.597 289.246L246.885 296.11" stroke="#39515E" stroke-miterlimit="10"/>
<path d="M239.613 316.659L240.599 319.855" stroke="#39515E" stroke-miterlimit="10"/>
<path d="M235.733 291.815L237.733 299.545L241.168 305.262L237.163 308.697L238.894 314.322" stroke="#39515E" stroke-miterlimit="10"/>
<path d="M153.992 134.64L139.63 150.346L139.138 121.553L153.436 104.192L153.992 134.64Z" fill="#CCCCCC" stroke="#39515E" stroke-linecap="round" stroke-linejoin="round"/>
<path d="M144.023 197.522L158.709 184.561C159.762 183.647 160.935 182.88 162.194 182.28C163.774 181.53 165.424 180.941 167.122 180.52C169.297 179.991 171.509 179.624 173.739 179.422C176.547 179.163 179.368 179.059 182.187 179.112C189.004 179.202 195.805 179.802 202.533 180.907C208.125 181.833 213.653 183.11 219.084 184.73C223.97 186.187 228.236 187.75 231.918 189.193C235.6 190.636 238.641 191.96 241.105 192.931L222.048 205.287C219.718 204.371 216.824 203.125 213.353 201.767C209.883 200.408 205.835 198.951 201.209 197.543C196.072 196.017 190.842 194.82 185.552 193.959C179.183 192.924 172.744 192.369 166.291 192.298C163.617 192.252 160.942 192.355 158.279 192.608C156.17 192.802 154.078 193.152 152.021 193.657C150.403 194.054 148.829 194.615 147.325 195.332C146.131 195.91 145.02 196.646 144.023 197.522Z" fill="#CCCCCC" stroke="#39515E" stroke-linecap="round" stroke-linejoin="round"/>
<path d="M190.784 303.502L174.212 309.838C175.66 309.299 177.048 308.61 178.352 307.782C179.507 307.045 180.546 306.141 181.435 305.1C182.275 304.113 182.924 302.979 183.35 301.756C183.789 300.453 183.994 299.082 183.956 297.708C183.944 295.31 183.208 292.971 181.844 290.999C180.094 288.679 177.86 286.769 175.296 285.402C171.604 283.385 167.723 281.734 163.709 280.474C158.921 278.862 153.149 277.271 146.355 275.616C137.102 273.461 128.042 270.551 119.265 266.915C111.339 263.666 103.898 259.341 97.1525 254.06C90.9575 249.22 85.8548 243.127 82.1784 236.178C78.4507 228.794 76.521 220.633 76.5464 212.362C76.5112 209.002 76.7466 205.645 77.2504 202.323C77.7314 199.129 78.4851 195.982 79.5032 192.917C80.5057 189.914 81.7708 187.004 83.2837 184.223C84.8081 181.439 86.5725 178.794 88.5566 176.317L99.9685 162.005C95.7602 167.24 92.5224 173.187 90.4082 179.562C89.3201 182.803 88.5145 186.131 88.0005 189.51C87.4788 193.029 87.2434 196.584 87.2965 200.14C87.2908 208.909 89.353 217.556 93.3157 225.379C97.2147 232.745 102.621 239.207 109.184 244.344C115.858 249.716 123.792 254.2 132.613 257.953C141.9 261.814 151.487 264.908 161.28 267.203C168.496 268.963 174.571 270.66 179.633 272.371C183.882 273.721 187.988 275.487 191.89 277.644C195.044 279.481 197.304 281.424 198.796 283.564C200.251 285.649 201.039 288.126 201.056 290.668C201.103 292.123 200.888 293.575 200.422 294.955C199.973 296.242 199.291 297.436 198.409 298.475C197.468 299.57 196.369 300.519 195.149 301.291C193.776 302.179 192.313 302.92 190.784 303.502Z" fill="#CCCCCC" stroke="#39515E" stroke-linecap="round" stroke-linejoin="round"/>
<path d="M109.184 244.345C115.857 249.716 123.792 254.201 132.613 257.953C141.899 261.814 151.487 264.908 161.28 267.203C168.496 268.963 174.571 270.66 179.633 272.371C183.882 273.721 187.987 275.487 191.889 277.644C195.043 279.481 197.303 281.424 198.796 283.564C200.25 285.649 201.038 288.126 201.056 290.668C201.172 293.306 200.371 295.903 198.789 298.018C197.036 300.194 194.759 301.89 192.171 302.946C188.937 304.304 185.538 305.232 182.062 305.705C177.84 306.316 173.578 306.615 169.312 306.599C162.655 306.615 156.006 306.121 149.424 305.121C143.104 304.163 136.848 302.82 130.691 301.101C124.707 299.433 119.011 297.504 113.703 295.469C108.395 293.434 103.467 291.245 99.0248 289.133L90.0277 327.36H251.729C256.768 321.748 260.711 315.241 263.352 308.176C266.122 300.649 267.408 292.657 267.14 284.641C266.901 276.074 265.598 268.449 263.043 261.614C260.5 254.78 256.542 248.562 251.427 243.366C246.168 237.973 239.459 233.221 231.109 228.983C222.76 224.745 212.707 220.993 200.837 217.607C193.197 215.382 186.516 213.246 180.794 211.2C175.91 209.51 171.145 207.492 166.531 205.16C162.73 203.168 159.879 201.189 157.978 199.162C156.077 197.134 155.105 195.072 155.063 192.903C155.01 191.13 155.391 189.37 156.176 187.778C157.153 185.928 158.612 184.376 160.4 183.287C162.967 181.739 165.797 180.677 168.749 180.154C173.197 179.321 177.721 178.97 182.245 179.105C189.062 179.195 195.863 179.795 202.59 180.9C208.182 181.826 213.71 183.103 219.141 184.723C224.027 186.18 228.293 187.743 231.975 189.186C235.657 190.629 238.698 191.953 241.162 192.924L251.638 145.756C248.343 144.348 244.802 142.94 240.923 141.603C237.044 140.265 232.82 139.012 228.181 137.879C223.541 136.745 218.472 135.767 212.897 134.915C207.321 134.063 201.217 133.457 194.529 133.063L193.917 105.171L153.472 104.192L154.028 134.64C144.193 135.997 134.596 138.725 125.516 142.743C117.699 146.197 110.563 151.023 104.446 156.992C98.849 162.518 94.4493 169.137 91.5201 176.437C88.5654 183.983 87.13 192.038 87.2961 200.14C87.2905 208.909 89.3527 217.556 93.3153 225.379C97.2144 232.745 102.621 239.207 109.184 244.345Z" fill="white" stroke="#39515E" stroke-linecap="round" stroke-linejoin="round"/>
<path d="M90.0271 327.36L99.0242 289.112L87.4997 296.321L80.1641 327.36H90.0271Z" fill="#CCCCCC" stroke="#39515E" stroke-linecap="round" stroke-linejoin="round"/>
<path d="M284.521 318.131C283.812 317.997 283.079 318.141 282.473 318.532L285.627 320.426C285.711 320.203 285.748 319.965 285.738 319.727C285.727 319.489 285.669 319.256 285.565 319.041C285.462 318.827 285.316 318.635 285.137 318.479C284.957 318.322 284.748 318.204 284.521 318.131Z" fill="#263238"/>
<path d="M285.409 293.209C285.409 293.209 285.832 291.435 285.846 291.322C285.986 289.992 285.472 287.33 284.1 286.718C283.869 286.623 283.62 286.578 283.371 286.586C283.121 286.594 282.876 286.654 282.652 286.763C282.427 286.872 282.228 287.027 282.068 287.218C281.907 287.41 281.789 287.633 281.72 287.873C281.389 288.879 281.889 290.083 282.459 290.907C283.135 291.878 285.409 293.202 285.409 293.209Z" fill="#263238"/>
<path d="M306.282 304.036C307.14 303.002 308.175 300.516 307.366 299.235C307.226 299.028 307.045 298.853 306.832 298.721C306.62 298.589 306.383 298.504 306.135 298.471C305.888 298.438 305.636 298.457 305.397 298.528C305.158 298.599 304.936 298.72 304.747 298.883C304.366 299.266 304.074 299.729 303.892 300.237C303.709 300.746 303.641 301.288 303.691 301.826C303.691 303.002 304.881 305.346 304.888 305.346C304.895 305.346 306.239 304.128 306.282 304.036Z" fill="#263238"/>
<path d="M277.277 313.822C278.271 314.457 279.359 314.932 280.501 315.23C280.41 315.751 280.318 316.272 280.206 316.772C280.206 316.898 280.142 317.025 280.114 317.159L280.776 317.553C280.818 317.349 280.86 317.138 280.91 316.934C281.072 316.11 281.205 315.272 281.311 314.427C282.44 314.844 283.628 315.081 284.831 315.131C285.375 315.117 285.909 314.983 286.395 314.74C286.882 314.497 287.309 314.15 287.647 313.723C287.782 313.512 287.871 313.275 287.909 313.027C287.947 312.78 287.932 312.527 287.865 312.285C287.799 312.044 287.683 311.819 287.524 311.625C287.365 311.431 287.167 311.273 286.943 311.161C285.584 310.52 283.233 311.865 282.311 312.843C282.254 312.907 281.677 313.681 281.367 314.118C281.431 313.604 281.494 313.097 281.543 312.576C281.677 311.083 281.769 309.563 281.86 308.049C281.86 307.591 281.923 307.127 281.959 306.641C282.156 306.711 284.465 307.486 285.591 307.345C286.584 307.239 287.83 306.831 288.407 305.937C288.542 305.727 288.631 305.49 288.669 305.243C288.707 304.996 288.692 304.743 288.625 304.502C288.559 304.261 288.442 304.037 288.284 303.844C288.125 303.651 287.927 303.493 287.703 303.382C286.345 302.741 283.993 304.086 283.071 305.064C283.008 305.142 282.17 306.261 281.973 306.55C282.043 305.536 282.128 304.522 282.247 303.522C282.399 302.178 282.634 300.845 282.951 299.531C283.043 299.531 285.457 300.382 286.605 300.235C287.605 300.129 288.844 299.721 289.421 298.827C289.556 298.616 289.645 298.38 289.683 298.132C289.72 297.885 289.705 297.633 289.639 297.392C289.573 297.151 289.456 296.926 289.297 296.733C289.138 296.54 288.941 296.383 288.717 296.271C287.358 295.623 285.007 296.975 284.092 297.954C284.014 298.031 283.12 299.235 282.972 299.46C282.972 299.383 283.008 299.305 283.029 299.228C283.397 297.921 283.88 296.649 284.472 295.426C284.789 294.722 285.134 294.11 285.479 293.504C285.915 293.702 287.907 294.589 288.949 294.596C289.991 294.603 291.23 294.335 291.878 293.49C292.036 293.297 292.152 293.073 292.218 292.832C292.284 292.591 292.299 292.338 292.261 292.091C292.223 291.844 292.134 291.608 291.999 291.398C291.864 291.188 291.686 291.008 291.477 290.871C290.202 290.083 287.717 291.167 286.697 292.04C286.64 292.089 286.126 292.631 285.76 293.033C285.922 292.758 286.084 292.477 286.246 292.216C286.844 291.252 287.45 290.407 287.992 289.654C288.302 289.231 288.59 288.858 288.865 288.506C290.08 288.482 291.284 288.271 292.434 287.879C293.321 287.422 294.335 286.591 294.546 285.549C294.593 285.307 294.59 285.058 294.536 284.817C294.482 284.577 294.378 284.35 294.232 284.152C294.086 283.953 293.9 283.787 293.686 283.664C293.472 283.541 293.235 283.464 292.99 283.437C291.491 283.332 289.787 285.437 289.28 286.676C289.238 286.788 288.745 288.541 288.773 288.541H288.809C288.534 288.872 288.245 289.245 287.943 289.625C287.379 290.365 286.753 291.202 286.133 292.16C285.458 293.185 284.839 294.248 284.282 295.342C283.652 296.567 283.134 297.847 282.733 299.165C282.733 299.165 282.733 299.2 282.733 299.214C282.733 298.77 282.67 297.545 282.656 297.447C282.437 296.123 281.248 293.694 279.755 293.469C279.507 293.44 279.256 293.462 279.017 293.536C278.779 293.609 278.558 293.732 278.37 293.896C278.182 294.059 278.03 294.261 277.924 294.487C277.818 294.713 277.761 294.959 277.756 295.208C277.706 296.271 278.509 297.32 279.276 297.947C280.149 298.651 282.508 299.355 282.698 299.355C282.324 300.705 282.04 302.078 281.846 303.466C281.726 304.276 281.635 305.092 281.557 305.916C281.557 305.536 281.515 305.212 281.508 305.149C281.29 303.825 280.1 301.389 278.608 301.171C278.36 301.14 278.109 301.162 277.87 301.235C277.631 301.308 277.411 301.431 277.223 301.595C277.035 301.759 276.883 301.961 276.779 302.188C276.674 302.414 276.618 302.66 276.615 302.91C276.566 303.966 277.369 305.022 278.136 305.641C279.163 306.277 280.281 306.752 281.452 307.049C281.452 307.359 281.388 307.676 281.367 307.993C281.234 309.506 281.114 311.013 280.945 312.491C280.889 313.012 280.811 313.526 280.734 314.033C280.734 313.695 280.734 313.414 280.734 313.371C280.515 312.048 279.326 309.619 277.833 309.394C277.586 309.363 277.334 309.385 277.095 309.458C276.857 309.531 276.636 309.654 276.448 309.818C276.26 309.982 276.109 310.184 276.004 310.41C275.9 310.637 275.844 310.883 275.841 311.133C275.707 312.146 276.51 313.181 277.277 313.822Z" fill="#263238"/>
<path d="M316.595 301.347C315.405 300.425 312.822 301.241 311.717 302.002C311.618 302.065 310.238 303.262 310.266 303.276C309.858 303.396 309.422 303.536 308.943 303.698C308.07 304.008 307.084 304.36 306.042 304.818C304.909 305.294 303.806 305.839 302.741 306.451C301.54 307.126 300.402 307.905 299.34 308.781L299.305 308.817C299.537 308.443 300.171 307.409 300.206 307.303C300.755 306.078 301.1 303.389 299.981 302.375C299.791 302.213 299.57 302.093 299.33 302.023C299.091 301.952 298.84 301.933 298.593 301.966C298.346 301.999 298.108 302.084 297.896 302.215C297.684 302.346 297.502 302.521 297.362 302.727C296.735 303.579 296.834 304.881 297.116 305.846C297.447 306.93 299.052 308.774 299.185 308.922C298.124 309.836 297.129 310.824 296.207 311.879C295.658 312.491 295.13 313.118 294.609 313.759C294.807 313.435 294.975 313.139 294.997 313.097C295.546 311.872 295.891 309.183 294.771 308.169C294.582 308.007 294.36 307.887 294.121 307.816C293.882 307.746 293.63 307.727 293.383 307.76C293.136 307.793 292.899 307.878 292.687 308.009C292.475 308.14 292.293 308.315 292.152 308.521C291.526 309.373 291.624 310.682 291.913 311.64C292.419 312.733 293.091 313.743 293.905 314.632L293.314 315.336C292.371 316.532 291.434 317.722 290.498 318.856C290.167 319.257 289.794 319.644 289.477 320.024L289.808 319.447C290.357 318.229 290.702 315.54 289.583 314.519C289.393 314.357 289.172 314.237 288.932 314.167C288.693 314.096 288.442 314.077 288.195 314.11C287.948 314.143 287.71 314.228 287.498 314.359C287.286 314.49 287.104 314.665 286.964 314.871C286.337 315.723 286.436 317.025 286.725 317.99C287.195 319.098 287.842 320.122 288.639 321.024L287.935 321.784L288.555 322.157C288.984 321.714 289.4 321.249 289.815 320.749C290.531 321.711 291.39 322.556 292.364 323.256C292.825 323.538 293.343 323.715 293.881 323.776C294.418 323.837 294.962 323.779 295.475 323.608C295.704 323.509 295.91 323.363 296.078 323.179C296.247 322.995 296.375 322.778 296.454 322.542C296.533 322.305 296.561 322.055 296.537 321.806C296.513 321.558 296.436 321.318 296.313 321.101C295.532 319.813 292.793 319.644 291.526 319.954C291.441 319.954 290.533 320.299 290.033 320.489C290.364 320.095 290.702 319.707 291.026 319.299C291.962 318.13 292.878 316.913 293.793 315.702L294.638 314.603C294.764 314.765 296.271 316.715 297.271 317.208C297.731 317.489 298.248 317.665 298.784 317.726C299.32 317.787 299.863 317.73 300.375 317.56C300.604 317.461 300.809 317.315 300.978 317.132C301.147 316.948 301.275 316.731 301.354 316.494C301.433 316.258 301.461 316.007 301.437 315.759C301.413 315.511 301.336 315.271 301.213 315.054C300.438 313.766 297.735 313.59 296.426 313.899C296.327 313.899 295.018 314.399 294.694 314.533C295.313 313.723 295.94 312.928 296.595 312.161C297.466 311.122 298.407 310.144 299.411 309.232C299.467 309.309 301.023 311.344 302.051 311.858C302.938 312.322 304.198 312.667 305.155 312.21C305.385 312.112 305.591 311.966 305.76 311.783C305.93 311.599 306.058 311.382 306.138 311.146C306.218 310.909 306.247 310.658 306.223 310.41C306.199 310.161 306.123 309.921 306 309.704C305.219 308.415 302.515 308.246 301.213 308.549C301.107 308.549 299.699 309.084 299.446 309.197L299.622 309.028C300.65 308.141 301.755 307.347 302.924 306.655C303.564 306.261 304.198 305.951 304.824 305.613C305.078 306.015 306.232 307.852 307.119 308.429C308.006 309.007 309.168 309.464 310.168 309.133C310.406 309.06 310.626 308.937 310.814 308.773C311.002 308.608 311.153 308.407 311.258 308.18C311.363 307.954 311.419 307.708 311.423 307.459C311.427 307.209 311.378 306.962 311.28 306.733C310.646 305.367 307.978 304.902 306.648 305.064C306.57 305.064 305.845 305.247 305.317 305.381C305.606 305.24 305.894 305.092 306.169 304.966C307.204 304.487 308.175 304.114 309.041 303.79L310.407 303.318C311.433 303.964 312.551 304.451 313.723 304.761C314.255 304.858 314.802 304.837 315.325 304.699C315.848 304.562 316.334 304.312 316.75 303.966C316.924 303.79 317.058 303.579 317.145 303.348C317.232 303.116 317.269 302.869 317.255 302.622C317.24 302.375 317.174 302.134 317.06 301.915C316.947 301.695 316.788 301.502 316.595 301.347Z" fill="#263238"/>
<path d="M280.699 327.473L281.509 327.972L282.009 327.606L282.199 327.466L280.699 327.473Z" fill="#263238"/>
<path d="M47.4569 280.896C47.2479 281.032 47.0697 281.21 46.9339 281.419C46.7981 281.628 46.7077 281.863 46.6686 282.109C46.6294 282.356 46.6424 282.607 46.7066 282.848C46.7709 283.089 46.8849 283.314 47.0415 283.508C47.5447 284.09 48.2483 284.462 49.0127 284.55L50.5263 281.093C49.4632 280.614 48.2383 280.389 47.4569 280.896Z" fill="#263238"/>
<path d="M54.4613 276.355C53.9852 276.711 53.647 277.221 53.5039 277.798L56.158 276.313C55.8966 276.17 55.602 276.098 55.304 276.106C55.006 276.113 54.7153 276.199 54.4613 276.355Z" fill="#263238"/>
<path d="M54.9116 251.194C55.8127 251.955 58.3541 252.645 58.3541 252.645C58.3541 252.645 58.3048 250.828 58.2837 250.716C58.0725 249.392 56.8757 246.956 55.4044 246.724C55.1565 246.691 54.9045 246.711 54.665 246.783C54.4255 246.854 54.204 246.976 54.015 247.14C53.826 247.304 53.6739 247.506 53.5688 247.732C53.4636 247.959 53.4078 248.206 53.405 248.456C53.3768 249.512 54.2076 250.547 54.9116 251.194Z" fill="#263238"/>
<path d="M36.3754 259.177C36.3754 259.177 35.3265 257.692 35.249 257.608C34.3479 256.622 32.0106 255.242 30.6449 255.869C30.4213 255.98 30.2237 256.136 30.0649 256.329C29.9061 256.521 29.7897 256.745 29.7232 256.986C29.6568 257.226 29.6418 257.478 29.6793 257.725C29.7168 257.971 29.8059 258.207 29.9409 258.417C30.4759 259.332 31.7079 259.755 32.7076 259.874C33.8692 260.008 36.3754 259.184 36.3754 259.177Z" fill="#263238"/>
<path d="M35.0519 253.56C35.1223 253.982 35.1998 254.432 35.2913 254.925C35.4743 255.833 35.6855 256.854 35.9953 257.952C36.3089 259.148 36.6945 260.323 37.1499 261.472C37.6525 262.754 38.2674 263.988 38.9873 265.161V265.204C38.6564 264.922 37.6919 264.148 37.5793 264.098C36.4459 263.394 33.827 262.69 32.6513 263.634C32.4649 263.8 32.3157 264.004 32.2135 264.232C32.1114 264.46 32.0586 264.707 32.0586 264.957C32.0586 265.207 32.1114 265.454 32.2135 265.682C32.3157 265.91 32.4649 266.114 32.6513 266.281C33.4116 267.02 34.714 267.104 35.7067 266.985C36.826 266.816 38.8747 265.471 39.0366 265.366C39.8042 266.54 40.6461 267.664 41.5569 268.731C42.0849 269.35 42.634 269.963 43.1972 270.568L42.5918 270.089C41.4583 269.385 38.8395 268.681 37.6638 269.632C37.4783 269.799 37.33 270.003 37.2285 270.231C37.127 270.459 37.0746 270.706 37.0746 270.955C37.0746 271.205 37.127 271.452 37.2285 271.68C37.33 271.908 37.4783 272.112 37.6638 272.279C38.0936 272.606 38.5898 272.835 39.1175 272.951C39.6453 273.066 40.1919 273.065 40.7191 272.948C41.8734 272.596 42.9677 272.072 43.9646 271.392C44.1828 271.617 44.394 271.849 44.6123 272.096C45.6612 273.194 46.7243 274.285 47.7099 275.391C48.0619 275.778 48.4139 276.172 48.7307 276.566L48.2027 276.158C47.0692 275.454 44.4503 274.75 43.2747 275.693C43.0892 275.86 42.9409 276.064 42.8394 276.292C42.7379 276.52 42.6855 276.767 42.6855 277.017C42.6855 277.266 42.7379 277.513 42.8394 277.741C42.9409 277.969 43.0892 278.173 43.2747 278.34C44.035 279.08 45.3444 279.164 46.33 279.044C47.4551 278.708 48.5213 278.2 49.491 277.538C49.8219 277.946 50.1527 278.361 50.4555 278.784C50.6526 279.072 50.8638 279.333 51.0468 279.636V279.678L51.3143 279.072L51.4692 278.981L51.0116 278.361C50.5047 277.693 49.9627 277.038 49.3995 276.397C50.443 275.819 51.3925 275.086 52.2155 274.222C52.5583 273.803 52.8058 273.315 52.9408 272.791C53.0758 272.267 53.0949 271.72 52.9969 271.188C52.9305 270.947 52.8142 270.724 52.6556 270.532C52.4971 270.339 52.2998 270.183 52.0766 270.072C51.8534 269.961 51.6094 269.898 51.3604 269.888C51.1114 269.878 50.863 269.92 50.6315 270.012C49.2235 270.603 48.7025 273.257 48.8292 274.588C48.8292 274.672 49.0334 275.623 49.1531 276.144C48.8081 275.757 48.4491 275.369 48.1182 274.989C47.0833 273.898 46.0062 272.828 44.9361 271.751L43.9646 270.765C44.1406 270.66 46.2526 269.442 46.9073 268.52C47.2942 268.108 47.5822 267.614 47.7493 267.075C47.9165 266.536 47.9583 265.966 47.8718 265.408C47.8052 265.168 47.6889 264.944 47.5304 264.752C47.372 264.559 47.1749 264.402 46.952 264.291C46.729 264.179 46.4851 264.116 46.2361 264.104C45.9871 264.093 45.7385 264.134 45.5063 264.225C44.0983 264.816 43.5774 267.471 43.7041 268.808C43.7041 268.907 43.9927 270.272 44.0843 270.617C43.3803 269.913 42.6763 269.153 41.9723 268.407C41.0674 267.398 40.2302 266.33 39.466 265.211C39.5505 265.161 41.7611 263.894 42.4299 262.958C42.7726 262.541 43.02 262.054 43.155 261.531C43.29 261.008 43.3092 260.462 43.2113 259.931C43.1482 259.686 43.0338 259.458 42.8757 259.261C42.7177 259.064 42.5196 258.903 42.2946 258.789C42.0696 258.674 41.8228 258.609 41.5706 258.597C41.3184 258.585 41.0666 258.627 40.8318 258.72C39.4238 259.311 38.9028 261.965 39.0295 263.303C39.0295 263.408 39.3463 264.873 39.4167 265.133L39.2759 264.943C38.5409 263.799 37.9072 262.593 37.3822 261.339C37.0865 260.635 36.8401 259.973 36.6148 259.311C37.7453 258.85 38.7974 258.215 39.7335 257.432C40.1182 257.054 40.4158 256.597 40.6055 256.092C40.7952 255.587 40.8724 255.047 40.8318 254.51C40.7887 254.266 40.6951 254.034 40.5571 253.828C40.4191 253.622 40.2397 253.447 40.0303 253.315C39.821 253.182 39.5862 253.095 39.3412 253.058C39.0961 253.022 38.8461 253.036 38.6071 253.102C37.1991 253.538 36.3403 256.115 36.3121 257.46C36.3121 257.53 36.3825 258.276 36.4388 258.818C36.3473 258.516 36.2417 258.206 36.1502 257.917C35.8193 256.833 35.587 255.805 35.3899 254.911C35.2772 254.397 35.1857 253.933 35.1083 253.503C35.893 252.577 36.5294 251.534 36.995 250.413C37.166 249.9 37.2225 249.357 37.1605 248.82C37.0984 248.284 36.9194 247.768 36.6359 247.308C36.4876 247.107 36.2986 246.94 36.0812 246.817C35.8638 246.695 35.623 246.619 35.3745 246.596C35.126 246.573 34.8754 246.602 34.6391 246.682C34.4027 246.763 34.186 246.892 34.003 247.062C32.9259 248.111 33.3694 250.779 34.003 251.99C34.0452 252.032 35.0379 253.581 35.0519 253.56Z" fill="#263238"/>
<path d="M53.638 258.776C54.6658 259.248 57.1157 259.262 57.3128 259.269C57.2976 260.681 57.3776 262.092 57.5522 263.493C57.6507 264.303 57.7775 265.119 57.9112 265.929C57.7916 265.57 57.686 265.225 57.6648 265.225C57.1157 264 55.3275 261.965 53.8351 262.134C53.5879 262.169 53.3508 262.256 53.1392 262.388C52.9276 262.521 52.7462 262.696 52.6068 262.903C52.4674 263.11 52.3731 263.345 52.33 263.59C52.2869 263.836 52.296 264.089 52.3567 264.331C52.582 265.366 53.6239 266.154 54.5391 266.577C55.6939 266.924 56.8956 267.09 58.1013 267.069C58.1576 267.379 58.2069 267.689 58.2632 267.999C58.5308 269.498 58.8053 270.984 59.0306 272.455C59.108 272.976 59.1643 273.49 59.2277 274.004L59.0165 273.37C58.4604 272.145 56.6722 270.111 55.1797 270.28C54.9357 270.315 54.7017 270.401 54.4927 270.531C54.2837 270.662 54.1042 270.835 53.9658 271.039C53.8273 271.243 53.7329 271.474 53.6886 271.716C53.6443 271.959 53.651 272.208 53.7083 272.448C53.9336 273.483 54.9755 274.271 55.8837 274.694C56.6583 274.966 57.4706 275.115 58.2914 275.137L59.9317 274.215L61.2271 273.511L64.7682 269.632C64.688 269.602 64.6057 269.578 64.5218 269.561C63.0434 269.294 61.1215 271.202 60.4879 272.377C60.4879 272.455 60.0936 273.356 59.9035 273.849C59.8331 273.342 59.7628 272.835 59.6712 272.321C59.4178 270.843 59.108 269.357 58.8123 267.865C58.7138 267.414 58.6293 266.957 58.5448 266.499C58.749 266.499 61.1848 266.661 62.2338 266.26C63.1701 265.901 64.2683 265.183 64.557 264.148C64.6297 263.91 64.6518 263.661 64.6218 263.414C64.5919 263.168 64.5106 262.93 64.3832 262.718C64.2558 262.505 64.0852 262.321 63.8823 262.178C63.6794 262.035 63.4488 261.936 63.2053 261.888C61.7269 261.62 59.812 263.528 59.1784 264.704C59.1291 264.795 58.6152 266.112 58.4744 266.429C58.2843 265.422 58.1013 264.422 57.9605 263.43C57.7614 262.089 57.6509 260.737 57.6296 259.382C57.7282 259.382 60.2696 259.551 61.3467 259.142C61.8644 258.981 62.3405 258.708 62.7418 258.343C63.1431 257.978 63.4598 257.53 63.67 257.03C63.7475 256.793 63.7741 256.542 63.7482 256.294C63.7222 256.046 63.6443 255.807 63.5194 255.591C63.3945 255.375 63.2255 255.188 63.0234 255.041C62.8213 254.895 62.5906 254.793 62.3464 254.742C60.868 254.468 58.9461 256.383 58.3125 257.558C58.2632 257.65 57.7141 259.044 57.6085 259.304C57.6085 259.227 57.6085 259.142 57.6085 259.065C57.6295 257.706 57.7661 256.352 58.0168 255.017C58.1506 254.278 58.3195 253.609 58.4955 252.905C58.9672 252.982 61.1215 253.32 62.1282 253.053C63.1349 252.785 64.2402 252.208 64.6696 251.229C64.772 251.002 64.8255 250.756 64.8267 250.506C64.8278 250.257 64.7767 250.01 64.6765 249.782C64.5763 249.554 64.4293 249.349 64.245 249.181C64.0607 249.013 63.8432 248.886 63.6066 248.808C62.1986 248.378 60.0866 250.068 59.2911 251.173C59.2488 251.229 58.8968 251.877 58.6434 252.37C58.7279 252.067 58.8124 251.75 58.8968 251.462C59.2277 250.378 59.6008 249.399 59.9176 248.533C60.1147 248.047 60.2978 247.611 60.4667 247.202C60.9736 247.034 62.9871 246.358 63.7474 245.668C64.5077 244.978 65.254 243.929 65.1554 242.852C65.1418 242.602 65.0759 242.359 64.962 242.136C64.8481 241.914 64.6887 241.718 64.4942 241.561C64.2997 241.405 64.0744 241.291 63.8329 241.227C63.5914 241.163 63.3392 241.15 63.0927 241.19C61.6143 241.472 60.516 243.95 60.3471 245.281C60.3471 245.4 60.3471 247.224 60.3471 247.217C60.1711 247.611 59.988 248.026 59.7909 248.491C59.4459 249.35 59.0869 250.321 58.7067 251.405C58.3179 252.571 57.9959 253.758 57.7423 254.961C57.4765 256.316 57.3305 257.691 57.3058 259.072V259.121C57.1861 258.699 56.8059 257.523 56.7707 257.439C56.2146 256.214 54.4264 254.179 52.934 254.348C52.6869 254.383 52.4499 254.469 52.2386 254.602C52.0272 254.735 51.8462 254.91 51.7074 255.117C51.5685 255.325 51.4749 255.559 51.4328 255.805C51.3906 256.051 51.4007 256.303 51.4626 256.545C51.6879 257.565 52.7298 258.368 53.638 258.776Z" fill="#263238"/>
<path d="M155.739 274.391C155.492 274.426 155.255 274.512 155.043 274.645C154.832 274.777 154.651 274.953 154.512 275.16C154.373 275.368 154.28 275.602 154.237 275.848C154.195 276.094 154.205 276.346 154.267 276.587C154.443 277.098 154.729 277.564 155.105 277.952C155.481 278.34 155.938 278.641 156.443 278.833C157.135 279.082 157.862 279.225 158.597 279.256L159.223 278.509L159.575 277.489C159.019 276.257 157.231 274.222 155.739 274.391Z" fill="#263238"/>
<path d="M148.015 285.028C147.806 285.164 147.628 285.342 147.493 285.551C147.357 285.76 147.266 285.996 147.227 286.242C147.188 286.488 147.201 286.74 147.265 286.981C147.329 287.221 147.444 287.446 147.6 287.64C148.234 288.492 149.515 288.766 150.515 288.766C151.169 288.719 151.812 288.571 152.422 288.33L152.831 286.274L152.789 286.232C151.775 285.352 149.297 284.254 148.015 285.028Z" fill="#263238"/>
<path d="M155.02 280.523C153.873 281.227 153.647 283.494 153.851 284.888L157.224 280.882C156.958 280.572 156.591 280.366 156.187 280.3C155.784 280.234 155.371 280.313 155.02 280.523Z" fill="#263238"/>
<path d="M144.624 275.489C144.842 275.715 145.053 275.947 145.272 276.193C146.321 277.292 147.384 278.383 148.369 279.488C148.721 279.875 149.073 280.27 149.39 280.664L148.862 280.256C147.729 279.552 145.11 278.848 143.934 279.791C143.749 279.958 143.6 280.162 143.499 280.39C143.397 280.618 143.345 280.865 143.345 281.114C143.345 281.364 143.397 281.611 143.499 281.839C143.6 282.067 143.749 282.271 143.934 282.438C144.694 283.177 146.004 283.262 146.989 283.142C148.114 282.806 149.181 282.298 150.15 281.635C150.481 282.051 150.812 282.459 151.115 282.881C151.312 283.17 151.523 283.431 151.706 283.733L152.262 284.606C152.516 285.043 152.776 285.479 153.023 285.909L153.565 285.268C153.354 284.916 153.135 284.564 152.903 284.191L152.326 283.325C152.143 283.036 151.91 282.748 151.699 282.459C151.192 281.755 150.65 281.136 150.087 280.495C151.131 279.917 152.08 279.183 152.903 278.32C153.246 277.901 153.493 277.413 153.628 276.889C153.763 276.365 153.782 275.817 153.684 275.285C153.622 275.046 153.51 274.823 153.357 274.63C153.203 274.437 153.011 274.278 152.792 274.163C152.573 274.048 152.333 273.981 152.087 273.964C151.84 273.948 151.593 273.983 151.361 274.067C149.953 274.659 149.432 277.313 149.559 278.643C149.559 278.728 149.763 279.678 149.883 280.199C149.538 279.812 149.179 279.425 148.848 279.052C147.813 277.96 146.736 276.883 145.666 275.806L144.694 274.821C144.87 274.715 146.982 273.497 147.637 272.575C147.98 272.158 148.228 271.671 148.363 271.148C148.498 270.625 148.517 270.079 148.419 269.548C148.352 269.307 148.236 269.084 148.077 268.891C147.919 268.699 147.722 268.542 147.499 268.43C147.276 268.319 147.032 268.256 146.783 268.244C146.534 268.233 146.285 268.274 146.053 268.365C144.645 268.956 144.124 271.61 144.251 272.948C144.251 273.047 144.539 274.412 144.631 274.757C143.927 274.053 143.223 273.293 142.519 272.547C141.614 271.538 140.777 270.47 140.013 269.351C140.097 269.301 142.308 268.034 142.977 267.098C143.319 266.68 143.567 266.193 143.702 265.67C143.837 265.148 143.856 264.602 143.758 264.071C143.691 263.83 143.575 263.607 143.417 263.414C143.258 263.222 143.061 263.065 142.838 262.953C142.615 262.842 142.371 262.778 142.122 262.767C141.873 262.756 141.625 262.797 141.393 262.888C139.985 263.479 139.464 266.133 139.59 267.471C139.59 267.576 139.907 269.041 139.978 269.301L139.837 269.111C139.102 267.967 138.468 266.761 137.943 265.507C137.647 264.803 137.401 264.141 137.176 263.479C138.305 263.018 139.356 262.386 140.294 261.607C140.963 260.853 141.604 259.72 141.4 258.678C141.357 258.434 141.263 258.202 141.125 257.996C140.987 257.79 140.808 257.615 140.598 257.483C140.389 257.35 140.154 257.263 139.909 257.226C139.664 257.19 139.414 257.204 139.175 257.27C137.767 257.706 136.908 260.29 136.88 261.628C136.88 261.698 136.95 262.444 137.007 262.986C136.915 262.684 136.81 262.374 136.718 262.085C136.387 261.001 136.155 259.973 135.958 259.079C135.845 258.565 135.754 258.101 135.676 257.671C136.461 256.745 137.097 255.702 137.563 254.581C137.734 254.068 137.79 253.525 137.728 252.988C137.666 252.452 137.487 251.936 137.204 251.476C137.055 251.275 136.866 251.108 136.649 250.985C136.432 250.863 136.191 250.787 135.942 250.764C135.694 250.741 135.443 250.77 135.207 250.85C134.971 250.931 134.754 251.06 134.571 251.23C133.494 252.279 133.937 254.954 134.571 256.158C134.627 256.263 135.62 257.791 135.634 257.77C135.704 258.192 135.782 258.643 135.873 259.135C136.056 260.044 136.267 261.064 136.577 262.163C136.891 263.358 137.276 264.534 137.732 265.683C138.236 266.966 138.851 268.202 139.569 269.379C139.572 269.39 139.572 269.402 139.569 269.414C139.238 269.132 138.274 268.358 138.196 268.309C137.063 267.605 134.444 266.901 133.268 267.851C133.083 268.017 132.935 268.221 132.834 268.448C132.732 268.676 132.68 268.922 132.68 269.171C132.68 269.42 132.732 269.666 132.834 269.894C132.935 270.121 133.083 270.325 133.268 270.491C134.029 271.237 135.331 271.315 136.324 271.195C137.443 271.026 139.492 269.681 139.654 269.576C140.421 270.75 141.263 271.874 142.174 272.941C142.702 273.56 143.251 274.173 143.814 274.778L143.209 274.3C142.075 273.596 139.457 272.892 138.281 273.842C138.094 274.008 137.945 274.212 137.843 274.44C137.741 274.669 137.688 274.916 137.688 275.166C137.688 275.415 137.741 275.663 137.843 275.891C137.945 276.119 138.094 276.323 138.281 276.489C139.034 277.228 140.344 277.313 141.329 277.158C142.507 276.776 143.619 276.213 144.624 275.489Z" fill="#263238"/>
<path d="M155.5 255.362C156.401 256.122 158.942 256.812 158.942 256.812C158.942 256.812 158.893 254.996 158.872 254.883C158.661 253.559 157.464 251.124 155.992 250.891C155.745 250.86 155.493 250.881 155.254 250.953C155.015 251.025 154.794 251.147 154.605 251.31C154.417 251.474 154.265 251.675 154.159 251.901C154.054 252.128 153.997 252.374 153.993 252.623C153.937 253.679 154.732 254.714 155.5 255.362Z" fill="#263238"/>
<path d="M136.935 263.352C136.935 263.352 135.886 261.86 135.809 261.775C134.907 260.79 132.57 259.41 131.204 260.036C130.981 260.147 130.783 260.304 130.624 260.497C130.466 260.689 130.349 260.913 130.283 261.153C130.216 261.394 130.201 261.646 130.239 261.892C130.276 262.139 130.366 262.375 130.5 262.585C131.035 263.5 132.267 263.922 133.267 264.042C134.464 264.176 136.935 263.352 136.935 263.352Z" fill="#263238"/>
<path d="M154.176 262.944C155.204 263.416 157.653 263.437 157.851 263.437C157.837 264.837 157.917 266.236 158.09 267.626C158.188 268.435 158.315 269.252 158.449 270.068C158.329 269.702 158.224 269.364 158.203 269.364C157.653 268.139 155.865 266.105 154.373 266.274C154.126 266.309 153.889 266.395 153.677 266.528C153.465 266.66 153.284 266.836 153.145 267.043C153.005 267.25 152.911 267.484 152.868 267.73C152.825 267.976 152.834 268.228 152.894 268.47C153.12 269.505 154.162 270.294 155.077 270.716C156.232 271.063 157.433 271.229 158.639 271.209C158.695 271.519 158.745 271.828 158.801 272.138C159.069 273.638 159.343 275.13 159.568 276.595C159.568 276.813 159.618 277.031 159.646 277.249L160.089 275.982C159.85 274.673 159.582 273.356 159.322 272.04C159.23 271.589 159.139 271.131 159.054 270.681C160.014 270.738 160.977 270.717 161.934 270.618L163.173 267.034L164.151 266.182C164.022 266.119 163.885 266.074 163.743 266.049C162.265 265.781 160.35 267.689 159.716 268.865C159.667 268.956 159.153 270.273 159.012 270.589C158.822 269.583 158.639 268.583 158.498 267.59C158.299 266.25 158.189 264.897 158.167 263.542C158.266 263.542 160.807 263.711 161.884 263.303C162.402 263.141 162.878 262.869 163.28 262.504C163.681 262.139 163.998 261.691 164.208 261.191C164.285 260.954 164.312 260.703 164.286 260.455C164.26 260.207 164.182 259.967 164.057 259.751C163.932 259.535 163.763 259.348 163.561 259.202C163.359 259.056 163.128 258.954 162.884 258.903C161.406 258.628 159.484 260.543 158.85 261.719C158.801 261.811 158.252 263.204 158.146 263.465C158.146 263.387 158.146 263.31 158.146 263.226C158.167 261.867 158.304 260.513 158.555 259.178C158.688 258.474 158.857 257.77 159.033 257.066C159.505 257.143 161.659 257.481 162.666 257.213C163.673 256.946 164.778 256.369 165.207 255.39C165.31 255.163 165.363 254.916 165.364 254.667C165.366 254.418 165.314 254.171 165.214 253.943C165.114 253.715 164.967 253.51 164.783 253.342C164.598 253.174 164.381 253.047 164.144 252.968C162.736 252.539 160.624 254.228 159.829 255.334C159.787 255.39 159.435 256.038 159.181 256.53C159.266 256.228 159.35 255.911 159.435 255.622C159.765 254.538 160.139 253.56 160.455 252.694C160.652 252.208 160.836 251.771 161.004 251.363C161.511 251.194 163.525 250.518 164.285 249.828C165.045 249.138 165.792 248.09 165.693 247.012C165.68 246.763 165.614 246.519 165.5 246.297C165.386 246.075 165.226 245.879 165.032 245.722C164.837 245.565 164.612 245.451 164.371 245.387C164.129 245.324 163.877 245.311 163.63 245.351C162.152 245.633 161.054 248.111 160.892 249.441C160.892 249.561 160.857 251.384 160.892 251.377C160.716 251.771 160.533 252.187 160.343 252.651C159.991 253.51 159.604 254.482 159.252 255.566C158.863 256.732 158.541 257.919 158.287 259.121C158.001 260.47 157.834 261.841 157.787 263.219V263.296C157.668 262.874 157.287 261.698 157.252 261.613C156.696 260.388 154.908 258.354 153.415 258.523C153.168 258.558 152.931 258.644 152.72 258.777C152.509 258.909 152.328 259.085 152.189 259.292C152.05 259.499 151.956 259.734 151.914 259.98C151.872 260.226 151.882 260.478 151.944 260.719C152.247 261.733 153.289 262.522 154.176 262.944Z" fill="#263238"/>
<path d="M260.932 201.457L258.123 197.972L260.65 195.979L262.347 198.099L261.77 199.443L262.248 200.513L261.256 201.224" fill="white"/>
<path d="M260.932 201.457L258.123 197.972L260.65 195.979L262.347 198.099L261.77 199.443L262.248 200.513L261.256 201.224" stroke="#263238" stroke-linecap="round" stroke-linejoin="round"/>
<path d="M283.713 207.504C283.713 207.504 281.791 205.786 281.073 205.899C280.355 206.012 270.935 207.589 270.935 207.589L262.269 200.513L260.945 201.457L269.238 211.862L278.25 211.299L276.314 221.155L268.112 227.392L281.488 235.383L284.184 226.878L294.836 216.389L290.696 211.2L283.713 207.504Z" fill="black" stroke="#263238" stroke-linecap="round" stroke-linejoin="round"/>
<path d="M286.458 205.23L284.944 208.412L284.388 207.905L283.325 215.642L290.703 211.172L289.964 210.003L290.133 207.588L286.458 205.23Z" fill="white" stroke="#263238" stroke-linecap="round" stroke-linejoin="round"/>
<path d="M283.325 215.642L287.641 213.023L284.036 210.489L283.325 215.642Z" fill="white" stroke="#263238" stroke-linecap="round" stroke-linejoin="round"/>
<path d="M294.976 197.648C294.976 197.648 298.235 193.832 301.551 196.24C304.867 198.648 303.952 200.999 306.317 199.711C308.683 198.422 313.125 195.149 315.8 199.317C318.475 203.484 316.413 207.849 314.73 208.849C313.047 209.848 313.491 207.941 313.526 207.018C313.561 206.096 310.802 204.906 310.189 206.807C309.577 208.708 306.359 211.637 302.276 211.362C298.193 211.087 297.405 206.068 297.496 203.118C297.49 202.233 297.254 201.364 296.811 200.598C296.368 199.831 295.733 199.193 294.969 198.746L294.976 197.648Z" fill="#263238" stroke="#263238" stroke-linecap="round" stroke-linejoin="round"/>
<path d="M287.162 196.859C287.162 196.859 285.12 201.407 285.543 204.089C285.965 206.772 285.74 208.834 287.106 209.355C288.472 209.876 292.998 207.138 293.998 205.329C294.998 203.519 296.427 200.907 296.033 198.401C295.638 195.895 290.837 192.248 287.162 196.859Z" fill="white" stroke="#263238" stroke-linecap="round" stroke-linejoin="round"/>
<path d="M287.936 201.632C287.83 201.984 287.605 202.224 287.429 202.168C287.253 202.111 287.197 201.787 287.302 201.463C287.408 201.14 287.633 200.872 287.809 200.928C287.985 200.985 288.013 201.28 287.936 201.632Z" fill="#263238"/>
<path d="M291.188 202.984C291.082 203.336 290.85 203.583 290.674 203.526C290.498 203.47 290.442 203.146 290.547 202.822C290.653 202.499 290.885 202.231 291.061 202.28C291.237 202.33 291.294 202.632 291.188 202.984Z" fill="#263238"/>
<path d="M288.76 202.217C288.76 202.217 288.971 202.372 288.675 202.921C288.38 203.47 287.669 203.273 287.746 203.745C287.824 204.216 288.718 204.449 288.718 204.449" stroke="#263238" stroke-linecap="round" stroke-linejoin="round"/>
<path d="M287.12 205.265C287.12 205.265 288.254 206.335 289.267 206.075" stroke="#263238" stroke-linecap="round" stroke-linejoin="round"/>
<path d="M292.259 201.858L290.154 201.323" stroke="#263238" stroke-linecap="round" stroke-linejoin="round"/>
<path d="M288.493 200.527L287.486 199.626" stroke="#263238" stroke-linecap="round" stroke-linejoin="round"/>
<path d="M287.162 196.859C287.162 196.859 286.859 197.563 286.507 198.528C287.697 197.908 289.745 197.211 291.618 198.366C293.491 199.521 294.434 202.175 294.814 203.801C295.61 202.189 296.321 200.281 296.032 198.401C295.638 195.895 290.836 192.248 287.162 196.859Z" fill="#263238" stroke="#263238" stroke-linecap="round" stroke-linejoin="round"/>
<path d="M294.328 203.73C294.328 203.73 295.792 202.386 295.736 203.611C295.679 204.836 293.997 205.561 293.624 205.617C293.251 205.673 293.279 205.202 293.279 205.202" fill="white"/>
<path d="M294.328 203.73C294.328 203.73 295.792 202.386 295.736 203.611C295.679 204.836 293.997 205.561 293.624 205.617C293.251 205.673 293.279 205.202 293.279 205.202" stroke="#263238" stroke-linecap="round" stroke-linejoin="round"/>
<path d="M294.829 216.396L292.576 232.454C292.527 232.796 292.359 233.109 292.101 233.34C291.844 233.57 291.514 233.703 291.168 233.714H290.683C290.308 233.728 289.942 233.598 289.661 233.35C289.379 233.103 289.203 232.757 289.169 232.383L288.289 222.724L294.829 216.396Z" fill="black" stroke="#263238" stroke-linecap="round" stroke-linejoin="round"/>
<path d="M290.753 230.25L283.523 223.872L281.903 225.231L288.845 233.263C288.997 233.427 289.184 233.555 289.393 233.635C289.601 233.716 289.826 233.748 290.049 233.728H290.619C290.837 233.719 291.051 233.661 291.245 233.559C291.438 233.457 291.606 233.313 291.737 233.138C291.868 232.962 291.958 232.76 292.001 232.545C292.044 232.331 292.038 232.11 291.985 231.897" fill="black"/>
<path d="M290.753 230.25L283.523 223.872L281.903 225.231L288.845 233.263C288.997 233.427 289.184 233.555 289.393 233.635C289.601 233.716 289.826 233.748 290.049 233.728H290.619C290.837 233.719 291.051 233.661 291.245 233.559C291.438 233.457 291.606 233.313 291.737 233.138C291.868 232.962 291.958 232.76 292.001 232.545C292.044 232.331 292.038 232.11 291.985 231.897V231.897" stroke="#263238" stroke-linecap="round" stroke-linejoin="round"/>
<path d="M283.522 223.865L281.825 221.155L278.01 220.732L278.031 223.006L279.861 224.534L281.023 224.696L281.903 225.224L283.522 223.865Z" fill="white" stroke="#263238" stroke-linecap="round" stroke-linejoin="round"/>
<path d="M263.092 232.32C263.092 232.32 255.123 242.69 255.559 244.408C255.996 246.125 267.64 264.31 267.64 264.31L269.259 263.239L262.86 243.26L275.722 238.142L263.092 232.32Z" fill="white" stroke="#263238" stroke-linecap="round" stroke-linejoin="round"/>
<path d="M269.513 236.164L270.456 240.31L274.715 238.677L269.513 236.164Z" fill="#263238" stroke="#263238" stroke-miterlimit="10"/>
<path d="M267.64 264.274L265.528 267.794C265.528 267.794 263.846 270.315 264.338 270.47C265.416 270.815 268.203 268.984 268.999 268.421C269.794 267.858 270.646 267.485 271.174 267.112C271.702 266.738 272.758 266.52 271.315 265.183C270.829 264.739 269.288 263.204 269.288 263.204L267.64 264.274Z" fill="white" stroke="#263238" stroke-linecap="round" stroke-linejoin="round"/>
<path d="M280.797 229.011C277.21 227.58 273.54 226.365 269.808 225.372C263.352 223.619 258.579 222.26 258.67 223.872C258.762 225.484 270.504 251.455 270.504 251.455L272.518 250.814L269.448 236.495C269.448 236.495 274.376 239.944 278.016 238.234C281.656 236.523 283.043 231.898 282.789 230.321" fill="#263238"/>
<path d="M280.797 229.011C277.21 227.58 273.54 226.365 269.808 225.372C263.352 223.619 258.579 222.26 258.67 223.872C258.762 225.484 270.504 251.455 270.504 251.455L272.518 250.814L269.448 236.495C269.448 236.495 274.376 239.944 278.016 238.234C281.656 236.523 283.043 231.898 282.789 230.321" stroke="#263238" stroke-linecap="round" stroke-linejoin="round"/>
<path d="M268.435 224.998C262.69 223.442 258.579 222.372 258.67 223.872C258.762 225.484 270.505 251.455 270.505 251.455L272.518 250.814L269.449 236.495C270.498 233.939 269.385 228.568 268.435 224.998Z" fill="white" stroke="#263238" stroke-linecap="round" stroke-linejoin="round"/>
<path d="M269.448 236.495L264.387 229.152" stroke="#263238" stroke-linecap="round" stroke-linejoin="round"/>
<path d="M270.505 251.455L268.618 255.01C268.618 255.01 264.81 258.699 265.655 258.889C266.499 259.079 273.659 256.003 274.194 255.271C274.729 254.538 272.519 250.814 272.519 250.814L270.505 251.455Z" fill="white" stroke="#263238" stroke-linecap="round" stroke-linejoin="round"/>
<path d="M261.748 199.739L279.503 220.88" stroke="#263238" stroke-miterlimit="10"/>
<path d="M207.117 134.267L259.22 196.613" stroke="#263238" stroke-miterlimit="10"/>
<path d="M281.023 224.688V327.472" stroke="#263238" stroke-miterlimit="10"/>
<path d="M111.463 196.127C111.463 196.127 115.209 218.043 111.139 224.991C107.07 231.94 96.8623 226.941 96.8623 226.941V326.769" stroke="#263238" stroke-miterlimit="10"/>
<path d="M88.9776 204.329C88.9776 204.329 92.2935 203.949 92.5469 204.716C92.686 205.345 92.686 205.996 92.5469 206.624C92.5469 206.624 94.4547 208.666 94.4547 210.067C94.4547 211.468 92.4202 212.108 92.4202 212.108L92.04 215.417L86.9431 215.67L86.3024 211.721C86.3024 211.721 84.3875 204.202 88.9776 204.329Z" fill="white" stroke="#263238" stroke-linecap="round" stroke-linejoin="round"/>
<path d="M89.9989 209.792L88.5909 207.751C89.0636 206.983 89.3258 206.104 89.3512 205.202C89.3512 203.794 89.2245 201.253 86.2959 201.253C83.3673 201.253 81.4524 203.548 80.8188 208.518C80.1852 213.488 83.1068 215.91 87.3167 215.016C91.5266 214.122 89.9989 209.792 89.9989 209.792Z" fill="#263238" stroke="#263238" stroke-linecap="round" stroke-linejoin="round"/>
<path d="M89.8721 208.919C89.8721 208.919 87.7038 208.666 87.8305 210.327C87.864 210.684 88.005 211.023 88.2348 211.298C88.4647 211.574 88.7726 211.773 89.118 211.87C89.4633 211.967 89.83 211.957 90.1695 211.841C90.509 211.725 90.8054 211.509 91.0197 211.221" fill="white"/>
<path d="M89.8721 208.919C89.8721 208.919 87.7038 208.666 87.8305 210.327C87.864 210.684 88.005 211.023 88.2348 211.298C88.4647 211.574 88.7726 211.773 89.118 211.87C89.4633 211.967 89.83 211.957 90.1695 211.841C90.509 211.725 90.8054 211.509 91.0197 211.221" stroke="#263238" stroke-linecap="round" stroke-linejoin="round"/>
<path d="M86.8519 216.917L82.1562 218.24C82.1562 218.24 81.7901 219.155 81.241 220.352C80.5018 221.979 78.4672 225.28 78.4672 225.28L69.0688 227.962L66.0487 237.699L65.3799 241.726L70.7444 239.036L71.0823 229.645L79.5303 228.343L83.1559 219.191L86.8519 216.917Z" fill="#263238" stroke="#263238" stroke-linecap="round" stroke-linejoin="round"/>
<path d="M94.3355 215.544C94.3355 215.544 90.6395 213.889 87.8376 214.27C85.0357 214.65 85.2892 216.058 85.2892 216.058L85.4159 217.966C85.4159 217.966 90.1115 216.565 94.3355 215.544Z" fill="black" stroke="#263238" stroke-linecap="round" stroke-linejoin="round"/>
<path d="M81.7119 224.851L84.3519 237.058C84.372 237.205 84.4268 237.344 84.5116 237.465C84.5965 237.586 84.709 237.685 84.8397 237.754C84.9705 237.823 85.1159 237.859 85.2636 237.861C85.4114 237.862 85.5574 237.828 85.6895 237.762L91.6524 234.784L81.7119 224.851Z" fill="black" stroke="#263238" stroke-linecap="round" stroke-linejoin="round"/>
<path d="M88.3453 231.349L86.9443 234.151" stroke="#263238" stroke-linecap="round" stroke-linejoin="round"/>
<path d="M100.7 243.711L108.395 256.439L107.374 273.652L111.07 273.525L114.766 252.996L109.366 238.614L100.7 243.711Z" fill="#263238" stroke="#263238" stroke-linecap="round" stroke-linejoin="round"/>
<path d="M85.4079 217.966C85.4079 217.966 81.7119 224.337 81.7119 224.851C81.7119 225.365 96.1158 239.248 96.1158 239.248L107.077 231.982L100.192 220.014L110.104 210.285L110.865 197.156L109.083 197.029L105.894 206.589L95.3343 214.91L85.4079 217.966Z" fill="black" stroke="#263238" stroke-linecap="round" stroke-linejoin="round"/>
<path d="M109.084 197.029L109.211 194.1L112.393 191.678L112.653 192.312V194.227L112.78 195.754L110.865 197.155L109.084 197.029Z" fill="white" stroke="#263238" stroke-linecap="round" stroke-linejoin="round"/>
<path d="M96.1162 239.248C96.1162 239.248 98.538 243.324 100.34 244.598C102.142 245.872 107.711 241.923 109.119 240.768C110.527 239.614 115.877 232.743 115.877 232.743L120.848 253.919L123.91 252.645C123.91 252.645 122.115 224.485 121.228 223.696C120.341 222.908 106.571 231.849 106.571 231.849L96.1162 239.248Z" fill="#263238" stroke="#263238" stroke-linecap="round" stroke-linejoin="round"/>
<path d="M123.904 252.652H128.234C129.001 252.652 130.909 251.504 131.05 252.398C131.19 253.292 127.354 255.707 125.819 256.474C124.345 257.046 122.805 257.432 121.236 257.622L120.849 253.926L123.904 252.652Z" fill="white" stroke="#263238" stroke-linecap="round" stroke-linejoin="round"/>
<path d="M111.069 273.525L113.238 277.475C113.238 277.475 115.913 278.622 115.913 279.136C115.913 279.65 111.583 279.389 111.196 279.389C110.809 279.389 106.486 275.165 106.486 275.165L107.373 273.631L111.069 273.525Z" fill="white" stroke="#263238" stroke-linecap="round" stroke-linejoin="round"/>
<path d="M112.394 191.678L153.993 134.64" stroke="#263238" stroke-miterlimit="10"/>
<path d="M8.44824 327.501H342.144" stroke="#263238" stroke-linecap="round" stroke-linejoin="round"/>
</svg>
