<svg width="336" height="298" viewBox="0 0 336 298" fill="none" xmlns="http://www.w3.org/2000/svg">
<path d="M156.547 154.974C149.165 155.466 141.989 152.309 139.323 150.669H138.093L136.862 157.433V164.813L139.938 172.808C139.938 172.808 142.399 175.883 143.014 175.883C143.629 175.883 134.402 194.947 134.402 194.947V229.385L132.557 245.99L135.017 252.754C132.762 252.139 131.696 252.016 145.474 256.444C159.253 260.872 165.568 247.22 167.004 239.84C167.619 231.64 168.849 215.733 168.849 217.701C168.849 219.669 177.461 223.441 181.767 225.08C192.019 228.36 213.507 234.92 217.443 234.92C221.38 234.92 226.055 233.28 227.901 232.46C234.052 226.925 230.361 211.551 229.746 209.706C229.254 208.23 226.26 205.811 224.825 204.786C222.839 203.648 221.359 202.98 217.443 201.711L200.835 197.407L199.605 200.482C199.542 199.917 199.158 199.51 197.76 198.637L195.299 194.332L192.839 197.407L190.378 198.637V196.792L191.608 193.102L190.378 191.257C189.968 191.052 189.025 190.519 188.533 190.027C188.041 189.535 187.508 188.592 187.303 188.182L186.687 182.647C188.181 179.807 191.289 172.709 193.454 167.888C195.633 163.033 195.914 153.334 195.299 148.824L190.378 142.059C170.079 156.203 165.773 154.359 156.547 154.974Z" fill="#263238"/>
<path d="M142.041 177.014C141.929 177.013 141.818 176.986 141.717 176.935C141.617 176.884 141.53 176.81 141.463 176.719C139.532 174.013 136.001 166.117 135.632 162.476C135.263 158.836 137.342 150.177 137.428 149.783C137.475 149.603 137.59 149.449 137.749 149.353C137.907 149.257 138.097 149.226 138.278 149.268C138.459 149.309 138.617 149.42 138.718 149.576C138.819 149.732 138.855 149.921 138.818 150.103C138.818 150.201 136.714 158.934 137.047 162.402C137.379 165.871 140.823 173.472 142.62 175.932C142.674 176.008 142.714 176.094 142.736 176.185C142.757 176.276 142.761 176.371 142.746 176.463C142.731 176.556 142.698 176.644 142.649 176.724C142.6 176.804 142.536 176.873 142.46 176.928C142.332 176.997 142.186 177.027 142.041 177.014Z" fill="#263238"/>
<path d="M152.167 257.415L147.479 257.083C152.56 255.718 155.71 247.539 157.678 241.918C158.047 240.86 158.404 239.852 158.761 238.929C160.508 234.366 160.668 220.16 160.569 214.699C159.843 212.129 157.887 205.868 156.509 203.839C156.222 203.428 156.022 202.963 155.921 202.473C155.819 201.982 155.818 201.476 155.919 200.985C156.35 198.919 158.466 197.578 160.323 196.41C160.951 196.038 161.555 195.628 162.132 195.18C162.55 192.548 165.613 191.724 167.889 191.121C168.603 190.924 169.279 190.74 169.808 190.543C172.01 188.526 181.656 170.101 183.772 160.2C185.568 151.849 182.541 148.897 182.541 148.873L185.322 145.625C185.838 146.056 190.329 150.176 187.991 161.098C186.171 169.585 175.627 192.831 171.617 194.442C170.772 194.758 169.909 195.025 169.033 195.242C168.114 195.445 167.219 195.746 166.364 196.139C166.093 197.861 164.42 198.919 162.673 200.038C161.809 200.516 160.993 201.076 160.237 201.711C162.255 204.983 164.506 212.879 164.764 213.801L164.838 214.33C164.838 216.347 165.158 234.182 162.747 240.454C162.415 241.34 162.07 242.299 161.713 243.308C159.511 249.679 159.437 255.472 152.167 257.415Z" fill="white"/>
<path d="M231.455 214.761C228.097 213.113 219.35 211.391 214.109 210.284C211.87 209.817 209.938 209.398 208.487 209.054C206.078 208.482 203.543 208.787 201.339 209.915C200.685 210.201 200.01 210.44 199.321 210.628C196.664 211.293 194.856 208.685 193.552 206.779C193.404 206.57 193.244 206.324 193.072 206.102C191.411 207.074 189.123 208.402 186.921 207.775C186.41 207.621 185.937 207.364 185.53 207.019C185.124 206.674 184.793 206.249 184.559 205.77C183.998 204.561 183.585 203.289 183.328 201.982C182.922 200.272 182.639 199.19 181.79 198.513C178.887 196.201 178.899 195.106 178.838 194.824L181.015 191.269C182.001 192.722 183.157 194.052 184.46 195.229C186.134 196.748 187.208 198.817 187.486 201.059C187.672 201.965 187.944 202.85 188.298 203.704C189.206 203.399 190.073 202.986 190.882 202.474C191.485 202.076 192.139 201.762 192.826 201.539C194.757 201.059 195.938 202.769 197.07 204.405C197.534 205.123 198.061 205.798 198.645 206.422C198.952 206.324 199.321 206.176 199.727 206.004C202.785 204.517 206.269 204.151 209.569 204.971C210.935 205.315 212.829 205.709 215.019 206.201C220.235 207.193 225.32 208.778 230.176 210.924L231.455 214.761Z" fill="white"/>
<path d="M255.691 237.909C255.552 237.909 255.416 237.87 255.297 237.798C247.35 232.62 229.462 231.157 229.266 231.144C229.165 231.147 229.066 231.129 228.974 231.091C228.881 231.052 228.798 230.995 228.729 230.923C228.66 230.85 228.607 230.764 228.573 230.67C228.54 230.575 228.527 230.475 228.534 230.375C228.542 230.276 228.571 230.179 228.619 230.091C228.666 230.003 228.732 229.926 228.811 229.865C228.891 229.804 228.982 229.761 229.079 229.737C229.177 229.714 229.278 229.712 229.376 229.73C230.127 229.73 247.83 231.23 256.072 236.605C256.152 236.655 256.22 236.72 256.274 236.797C256.328 236.874 256.366 236.961 256.385 237.053C256.405 237.145 256.406 237.239 256.388 237.332C256.37 237.424 256.334 237.511 256.282 237.589C256.217 237.687 256.129 237.767 256.026 237.823C255.923 237.879 255.808 237.908 255.691 237.909Z" fill="#263238"/>
<path d="M249.294 223.912C248.739 223.9 248.188 223.808 247.658 223.641C245.111 222.916 231.665 215.696 231.124 215.388C230.958 215.3 230.834 215.149 230.779 214.969C230.723 214.79 230.741 214.596 230.828 214.429C230.919 214.262 231.072 214.138 231.254 214.083C231.436 214.028 231.632 214.046 231.8 214.134C236.586 216.717 246.133 221.723 248.039 222.276C248.55 222.484 249.11 222.539 249.651 222.436C249.695 222.271 249.797 222.127 249.939 222.031C250.08 221.934 250.251 221.892 250.421 221.911C250.591 221.931 250.748 222.01 250.865 222.136C250.981 222.262 251.048 222.425 251.053 222.596C251.047 222.785 250.997 222.969 250.907 223.136C250.818 223.302 250.691 223.446 250.537 223.555C250.173 223.807 249.736 223.932 249.294 223.912Z" fill="#263238"/>
<path d="M256.811 214.404C256.811 214.404 250.045 220.997 250.045 221.71C250.045 222.423 254.855 226.691 255.212 228.118C255.569 229.545 258.78 227.761 259.665 228.118C260.551 228.475 260.379 230.972 257.882 231.5C255.384 232.029 255.569 238.45 256.454 239.335C257.34 240.221 265.066 244.144 269.286 248.597C273.506 253.049 275.88 257.501 277.651 258.215C279.423 258.928 281.219 259.445 281.748 255.903C282.277 252.36 282.818 244.685 278.193 239.163C273.567 233.641 271.599 233.099 270.172 233.099C268.745 233.099 266.481 233.284 267.33 231.328C268.179 229.373 270.172 227.638 269.458 225.978C268.745 224.318 263.172 213.875 256.811 214.404Z" fill="#263238"/>
<path d="M281.514 260.822C280.995 260.848 280.478 260.732 280.02 260.484C279.562 260.237 279.181 259.869 278.918 259.42C278.876 259.337 278.851 259.246 278.845 259.154C278.838 259.061 278.85 258.968 278.88 258.88C278.91 258.791 278.957 258.71 279.018 258.64C279.08 258.57 279.155 258.514 279.238 258.473C279.405 258.391 279.598 258.377 279.775 258.434C279.951 258.492 280.099 258.616 280.186 258.78C280.247 258.879 280.727 259.678 282.228 259.309C284.282 258.793 285.919 258.202 286.337 255.767C286.913 250.452 285.826 245.089 283.224 240.417C281.644 238.034 279.748 235.874 277.59 233.997C275.658 232.189 274.145 230.762 274.034 229.237C274.034 228.684 274.034 228.13 273.973 227.552C274.077 225.345 273.655 223.144 272.743 221.132C271.131 217.922 267.305 213.752 263.676 212.215C260.342 210.849 258.829 211.452 257.525 214.675C257.451 214.849 257.311 214.987 257.136 215.059C256.961 215.13 256.764 215.129 256.59 215.056C256.415 214.983 256.277 214.843 256.205 214.668C256.134 214.492 256.135 214.296 256.208 214.121C257.869 210.161 260.206 209.201 264.266 210.886C268.326 212.571 272.361 217.036 274.108 220.492C275.137 222.682 275.626 225.086 275.535 227.503C275.535 228.061 275.56 228.602 275.609 229.126C275.671 230.086 277.085 231.414 278.709 232.939C280.967 234.904 282.945 237.167 284.59 239.667C287.383 244.633 288.536 250.353 287.887 256.013C287.272 259.272 284.996 260.109 282.72 260.675C282.327 260.782 281.921 260.831 281.514 260.822Z" fill="#263238"/>
<path d="M154.701 149.241C151.195 149.241 144.859 148.786 141.55 145.711C140.226 144.49 139.068 143.101 138.105 141.579C137.468 140.527 136.694 139.563 135.805 138.713C135.013 138.031 134.442 137.129 134.164 136.121C133.886 135.114 133.913 134.047 134.242 133.055C134.313 132.882 134.45 132.743 134.623 132.669C134.795 132.595 134.99 132.593 135.165 132.662C135.253 132.694 135.334 132.744 135.402 132.809C135.471 132.873 135.526 132.951 135.564 133.037C135.601 133.123 135.622 133.216 135.623 133.31C135.624 133.404 135.606 133.497 135.571 133.584C135.351 134.31 135.35 135.085 135.569 135.812C135.788 136.538 136.216 137.184 136.801 137.668C137.751 138.6 138.578 139.65 139.262 140.792C140.16 142.22 141.244 143.523 142.485 144.666C145.905 147.839 153.557 147.876 155.747 147.802C155.936 147.802 156.118 147.878 156.251 148.011C156.385 148.145 156.46 148.327 156.46 148.516C156.46 148.705 156.385 148.886 156.251 149.02C156.118 149.154 155.936 149.229 155.747 149.229L154.701 149.241Z" fill="#263238"/>
<path d="M159.942 155.588C154.016 155.654 148.12 154.731 142.497 152.858C134.956 149.906 135.116 146.708 135.423 145.835C135.517 145.513 135.628 145.197 135.755 144.888C136.051 144.15 136.161 143.879 135.755 143.215C134.747 141.69 135.571 138.381 135.669 138.012C135.716 137.83 135.832 137.673 135.994 137.577C136.155 137.48 136.348 137.451 136.53 137.496C136.714 137.545 136.87 137.664 136.967 137.827C137.063 137.99 137.092 138.185 137.047 138.369C136.715 139.599 136.469 141.714 136.949 142.428C137.264 142.855 137.45 143.364 137.483 143.895C137.515 144.425 137.394 144.953 137.133 145.416C137.016 145.674 136.922 145.942 136.85 146.216C136.518 147.446 137.945 149.524 143.001 151.529C149.153 153.989 164.851 156.031 174.139 151.529C189.209 144.273 190.28 141.591 190.243 140.939C190.206 140.287 190.144 139.709 190.07 138.971C189.696 137.004 189.772 134.977 190.292 133.043C191.128 130.878 191.965 128.726 191.104 126.032C190.533 123.568 190.24 121.047 190.23 118.517C190.144 116.845 190.07 115.258 189.898 114.053C189.688 111.881 189.004 109.781 187.893 107.903C187.82 107.845 187.76 107.772 187.716 107.69C187.671 107.608 187.644 107.518 187.634 107.426C187.625 107.333 187.635 107.239 187.662 107.15C187.69 107.061 187.735 106.978 187.795 106.907C187.917 106.762 188.09 106.671 188.279 106.652C188.467 106.634 188.656 106.69 188.803 106.808C189.837 107.682 190.895 111.101 191.264 113.905C191.461 115.135 191.534 116.796 191.621 118.505C191.623 120.914 191.896 123.315 192.433 125.663C193.441 128.837 192.433 131.333 191.621 133.535C191.171 135.284 191.112 137.111 191.448 138.885C191.522 139.599 191.596 140.288 191.633 140.927C191.707 142.526 190.046 145.502 174.717 152.87C170.608 154.838 165.232 155.588 159.942 155.588Z" fill="#263238"/>
<path d="M224.049 156.818C220.854 156.735 217.675 156.323 214.564 155.588C211.698 154.924 211.132 151.173 210.714 148.43C210.641 147.477 210.412 146.542 210.037 145.662C208.339 144.531 208.069 143.535 208.069 140.927C207.926 139.584 207.337 138.328 206.395 137.36C205.795 136.591 205.268 135.768 204.821 134.9C203.824 132.908 200.367 123.167 201.204 120.362C201.794 118.407 199.408 113.979 195.471 112.454C191.19 110.781 182.639 105.492 182.283 105.271C182.203 105.222 182.133 105.157 182.078 105.081C182.023 105.005 181.983 104.919 181.961 104.828C181.94 104.736 181.936 104.641 181.951 104.549C181.966 104.456 181.999 104.367 182.049 104.287C182.15 104.128 182.31 104.014 182.494 103.971C182.677 103.927 182.871 103.957 183.033 104.053C183.119 104.053 191.829 109.502 195.988 111.126C200.478 112.872 203.369 117.976 202.569 120.768C201.967 122.81 204.845 131.764 206.088 134.298C206.525 135.084 207.031 135.829 207.601 136.524C208.732 137.738 209.422 139.298 209.557 140.952C209.557 143.412 209.791 143.768 210.898 144.506C211.685 145.035 211.895 146.376 212.128 148.196C212.51 150.656 212.977 153.731 214.884 154.174C221.478 155.687 228.933 156.08 229.721 153.399C230.385 151.148 230.102 147.581 229.844 144.432C229.606 142.478 229.557 140.505 229.696 138.541C230.004 136.364 226.005 121.223 223.545 112.183C222.376 107.78 221.454 104.312 221.158 102.934C220.297 98.8753 195.422 80.8688 189.049 78.3351C183.562 76.1089 175.369 73.1817 167.495 73.4154C167.391 73.4247 167.286 73.4083 167.189 73.3676C167.093 73.3268 167.008 73.263 166.942 73.1817C165.766 71.8039 164.455 70.5472 163.029 69.4303L162.599 69.8977C160.901 71.7303 156.927 76.0475 151.231 75.3095C148.1 74.9746 145.033 74.1874 142.128 72.9726C142.148 73.6266 141.919 74.264 141.488 74.756L141.377 74.8421C141.254 74.9282 138.338 76.7485 130.305 76.072C122.555 75.371 118.298 74.9897 110.867 67.5608C108.788 65.4822 106.377 62.9485 103.806 60.2549C97.8759 53.8961 91.1096 46.7993 88.5261 45.5079C85.5735 44.0319 80.2588 43.4416 78.3397 43.2694C78.1305 45.5202 77.0356 52.0881 71.4749 54.3389C71.4749 55.2245 71.8686 57.8319 75.2764 62.2966L77.1586 64.7565C82.9039 72.3576 96.375 90.1549 100.644 91.9876C102.022 92.5779 104.335 93.402 106.967 94.3491C114.164 96.9319 123.133 100.142 125.802 102.823C128.066 105.074 130.01 113.672 131.732 121.273C132.741 125.7 133.787 130.288 134.402 131.026C135.664 132.223 137.131 133.186 138.732 133.867C139.804 134.272 140.774 134.906 141.574 135.724C141.676 135.883 141.712 136.075 141.672 136.26C141.633 136.444 141.523 136.605 141.365 136.708C141.207 136.809 141.017 136.844 140.833 136.808C140.65 136.771 140.488 136.665 140.381 136.512C139.682 135.953 138.913 135.49 138.092 135.134C136.313 134.374 134.69 133.29 133.307 131.936C132.507 130.989 131.707 127.558 130.342 121.592C128.866 114.877 126.762 105.775 124.794 103.795C122.333 101.335 113.18 98.0512 106.488 95.6528C103.818 94.6934 101.567 93.8694 100.078 93.1929C95.4646 91.2127 82.3256 73.8581 76.0268 65.5191L74.1445 63.0592C69.445 56.9095 70.0232 53.8715 70.1094 53.5517C70.134 53.435 70.1891 53.3269 70.269 53.2383C70.349 53.1498 70.4509 53.0839 70.5645 53.0474C76.7157 50.9811 76.9618 42.5068 76.9741 42.4207C76.9772 42.3259 76.9992 42.2327 77.0388 42.1465C77.0784 42.0604 77.1348 41.983 77.2047 41.9188C77.2746 41.8547 77.3565 41.8051 77.4458 41.773C77.5351 41.7409 77.6298 41.727 77.7245 41.7319C78.0321 41.7319 85.2782 42.2362 89.1658 44.1918C91.9584 45.6432 98.5279 52.5186 104.876 59.1726C107.435 61.8539 109.797 64.3876 111.913 66.4539C118.975 73.5138 122.813 73.8335 130.465 74.5592C137.207 75.1742 140.036 73.895 140.516 73.6368C140.663 73.3 140.726 72.933 140.701 72.5667C140.701 72.1608 140.701 71.2261 141.574 71.2261C141.88 71.2647 142.177 71.3607 142.448 71.5089C145.294 72.735 148.309 73.5229 151.391 73.8458C156.312 74.4731 160.003 70.5496 161.541 68.9261C161.814 68.5808 162.138 68.2782 162.5 68.0282C162.919 67.8314 163.731 67.4501 167.766 71.9886C175.787 71.841 184.042 74.7806 189.578 77.0314C195.988 79.6512 221.478 97.6945 222.536 102.713C222.819 104.053 223.766 107.509 224.911 111.888C228.491 125.27 231.419 136.487 231.062 138.812C230.941 140.674 230.994 142.543 231.222 144.396C231.48 147.667 231.775 151.369 231.037 153.866C230.397 156.129 227.383 156.818 224.049 156.818Z" fill="#263238"/>
<path d="M151.121 81.2624C148.925 81.2734 146.743 80.9201 144.663 80.217C137.552 77.7571 137.626 75.3587 137.712 74.9036C137.741 74.716 137.844 74.5478 137.997 74.4359C138.151 74.3241 138.342 74.2777 138.53 74.3071C138.718 74.3364 138.886 74.4391 138.998 74.5925C139.11 74.7459 139.156 74.9374 139.127 75.125C139.127 75.248 139.41 76.8961 145.13 78.8148C149.005 80.0563 153.168 80.0844 157.059 78.8951C160.951 77.7059 164.387 75.3562 166.905 72.1608C166.963 72.0873 167.035 72.0259 167.116 71.9804C167.198 71.9349 167.288 71.9062 167.38 71.8959C167.473 71.8856 167.567 71.8939 167.657 71.9204C167.746 71.9469 167.83 71.991 167.902 72.0501C168.049 72.1704 168.142 72.3433 168.163 72.5318C168.184 72.7203 168.13 72.9094 168.013 73.0587C165.994 75.6068 163.428 77.6675 160.504 79.0878C157.579 80.508 154.372 81.2513 151.121 81.2624Z" fill="#263238"/>
<path d="M88.8462 24.9309L0.736328 9.49512L82.1906 12.3486L88.8462 24.9309Z" fill="#E8E8E8"/>
<path d="M74.3416 12.0657V8.06836L0.736328 9.4951L74.3416 12.0657Z" fill="#D9D9D9"/>
<path d="M79.115 7.98235L63.9092 0L0.736328 9.49519L79.115 7.98235Z" fill="#E8E8E8"/>
<path d="M70.7982 54.4866C70.695 54.4904 70.5924 54.4702 70.4985 54.4275C70.4045 54.3848 70.3218 54.3208 70.2569 54.2406C70.1461 54.1176 59.3323 41.5598 56.1091 39.0261C55.4448 38.5096 54.7558 37.9438 54.0423 37.3657C51.1716 34.7878 47.9642 32.6115 44.5079 30.8962C40.0791 29.0267 34.42 19.9251 34.1862 19.5315C34.1377 19.4507 34.1057 19.3612 34.0918 19.268C34.0779 19.1749 34.0826 19.0799 34.1054 18.9885C34.1282 18.8972 34.1689 18.8112 34.225 18.7355C34.281 18.6599 34.3515 18.596 34.4323 18.5475C34.513 18.4991 34.6026 18.467 34.6958 18.4531C34.7889 18.4393 34.8839 18.4439 34.9753 18.4667C35.0667 18.4896 35.1527 18.5302 35.2284 18.5863C35.3041 18.6423 35.368 18.7127 35.4165 18.7935C35.4165 18.8796 41.0756 27.8828 45.0984 29.5924C48.6169 31.0807 51.9878 33.8358 54.9404 36.2587L56.9826 37.9069C60.3288 40.5267 70.8843 52.7892 71.3395 53.3181C71.4007 53.3881 71.4474 53.4695 71.4769 53.5577C71.5064 53.6458 71.518 53.739 71.5112 53.8317C71.5043 53.9244 71.4791 54.0148 71.4369 54.0977C71.3948 54.1805 71.3366 54.2542 71.2657 54.3144C71.1368 54.4281 70.97 54.4895 70.7982 54.4866Z" fill="#263238"/>
<path d="M49.2078 17.8834L2.63086 9.49512L50.9055 24.0085L49.2078 17.8834Z" fill="#9E9E9E"/>
<path d="M58.0045 26.1364L75.314 31.339L76.5442 22.7909L55.9746 19.1011C55.9746 19.1011 56.4298 21.7701 56.6882 22.7909C57.0473 23.9358 57.4872 25.0537 58.0045 26.1364Z" fill="#9E9E9E"/>
<path d="M144.859 73.9073H144.662C144.572 73.8818 144.487 73.8386 144.413 73.7802C144.339 73.7218 144.277 73.6493 144.232 73.567C144.186 73.4847 144.157 73.3941 144.146 73.3005C144.136 73.2069 144.144 73.1122 144.17 73.0217C144.17 73.0217 145.511 68.2864 144.17 65.0271C144.123 64.9387 144.095 64.8414 144.088 64.7414C144.081 64.6415 144.095 64.5411 144.129 64.447C144.163 64.3528 144.217 64.2669 144.287 64.1949C144.356 64.1229 144.44 64.0664 144.533 64.029C144.626 63.9916 144.726 63.9743 144.826 63.978C144.927 63.9818 145.025 64.0067 145.115 64.0509C145.205 64.0952 145.284 64.1579 145.348 64.235C145.412 64.312 145.459 64.4017 145.486 64.4982C147 68.188 145.573 73.2062 145.486 73.4153C145.443 73.5504 145.36 73.6695 145.248 73.7571C145.136 73.8447 145.001 73.897 144.859 73.9073Z" fill="#263238"/>
<path d="M160.754 71.423C160.641 71.423 160.53 71.3963 160.429 71.345C160.329 71.2937 160.242 71.2192 160.176 71.1278C158.232 68.4466 154.984 63.7482 155.107 62.4321C155.129 62.2461 155.221 62.0757 155.366 61.9565C155.51 61.8373 155.695 61.7786 155.882 61.7925C156.069 61.8142 156.241 61.9065 156.362 62.0505C156.483 62.1946 156.545 62.3795 156.534 62.5674C156.534 63.3177 158.994 67.1674 161.332 70.2915C161.387 70.3674 161.426 70.4534 161.448 70.5445C161.47 70.6357 161.473 70.7302 161.458 70.8227C161.444 70.9152 161.411 71.0039 161.361 71.0837C161.312 71.1635 161.248 71.2328 161.172 71.2877C161.05 71.3742 160.904 71.4214 160.754 71.423Z" fill="#263238"/>
<path d="M240.362 182.217C240.192 182.214 240.023 182.193 239.858 182.155C237.889 181.725 230.188 173.841 228.786 171.922C227.702 170.552 226.317 169.449 224.738 168.7C223.954 169.787 223.463 171.058 223.311 172.389C223.164 174.21 222.881 175.993 221.823 176.719C221.569 176.886 221.281 176.991 220.98 177.028C220.679 177.064 220.373 177.03 220.088 176.928C217.898 176.264 218.23 174.234 218.698 171.43L218.858 170.434C219.345 168.239 220.176 166.135 221.318 164.198C221.515 163.829 221.724 163.423 221.835 163.177C221.269 162.23 218.956 158.417 217.369 155.797C217.272 155.635 217.243 155.442 217.286 155.258C217.33 155.074 217.443 154.915 217.603 154.814C217.683 154.764 217.772 154.731 217.864 154.716C217.957 154.701 218.052 154.704 218.143 154.726C218.235 154.748 218.321 154.787 218.397 154.842C218.473 154.897 218.538 154.967 218.587 155.047C219.337 156.277 223.053 162.341 223.225 162.697C223.397 163.054 223.225 163.546 222.573 164.813C221.509 166.617 220.733 168.575 220.272 170.618L220.1 171.615C219.62 174.542 219.596 175.243 220.494 175.513C220.838 175.624 220.961 175.513 221.023 175.513C221.663 175.083 221.835 172.955 221.896 172.254C222.027 170.411 222.797 168.671 224.074 167.334C224.202 167.246 224.347 167.187 224.5 167.162C224.653 167.136 224.81 167.145 224.96 167.187C226.891 168.03 228.582 169.34 229.881 171C231.775 173.459 238.96 180.446 240.153 180.704C240.288 180.704 240.522 180.765 240.584 180.642C240.645 180.519 240.584 179.535 239.526 178.539C238.111 177.309 233.448 171.159 233.854 169.745C233.897 169.591 233.982 169.452 234.099 169.343C234.216 169.235 234.362 169.161 234.519 169.13C235.183 168.995 235.847 169.474 239.649 172.82C241.605 174.554 244.57 177.162 245.308 177.309C245.592 177.365 245.88 177.406 246.169 177.432C246.014 177.159 245.842 176.896 245.652 176.645C245.062 175.821 243.893 174.542 242.761 173.3C241.378 171.906 240.122 170.391 239.009 168.773C238.922 168.607 238.904 168.413 238.959 168.233C239.015 168.053 239.139 167.903 239.304 167.814C239.471 167.725 239.666 167.705 239.848 167.758C240.029 167.811 240.183 167.933 240.276 168.097C241.336 169.605 242.517 171.024 243.807 172.34C245.037 173.669 246.169 174.923 246.809 175.809C247.448 176.694 248.039 177.617 247.535 178.269C247.03 178.92 246.034 178.859 245.074 178.65C244.114 178.441 241.986 176.694 238.751 173.841C237.889 173.078 236.856 172.156 236.02 171.467C237.293 173.617 238.803 175.618 240.522 177.432C241.888 178.662 242.441 180.187 241.9 181.233C241.772 181.532 241.557 181.786 241.283 181.961C241.008 182.137 240.688 182.226 240.362 182.217Z" fill="#263238"/>
<path d="M247.571 176.264C246.564 176.209 245.58 175.932 244.693 175.452C244.553 175.348 244.457 175.196 244.422 175.026C244.386 174.856 244.414 174.679 244.5 174.527C244.586 174.376 244.725 174.262 244.889 174.206C245.054 174.149 245.233 174.155 245.394 174.222C246.14 174.652 246.994 174.861 247.854 174.825L247.916 174.751C247.916 174.751 247.916 174.333 246.55 173.09C244.338 170.77 242.283 168.304 240.399 165.711C240.298 165.569 240.244 165.399 240.244 165.225C240.244 165.051 240.298 164.881 240.399 164.739C241.248 163.706 248.506 167.101 248.58 167.199C248.629 167.209 248.679 167.209 248.728 167.199C248.728 167.199 248.728 166.621 247.818 165.858C246.686 164.936 240.35 162.611 230.852 159.635L230.68 159.573C228.663 158.946 227.814 156.08 227.728 155.76C227.7 155.587 227.737 155.41 227.832 155.263C227.926 155.116 228.072 155.008 228.24 154.961C228.409 154.914 228.589 154.93 228.747 155.007C228.904 155.085 229.027 155.217 229.093 155.379C229.29 156.043 230.016 157.839 231.099 158.22H231.271C238.308 160.434 247.055 163.349 248.716 164.702C250.376 166.055 250.339 167.26 249.946 167.949C249.738 168.255 249.422 168.47 249.061 168.553C248.7 168.635 248.322 168.577 248.002 168.392C247.264 168.023 244.533 166.941 242.712 166.313C244.228 168.324 245.871 170.234 247.633 172.033C248.925 173.263 249.466 174.087 249.441 174.825C249.425 175.05 249.359 175.27 249.248 175.467C249.138 175.665 248.985 175.836 248.802 175.968C248.442 176.216 248.004 176.321 247.571 176.264Z" fill="#263238"/>
<path d="M134.697 12.078C134.697 12.078 125.889 14.3411 124.707 19.1625C123.526 23.9839 124.707 29.0021 128.509 28.4978C132.31 27.9935 137.293 24.6973 140.614 24.931C143.936 25.1647 143.235 26.4192 142.042 28.5224C140.848 30.6256 142.989 34.1925 148.931 32.532C154.873 30.8716 155.082 27.7844 159.376 28.9652C163.669 30.1459 159.757 39.8871 160.754 41.2647C161.75 42.6422 161.984 44.5855 164.223 41.2647C166.462 37.9438 169.833 33.4299 173.388 34.6229C176.943 35.816 170.066 42.6914 166.511 44.1181L162.943 45.5449C162.943 45.5449 161.516 55.5074 159.376 56.9342C159.376 56.9342 173.634 55.0401 179.059 50.0465C184.485 45.0529 179.773 45.1267 180.72 42.4577C181.668 39.7887 187.13 39.6534 187.13 36.4187C187.13 33.1839 186.416 33.6636 181.434 31.2898C176.451 28.916 177.866 27.7352 178.58 26.5422C179.293 25.3491 180.007 23.2213 175.972 22.0283C171.936 20.8352 162.439 17.9941 164.186 15.3866C165.933 12.7791 166.843 7.55182 160.717 8.0069C154.59 8.46198 148.734 12.447 145.252 12.0165C141.771 11.586 138.56 10.6636 134.697 12.078Z" fill="#263238"/>
<path d="M146.323 65.7652H146.151L144.551 65.4085C140.405 64.4983 131.781 62.6165 127.18 59.3571C121.558 55.3721 122.579 45.4588 123.588 42.2978C124.597 39.1368 126.873 28.4486 126.897 28.2887C126.916 28.1948 126.954 28.1058 127.009 28.0274C127.064 27.9491 127.135 27.8831 127.217 27.8336C127.296 27.7809 127.385 27.7458 127.478 27.7309C127.572 27.7161 127.667 27.7217 127.759 27.7475C127.902 27.7607 128.046 27.7607 128.189 27.7475C128.262 27.7101 128.341 27.6851 128.423 27.6737C130.291 27.3128 132.109 26.7264 133.836 25.9272C136.296 24.9186 138.683 23.9593 140.664 24.1069C141.759 24.193 143.124 24.3898 143.567 25.3368C144.01 26.2839 143.456 27.3908 142.669 28.7807C142.492 29.1226 142.419 29.5093 142.461 29.8922C142.502 30.2751 142.656 30.6372 142.903 30.9331C143.887 32.163 146.077 32.5197 148.734 31.7695C150.537 31.2669 152.242 30.4644 153.778 29.3957C155.476 28.301 156.804 27.44 159.573 28.1657C162.993 29.1251 162.205 34.008 161.639 37.5871C161.391 38.6422 161.291 39.7269 161.344 40.8096C161.529 41.0678 161.689 41.3507 161.848 41.6213C161.973 41.8876 162.139 42.1325 162.341 42.347C162.821 41.8907 163.236 41.369 163.571 40.7973C165.576 37.8823 169.304 32.4582 173.56 33.885C173.977 33.9924 174.347 34.2334 174.614 34.5711C174.88 34.9087 175.029 35.3244 175.037 35.7545C175.123 38.5711 169.833 43.4662 166.708 44.7085L163.485 45.9999C163.054 47.7219 161.209 54.9293 159.942 57.217L159.696 57.6844C158.908 59.2342 157.235 62.4812 154.073 64.1539C153.907 64.241 153.713 64.2589 153.533 64.2036C153.353 64.1483 153.203 64.0244 153.114 63.8587C153.026 63.6904 153.008 63.4943 153.063 63.3127C153.118 63.131 153.242 62.9783 153.409 62.8871C156.189 61.4235 157.703 58.4593 158.428 57.0325L158.699 56.5283C160.003 54.1422 162.168 45.4588 162.193 45.3112C162.218 45.2016 162.269 45.0998 162.342 45.0142C162.415 44.9285 162.507 44.8617 162.611 44.8192L166.179 43.3924C168.922 42.2978 173.671 37.7224 173.56 35.7914C173.56 35.6069 173.56 35.3855 173.056 35.2256C170.214 34.2785 167.36 37.6855 164.703 41.609C163.608 43.1957 162.845 43.786 162.107 43.7614C161.369 43.7368 160.877 42.9866 160.495 42.3224C160.36 42.0887 160.225 41.8427 160.065 41.609C159.573 40.9203 159.745 39.678 160.065 37.3534C160.557 34.3154 161.221 30.1582 159.031 29.5432C156.841 28.9283 156.005 29.5432 154.393 30.5518C152.797 31.7227 151.018 32.6205 149.128 33.2085C144.465 34.5122 142.435 32.7165 141.746 31.8801C141.328 31.3695 141.071 30.7463 141.008 30.0894C140.944 29.4325 141.077 28.7716 141.39 28.1903C141.82 27.4154 142.411 26.37 142.263 26.0994C142.263 26.0994 142.042 25.7673 140.528 25.6566C139.015 25.5459 136.567 26.4684 134.377 27.3785C132.572 28.1904 130.682 28.8009 128.743 29.1989C128.554 29.2685 128.353 29.3019 128.152 29.2973C127.623 31.7572 125.802 40.047 124.941 42.7283C124.08 45.4096 123.096 54.708 128.005 58.201C132.36 61.2882 140.799 63.1208 144.847 64.0186L146.483 64.3753C146.574 64.397 146.66 64.4365 146.736 64.4915C146.812 64.5466 146.877 64.616 146.926 64.696C146.975 64.776 147.008 64.8649 147.023 64.9576C147.037 65.0503 147.034 65.145 147.012 65.2363C146.973 65.389 146.884 65.5243 146.759 65.6202C146.634 65.7162 146.48 65.7672 146.323 65.7652Z" fill="#263238"/>
<path d="M125.384 38.9771C125.268 38.9792 125.153 38.9494 125.052 38.891C123.426 37.9468 122.008 36.6846 120.881 35.18C119.755 33.6754 118.943 31.9591 118.495 30.1338C118.125 29.0703 118.125 27.9133 118.495 26.8498C118.684 26.5737 118.947 26.356 119.253 26.2212C119.56 26.0865 119.898 26.0401 120.229 26.0873C121.46 26.1979 123.059 27.3172 124.191 29.9616C124.831 31.6196 125.656 33.1998 126.651 34.6723C126.767 34.8223 126.819 35.0122 126.794 35.2002C126.77 35.3882 126.672 35.5589 126.522 35.6747C126.372 35.7905 126.182 35.8419 125.994 35.8177C125.806 35.7935 125.635 35.6956 125.519 35.5456C124.425 33.9859 123.521 32.3012 122.825 30.5274C121.866 28.252 120.623 27.5509 120.033 27.5017C119.75 27.5017 119.651 27.6001 119.627 27.637C119.221 28.5348 120.66 35.0167 125.679 37.6365C125.818 37.7117 125.929 37.831 125.992 37.9756C126.056 38.1202 126.07 38.2819 126.032 38.4353C125.994 38.5887 125.906 38.7252 125.782 38.8232C125.658 38.9213 125.505 38.9754 125.347 38.9771H125.384Z" fill="#263238"/>
<path d="M154.43 37.0089H154.061C153.754 36.9553 153.472 36.8085 153.251 36.5883C153.031 36.3682 152.884 36.0856 152.831 35.7789C152.634 34.9426 150.862 33.7495 149.657 33.1714C149.572 33.1307 149.495 33.0735 149.432 33.0031C149.369 32.9326 149.321 32.8504 149.29 32.7612C149.259 32.6719 149.246 32.5774 149.252 32.4832C149.258 32.3889 149.283 32.2968 149.325 32.2121C149.364 32.1273 149.42 32.0513 149.49 31.9885C149.559 31.9257 149.64 31.8774 149.728 31.8465C149.817 31.8155 149.91 31.8026 150.004 31.8083C150.097 31.8141 150.188 31.8384 150.272 31.88C150.862 32.1629 153.803 33.6757 154.221 35.4591C154.221 35.5698 154.221 35.5698 154.319 35.5821C154.475 35.5872 154.629 35.5539 154.768 35.4853C154.908 35.4166 155.028 35.3147 155.119 35.1886C155.198 35.0724 155.24 34.9353 155.24 34.795C155.24 34.6546 155.198 34.5175 155.119 34.4014C154.184 32.6672 153.544 31.6955 152.757 31.4864C152.661 31.4688 152.569 31.4315 152.487 31.3768C152.406 31.3221 152.337 31.2513 152.284 31.1686C152.231 31.086 152.196 30.9934 152.181 30.8966C152.165 30.7997 152.17 30.7008 152.194 30.6058C152.219 30.5109 152.263 30.4221 152.323 30.3449C152.384 30.2677 152.46 30.2038 152.546 30.1571C152.632 30.1105 152.727 30.0822 152.825 30.0739C152.923 30.0655 153.021 30.0775 153.114 30.1089C154.541 30.4779 155.402 31.9046 156.374 33.7372C156.58 34.095 156.675 34.5059 156.646 34.9177C156.618 35.3295 156.467 35.7235 156.214 36.0495C156.006 36.3317 155.739 36.5641 155.43 36.7301C155.122 36.896 154.78 36.9912 154.43 37.0089Z" fill="#263238"/>
<path d="M128.866 32.0527C128.789 32.0645 128.71 32.0645 128.632 32.0527C128.264 31.9718 127.923 31.7967 127.643 31.5444C127.362 31.2922 127.152 30.9714 127.033 30.6136C126.976 30.2547 127 29.8876 127.102 29.5389C127.204 29.1901 127.382 28.8683 127.624 28.5965C127.759 28.4658 127.94 28.3927 128.128 28.3927C128.316 28.3927 128.497 28.4658 128.632 28.5965C128.762 28.7298 128.835 28.9085 128.835 29.0946C128.835 29.2808 128.762 29.4595 128.632 29.5928C128.509 29.7404 128.3 30.0971 128.362 30.2938C128.423 30.4906 128.546 30.5398 128.78 30.6505C130.09 30.0524 131.5 29.7021 132.938 29.6174C133.149 29.6093 133.351 29.5365 133.519 29.4088C133.686 29.2811 133.81 29.1048 133.873 28.904C134.058 28.4815 134.093 28.0084 133.972 27.5634C133.81 27.5879 133.645 27.556 133.503 27.4732C133.362 27.3903 133.254 27.2615 133.197 27.1083C133.131 26.9384 133.134 26.7497 133.205 26.5822C133.277 26.4146 133.41 26.2813 133.578 26.2104C133.802 26.1162 134.049 26.0905 134.288 26.1365C134.526 26.1824 134.746 26.298 134.919 26.4687C135.223 26.8793 135.412 27.3638 135.466 27.872C135.521 28.3802 135.438 28.8937 135.226 29.3591C135.07 29.8325 134.773 30.2471 134.375 30.548C133.978 30.849 133.498 31.022 133 31.0441C131.662 31.1239 130.354 31.4666 129.149 32.0527C129.056 32.0738 128.959 32.0738 128.866 32.0527Z" fill="#263238"/>
<path d="M130.649 36.2955C129.93 35.9984 129.19 35.7559 128.435 35.5698C128.107 35.4821 127.774 35.4123 127.438 35.3607C127.057 35.2869 126.651 35.25 126.122 35.1024C126.402 34.6641 126.813 34.3256 127.297 34.1355C127.781 33.9455 128.313 33.9137 128.816 34.0447C129.333 34.1542 129.797 34.4372 130.13 34.8467C130.464 35.2562 130.647 35.7674 130.649 36.2955Z" fill="#263238"/>
<path d="M143.629 38.2635C144.073 37.6641 144.706 37.231 145.425 37.0336C146.15 36.8244 146.915 36.799 147.652 36.9598C148.379 37.1273 149.055 37.4692 149.62 37.956C150.189 38.4242 150.615 39.0419 150.85 39.7394C150.149 39.4935 149.62 39.2106 149.005 39.0015C148.463 38.7847 147.903 38.6159 147.332 38.4972C146.768 38.3577 146.191 38.2753 145.61 38.2512C144.945 38.2512 144.318 38.2512 143.629 38.2635Z" fill="#263238"/>
<path d="M134.808 46.7381H134.673C133.411 46.4847 132.175 46.1141 130.982 45.6311C130.761 45.5363 130.565 45.3931 130.407 45.2121C130.25 45.0312 130.135 44.8171 130.071 44.5857C129.957 43.7174 130.177 42.8382 130.687 42.1258L134.205 35.2012L134.328 35.029C134.561 34.7554 134.855 34.5405 135.186 34.4016C135.517 34.2627 135.877 34.2038 136.235 34.2295C136.616 34.3079 136.976 34.4655 137.292 34.6923C137.608 34.919 137.872 35.2098 138.068 35.5456C138.145 35.6885 138.175 35.852 138.154 36.0129C138.154 36.0129 137.355 41.2525 137.268 43.3926C137.304 44.1184 137.104 44.8362 136.698 45.4391C136.293 46.042 135.703 46.4976 135.017 46.7381H134.808ZM135.386 35.9145L131.88 42.8145C131.578 43.2102 131.413 43.6941 131.412 44.1921C131.412 44.1921 131.412 44.2782 131.548 44.3274C132.58 44.75 133.652 45.0713 134.746 45.2867C135.092 45.0934 135.375 44.8056 135.562 44.457C135.75 44.1084 135.834 43.7135 135.804 43.3188C135.891 41.3509 136.493 37.1691 136.666 36.0498C136.506 35.8369 136.281 35.6816 136.026 35.6071C135.903 35.613 135.782 35.6445 135.672 35.6995C135.562 35.7546 135.465 35.832 135.386 35.9268V35.9145Z" fill="#263238"/>
<path d="M126.122 38.227C126.4 38.1366 126.693 38.1052 126.983 38.1349C127.273 38.1645 127.554 38.2546 127.808 38.3992C128.59 38.8294 129.215 39.4979 129.591 40.3075C129.967 41.1171 130.075 42.0256 129.899 42.9008C129.505 43.9094 128.226 42.7655 126.381 42.0399C125.778 41.8062 125.716 42.0399 125.15 41.8431L126.122 38.227Z" fill="#263238"/>
<path d="M140.701 45.1022C140.492 46.3322 142.768 46.037 145.437 46.4675C148.107 46.898 150.137 47.9434 150.358 46.6643C150.58 45.3851 148.857 42.2365 146.2 41.806C143.543 41.3755 140.91 43.8231 140.701 45.1022Z" fill="#263238"/>
<path d="M134.045 52.1131C135.657 51.6212 137.022 51.3752 138.326 50.9693C138.98 50.782 139.621 50.5519 140.245 50.2805C140.897 50.0222 141.476 49.6533 142.288 49.272C142.124 50.1187 141.693 50.8905 141.057 51.4736C140.424 52.0488 139.666 52.4697 138.843 52.7035C138.044 52.9345 137.208 53.0056 136.382 52.9126C135.548 52.8492 134.743 52.574 134.045 52.1131Z" fill="#263238"/>
<path d="M165.318 111.617C165.318 118.431 162.464 123.917 152.24 123.917C145.031 123.917 140.688 118.407 140.688 111.617C140.688 104.828 143.592 99.3179 152.24 99.3179C160.889 99.3179 165.318 104.816 165.318 111.617Z" fill="#E8E8E8"/>
<path d="M151.01 113.156H150.777C150.383 113.156 149.633 113.156 149.411 112.479C149.19 111.803 149.694 111.483 150.039 111.249C150.213 111.109 150.374 110.953 150.518 110.782L150.408 110.708C149.485 110.068 143.309 110.265 137.871 110.831C137.778 110.843 137.684 110.836 137.593 110.811C137.503 110.786 137.418 110.742 137.345 110.684C137.272 110.625 137.211 110.553 137.166 110.47C137.121 110.388 137.093 110.297 137.084 110.204C137.067 110.015 137.124 109.827 137.244 109.68C137.363 109.533 137.535 109.438 137.724 109.417C139.655 109.22 149.399 108.273 151.256 109.539C151.471 109.667 151.65 109.847 151.777 110.062C151.903 110.277 151.974 110.52 151.982 110.769C151.988 110.964 151.955 111.157 151.885 111.339C151.815 111.52 151.71 111.686 151.576 111.827C152.167 111.827 152.979 111.692 153.914 111.581C158.035 111.089 164.986 110.265 171.014 111.876C171.192 111.93 171.342 112.05 171.432 112.212C171.523 112.374 171.546 112.565 171.498 112.744C171.45 112.923 171.334 113.077 171.175 113.172C171.016 113.267 170.826 113.297 170.645 113.254C164.826 111.717 158.109 112.516 154.086 112.996C152.684 113.02 151.662 113.156 151.01 113.156Z" fill="#263238"/>
<path d="M51.5572 29.9122C51.418 29.9132 51.2818 29.8729 51.1656 29.7962C51.0495 29.7195 50.9589 29.6101 50.9052 29.4817C50.3828 27.7395 50.142 25.925 50.1916 24.1069L48.5062 18.1785C48.4764 18.0624 48.4758 17.9407 48.5045 17.8243C48.5333 17.7079 48.5904 17.6004 48.6708 17.5115C48.7513 17.4225 48.8525 17.3549 48.9654 17.3146C49.0784 17.2743 49.1996 17.2627 49.3181 17.2807L55.2725 18.3261C55.5678 18.3261 56.9949 18.7935 57.2532 22.016C57.3715 23.3815 57.8373 24.6941 58.6065 25.8288C58.6569 25.908 58.6906 25.9966 58.7055 26.0893C58.7204 26.182 58.7162 26.2767 58.6932 26.3677C58.6701 26.4587 58.6287 26.544 58.5715 26.6185C58.5143 26.6929 58.4424 26.7548 58.3604 26.8005C58.2807 26.8491 58.1921 26.8814 58.0998 26.8954C58.0075 26.9094 57.9133 26.9048 57.8227 26.8818C57.7322 26.8589 57.6472 26.8182 57.5726 26.762C57.498 26.7057 57.4355 26.6352 57.3885 26.5545C56.5038 25.2388 55.9702 23.7188 55.8384 22.139C55.6662 20.0112 54.9773 19.6791 54.965 19.6791L50.1916 18.8427L51.5941 23.7625C51.6 23.8321 51.6 23.902 51.5941 23.9716C51.5391 25.632 51.7383 27.2911 52.1846 28.8914C52.2589 29.0643 52.2618 29.2597 52.1927 29.4348C52.1235 29.6099 51.988 29.7505 51.8155 29.8261C51.7353 29.8701 51.6478 29.8993 51.5572 29.9122Z" fill="#263238"/>
<path d="M77.6876 43.2083C77.5574 43.2138 77.4287 43.1795 77.3185 43.1099C75.6946 42.1505 61.3992 33.5655 59.4801 30.0232C59.4164 29.9129 59.3828 29.7878 59.3828 29.6604C59.3828 29.533 59.4164 29.4079 59.4801 29.2976C59.8785 28.5778 60.1176 27.7809 60.1813 26.9607C60.1894 26.867 60.2158 26.7758 60.2591 26.6924C60.3025 26.6089 60.3618 26.5348 60.4338 26.4743C60.5058 26.4137 60.5889 26.368 60.6786 26.3396C60.7683 26.3112 60.8626 26.3007 60.9563 26.3088C61.05 26.3169 61.1412 26.3433 61.2247 26.3866C61.3082 26.4299 61.3823 26.4893 61.4429 26.5612C61.5034 26.6332 61.5492 26.7163 61.5776 26.806C61.606 26.8956 61.6165 26.99 61.6084 27.0837C61.5239 27.9744 61.2867 28.844 60.9071 29.6543C62.9985 32.5692 73.8616 39.4077 78.0198 41.9537C78.1018 41.9994 78.1736 42.0613 78.2309 42.1357C78.2881 42.2102 78.3295 42.2955 78.3525 42.3865C78.3756 42.4775 78.3798 42.5722 78.3649 42.6649C78.3499 42.7576 78.3163 42.8462 78.2658 42.9254C78.1984 43.0145 78.1109 43.0866 78.0105 43.1357C77.91 43.1849 77.7994 43.2097 77.6876 43.2083Z" fill="#263238"/>
<path d="M150.051 287.045C150.051 287.045 149.374 276.64 148.82 276.136C148.267 275.631 141.193 276.591 139.741 275.865C138.289 275.139 137.49 279.112 136.555 279.555C135.62 279.998 133.651 278.103 134.992 275.631C136.333 273.159 130.822 268.719 129.444 268.83C128.066 268.94 119.282 272.52 112.491 272.938C105.7 273.356 100.3 272.077 98.4297 273.061C96.5597 274.045 94.8251 275.152 97.4332 278.153C100.041 281.154 106.045 287.094 114.017 287.168C121.989 287.242 123.859 285.938 124.843 284.782C125.827 283.626 127.303 281.523 128.374 283.675C129.444 285.828 129.469 288.743 131.326 289.296C133.184 289.849 145.905 292.801 150.051 287.045Z" fill="#263238"/>
<path d="M138.167 297.647C136.304 297.662 134.446 297.46 132.631 297.045C130.07 296.333 127.714 295.026 125.754 293.232C125.286 292.85 124.819 292.469 124.351 292.125C123.465 291.473 121.325 291.707 118.864 291.977C115.604 292.461 112.292 292.494 109.022 292.076C102.884 290.865 97.2856 287.744 93.0292 283.158C90.7533 280.342 91.6883 277.87 92.8324 275.57C93.0977 274.859 93.5994 274.26 94.2534 273.875C94.9075 273.49 95.674 273.341 96.4247 273.454C96.5887 273.515 96.7248 273.633 96.8072 273.787C96.8895 273.942 96.9124 274.121 96.8714 274.291C96.8304 274.461 96.7285 274.61 96.5849 274.709C96.4413 274.809 96.2661 274.853 96.0925 274.832C95.9695 274.832 94.8623 274.635 94.0995 276.209C93.0538 278.312 92.3895 280.096 94.0995 282.261C98.1508 286.57 103.444 289.51 109.244 290.673C112.384 291.061 115.562 291.023 118.692 290.563C121.559 290.243 123.834 289.997 125.163 290.981C125.655 291.338 126.135 291.731 126.627 292.125C128.424 293.79 130.592 295.004 132.951 295.667C136.813 296.626 143.125 296.43 146.988 294.437C150.568 292.592 151.146 290.87 149.448 287.365C149.414 287.211 149.432 287.05 149.5 286.907C149.567 286.764 149.68 286.648 149.821 286.576C149.961 286.504 150.122 286.481 150.277 286.51C150.432 286.54 150.573 286.62 150.678 286.738C152.77 290.919 151.909 293.515 147.652 295.692C144.68 297.055 141.436 297.724 138.167 297.647Z" fill="#263238"/>
<path d="M132.003 273.737C131.872 273.738 131.743 273.701 131.632 273.631C131.521 273.562 131.432 273.462 131.376 273.343C131.333 273.262 131.307 273.174 131.299 273.083C131.29 272.993 131.3 272.901 131.328 272.814C131.355 272.727 131.4 272.646 131.459 272.577C131.518 272.507 131.59 272.45 131.671 272.408C131.769 272.335 134.98 270.145 138.486 255.73C138.498 255.63 138.532 255.534 138.583 255.448C138.635 255.361 138.705 255.287 138.788 255.23C138.87 255.172 138.964 255.133 139.063 255.114C139.162 255.096 139.264 255.098 139.362 255.122C139.46 255.146 139.552 255.19 139.632 255.251C139.711 255.313 139.777 255.391 139.824 255.479C139.872 255.568 139.9 255.666 139.907 255.767C139.914 255.867 139.899 255.968 139.864 256.062C136.174 271.363 132.704 273.478 132.323 273.663C132.223 273.712 132.114 273.737 132.003 273.737Z" fill="#263238"/>
<path d="M146.459 278.706C146.279 278.706 146.106 278.638 145.975 278.514C145.845 278.39 145.767 278.221 145.757 278.042C145.413 272.679 152.499 257.822 152.807 257.194C152.911 257.078 153.051 257 153.204 256.971C153.357 256.942 153.516 256.964 153.656 257.034C153.795 257.104 153.908 257.217 153.977 257.357C154.046 257.497 154.067 257.656 154.037 257.809C153.963 257.957 146.815 272.962 147.123 277.944C147.13 278.037 147.118 278.131 147.088 278.221C147.058 278.31 147.011 278.392 146.949 278.463C146.887 278.534 146.812 278.592 146.728 278.633C146.644 278.675 146.552 278.7 146.459 278.706Z" fill="#263238"/>
<path d="M152.019 258.288C147.344 258.288 138.941 255.829 134.919 253.455C130.711 250.995 131.991 241.918 133.11 233.899C133.245 232.915 133.381 231.943 133.504 231.021C133.996 227.208 133.873 219.877 133.738 212.78C133.59 204.404 133.455 196.484 134.23 193.2C135.657 187.05 148.021 164.419 148.55 163.46C148.592 163.376 148.651 163.302 148.723 163.242C148.795 163.183 148.879 163.138 148.969 163.112C149.058 163.085 149.153 163.077 149.246 163.089C149.339 163.1 149.428 163.13 149.509 163.177C149.591 163.22 149.664 163.28 149.723 163.352C149.782 163.425 149.826 163.508 149.852 163.597C149.878 163.686 149.887 163.78 149.876 163.873C149.866 163.965 149.837 164.055 149.792 164.136C149.669 164.37 136.998 187.628 135.608 193.519C134.882 196.631 135.029 204.835 135.165 212.756C135.288 219.902 135.423 227.294 134.919 231.205C134.796 232.14 134.66 233.111 134.513 234.095C133.516 241.291 132.261 250.257 135.632 252.225C139.827 254.685 149.681 257.427 153.311 256.763C155.095 256.444 161.147 254.697 164.53 245.817C167.286 238.597 168.049 214.711 168.049 212.227C167.57 210.78 166.886 209.409 166.019 208.156C164.309 205.278 163.559 203.863 164.247 203.064C164.936 202.264 165.835 202.867 166.204 203.064C167.749 203.84 169.192 204.807 170.497 205.942L171.334 206.594C171.334 206.594 171.334 206.458 171.334 206.385C171.026 205.265 170.682 204.269 170.399 203.47C169.808 201.735 169.476 200.776 170.03 200.137C170.213 199.958 170.442 199.834 170.691 199.775C170.94 199.717 171.201 199.727 171.444 199.804C173.314 200.173 174.335 200.038 175.135 199.288C176.095 198.255 192.986 170.999 194.179 165.095C195.532 158.552 195.409 151.271 193.921 148.885C192.174 146.093 190.058 143.264 190.033 143.239C189.921 143.087 189.874 142.897 189.901 142.711C189.929 142.524 190.029 142.356 190.181 142.243C190.255 142.185 190.339 142.143 190.43 142.118C190.52 142.094 190.615 142.088 190.708 142.1C190.801 142.113 190.89 142.144 190.971 142.192C191.051 142.239 191.122 142.303 191.177 142.378C191.177 142.378 193.355 145.281 195.127 148.122C197.083 151.258 196.824 159.352 195.582 165.341C194.339 171.331 177.091 199.251 176.033 200.309C174.655 201.686 172.871 201.539 171.112 201.219C171.258 201.829 171.443 202.429 171.666 203.015C171.949 203.839 172.306 204.86 172.625 206.028C172.871 206.95 173.056 207.885 172.404 208.303C171.752 208.722 170.94 208.168 169.574 207.073C168.358 206.014 167.015 205.11 165.576 204.38H165.502C166.004 205.461 166.575 206.509 167.212 207.516C168.59 209.853 169.439 211.341 169.439 212.313C169.439 212.559 168.885 238.388 165.835 246.407C162.144 255.988 155.5 257.895 153.532 258.252C153.03 258.31 152.523 258.322 152.019 258.288Z" fill="#263238"/>
<path d="M216.73 235.842C216.103 235.842 215.5 235.842 215.02 235.769C212.067 235.547 201.807 232.177 192.753 229.213C187.315 227.43 182.185 225.745 179.626 225.068C175.182 223.775 171.213 221.209 168.209 217.688C168.138 217.617 168.083 217.532 168.047 217.439C168.01 217.345 167.995 217.244 168 217.144C168.005 217.044 168.032 216.946 168.078 216.856C168.124 216.767 168.188 216.688 168.267 216.626C168.345 216.563 168.436 216.517 168.533 216.492C168.631 216.467 168.732 216.462 168.831 216.479C168.931 216.496 169.025 216.533 169.109 216.589C169.192 216.645 169.263 216.718 169.317 216.803C172.148 220.059 175.848 222.443 179.983 223.678C182.591 224.367 187.746 226.052 193.196 227.848C201.733 230.64 212.35 234.133 215.131 234.342C219.289 234.662 226.338 233.776 228.663 230.037C230.989 226.298 231.358 217.184 230.718 214.946L230.632 214.638C229.869 211.944 228.085 205.61 222.266 203.679C214.983 201.219 202.275 197.763 200.921 197.997C200.639 197.997 200.331 198.759 200.146 199.165C199.863 199.805 199.568 200.457 198.916 200.469C198.264 200.481 197.834 199.719 197.686 199.399C197.428 198.882 197.169 198.28 196.911 197.653C196.517 196.705 195.681 194.738 195.225 194.627C194.639 195.167 194.107 195.765 193.638 196.41C192.507 197.862 191.744 198.87 190.883 198.513C190.022 198.157 190.12 197.284 190.12 196.939C190.145 196.078 190.252 195.221 190.44 194.381C190.833 192.388 190.846 191.7 189.517 191.195C186.368 189.965 185.666 184.787 185.666 182.881C185.666 182.692 185.742 182.51 185.875 182.376C186.009 182.243 186.191 182.167 186.38 182.167C186.569 182.167 186.751 182.243 186.885 182.376C187.018 182.51 187.094 182.692 187.094 182.881C187.094 184.111 187.598 188.957 190.022 189.867C192.445 190.777 192.187 192.856 191.842 194.651C191.711 195.358 191.633 196.073 191.609 196.792C191.916 196.447 192.285 195.967 192.568 195.562C193.091 194.822 193.698 194.145 194.377 193.544C194.548 193.41 194.748 193.316 194.961 193.269C195.174 193.222 195.395 193.224 195.607 193.274C196.739 193.581 197.428 195.23 198.227 197.124C198.449 197.653 198.67 198.181 198.879 198.636C199.211 197.899 199.667 196.902 200.626 196.656C202.447 196.213 217.96 200.777 222.771 202.376C229.291 204.553 231.296 211.637 232.047 214.306L232.133 214.601C232.871 217.159 232.6 226.63 229.918 230.849C227.372 234.822 220.913 235.842 216.73 235.842Z" fill="#263238"/>
<path d="M311.815 282.383C311.565 282.401 311.314 282.401 311.064 282.383C310.877 282.356 310.708 282.255 310.595 282.102C310.482 281.95 310.434 281.759 310.462 281.572C310.489 281.384 310.59 281.215 310.743 281.102C310.895 280.989 311.086 280.941 311.273 280.969C311.372 280.969 319.885 282.002 327.377 267.661C333.836 255.361 334.144 251.672 334.045 250.737C333.812 250.909 333.504 251.192 333.221 251.45C332.491 252.196 331.633 252.805 330.687 253.246C329.272 253.812 314.005 266.775 310.88 280.428C310.86 280.519 310.821 280.605 310.768 280.68C310.714 280.756 310.645 280.821 310.566 280.87C310.487 280.919 310.399 280.952 310.307 280.967C310.215 280.982 310.121 280.978 310.031 280.957C309.939 280.938 309.852 280.901 309.774 280.847C309.697 280.794 309.631 280.726 309.581 280.647C309.53 280.568 309.496 280.479 309.48 280.387C309.465 280.294 309.468 280.199 309.49 280.108C312.762 265.816 328.485 252.594 330.158 251.918C330.942 251.546 331.651 251.033 332.249 250.405C332.727 249.836 333.353 249.41 334.058 249.175C334.26 249.131 334.472 249.149 334.664 249.225C334.857 249.302 335.023 249.434 335.14 249.605C336.838 251.868 331.794 262.286 328.632 268.288C321.804 281.276 314.201 282.383 311.815 282.383Z" fill="#263238"/>
<path d="M312.897 280.71C312.794 280.709 312.692 280.686 312.598 280.641C312.505 280.596 312.422 280.532 312.356 280.452C312.295 280.38 312.249 280.297 312.22 280.208C312.192 280.118 312.181 280.024 312.189 279.93C312.197 279.836 312.224 279.745 312.267 279.662C312.31 279.578 312.37 279.504 312.442 279.444C312.541 279.37 322.173 271.191 326.344 262.335C326.429 262.173 326.574 262.05 326.748 261.991C326.921 261.932 327.111 261.943 327.277 262.021C327.443 262.098 327.573 262.237 327.64 262.407C327.707 262.578 327.705 262.768 327.636 262.938C323.33 272.089 313.771 280.157 313.365 280.538C313.234 280.649 313.069 280.71 312.897 280.71Z" fill="#263238"/>
<path d="M311.212 263.528H311.151C311.058 263.522 310.967 263.497 310.883 263.455C310.799 263.414 310.725 263.355 310.664 263.284C310.604 263.213 310.558 263.131 310.529 263.042C310.501 262.953 310.491 262.859 310.499 262.766C311.471 251.069 317.179 239.003 327.464 226.925C327.895 226.409 328.19 226.064 328.313 225.892C328.561 225.495 328.786 225.084 328.989 224.662C329.826 223.088 330.503 221.858 331.45 222.128C332.397 222.399 332.68 223.358 332.422 228.278C331.905 238.118 325.2 257.157 324.917 257.957C324.894 258.053 324.851 258.144 324.79 258.223C324.729 258.302 324.653 258.368 324.565 258.416C324.478 258.463 324.381 258.492 324.282 258.5C324.183 258.509 324.083 258.496 323.989 258.463C323.895 258.43 323.809 258.378 323.736 258.31C323.663 258.242 323.605 258.159 323.567 258.068C323.528 257.976 323.509 257.877 323.51 257.777C323.512 257.678 323.534 257.58 323.576 257.489C323.65 257.292 330.503 237.872 330.958 228.204C331.07 226.792 331.07 225.373 330.958 223.961C330.699 224.367 330.392 224.945 330.195 225.314C329.998 225.683 329.654 226.335 329.432 226.655C329.211 226.974 328.965 227.233 328.485 227.798C318.397 239.655 312.812 251.438 311.864 262.827C311.862 263.004 311.794 263.174 311.674 263.303C311.553 263.433 311.389 263.513 311.212 263.528Z" fill="#263238"/>
<path d="M311.569 270.588H311.372C311.191 270.534 311.039 270.41 310.949 270.244C310.859 270.078 310.839 269.884 310.893 269.703C315.038 255.509 324.708 237.724 324.807 237.503C324.85 237.42 324.91 237.348 324.982 237.289C325.055 237.23 325.138 237.186 325.227 237.16C325.316 237.134 325.41 237.125 325.503 237.136C325.595 237.146 325.685 237.174 325.766 237.22C325.848 237.264 325.921 237.323 325.98 237.395C326.039 237.468 326.083 237.551 326.109 237.64C326.135 237.729 326.143 237.823 326.133 237.916C326.123 238.008 326.094 238.098 326.049 238.179C325.951 238.364 316.367 256.062 312.258 270.158C312.202 270.292 312.106 270.406 311.982 270.483C311.859 270.56 311.714 270.597 311.569 270.588Z" fill="#263238"/>
<path d="M307.25 280.945C307.067 280.946 306.89 280.875 306.758 280.748C306.266 280.28 294.751 269.002 296.092 254.919C297.261 242.619 300.25 231.046 302.612 229.533C302.77 229.419 302.953 229.343 303.145 229.313C303.338 229.284 303.534 229.3 303.719 229.361C305.134 229.853 305.43 231.931 305.799 234.576C306 236.677 306.472 238.744 307.201 240.725C309.182 245.387 313.967 266.739 311.396 278.3C311.345 278.474 311.23 278.621 311.075 278.713C310.919 278.805 310.734 278.835 310.557 278.796C310.381 278.757 310.226 278.652 310.123 278.503C310.021 278.354 309.979 278.172 310.006 277.993C312.466 266.714 307.828 245.842 305.885 241.279C305.112 239.195 304.608 237.021 304.384 234.809C304.15 233.174 303.867 231.12 303.338 230.787C302.009 231.624 298.811 241.414 297.507 255.091C296.277 268.448 307.632 279.604 307.742 279.69C307.852 279.786 307.93 279.913 307.964 280.054C307.999 280.196 307.988 280.345 307.934 280.48C307.88 280.615 307.785 280.73 307.662 280.809C307.54 280.888 307.396 280.927 307.25 280.92V280.945Z" fill="#263238"/>
<path d="M308.235 279.259C308.098 279.258 307.964 279.218 307.849 279.144C307.733 279.07 307.641 278.965 307.583 278.841C301.432 265.238 300.435 246.137 300.435 245.952C300.429 245.859 300.441 245.765 300.471 245.677C300.501 245.589 300.548 245.507 300.61 245.437C300.672 245.367 300.747 245.311 300.831 245.27C300.915 245.23 301.006 245.206 301.1 245.202C301.284 245.198 301.461 245.267 301.595 245.394C301.728 245.521 301.807 245.694 301.813 245.878C301.813 246.063 302.859 264.906 308.85 278.263C308.925 278.434 308.93 278.628 308.863 278.803C308.796 278.978 308.664 279.12 308.493 279.197C308.413 279.236 308.325 279.257 308.235 279.259Z" fill="#263238"/>
<path d="M307.398 244.058C307.217 244.059 307.043 243.99 306.91 243.867C306.778 243.744 306.697 243.575 306.685 243.394C305.59 224.625 313.377 208.427 317.117 200.653C317.803 199.31 318.415 197.931 318.95 196.521C319.774 193.753 320.832 193.286 321.558 193.384C322.629 193.52 324.08 194.823 324.339 204.356C324.671 216.384 321.165 237.417 321.14 237.564C321.125 237.657 321.091 237.746 321.041 237.826C320.992 237.906 320.927 237.975 320.85 238.03C320.774 238.085 320.687 238.124 320.595 238.145C320.504 238.167 320.409 238.17 320.316 238.155C320.223 238.139 320.134 238.106 320.054 238.056C319.974 238.006 319.905 237.941 319.85 237.865C319.795 237.788 319.756 237.702 319.734 237.61C319.713 237.518 319.71 237.423 319.725 237.33C319.725 237.121 323.231 216.212 322.912 204.331C322.678 195.463 321.361 194.737 321.349 194.725C320.835 195.343 320.48 196.078 320.316 196.865C319.764 198.35 319.123 199.799 318.397 201.207C314.706 208.882 307.041 224.846 308.112 243.246C308.117 243.34 308.103 243.434 308.072 243.522C308.04 243.611 307.992 243.692 307.929 243.762C307.866 243.832 307.79 243.888 307.705 243.929C307.621 243.969 307.529 243.992 307.435 243.997L307.398 244.058Z" fill="#263238"/>
<path d="M310.941 260.49C310.764 260.489 310.595 260.423 310.463 260.305C310.332 260.187 310.248 260.026 310.227 259.851C309.994 257.723 310.756 254.476 312.159 248.572C312.86 245.596 313.721 241.894 314.705 237.318C316.761 226.743 318.276 216.069 319.245 205.34C319.267 205.153 319.359 204.981 319.503 204.86C319.647 204.739 319.832 204.677 320.02 204.688C320.113 204.695 320.204 204.722 320.287 204.765C320.37 204.808 320.444 204.868 320.503 204.94C320.563 205.012 320.608 205.096 320.634 205.186C320.661 205.275 320.67 205.369 320.66 205.463C319.689 216.25 318.17 226.981 316.108 237.613C315.111 242.201 314.238 245.903 313.537 248.88C312.183 254.636 311.433 257.797 311.642 259.691C311.663 259.878 311.608 260.066 311.491 260.214C311.373 260.361 311.202 260.456 311.015 260.478L310.941 260.49Z" fill="#263238"/>
<path d="M321.915 285.95C321.762 285.95 321.612 285.901 321.488 285.81C321.365 285.72 321.273 285.592 321.226 285.446C321.173 285.265 321.193 285.07 321.283 284.904C321.373 284.738 321.525 284.615 321.706 284.561L323.157 284.105C323.087 284.067 323.021 284.022 322.961 283.97C322.821 283.842 322.72 283.677 322.668 283.495C322.616 283.313 322.615 283.12 322.665 282.937C322.909 282.203 323.27 281.513 323.736 280.895L323.896 280.662C321.226 281.67 317.523 282.765 314.976 281.658C314.89 281.622 314.811 281.569 314.745 281.502C314.68 281.435 314.627 281.356 314.592 281.269C314.556 281.183 314.539 281.09 314.539 280.996C314.54 280.902 314.559 280.809 314.595 280.723C314.673 280.55 314.816 280.414 314.993 280.345C315.17 280.276 315.368 280.279 315.542 280.354C318.003 281.412 322.259 279.764 323.674 279.223C324.179 279.026 325.101 278.669 325.593 279.296C326.085 279.924 325.593 280.662 324.929 281.682C324.695 282.027 324.437 282.42 324.252 282.765C324.658 282.666 325.212 282.494 325.655 282.359C326.842 281.923 328.084 281.658 329.346 281.572C330.133 281.572 330.367 281.953 330.404 282.273C330.502 282.937 330.576 283.367 322.136 285.963L321.915 285.95Z" fill="#263238"/>
<path d="M304.914 280.526C304.797 280.528 304.682 280.499 304.581 280.44C302.638 279.377 300.87 278.02 299.341 276.418C298.172 275.188 297.311 274.856 296.88 274.967C296.801 274.999 296.732 275.053 296.682 275.123C296.632 275.193 296.602 275.275 296.597 275.36C296.577 275.545 296.506 275.72 296.393 275.867C296.281 276.015 296.13 276.129 295.957 276.197C295.281 276.455 294.616 275.914 293.841 275.287L293.645 275.139C293.645 275.225 293.645 275.311 293.645 275.385C293.768 276.824 293.964 278.989 292.414 279.702C292.329 279.741 292.236 279.762 292.142 279.765C292.048 279.769 291.955 279.753 291.867 279.72C291.779 279.687 291.698 279.637 291.63 279.572C291.561 279.508 291.506 279.431 291.467 279.345C291.428 279.26 291.407 279.167 291.404 279.074C291.401 278.98 291.416 278.886 291.449 278.798C291.482 278.71 291.533 278.63 291.597 278.561C291.661 278.492 291.738 278.437 291.824 278.398C292.451 278.116 292.304 276.48 292.217 275.508C292.131 274.536 292.07 273.749 292.66 273.417C293.251 273.085 293.952 273.577 294.715 274.18L295.305 274.647C295.408 274.398 295.565 274.174 295.765 273.993C295.965 273.813 296.203 273.679 296.462 273.602C297.089 273.417 298.418 273.417 300.312 275.447C301.736 276.911 303.369 278.154 305.16 279.136C305.244 279.179 305.32 279.239 305.381 279.311C305.443 279.383 305.489 279.467 305.518 279.558C305.546 279.648 305.557 279.743 305.548 279.838C305.539 279.932 305.512 280.024 305.467 280.108C305.417 280.218 305.34 280.314 305.244 280.388C305.147 280.461 305.033 280.508 304.914 280.526Z" fill="#263238"/>
<path d="M58.1519 279.653C56.8803 279.652 55.6103 279.566 54.3504 279.394C48.7651 278.644 40.6209 275.705 33.5839 266.308C21.909 250.651 21.4538 237.908 21.2815 232.46C21.2815 231.636 21.2815 230.996 21.1708 230.529C20.8633 228.069 21.1708 225.166 22.6102 224.563C22.9793 224.391 23.7297 224.268 24.5294 225.24C25.0473 225.962 25.354 226.813 25.4151 227.7C25.6735 229.274 25.9688 231.07 29.4503 233.099C36.7334 237.318 60.9937 252.889 67.7108 276.012C67.7468 276.104 67.7632 276.203 67.7588 276.302C67.7545 276.401 67.7296 276.498 67.6856 276.587C67.6416 276.676 67.5796 276.755 67.5035 276.819C67.4274 276.882 67.3389 276.929 67.2436 276.957C67.1484 276.984 67.0484 276.991 66.9501 276.978C66.8519 276.965 66.7574 276.931 66.6729 276.879C66.5884 276.827 66.5156 276.758 66.4592 276.677C66.4028 276.595 66.364 276.503 66.3453 276.406C59.7758 253.799 35.8968 238.486 28.7368 234.329C24.6647 231.968 24.2833 229.631 24.0127 227.933C23.9754 227.311 23.7761 226.709 23.4345 226.187C23.3521 226.068 23.2424 225.971 23.1146 225.904C22.8809 226.052 22.2411 227.651 22.5856 230.393C22.5856 230.885 22.6717 231.623 22.7086 232.447C22.8932 237.761 23.336 250.195 34.7404 265.496C41.4575 274.524 49.1834 277.279 54.4857 278.017C57.8371 278.511 61.2542 278.31 64.5245 277.426C64.704 277.368 64.8992 277.383 65.0675 277.469C65.2358 277.554 65.3635 277.702 65.4226 277.882C65.4532 277.97 65.4656 278.064 65.4591 278.158C65.4527 278.252 65.4275 278.343 65.385 278.427C65.3426 278.511 65.2837 278.585 65.212 278.646C65.1403 278.706 65.0571 278.752 64.9674 278.779C62.7516 279.408 60.4545 279.702 58.1519 279.653Z" fill="#263238"/>
<path d="M64.8929 277.144H64.7699C64.3147 277.058 53.4394 275.114 41.7152 264.66C34.45 257.937 29.1656 249.353 26.4356 239.84C26.4138 239.748 26.4102 239.654 26.4249 239.561C26.4397 239.468 26.4726 239.379 26.5217 239.299C26.5709 239.22 26.6352 239.15 26.7112 239.095C26.7872 239.04 26.8733 239 26.9646 238.979C27.0559 238.957 27.1505 238.953 27.2432 238.968C27.3359 238.983 27.4248 239.016 27.5047 239.065C27.5847 239.114 27.6542 239.178 27.7093 239.254C27.7644 239.33 27.8039 239.416 27.8258 239.507C30.4731 248.748 35.6048 257.086 42.6625 263.614C54.0545 273.786 64.9052 275.742 65.0159 275.754C65.2002 275.79 65.3634 275.896 65.4712 276.049C65.579 276.203 65.6231 276.393 65.5941 276.578C65.5624 276.74 65.4747 276.885 65.3465 276.988C65.2182 277.092 65.0577 277.147 64.8929 277.144Z" fill="#263238"/>
<path d="M71.8568 276.898C71.6708 276.914 71.486 276.856 71.343 276.736C71.1999 276.616 71.1104 276.444 71.0941 276.258C71.0778 276.072 71.136 275.888 71.256 275.745C71.3759 275.602 71.5478 275.512 71.7338 275.496C71.8691 275.496 85.2664 272.679 85.7708 247.847C86.386 220.456 80.8499 207.332 77.4175 203.901C76.704 203.175 76.0765 202.831 75.769 202.954C74.4526 203.47 74.3419 209.509 74.2804 213.113C74.182 217.934 71.8199 222.571 68.6459 229.004C67.551 231.193 66.3207 233.678 65.029 236.383C60.2187 246.727 62.8022 264.574 62.8269 264.746C62.8528 264.843 62.8579 264.945 62.8419 265.044C62.8259 265.143 62.7891 265.238 62.734 265.322C62.6788 265.406 62.6066 265.477 62.5219 265.531C62.4373 265.585 62.3421 265.621 62.2427 265.636C62.1433 265.651 62.0419 265.644 61.9452 265.617C61.8484 265.59 61.7584 265.543 61.6812 265.479C61.6039 265.414 61.5411 265.334 61.4968 265.244C61.4526 265.154 61.4279 265.056 61.4244 264.955C61.3137 264.217 58.7425 246.506 63.7372 235.781C64.9675 233.013 66.2838 230.529 67.428 228.327C70.5528 222.067 72.8164 217.553 72.9025 213.051C73.0132 206.656 73.247 202.4 75.2892 201.588C76.6794 201.035 78.0326 202.412 78.4755 202.818C83.2365 207.627 87.7884 223.408 87.2471 247.797C86.6566 273.872 72.6319 276.701 72.0414 276.812L71.8568 276.898Z" fill="#263238"/>
<path d="M55.2362 283.245C51.041 283.097 50.8934 282.359 50.8196 282.015C50.7458 281.67 51.041 281.08 51.7669 280.785C52.7851 280.33 53.9065 280.156 55.0147 280.281C55.8423 280.37 56.6793 280.29 57.4752 280.047C59.3575 279.469 59.6527 278.756 59.6527 278.756C59.6744 278.666 59.7135 278.581 59.7679 278.507C59.8224 278.432 59.891 278.369 59.9698 278.321C60.0487 278.273 60.1363 278.241 60.2275 278.227C60.3188 278.213 60.4119 278.217 60.5016 278.239C60.6854 278.288 60.8429 278.407 60.9415 278.569C61.0401 278.732 61.072 278.927 61.0306 279.112C61.0306 279.346 60.5754 280.588 57.8935 281.412C56.9257 281.704 55.9102 281.804 54.904 281.707C54.3772 281.64 53.8438 281.64 53.317 281.707C53.8952 281.781 54.5472 281.83 55.2485 281.855C55.4377 281.855 55.6192 281.93 55.753 282.064C55.8868 282.198 55.962 282.379 55.962 282.568C55.962 282.758 55.8868 282.939 55.753 283.073C55.6192 283.207 55.4377 283.282 55.2485 283.282L55.2362 283.245Z" fill="#263238"/>
<path d="M76.8024 279.198C76.7057 279.198 76.6101 279.178 76.5213 279.14C76.4325 279.102 76.3523 279.047 76.2857 278.977C76.1519 278.843 76.0768 278.661 76.0768 278.472C76.0768 278.283 76.1519 278.102 76.2857 277.968C76.7363 277.556 77.1481 277.103 77.5159 276.615L77.4421 276.689C76.9377 277.292 76.2119 278.189 75.1908 277.685C74.7907 277.445 74.4423 277.128 74.1657 276.752C73.8891 276.376 73.6897 275.949 73.5791 275.496C73.5351 275.311 73.5661 275.117 73.6653 274.956C73.7645 274.794 73.9238 274.679 74.1081 274.635C74.2925 274.591 74.4868 274.622 74.6483 274.721C74.8098 274.82 74.9253 274.979 74.9693 275.164C75.1025 275.669 75.418 276.107 75.8551 276.394C76.0029 276.161 76.1717 275.943 76.3595 275.742C76.8762 275.139 77.7497 274.118 78.82 274.832C78.9715 274.936 79.0978 275.073 79.1893 275.233C79.2809 275.392 79.3354 275.571 79.349 275.754C79.4228 276.898 77.9465 278.398 77.3068 278.989C77.1702 279.118 76.9905 279.193 76.8024 279.198Z" fill="#263238"/>
<path d="M71.7709 273.786C71.6775 273.804 71.5813 273.804 71.4879 273.786C71.401 273.749 71.3225 273.694 71.2571 273.626C71.1917 273.558 71.1408 273.477 71.1075 273.388C71.0742 273.3 71.0591 273.206 71.0631 273.111C71.0672 273.017 71.0903 272.924 71.1311 272.839C78.0371 255.555 80.6296 236.85 78.6848 218.34C78.6639 218.151 78.7179 217.961 78.8352 217.812C78.9525 217.663 79.1238 217.565 79.3122 217.54C79.4054 217.528 79.5 217.535 79.5904 217.561C79.6808 217.586 79.7652 217.629 79.8387 217.687C79.9121 217.746 79.973 217.819 80.0179 217.901C80.0627 217.984 80.0905 218.074 80.0996 218.168C83.6427 248.154 72.5336 273.171 72.4229 273.429C72.3575 273.543 72.262 273.636 72.147 273.699C72.032 273.762 71.9018 273.792 71.7709 273.786Z" fill="#263238"/>
<path d="M61.6826 262.053C61.5512 262.054 61.4219 262.019 61.309 261.952C61.1961 261.885 61.104 261.788 61.0429 261.671C60.9567 261.487 51.6438 242.988 54.6456 215.278C55.8525 203.231 58.6404 191.396 62.9374 180.077C64.3645 176.128 65.2995 173.521 65.0411 171.897C64.9058 171.061 63.8109 163.681 65.8408 162.771C66.2468 162.587 66.9111 162.562 67.6739 163.497C69.8145 166.129 76.2855 186.054 75.9042 202.499C75.9042 202.592 75.8857 202.685 75.8499 202.772C75.814 202.858 75.7614 202.937 75.6952 203.003C75.6289 203.069 75.5503 203.122 75.4637 203.158C75.3771 203.193 75.2843 203.212 75.1906 203.212C75.0969 203.212 75.0041 203.193 74.9176 203.158C74.831 203.122 74.7523 203.069 74.6861 203.003C74.6198 202.937 74.5673 202.858 74.5314 202.772C74.4955 202.685 74.4771 202.592 74.4771 202.499C74.8585 185.919 68.2152 166.449 66.5666 164.37L66.3698 164.161C66.0007 164.948 65.8654 167.949 66.4559 171.651C66.7635 173.632 65.7793 176.374 64.2784 180.532C60.0275 191.746 57.2646 203.469 56.0604 215.401C53.1078 242.669 62.2116 260.81 62.31 260.995C62.3544 261.078 62.3816 261.169 62.3901 261.262C62.3986 261.356 62.3882 261.45 62.3595 261.54C62.3309 261.629 62.2845 261.712 62.2231 261.783C62.1618 261.854 62.0867 261.912 62.0025 261.954C61.9051 262.012 61.7955 262.046 61.6826 262.053Z" fill="#263238"/>
<path d="M61.9161 246.063C61.731 246.063 61.5532 245.991 61.42 245.863C61.2869 245.734 61.2089 245.559 61.2025 245.374C61.2025 245.116 61.0426 239.126 63.3678 226.162C65.6929 213.199 68.2887 182.511 68.2887 182.192C68.3104 182.005 68.4027 181.833 68.5468 181.712C68.6909 181.591 68.8758 181.529 69.0638 181.54C69.1571 181.547 69.248 181.574 69.3311 181.617C69.4141 181.66 69.4876 181.72 69.5472 181.792C69.6069 181.864 69.6514 181.948 69.6782 182.038C69.7051 182.127 69.7137 182.222 69.7035 182.315C69.7035 182.622 67.0585 213.506 64.7825 226.42C62.5066 239.335 62.6296 245.263 62.6419 245.325C62.6422 245.514 62.5695 245.697 62.4389 245.834C62.3084 245.971 62.13 246.053 61.9407 246.063H61.9161Z" fill="#263238"/>
<path d="M44.3238 245.116C44.2214 245.115 44.1204 245.092 44.0272 245.05C43.9341 245.007 43.8507 244.946 43.7825 244.87C43.684 244.747 33.4731 232.902 30.9757 216.999C28.4783 201.096 27.4203 195.795 25.8087 193.507C24.8737 192.167 24.8368 190.728 25.7225 189.904C26.2023 189.448 28.183 188.243 32.5504 191.835C38.3448 196.57 52.0005 213.974 55.4451 225.326C55.4867 225.503 55.459 225.69 55.3677 225.847C55.2763 226.004 55.1283 226.121 54.9538 226.173C54.7793 226.225 54.5916 226.208 54.4291 226.126C54.2666 226.044 54.1416 225.903 54.0796 225.732C50.7702 214.822 37.1884 197.443 31.64 192.942C28.872 190.678 27.1619 190.482 26.719 190.949C26.4484 191.207 26.4484 191.884 27.0143 192.683C28.8104 195.229 29.8315 200.383 32.415 216.778C34.8755 232.275 44.8036 243.837 44.902 243.935C44.9636 244.006 45.0106 244.088 45.0402 244.178C45.0698 244.267 45.0816 244.361 45.0747 244.455C45.0678 244.548 45.0425 244.64 45.0002 244.724C44.9579 244.808 44.8994 244.882 44.8282 244.944C44.688 245.063 44.5077 245.124 44.3238 245.116Z" fill="#263238"/>
<path d="M59.9725 258.129C59.8669 258.129 59.7624 258.107 59.6667 258.062C59.5709 258.017 59.4863 257.952 59.4189 257.871C59.4189 257.797 53.4153 250.614 45.5172 239.138C37.6191 227.663 33.3255 206.828 33.141 205.93C33.1231 205.838 33.1236 205.743 33.1424 205.651C33.1612 205.559 33.1979 205.472 33.2505 205.394C33.303 205.317 33.3704 205.25 33.4487 205.199C33.527 205.147 33.6148 205.111 33.7069 205.094C33.8908 205.06 34.0804 205.099 34.2362 205.203C34.392 205.306 34.5021 205.465 34.5435 205.647C34.5435 205.868 38.9108 226.999 46.6982 238.327C54.4856 249.655 60.4646 256.874 60.5261 256.948C60.6446 257.096 60.7006 257.284 60.6822 257.472C60.6638 257.661 60.5725 257.835 60.4277 257.957C60.3009 258.066 60.1397 258.127 59.9725 258.129Z" fill="#263238"/>
<path d="M39.2063 200.666C39.0535 200.662 38.9058 200.61 38.7843 200.517C38.6628 200.424 38.5737 200.296 38.5297 200.149C38.5297 200.002 34.0024 184.922 32.6 175.107C32.2678 172.734 31.9479 170.79 31.6896 169.191C31.0006 165.022 30.7423 163.448 31.5665 162.66C31.7872 162.477 32.0497 162.351 32.3308 162.293C32.6119 162.235 32.9029 162.247 33.1782 162.328C35.491 162.783 54.9657 177.641 59.6652 194.799C59.6927 194.89 59.7015 194.986 59.6912 195.081C59.6808 195.176 59.6515 195.268 59.605 195.351C59.5585 195.435 59.4957 195.508 59.4204 195.567C59.345 195.625 59.2587 195.668 59.1664 195.693C59.0742 195.718 58.9779 195.724 58.8833 195.711C58.7888 195.697 58.6978 195.665 58.6158 195.616C58.5338 195.567 58.4625 195.502 58.4061 195.425C58.3497 195.348 58.3093 195.261 58.2874 195.168C53.8216 178.908 35.0358 164.136 32.9075 163.718C32.7814 163.695 32.6522 163.695 32.5261 163.718C32.2801 164.075 32.6615 166.35 33.092 168.995C33.3504 170.581 33.6703 172.549 34.0147 174.935C35.3926 184.652 39.8461 199.62 39.8953 199.768C39.9488 199.949 39.9283 200.144 39.8384 200.31C39.7485 200.476 39.5964 200.599 39.4155 200.653C39.3471 200.67 39.2762 200.674 39.2063 200.666Z" fill="#263238"/>
<path d="M54.8917 221.931C54.7252 221.934 54.5632 221.877 54.4348 221.771C54.3063 221.665 54.2197 221.517 54.1905 221.353C52.8789 215.87 50.5368 210.686 47.2889 206.077C41.5805 197.763 38.1113 179.215 37.9759 178.428C37.9581 178.336 37.9586 178.241 37.9773 178.15C37.9961 178.058 38.0329 177.97 38.0854 177.893C38.138 177.815 38.2054 177.748 38.2837 177.697C38.362 177.645 38.4497 177.61 38.5419 177.592C38.7288 177.563 38.9199 177.606 39.0756 177.714C39.2313 177.821 39.3397 177.985 39.3784 178.17C39.3784 178.354 42.9215 197.21 48.4576 205.229C51.8396 209.993 54.263 215.369 55.593 221.058C55.6106 221.15 55.6096 221.245 55.5899 221.337C55.5702 221.429 55.5322 221.516 55.4783 221.593C55.4244 221.669 55.3556 221.735 55.2759 221.784C55.1963 221.834 55.1075 221.867 55.0148 221.882L54.8917 221.931Z" fill="#263238"/>
<path d="M63.2942 181.885C63.2004 181.881 63.1083 181.86 63.0229 181.821C62.9375 181.782 62.8607 181.727 62.7967 181.658C62.7327 181.59 62.6829 181.509 62.65 181.422C62.6172 181.334 62.6019 181.24 62.6052 181.147C62.8636 174.345 62.027 169.856 59.6157 165.157L59.3328 164.628C54.5841 155.293 49.0111 144.076 48.1991 140.189C47.6701 137.729 46.8458 136.733 46.4522 136.721C46.366 136.721 45.3449 136.807 44.1024 140.927C41.9864 147.889 46.9566 173.828 47.0181 174.136C47.054 174.322 47.0145 174.514 46.9084 174.671C46.8022 174.828 46.6381 174.936 46.4522 174.972C46.2662 175.008 46.0736 174.969 45.9167 174.863C45.7598 174.757 45.6515 174.592 45.6156 174.406C45.4065 173.324 40.5224 147.852 42.7368 140.558C43.7948 137.041 45.0128 135.331 46.4276 135.331H46.4399C48.2852 135.405 49.1587 138.246 49.5155 139.931C50.4012 144.125 57.7581 158.577 60.5876 164.013L60.8583 164.555C63.3926 169.474 64.2783 174.21 64.0077 181.27C63.9838 181.441 63.8982 181.598 63.7669 181.712C63.6356 181.825 63.4675 181.886 63.2942 181.885Z" fill="#263238"/>
<path d="M58.2008 193.274C58.0226 193.272 57.8513 193.204 57.7197 193.084C57.5881 192.964 57.5054 192.799 57.4873 192.622C57.4873 192.536 56.7983 183.508 56.1217 177.752C55.4451 171.996 48.7403 161.394 48.6418 161.295C48.5407 161.132 48.5085 160.936 48.5523 160.749C48.5962 160.562 48.7124 160.4 48.8756 160.299C49.0387 160.198 49.2354 160.166 49.4222 160.21C49.6091 160.253 49.7709 160.37 49.8721 160.533C50.155 160.976 56.8598 171.602 57.5611 177.58C58.2623 183.557 58.9267 192.425 58.939 192.511C58.9526 192.699 58.8917 192.884 58.7697 193.027C58.6476 193.169 58.4741 193.258 58.2869 193.274H58.2008Z" fill="#263238"/>
</svg>
