<svg width="206" height="137" viewBox="0 0 206 137" fill="none" xmlns="http://www.w3.org/2000/svg">
<path d="M110.417 59.206C107.9 57.5213 104.883 56.74 101.863 56.9905C98.8419 57.2411 95.9962 58.5084 93.7926 60.5846C91.589 62.6609 90.1583 65.4227 89.7353 68.4168C89.3123 71.411 89.9221 74.4597 91.4646 77.0626" stroke="#263238" stroke-width="0.969642" stroke-linecap="round" stroke-linejoin="round"/>
<path d="M115.168 64.8614C114.907 64.2775 114.606 63.7126 114.267 63.1708" stroke="#263238" stroke-width="0.969642" stroke-linecap="round" stroke-linejoin="round"/>
<path d="M114.028 77.7119C115.025 76.2331 115.715 74.5707 116.058 72.8222C116.401 71.0738 116.391 69.2745 116.028 67.53" stroke="#263238" stroke-width="0.969642" stroke-linecap="round" stroke-linejoin="round"/>
<path d="M89.6818 57.0249C88.7731 57.9345 87.9587 58.9333 87.251 60.006" stroke="#263238" stroke-width="0.969642" stroke-linecap="round" stroke-linejoin="round"/>
<path d="M117.783 81.7151C120.472 78.2475 121.856 73.9482 121.693 69.567C121.529 65.1858 119.829 61.0008 116.89 57.7419C113.95 54.483 109.956 52.3571 105.606 51.7348C101.256 51.1126 96.8243 52.0335 93.085 54.337" stroke="#263238" stroke-width="0.969642" stroke-linecap="round" stroke-linejoin="round"/>
<path d="M88.0791 81.7151C86.224 79.3198 84.9773 76.5123 84.4455 73.5322C83.9136 70.5521 84.1124 67.4879 85.0248 64.6011" stroke="#263238" stroke-width="0.969642" stroke-linecap="round" stroke-linejoin="round"/>
<path d="M82.1992 86.4471C83.3665 87.9343 84.6907 89.292 86.1489 90.4968" stroke="#263238" stroke-width="0.969642" stroke-linecap="round" stroke-linejoin="round"/>
<path d="M117.848 48.5884C113.146 45.3762 107.527 43.7714 101.833 44.0148C96.1393 44.2582 90.6781 46.3366 86.2686 49.9383C81.8591 53.54 78.7391 58.4708 77.3765 63.9911C76.0139 69.5115 76.4823 75.3237 78.7112 80.556" stroke="#263238" stroke-width="0.969642" stroke-linecap="round" stroke-linejoin="round"/>
<path d="M127.518 60.7678C126.81 58.9473 125.9 57.2112 124.807 55.5919" stroke="#263238" stroke-width="0.969642" stroke-linecap="round" stroke-linejoin="round"/>
<path d="M121.155 89.2446C123.729 86.7947 125.778 83.8486 127.176 80.5849C128.574 77.3213 129.293 73.8083 129.288 70.2592" stroke="#263238" stroke-width="0.969642" stroke-linecap="round" stroke-linejoin="round"/>
<path d="M66.1396 70.2592C66.1397 78.9783 69.2346 87.4158 74.8756 94.0758C80.5167 100.736 88.3395 105.188 96.9573 106.644" stroke="#263238" stroke-width="0.969642" stroke-linecap="round" stroke-linejoin="round"/>
<path d="M132.664 92.2148C137.17 86.1326 139.694 78.8163 139.895 71.256C140.096 63.6958 137.964 56.2563 133.788 49.9444C129.612 43.6324 123.592 38.7526 116.545 35.9652C109.497 33.1778 101.761 32.6173 94.3838 34.3597" stroke="#263238" stroke-width="0.969642" stroke-linecap="round" stroke-linejoin="round"/>
<path d="M66.1396 70.2592C66.14 61.9878 68.9255 53.9563 74.0492 47.4533C79.173 40.9502 86.338 36.3526 94.3946 34.3981" stroke="#263238" stroke-width="0.969642" stroke-linecap="round" stroke-linejoin="round"/>
<path d="M124.807 100.01C125.746 99.3215 126.65 98.5908 127.518 97.8181" stroke="#263238" stroke-width="0.969642" stroke-linecap="round" stroke-linejoin="round"/>
<path d="M109.1 106.644C113.306 105.941 117.357 104.513 121.072 102.424" stroke="#263238" stroke-width="0.969642" stroke-linecap="round" stroke-linejoin="round"/>
<path d="M102.948 103.339C99.2023 103.335 95.6111 101.849 92.9624 99.2062C90.3137 96.5639 88.8237 92.9815 88.8193 89.2447V84.499C88.8193 84.2955 88.9004 84.1004 89.0446 83.9565C89.1888 83.8126 89.3844 83.7318 89.5884 83.7318H91.5111C91.715 83.7318 91.9107 83.8126 92.0549 83.9565C92.1991 84.1004 92.2801 84.2955 92.2801 84.499C92.2801 84.7025 92.1991 84.8976 92.0549 85.0415C91.9107 85.1854 91.715 85.2662 91.5111 85.2662H90.3657V89.2447C90.3657 92.5758 91.6922 95.7706 94.0535 98.1261C96.4147 100.482 99.6172 101.805 102.956 101.805C106.296 101.805 109.498 100.482 111.859 98.1261C114.221 95.7706 115.547 92.5758 115.547 89.2447V85.2662H114.394C114.19 85.2662 113.994 85.1854 113.85 85.0415C113.706 84.8976 113.624 84.7025 113.624 84.499C113.624 84.2955 113.706 84.1004 113.85 83.9565C113.994 83.8126 114.19 83.7318 114.394 83.7318H116.316C116.52 83.7318 116.716 83.8126 116.86 83.9565C117.004 84.1004 117.085 84.2955 117.085 84.499V89.2447C117.081 92.9829 115.59 96.5666 112.939 99.2091C110.289 101.852 106.695 103.337 102.948 103.339Z" fill="#263238"/>
<path d="M117.847 115.132V113.598C117.847 113.396 117.807 113.196 117.73 113.01C117.653 112.824 117.54 112.655 117.397 112.512C117.254 112.369 117.084 112.256 116.898 112.179C116.711 112.102 116.511 112.063 116.308 112.063H89.5889C89.3868 112.063 89.1866 112.102 88.9999 112.179C88.8131 112.256 88.6434 112.369 88.5005 112.512C88.3576 112.655 88.2443 112.824 88.1671 113.01C88.09 113.196 88.0504 113.396 88.0508 113.598V115.132H117.847Z" fill="#263238"/>
<path d="M104.447 113.932C104.472 113.822 104.485 113.71 104.485 113.598V102.572H101.409V113.598C101.409 113.71 101.422 113.822 101.448 113.932H104.447Z" fill="#263238"/>
<path d="M112.463 70.2591C112.484 68.999 112.254 67.7471 111.785 66.5767C111.317 65.4062 110.619 64.3405 109.733 63.4418C108.848 62.543 107.791 61.8292 106.626 61.342C105.461 60.8547 104.21 60.6038 102.947 60.6038C101.683 60.6038 100.433 60.8547 99.2675 61.342C98.1023 61.8292 97.046 62.543 96.1603 63.4418C95.2745 64.3405 94.577 65.4062 94.1084 66.5767C93.6399 67.7471 93.4096 68.999 93.4311 70.2591V89.2446C93.4735 91.7343 94.4947 94.1077 96.2746 95.8534C98.0546 97.5992 100.451 98.5774 102.947 98.5774C105.443 98.5774 107.839 97.5992 109.619 95.8534C111.399 94.1077 112.42 91.7343 112.463 89.2446V70.2591Z" stroke="#263238" stroke-width="0.969642" stroke-linecap="round" stroke-linejoin="round"/>
<path d="M112.463 70.2591C112.484 68.999 112.254 67.7471 111.785 66.5767C111.317 65.4062 110.619 64.3405 109.733 63.4418C108.848 62.543 107.791 61.8292 106.626 61.342C105.461 60.8547 104.21 60.6038 102.947 60.6038C101.683 60.6038 100.433 60.8547 99.2675 61.342C98.1023 61.8292 97.046 62.543 96.1603 63.4418C95.2745 64.3405 94.577 65.4062 94.1084 66.5767C93.6399 67.7471 93.4096 68.999 93.4311 70.2591V89.2446C93.4735 91.7343 94.4947 94.1077 96.2746 95.8534C98.0546 97.5992 100.451 98.5774 102.947 98.5774C105.443 98.5774 107.839 97.5992 109.619 95.8534C111.399 94.1077 112.42 91.7343 112.463 89.2446V70.2591Z" fill="#E8E8E8"/>
<path d="M99.0074 71.2593H93.4316V73.5609H99.0074C99.3133 73.5609 99.6067 73.4396 99.8231 73.2238C100.039 73.008 100.161 72.7153 100.161 72.4101C100.161 72.1049 100.039 71.8121 99.8231 71.5963C99.6067 71.3805 99.3133 71.2593 99.0074 71.2593Z" fill="white"/>
<path d="M112.464 71.2593H106.891C106.585 71.2593 106.292 71.3805 106.075 71.5963C105.859 71.8121 105.737 72.1049 105.737 72.4101C105.737 72.7153 105.859 73.008 106.075 73.2238C106.292 73.4396 106.585 73.5609 106.891 73.5609H112.464V71.2593Z" fill="white"/>
<path d="M102.949 71.2593C102.72 71.2593 102.497 71.3268 102.308 71.4532C102.118 71.5797 101.97 71.7594 101.883 71.9697C101.795 72.18 101.773 72.4113 101.817 72.6346C101.862 72.8578 101.971 73.0629 102.133 73.2238C102.294 73.3847 102.5 73.4944 102.723 73.5388C102.947 73.5832 103.179 73.5604 103.39 73.4733C103.601 73.3862 103.781 73.2387 103.908 73.0494C104.034 72.8602 104.102 72.6377 104.102 72.4101C104.102 72.1049 103.981 71.8121 103.764 71.5963C103.548 71.3805 103.254 71.2593 102.949 71.2593Z" fill="white"/>
<path d="M102.949 75.9117C102.72 75.9117 102.497 75.9792 102.308 76.1057C102.118 76.2321 101.97 76.4119 101.883 76.6222C101.795 76.8324 101.773 77.0638 101.817 77.2871C101.862 77.5103 101.971 77.7153 102.133 77.8763C102.294 78.0372 102.5 78.1468 102.723 78.1912C102.947 78.2356 103.179 78.2128 103.39 78.1257C103.601 78.0386 103.781 77.8911 103.908 77.7019C104.034 77.5126 104.102 77.2902 104.102 77.0625C104.102 76.7573 103.981 76.4646 103.764 76.2488C103.548 76.033 103.254 75.9117 102.949 75.9117Z" fill="white"/>
<path d="M102.949 80.5562C102.72 80.5562 102.497 80.6236 102.308 80.7501C102.118 80.8765 101.97 81.0563 101.883 81.2666C101.795 81.4768 101.773 81.7082 101.817 81.9315C101.862 82.1547 101.971 82.3597 102.133 82.5207C102.294 82.6816 102.5 82.7912 102.723 82.8356C102.947 82.88 103.179 82.8572 103.39 82.7701C103.601 82.683 103.781 82.5355 103.908 82.3463C104.034 82.157 104.102 81.9346 104.102 81.707C104.102 81.4017 103.981 81.109 103.764 80.8932C103.548 80.6774 103.254 80.5562 102.949 80.5562Z" fill="white"/>
<path d="M99.0074 75.9117H93.4316V78.2133H99.0074C99.3133 78.2133 99.6067 78.0921 99.8231 77.8763C100.039 77.6605 100.161 77.3678 100.161 77.0625C100.161 76.7573 100.039 76.4646 99.8231 76.2488C99.6067 76.033 99.3133 75.9117 99.0074 75.9117Z" fill="white"/>
<path d="M112.464 75.9119H106.891C106.585 75.9119 106.292 76.0331 106.075 76.2489C105.859 76.4647 105.737 76.7575 105.737 77.0627C105.737 77.3679 105.859 77.6606 106.075 77.8764C106.292 78.0922 106.585 78.2135 106.891 78.2135H112.464V75.9119Z" fill="white"/>
<path d="M99.0074 80.5562H93.4316V82.8577H99.0074C99.3133 82.8577 99.6067 82.7365 99.8231 82.5207C100.039 82.3049 100.161 82.0122 100.161 81.707C100.161 81.4017 100.039 81.109 99.8231 80.8932C99.6067 80.6774 99.3133 80.5562 99.0074 80.5562Z" fill="white"/>
<path d="M112.464 80.5562H106.891C106.585 80.5562 106.292 80.6774 106.075 80.8932C105.859 81.109 105.737 81.4017 105.737 81.707C105.737 82.0122 105.859 82.3049 106.075 82.5207C106.292 82.7365 106.585 82.8577 106.891 82.8577H112.464V80.5562Z" fill="white"/>
<path d="M112.463 70.2591C112.484 68.999 112.254 67.7471 111.785 66.5767C111.317 65.4062 110.619 64.3405 109.733 63.4418C108.848 62.543 107.791 61.8292 106.626 61.342C105.461 60.8547 104.21 60.6038 102.947 60.6038C101.683 60.6038 100.433 60.8547 99.2675 61.342C98.1023 61.8292 97.046 62.543 96.1603 63.4418C95.2745 64.3405 94.577 65.4062 94.1084 66.5767C93.6399 67.7471 93.4096 68.999 93.4311 70.2591V89.2446C93.4735 91.7343 94.4947 94.1077 96.2746 95.8534C98.0546 97.5992 100.451 98.5774 102.947 98.5774C105.443 98.5774 107.839 97.5992 109.619 95.8534C111.399 94.1077 112.42 91.7343 112.463 89.2446V70.2591Z" stroke="#263238" stroke-width="0.969642" stroke-miterlimit="10"/>
<path d="M93.4316 89.2446C93.474 91.7343 94.4952 94.1078 96.2752 95.8535C98.0551 97.5992 100.451 98.5775 102.947 98.5775C105.444 98.5775 107.84 97.5992 109.62 95.8535C111.4 94.1078 112.421 91.7343 112.463 89.2446H93.4316Z" fill="#263238" stroke="#263238" stroke-width="0.969642" stroke-miterlimit="10"/>
<path d="M183.664 84.4627C195.547 72.6089 195.547 53.3899 183.664 41.5361C171.781 29.6822 152.515 29.6822 140.633 41.5361C128.75 53.3899 128.75 72.6088 140.633 84.4627C152.515 96.3166 171.781 96.3166 183.664 84.4627Z" fill="#E8E8E8"/>
<path d="M157.785 50.4408H136.529C135.458 50.4408 134.59 51.3069 134.59 52.3752V73.5801C134.59 74.6485 135.458 75.5145 136.529 75.5145H157.785C158.856 75.5145 159.725 74.6485 159.725 73.5801V52.3752C159.725 51.3069 158.856 50.4408 157.785 50.4408Z" fill="white"/>
<g opacity="0.1">
<path opacity="0.1" d="M136.96 75.5173H145.349L150.694 50.4408H141.965L136.628 75.4899C136.738 75.5073 136.849 75.5164 136.96 75.5173Z" fill="black"/>
<path opacity="0.1" d="M154.247 50.4408H152.149L146.807 75.5173H148.905L154.247 50.4408Z" fill="black"/>
</g>
<path d="M157.354 76.142H136.96C136.166 76.1405 135.406 75.8259 134.844 75.2668C134.283 74.7076 133.966 73.9495 133.963 73.1581V52.8054C133.964 52.013 134.281 51.2535 134.842 50.6932C135.404 50.1329 136.165 49.8175 136.96 49.816H157.354C158.148 49.8168 158.91 50.1319 159.473 50.6922C160.035 51.2526 160.351 52.0125 160.353 52.8054V73.1581C160.35 73.95 160.033 74.7085 159.471 75.2677C158.909 75.8269 158.147 76.1413 157.354 76.142ZM136.96 51.0682C136.497 51.0682 136.054 51.2512 135.727 51.5769C135.4 51.9026 135.216 52.3444 135.215 52.8054V73.1581C135.215 73.6198 135.399 74.0626 135.726 74.3894C136.053 74.7161 136.497 74.9 136.96 74.9007H157.354C157.583 74.9007 157.81 74.8557 158.022 74.768C158.233 74.6804 158.426 74.552 158.588 74.3902C158.75 74.2283 158.878 74.0362 158.966 73.8248C159.053 73.6134 159.098 73.3868 159.098 73.1581V52.8054C159.098 52.577 159.053 52.3509 158.965 52.14C158.877 51.929 158.749 51.7374 158.587 51.5761C158.425 51.4147 158.232 51.2868 158.021 51.1997C157.809 51.1125 157.582 51.0679 157.354 51.0682H136.96Z" fill="white" stroke="#263238" stroke-width="0.932567" stroke-miterlimit="10"/>
<path d="M187.347 50.4408H166.091C165.02 50.4408 164.151 51.3069 164.151 52.3752V73.5801C164.151 74.6485 165.02 75.5145 166.091 75.5145H187.347C188.418 75.5145 189.286 74.6485 189.286 73.5801V52.3752C189.286 51.3069 188.418 50.4408 187.347 50.4408Z" fill="white"/>
<g opacity="0.1">
<path opacity="0.1" d="M168.716 75.5173H177.105L182.447 50.4408H173.721L168.37 75.4899C168.485 75.5078 168.6 75.517 168.716 75.5173Z" fill="black"/>
<path opacity="0.1" d="M186.004 50.4408H183.906L178.561 75.5173H180.662L186.004 50.4408Z" fill="black"/>
</g>
<path d="M186.916 76.142H166.522C165.729 76.1405 164.968 75.8259 164.407 75.2668C163.845 74.7076 163.528 73.9495 163.525 73.1581V52.8054C163.527 52.013 163.843 51.2535 164.405 50.6932C164.966 50.1329 165.728 49.8175 166.522 49.816H186.916C187.711 49.8168 188.473 50.1319 189.035 50.6922C189.597 51.2526 189.914 52.0125 189.915 52.8054V73.1581C189.912 73.95 189.595 74.7085 189.033 75.2677C188.471 75.8269 187.71 76.1413 186.916 76.142ZM166.522 51.0682C166.06 51.0682 165.617 51.2512 165.29 51.5769C164.963 51.9026 164.779 52.3444 164.778 52.8054V73.1581C164.778 73.6198 164.962 74.0626 165.289 74.3894C165.616 74.7161 166.059 74.9 166.522 74.9007H186.916C187.145 74.9007 187.372 74.8557 187.584 74.768C187.796 74.6804 187.988 74.552 188.15 74.3902C188.312 74.2283 188.441 74.0362 188.528 73.8248C188.616 73.6134 188.66 73.3868 188.66 73.1581V52.8054C188.66 52.577 188.615 52.3509 188.527 52.14C188.44 51.929 188.311 51.7374 188.149 51.5761C187.987 51.4147 187.795 51.2868 187.583 51.1997C187.372 51.1125 187.145 51.0679 186.916 51.0682H166.522Z" fill="white" stroke="#263238" stroke-width="0.932567" stroke-miterlimit="10"/>
<path d="M162.971 121.511C170.53 121.511 176.657 120.612 176.657 119.502C176.657 118.393 170.53 117.494 162.971 117.494C155.412 117.494 149.284 118.393 149.284 119.502C149.284 120.612 155.412 121.511 162.971 121.511Z" fill="#E8E8E8"/>
<path d="M169.019 107.803C169.019 107.803 168.984 113.428 168.388 114.354C167.676 115.45 167.171 116.982 169.055 117.398C170.939 117.815 172.06 119.889 174.304 120.026C176.548 120.163 176.776 119.204 175.798 118.434C174.82 117.664 172.337 115.529 172.01 114.491C171.684 113.452 172.318 107.803 172.318 107.803H169.019Z" fill="white"/>
<path opacity="0.1" d="M172.018 111.069C172.138 109.411 172.317 107.803 172.317 107.803H169.021C169.021 107.803 169.021 109.241 168.925 110.784C169.946 110.964 170.98 111.059 172.018 111.069Z" fill="black"/>
<path d="M169.019 107.803C169.019 107.803 168.984 113.428 168.388 114.354C167.676 115.45 167.171 116.982 169.055 117.398C170.939 117.815 172.06 119.889 174.304 120.026C176.548 120.163 176.776 119.204 175.798 118.434C174.82 117.664 172.337 115.529 172.01 114.491C171.684 113.452 172.318 107.803 172.318 107.803H169.019Z" stroke="#263238" stroke-width="0.932567" stroke-linecap="round" stroke-linejoin="round"/>
<path d="M175.787 118.434C174.871 117.71 174.002 116.929 173.184 116.097C172.401 116.688 170.107 116.129 169.432 115.598C168.608 114.951 168.781 114.62 168.391 114.329L168.377 114.354C167.666 115.45 167.16 116.982 169.044 117.398C170.929 117.815 172.049 119.889 174.293 120.026C176.537 120.163 176.771 119.19 175.787 118.434Z" fill="#BFBFBF" stroke="#263238" stroke-width="0.932567" stroke-miterlimit="10"/>
<path d="M156.349 105.764C156.349 105.764 153.877 110.91 152.943 111.537C151.814 112.288 150.694 113.496 152.24 114.573C153.786 115.65 153.924 117.968 155.921 118.924C157.917 119.881 158.541 119.072 157.978 118.017C157.415 116.962 156.055 114.074 156.206 113C156.357 111.926 159.398 106.86 159.398 106.86L156.349 105.764Z" fill="white"/>
<path opacity="0.1" d="M156.349 105.764C156.349 105.764 155.465 107.611 154.556 109.225C155.29 109.951 156.135 110.555 157.061 111.014C158.008 109.184 159.398 106.868 159.398 106.868L156.349 105.764Z" fill="black"/>
<path d="M156.349 105.764C156.349 105.764 153.877 110.91 152.943 111.537C151.814 112.288 150.694 113.496 152.24 114.573C153.786 115.65 153.924 117.968 155.921 118.924C157.917 119.881 158.541 119.072 157.978 118.017C157.415 116.962 156.055 114.074 156.206 113C156.357 111.926 159.398 106.86 159.398 106.86L156.349 105.764Z" stroke="#263238" stroke-width="0.932567" stroke-linecap="round" stroke-linejoin="round"/>
<path d="M157.978 118.004C157.452 116.999 156.993 115.961 156.605 114.896C155.63 115.151 153.603 113.85 153.38 113.055C152.949 111.524 153.204 111.918 152.971 111.507L152.949 111.524C151.82 112.274 150.699 113.483 152.246 114.559C153.792 115.636 153.93 117.954 155.926 118.911C157.923 119.867 158.541 119.059 157.978 118.004Z" fill="#BFBFBF" stroke="#263238" stroke-width="0.932567" stroke-miterlimit="10"/>
<path d="M169.417 69.3522C169.417 69.3522 173.199 87.4362 173.452 93.3354C173.705 99.2346 172.722 109.756 172.722 109.756L168.522 109.482C168.522 109.482 168.494 106.372 168.074 102.043C167.824 99.4703 167.039 96.4672 167.127 93.4313C167.127 93.4313 163.136 81.6246 163.281 76.4433C163.427 71.262 163.281 69.7714 163.281 69.7714L169.417 69.3522Z" fill="#263238" stroke="#263238" stroke-width="0.932567" stroke-linecap="round" stroke-linejoin="round"/>
<path d="M159.307 69.3523C159.307 69.3523 155.385 72.5855 157.659 79.104C158.555 81.6905 162.01 93.5218 162.01 93.5218C161.061 94.6048 160.257 95.8069 159.621 97.0975C158.044 100.205 156.896 105.044 154.951 107.819L157.83 109.756C157.83 109.756 167.124 98.1333 167.718 94.4425C168.311 90.7517 165.52 75.9941 165.52 75.9941L164.628 69.9962L159.307 69.3523Z" fill="#263238" stroke="#263238" stroke-width="0.932567" stroke-linecap="round" stroke-linejoin="round"/>
<path d="M176.701 57.0962C176.65 56.4838 176.443 55.8945 176.1 55.3837C176.388 55.0057 176.637 54.6 176.844 54.1727C177.053 53.6712 176.776 52.9616 176.196 53.811C175.616 54.6604 174.979 55.2796 175.21 56.34C175.331 57.0246 175.207 57.7299 174.858 58.332L176.196 59.3759L178.863 57.2661L176.701 57.0962Z" fill="white" stroke="#263238" stroke-width="0.932567" stroke-linecap="round" stroke-linejoin="round"/>
<path d="M177.958 51.6762L175.716 52.2844C175.509 52.3404 175.387 52.5527 175.443 52.7585L176.721 57.4464C176.777 57.6523 176.99 57.7738 177.196 57.7178L179.439 57.1097C179.645 57.0537 179.767 56.8414 179.711 56.6355L178.433 51.9477C178.377 51.7418 178.164 51.6202 177.958 51.6762Z" fill="#263238" stroke="#263238" stroke-width="0.932567" stroke-linecap="round" stroke-linejoin="round"/>
<path d="M178.449 52.0059L175.459 52.8168L176.706 57.3909L179.695 56.5801L178.449 52.0059Z" fill="#E8E8E8" stroke="#263238" stroke-width="0.932567" stroke-linecap="round" stroke-linejoin="round"/>
<path d="M177.849 53.5889C177.812 53.448 177.721 53.3272 177.596 53.2532C177.47 53.1792 177.32 53.158 177.179 53.1944C177.037 53.2307 176.916 53.3216 176.842 53.4469C176.768 53.5723 176.747 53.722 176.783 53.8629C176.819 53.9999 176.997 54.6438 177.058 54.8713L178.123 54.5836C178.063 54.3726 177.882 53.704 177.849 53.5889Z" fill="#263238"/>
<path d="M177.751 55.3261C177.883 55.2905 177.997 55.2071 178.071 55.092C178.144 54.977 178.172 54.8386 178.149 54.7041L177.092 54.9781C177.138 55.1082 177.231 55.2163 177.353 55.2808C177.475 55.3453 177.617 55.3615 177.751 55.3261Z" fill="#263238"/>
<path d="M178.745 55.8961L178.053 56.0851L177.91 55.5645C178.107 55.488 178.268 55.3416 178.364 55.1535C178.459 54.9654 178.481 54.7488 178.426 54.5452L178.349 54.2712C178.348 54.2654 178.346 54.2599 178.342 54.255C178.339 54.2501 178.334 54.246 178.329 54.2429C178.324 54.2399 178.318 54.2379 178.312 54.2371C178.306 54.2363 178.3 54.2367 178.294 54.2384L178.179 54.2685C178.173 54.27 178.168 54.2728 178.163 54.2766C178.158 54.2804 178.154 54.2852 178.151 54.2906C178.148 54.296 178.147 54.302 178.146 54.3081C178.146 54.3142 178.147 54.3203 178.149 54.326C178.15 54.3319 178.153 54.3374 178.156 54.3423C178.16 54.3472 178.164 54.3512 178.169 54.3543C178.174 54.3574 178.18 54.3594 178.186 54.3602C178.192 54.361 178.198 54.3605 178.204 54.3589L178.272 54.3397L178.336 54.5726C178.362 54.6692 178.369 54.7701 178.356 54.8694C178.344 54.9687 178.311 55.0645 178.261 55.1514C178.212 55.2383 178.145 55.3146 178.066 55.3758C177.986 55.437 177.896 55.4821 177.799 55.5083C177.702 55.5346 177.601 55.5416 177.501 55.5289C177.402 55.5162 177.306 55.484 177.218 55.4343C177.131 55.3846 177.055 55.3182 176.994 55.239C176.932 55.1598 176.887 55.0693 176.861 54.9727L176.795 54.7398L176.863 54.7233C176.875 54.7195 176.885 54.7115 176.891 54.7009C176.897 54.6903 176.899 54.6778 176.896 54.6658C176.895 54.6598 176.892 54.6543 176.888 54.6494C176.884 54.6445 176.88 54.6404 176.874 54.6373C176.869 54.6343 176.863 54.6323 176.857 54.6316C176.851 54.6308 176.845 54.6313 176.839 54.6329L176.726 54.6631C176.72 54.6646 176.715 54.6674 176.71 54.6712C176.705 54.6749 176.701 54.6796 176.698 54.685C176.694 54.6903 176.693 54.6962 176.692 54.7023C176.691 54.7085 176.691 54.7147 176.693 54.7206L176.77 54.9946C176.826 55.1978 176.954 55.3734 177.132 55.4877C177.309 55.602 177.523 55.6469 177.731 55.6138L177.871 56.1344L177.179 56.3207C177.167 56.3239 177.156 56.3294 177.146 56.3369C177.137 56.3445 177.128 56.3538 177.122 56.3646C177.116 56.3753 177.112 56.3871 177.111 56.3993C177.109 56.4115 177.11 56.424 177.113 56.4358L177.138 56.5262L178.885 56.0522L178.86 55.9618C178.857 55.9499 178.852 55.9387 178.844 55.929C178.836 55.9192 178.827 55.911 178.816 55.9049C178.806 55.8988 178.794 55.8948 178.782 55.8933C178.769 55.8918 178.757 55.8927 178.745 55.8961Z" fill="#263238"/>
<path d="M179.028 53.0739C178.754 53.104 178.526 53.5342 178.611 54.1397C178.696 54.7453 179.254 54.0877 179.287 53.8959C179.319 53.7041 179.553 53.0218 179.028 53.0739Z" fill="white" stroke="#263238" stroke-width="0.932567" stroke-linecap="round" stroke-linejoin="round"/>
<path d="M179.631 53.978C179.558 53.9769 179.485 53.9922 179.419 54.0228C179.352 54.0534 179.294 54.0985 179.247 54.1548C179.2 54.2111 179.167 54.2771 179.149 54.348C179.132 54.4189 179.13 54.4928 179.145 54.5644C179.197 55.1535 179.312 55.0165 179.312 55.0165C179.315 55.2592 179.365 55.4992 179.458 55.7234C179.595 55.9837 179.958 55.5891 179.958 55.3535C179.958 55.1178 179.919 53.8794 179.631 53.978Z" fill="white" stroke="#263238" stroke-width="0.932567" stroke-linecap="round" stroke-linejoin="round"/>
<path d="M179.316 55.0055C179.316 55.0055 179.792 54.8657 179.904 54.5205L179.316 55.0055Z" fill="white"/>
<path d="M179.316 55.0055C179.316 55.0055 179.792 54.8657 179.904 54.5205" stroke="#263238" stroke-width="0.932567" stroke-linecap="round" stroke-linejoin="round"/>
<path d="M175.187 57.4963C175.279 57.1171 175.286 56.7224 175.209 56.34C174.978 55.2796 175.613 54.6576 176.195 53.811C176.777 52.9643 177.052 53.6712 176.843 54.1727C176.636 54.6 176.387 55.0057 176.099 55.3837C176.47 55.8798 176.68 56.4775 176.7 57.0962C176.7 57.2963 176.7 57.8936 176.7 57.8936" fill="white"/>
<path d="M175.187 57.4963C175.279 57.1171 175.286 56.7224 175.209 56.34C174.978 55.2796 175.613 54.6576 176.195 53.811C176.777 52.9643 177.052 53.6712 176.843 54.1727C176.636 54.6 176.387 55.0057 176.099 55.3837C176.47 55.8798 176.68 56.4775 176.7 57.0962C176.7 57.2963 176.7 57.8936 176.7 57.8936" stroke="#263238" stroke-width="0.932567" stroke-linecap="round" stroke-linejoin="round"/>
<path d="M167.821 50.8736C168.777 50.6735 169.071 50.4297 169.071 50.4297C168.354 47.5499 170.925 37.864 162.822 37.4174C154.72 36.9708 159.252 50.6955 159.252 50.6955L160.133 50.8078L159.68 48.0486L160.735 50.8763C163.855 51.2133 165.855 51.1503 167.113 50.9914C166.942 49.7469 166.924 48.4863 167.06 47.2376C167.219 48.4674 167.473 49.6831 167.821 50.8736Z" fill="#263238"/>
<path d="M162.82 37.5901C162.505 37.2784 162.094 37.0817 161.653 37.032C161.213 36.9823 160.768 37.0824 160.392 37.3161" stroke="#263238" stroke-width="0.932567" stroke-linecap="round" stroke-linejoin="round"/>
<path d="M168.991 52.6296V52.5424C168.974 52.5805 168.958 52.6078 168.991 52.6296Z" fill="white" stroke="#263238" stroke-width="0.932567" stroke-linecap="round" stroke-linejoin="round"/>
<path d="M174.858 58.332L171.013 61.894L171.084 56.5564C171.097 55.7504 170.905 54.9541 170.527 54.2418C170.149 53.5294 169.596 52.9241 168.92 52.4821L169.066 66.53C172.842 66.7684 176.207 59.3759 176.207 59.3759C176.07 59.116 175.878 58.8883 175.646 58.7082C175.413 58.5282 175.145 58.3999 174.858 58.332Z" fill="white"/>
<path opacity="0.1" d="M170.422 64.8065C169.851 64.8586 169.722 63.7681 169.73 62.7077C169.57 63.1066 169.464 63.5249 169.414 63.9516C169.365 65.16 169.365 66.3574 169.384 67.3821C173.685 65.4367 173.737 63.7023 174.842 61.9323C174.138 62.8228 171.524 64.7051 170.422 64.8065Z" fill="black"/>
<path d="M174.858 58.332L171.013 61.894L171.084 56.5564C171.097 55.7504 170.905 54.9541 170.527 54.2418C170.149 53.5294 169.596 52.9241 168.92 52.4821L169.066 66.53C172.842 66.7684 176.207 59.3759 176.207 59.3759C176.07 59.116 175.878 58.8883 175.646 58.7082C175.413 58.5282 175.145 58.3999 174.858 58.332V58.332Z" stroke="#263238" stroke-width="0.932567" stroke-linecap="round" stroke-linejoin="round"/>
<path d="M174.043 58.7922L174.886 57.9949L176.735 59.2608L176.196 60.154L174.043 58.7922Z" fill="#E8E8E8" stroke="#263238" stroke-width="0.932567" stroke-linecap="round" stroke-linejoin="round"/>
<path d="M170.439 59.184C168.89 66.034 169.659 70.5358 169.659 70.5358C169.659 70.5358 165.92 73.1799 158.062 70.9386C158.062 70.9386 159.49 67.3958 159.106 64.6941C158.872 63.031 157.307 57.0523 157.307 57.0523C157.307 57.0523 156.565 54.4383 156.906 52.3285C157.562 51.9038 158.969 51.3914 161.454 51.2106C161.496 51.0719 161.524 50.9298 161.54 50.7859C161.619 50.0892 161.636 49.3869 161.592 48.6871C161.556 47.8651 161.487 47.2102 161.487 47.2102H164.487C164.487 47.2102 164.525 47.9664 164.621 48.8542C164.673 49.3775 164.748 49.9502 164.841 50.4434C164.887 50.6903 164.947 50.9345 165.02 51.175C168.013 51.6243 169.14 52.4025 169.357 53.0793C170.376 56.1316 170.768 57.7208 170.439 59.184Z" fill="white" stroke="#263238" stroke-width="0.932567" stroke-linecap="round" stroke-linejoin="round"/>
<path d="M164.629 49.3365C164.385 49.8845 164.08 50.3175 163.023 50.312C162.237 50.312 161.528 49.6188 161.449 49.353C161.534 48.7529 161.449 48.531 161.413 47.8514C162.423 47.823 163.434 47.8817 164.434 48.0268C164.477 48.4664 164.542 48.9035 164.629 49.3365Z" fill="#263238"/>
<path d="M166.624 43.4702C166.624 43.0646 166.624 42.8153 166.624 42.8153C166.402 41.7522 165.083 41.6974 164.476 41.7001C163.836 41.7208 163.198 41.6098 162.603 41.3741C162.798 41.8393 163.121 42.2401 163.534 42.5303C161.276 42.0289 161.101 40.8398 161.186 40.1986C160.384 42.9961 159.343 43.114 159.343 43.114C159.343 43.114 159.343 43.3633 159.389 43.7661C159.12 43.8278 158.881 43.9846 158.718 44.2076C158.555 44.4307 158.479 44.7049 158.502 44.9799C158.499 45.2761 158.612 45.5618 158.818 45.7758C159.023 45.9898 159.304 46.1152 159.601 46.1252C159.66 46.1226 159.719 46.1143 159.777 46.1006C160.255 47.9528 161.235 49.9667 163.243 49.8872C165.251 49.8078 166.069 47.7199 166.393 45.8348C166.453 45.8402 166.513 45.8402 166.572 45.8348C166.87 45.805 167.143 45.6588 167.333 45.4283C167.523 45.1978 167.614 44.9016 167.585 44.6045C167.586 44.3323 167.49 44.0687 167.314 43.8608C167.138 43.6529 166.893 43.5144 166.624 43.4702Z" fill="white" stroke="#263238" stroke-width="0.932567" stroke-linecap="round" stroke-linejoin="round"/>
<path d="M162.604 46.6074L162.95 46.8568C162.993 46.8892 163.046 46.9068 163.101 46.9068C163.155 46.9068 163.208 46.8892 163.252 46.8568L163.57 46.6129" stroke="#263238" stroke-width="0.932567" stroke-linecap="round" stroke-linejoin="round"/>
<path d="M163.922 45.0484C163.922 45.0484 164.35 44.484 165.205 44.8813" stroke="#263238" stroke-width="0.932567" stroke-linecap="round" stroke-linejoin="round"/>
<path d="M162.053 45.0485C162.053 45.0485 161.627 44.484 160.771 44.8813" stroke="#263238" stroke-width="0.932567" stroke-linecap="round" stroke-linejoin="round"/>
<path d="M163.937 47.6021C163.699 47.7902 163.407 47.8981 163.104 47.9104C162.8 47.9227 162.501 47.8388 162.248 47.6705" stroke="#263238" stroke-width="0.932567" stroke-linecap="round" stroke-linejoin="round"/>
<path d="M167.567 95.0425C167.469 95.3432 167.355 95.6386 167.227 95.9275" stroke="white" stroke-width="0.932567" stroke-linecap="round" stroke-linejoin="round"/>
<path d="M163.556 75.076L164.451 75.8761C165.25 76.5897 165.776 77.5584 165.937 78.6161C166.703 83.4796 167.934 88.4801 167.783 93.7629" stroke="white" stroke-width="0.932567" stroke-linecap="round" stroke-linejoin="round"/>
<path d="M166.945 75.2184L165.525 77.2433L165.704 76.9939" stroke="white" stroke-width="0.932567" stroke-linecap="round" stroke-linejoin="round"/>
<path d="M161.334 67.0945L161.741 67.511" stroke="#263238" stroke-width="0.932567" stroke-linecap="round" stroke-linejoin="round"/>
<path d="M158.393 61.3542C158.82 63.1021 159.581 64.7514 160.634 66.2123" stroke="#263238" stroke-width="0.932567" stroke-linecap="round" stroke-linejoin="round"/>
<path d="M158.471 42.8253L158.166 42.8375L158.21 43.919L158.514 43.9068L158.471 42.8253Z" fill="white" stroke="#263238" stroke-width="0.932567" stroke-linecap="round" stroke-linejoin="round"/>
<path d="M167.768 42.4349L167.464 42.4471L167.508 43.5286L167.812 43.5163L167.768 42.4349Z" fill="white" stroke="#263238" stroke-width="0.932567" stroke-linecap="round" stroke-linejoin="round"/>
<path d="M162.776 37.9162C161.482 37.9686 160.259 38.5192 159.364 39.4521C158.469 40.3851 157.971 41.6279 157.975 42.9194C157.975 42.9437 157.98 42.9676 157.99 42.9897C158 43.0119 158.014 43.0319 158.032 43.0485C158.049 43.0651 158.07 43.078 158.093 43.0864C158.116 43.0949 158.14 43.0986 158.164 43.0975H158.486C158.533 43.0954 158.577 43.075 158.609 43.0408C158.642 43.0065 158.659 42.961 158.659 42.914C158.666 41.8059 159.101 40.7434 159.874 39.947C160.646 39.1506 161.696 38.6815 162.806 38.6371C163.916 38.5927 165 38.9763 165.834 39.7084C166.667 40.4406 167.186 41.4649 167.283 42.5687C167.286 42.6155 167.307 42.6593 167.342 42.6905C167.377 42.7218 167.423 42.7381 167.47 42.7359H167.791C167.815 42.7352 167.839 42.7296 167.861 42.7195C167.883 42.7094 167.903 42.6949 167.919 42.677C167.935 42.659 167.947 42.638 167.955 42.6152C167.963 42.5923 167.966 42.5681 167.964 42.5441C167.872 41.2513 167.278 40.0453 166.31 39.1814C165.341 38.3176 164.074 37.8638 162.776 37.9162Z" fill="#E8E8E8" stroke="#263238" stroke-width="0.932567" stroke-linecap="round" stroke-linejoin="round"/>
<path d="M159.032 43.4866H158.961C158.754 43.495 158.55 43.5441 158.362 43.6309C158.174 43.7178 158.005 43.8407 157.865 43.9928C157.581 44.2998 157.431 44.7066 157.449 45.1237C157.466 45.5408 157.648 45.9341 157.956 46.217C158.264 46.4998 158.672 46.6492 159.09 46.6321H159.158L159.032 43.4866Z" fill="#E8E8E8" stroke="#263238" stroke-width="0.932567" stroke-linecap="round" stroke-linejoin="round"/>
<path d="M159.458 45.0401C159.505 46.2073 159.587 46.9581 159.184 46.9827C158.78 47.0074 158.61 46.2457 158.563 45.0648C158.516 43.8838 158.623 43.1468 159.027 43.1194C159.431 43.092 159.412 43.8729 159.458 45.0401Z" fill="white" stroke="#263238" stroke-width="0.932567" stroke-linecap="round" stroke-linejoin="round"/>
<path d="M166.971 43.1687H167.042C167.249 43.1605 167.456 43.193 167.65 43.2643C167.845 43.3357 168.023 43.4446 168.175 43.5848C168.328 43.725 168.451 43.8938 168.538 44.0814C168.625 44.2691 168.674 44.4719 168.682 44.6785C168.69 44.885 168.658 45.0912 168.586 45.2852C168.514 45.4791 168.405 45.6572 168.265 45.8091C168.124 45.961 167.955 46.0837 167.767 46.1704C167.579 46.2571 167.375 46.306 167.168 46.3143H167.097L166.971 43.1687Z" fill="#E8E8E8" stroke="#263238" stroke-width="0.932567" stroke-linecap="round" stroke-linejoin="round"/>
<path d="M166.658 44.7525C166.704 45.9197 166.685 46.6705 167.089 46.6705C167.493 46.6705 167.6 45.8896 167.553 44.7224C167.506 43.5551 167.336 42.8044 166.935 42.8181C166.534 42.8318 166.611 43.5853 166.658 44.7525Z" fill="white" stroke="#263238" stroke-width="0.932567" stroke-linecap="round" stroke-linejoin="round"/>
<path d="M160.177 44.0127C160.177 44.0127 161.223 43.1496 162.215 43.9305" stroke="#263238" stroke-width="0.932567" stroke-linecap="round" stroke-linejoin="round"/>
<path d="M165.921 43.8401C165.921 43.8401 164.822 43.0647 163.883 43.9223" stroke="#263238" stroke-width="0.932567" stroke-linecap="round" stroke-linejoin="round"/>
<path d="M161.059 50.8298C161.059 50.8298 161.686 52.3971 164.009 52.7478C164.009 52.7478 163.081 54.6658 161.812 53.9123C160.293 53.0136 160.002 51.1477 160.002 51.1477L161.059 50.8298Z" fill="#E8E8E8" stroke="#263238" stroke-width="0.932567" stroke-linecap="round" stroke-linejoin="round"/>
<path d="M165.317 51.0243C165.325 51.4415 165.186 51.8485 164.924 52.1736C164.662 52.4988 164.293 52.7215 163.883 52.8026C163.883 52.8026 165.012 54.6493 165.937 53.6246C166.863 52.5998 166.143 51.2051 166.143 51.2051L165.317 51.0243Z" fill="#E8E8E8" stroke="#263238" stroke-width="0.932567" stroke-linecap="round" stroke-linejoin="round"/>
<path d="M164.8 56.4633C164.8 56.5175 164.784 56.5705 164.754 56.6155C164.724 56.6606 164.681 56.6957 164.631 56.7165C164.581 56.7372 164.525 56.7426 164.472 56.7321C164.419 56.7215 164.37 56.6954 164.331 56.6571C164.293 56.6187 164.267 56.5699 164.256 56.5168C164.246 56.4636 164.251 56.4085 164.272 56.3585C164.293 56.3084 164.328 56.2656 164.373 56.2355C164.418 56.2054 164.471 56.1893 164.526 56.1893C164.598 56.1893 164.668 56.2182 164.72 56.2696C164.771 56.321 164.8 56.3907 164.8 56.4633Z" fill="#E8E8E8" stroke="#263238" stroke-width="0.932567" stroke-linecap="round" stroke-linejoin="round"/>
<path d="M165.173 61.8583C165.173 61.9125 165.157 61.9655 165.127 62.0106C165.097 62.0556 165.054 62.0907 165.004 62.1115C164.954 62.1322 164.898 62.1377 164.845 62.1271C164.792 62.1165 164.743 62.0904 164.704 62.0521C164.666 62.0138 164.64 61.965 164.629 61.9118C164.619 61.8587 164.624 61.8036 164.645 61.7535C164.666 61.7034 164.701 61.6606 164.746 61.6305C164.791 61.6004 164.844 61.5844 164.899 61.5844C164.972 61.5844 165.041 61.6132 165.093 61.6646C165.144 61.716 165.173 61.7857 165.173 61.8583Z" fill="#E8E8E8" stroke="#263238" stroke-width="0.932567" stroke-linecap="round" stroke-linejoin="round"/>
<path d="M165.525 67.3822C165.525 67.4364 165.509 67.4893 165.479 67.5344C165.448 67.5794 165.406 67.6146 165.355 67.6353C165.305 67.656 165.25 67.6615 165.197 67.6509C165.143 67.6403 165.094 67.6142 165.056 67.5759C165.018 67.5376 164.991 67.4888 164.981 67.4356C164.97 67.3825 164.976 67.3274 164.996 67.2773C165.017 67.2272 165.052 67.1844 165.098 67.1543C165.143 67.1242 165.196 67.1082 165.25 67.1082C165.323 67.1082 165.393 67.137 165.444 67.1884C165.496 67.2398 165.525 67.3095 165.525 67.3822Z" fill="#E8E8E8" stroke="#263238" stroke-width="0.932567" stroke-linecap="round" stroke-linejoin="round"/>
<path d="M189.728 30.647H134.075C133.817 30.647 133.608 30.8555 133.608 31.1128V32.1129C133.608 32.3701 133.817 32.5787 134.075 32.5787H189.728C189.986 32.5787 190.195 32.3701 190.195 32.1129V31.1128C190.195 30.8555 189.986 30.647 189.728 30.647Z" fill="white"/>
<path d="M189.635 32.5786H134.169" stroke="#263238" stroke-width="0.932567" stroke-linecap="round" stroke-linejoin="round"/>
<path d="M134.169 30.647H189.635" stroke="#263238" stroke-width="0.932567" stroke-linecap="round" stroke-linejoin="round"/>
<path d="M151.435 43.6455C151.435 43.6455 149.141 43.3249 149.018 43.9387C148.894 44.5525 148.963 45.5361 149.358 45.8567C150.105 46.465 149.968 47.6021 149.968 47.6021L151.891 47.4158L151.94 46.4568C152.039 46.1439 152.216 45.8611 152.454 45.6348C153.146 44.9854 152.871 44.2648 152.753 43.3962C152.635 42.5276 152.061 42.9139 152.014 43.3633C152.001 43.764 152.034 44.1649 152.113 44.5579L151.435 43.6455Z" fill="white" stroke="#263238" stroke-width="0.932567" stroke-linecap="round" stroke-linejoin="round"/>
<path d="M151.973 44.4895C151.973 44.4895 151.423 44.6018 150.989 45.3773L151.973 44.4895Z" fill="white"/>
<path d="M151.973 44.4895C151.973 44.4895 151.423 44.6018 150.989 45.3773" stroke="#263238" stroke-width="0.932567" stroke-linecap="round" stroke-linejoin="round"/>
<path d="M151.973 44.6923H149.194C149.001 44.6981 148.81 44.6579 148.636 44.5749C148.462 44.492 148.31 44.3687 148.194 44.2155C148.094 44.0763 148.041 43.9096 148.041 43.7387C148.041 43.5678 148.094 43.4012 148.194 43.262L149.584 41.2262C149.704 41.075 149.856 40.9529 150.031 40.8689C150.205 40.7849 150.396 40.7413 150.589 40.7413C150.782 40.7413 150.973 40.7849 151.147 40.8689C151.321 40.9529 151.474 41.075 151.594 41.2262L152.987 43.262C153.086 43.4012 153.139 43.5678 153.139 43.7387C153.139 43.9096 153.086 44.0763 152.987 44.2155C152.869 44.371 152.716 44.4957 152.539 44.5788C152.362 44.6618 152.168 44.7008 151.973 44.6923ZM148.677 43.4867C148.625 43.5593 148.597 43.6465 148.597 43.736C148.597 43.8255 148.625 43.9127 148.677 43.9853C148.738 44.0646 148.817 44.1284 148.907 44.1713C148.997 44.2142 149.096 44.235 149.196 44.2319H151.973C152.073 44.2352 152.172 44.2145 152.263 44.1716C152.353 44.1287 152.432 44.0648 152.492 43.9853C152.545 43.9128 152.573 43.8256 152.573 43.736C152.573 43.6464 152.545 43.5592 152.492 43.4867L151.102 41.4536C151.042 41.3723 150.963 41.3069 150.871 41.263C150.78 41.2191 150.679 41.198 150.578 41.2015C150.477 41.1977 150.376 41.2187 150.285 41.2627C150.194 41.3066 150.116 41.3722 150.056 41.4536L148.663 43.4894L148.677 43.4867Z" fill="#263238"/>
<path d="M149.751 43.6729C149.893 44.3962 149.805 44.6538 149.476 44.6154C149.146 44.5771 148.814 43.6893 149.27 43.4866C149.726 43.2838 150.094 43.1276 150.094 43.1276C150.24 43.0489 150.402 43.0052 150.568 42.9999C150.734 42.9947 150.899 43.0281 151.05 43.0975C151.703 42.8701 151.819 43.3441 151.819 43.3441C151.819 43.3441 152.291 44.7141 151.898 44.7607C151.506 44.8072 151.182 43.6181 151.182 43.6181C151.182 43.6181 151.673 44.9223 151.223 44.9442C150.772 44.9662 150.511 43.6784 150.511 43.6784C150.511 43.6784 150.805 44.81 150.379 44.8483C149.954 44.8867 149.751 43.6729 149.751 43.6729Z" fill="white" stroke="#263238" stroke-width="0.932567" stroke-linecap="round" stroke-linejoin="round"/>
<path d="M150.789 32.0608H150.339V41.0562H150.789V32.0608Z" fill="white" stroke="#263238" stroke-width="0.932567" stroke-linecap="round" stroke-linejoin="round"/>
<path d="M151.039 40.9164L150.745 41.3466C150.725 41.3711 150.701 41.3909 150.673 41.4045C150.645 41.4181 150.614 41.4252 150.583 41.4252C150.551 41.4252 150.521 41.4181 150.493 41.4045C150.464 41.3909 150.44 41.3711 150.421 41.3466L150.129 40.9164C150.058 40.815 150.149 40.689 150.289 40.689H150.877C151.019 40.689 151.107 40.826 151.039 40.9164Z" fill="white" stroke="#263238" stroke-width="0.932567" stroke-linecap="round" stroke-linejoin="round"/>
<path d="M150.825 37.897H150.344C150.212 37.897 150.105 38.0037 150.105 38.1354V40.1301C150.105 40.2617 150.212 40.3684 150.344 40.3684H150.825C150.957 40.3684 151.064 40.2617 151.064 40.1301V38.1354C151.064 38.0037 150.957 37.897 150.825 37.897Z" fill="white" stroke="#263238" stroke-width="0.932567" stroke-linecap="round" stroke-linejoin="round"/>
<path d="M150.825 30.3373H150.344C150.212 30.3373 150.105 30.444 150.105 30.5757V32.5704C150.105 32.702 150.212 32.8088 150.344 32.8088H150.825C150.957 32.8088 151.064 32.702 151.064 32.5704V30.5757C151.064 30.444 150.957 30.3373 150.825 30.3373Z" fill="white" stroke="#263238" stroke-width="0.932567" stroke-linecap="round" stroke-linejoin="round"/>
<path d="M145.439 44.6922H142.659C142.467 44.698 142.275 44.6578 142.101 44.5749C141.928 44.4919 141.776 44.3687 141.66 44.2154C141.56 44.0762 141.507 43.9096 141.507 43.7387C141.507 43.5678 141.56 43.4011 141.66 43.2619L143.049 41.2261C143.17 41.0749 143.323 40.9527 143.497 40.8688C143.671 40.7848 143.862 40.7412 144.056 40.7412C144.25 40.7412 144.441 40.7848 144.615 40.8688C144.789 40.9527 144.942 41.0749 145.063 41.2261L146.453 43.2619C146.552 43.4011 146.605 43.5678 146.605 43.7387C146.605 43.9096 146.552 44.0762 146.453 44.2154C146.335 44.371 146.181 44.4956 146.005 44.5787C145.828 44.6618 145.634 44.7007 145.439 44.6922ZM142.143 43.4866C142.091 43.5593 142.063 43.6465 142.063 43.7359C142.063 43.8254 142.091 43.9126 142.143 43.9853C142.204 44.0646 142.282 44.1283 142.373 44.1712C142.463 44.2141 142.562 44.2349 142.662 44.2319H145.442C145.542 44.2349 145.642 44.2141 145.732 44.1712C145.823 44.1284 145.902 44.0646 145.964 43.9853C146.016 43.9126 146.044 43.8254 146.044 43.7359C146.044 43.6465 146.016 43.5593 145.964 43.4866L144.574 41.4535C144.513 41.3723 144.434 41.3069 144.343 41.2629C144.251 41.219 144.151 41.1979 144.049 41.2014C143.948 41.1977 143.848 41.2187 143.757 41.2626C143.666 41.3066 143.587 41.3721 143.527 41.4535L142.135 43.4893L142.143 43.4866Z" fill="#263238"/>
<path d="M144.255 32.0608H143.805V41.0562H144.255V32.0608Z" fill="white" stroke="#263238" stroke-width="0.932567" stroke-linecap="round" stroke-linejoin="round"/>
<path d="M144.505 40.9165L144.2 41.3467C144.18 41.3712 144.156 41.391 144.128 41.4046C144.1 41.4182 144.069 41.4253 144.038 41.4253C144.006 41.4253 143.976 41.4182 143.948 41.4046C143.92 41.391 143.895 41.3712 143.876 41.3467L143.585 40.9165C143.513 40.8151 143.604 40.6891 143.744 40.6891H144.332C144.474 40.6891 144.573 40.8261 144.505 40.9165Z" fill="white" stroke="#263238" stroke-width="0.932567" stroke-linecap="round" stroke-linejoin="round"/>
<path d="M144.291 37.897H143.81C143.678 37.897 143.571 38.0037 143.571 38.1354V40.1301C143.571 40.2617 143.678 40.3684 143.81 40.3684H144.291C144.423 40.3684 144.53 40.2617 144.53 40.1301V38.1354C144.53 38.0037 144.423 37.897 144.291 37.897Z" fill="white" stroke="#263238" stroke-width="0.932567" stroke-linecap="round" stroke-linejoin="round"/>
<path d="M144.291 30.3373H143.81C143.678 30.3373 143.571 30.444 143.571 30.5757V32.5704C143.571 32.702 143.678 32.8088 143.81 32.8088H144.291C144.423 32.8088 144.53 32.702 144.53 32.5704V30.5757C144.53 30.444 144.423 30.3373 144.291 30.3373Z" fill="white" stroke="#263238" stroke-width="0.932567" stroke-linecap="round" stroke-linejoin="round"/>
<path d="M173.756 44.6923H170.977C170.784 44.6986 170.593 44.6585 170.419 44.5755C170.245 44.4926 170.093 44.3691 169.977 44.2155C169.878 44.0763 169.824 43.9096 169.824 43.7387C169.824 43.5678 169.878 43.4012 169.977 43.262L171.367 41.2262C171.487 41.075 171.64 40.9529 171.814 40.8689C171.988 40.7849 172.179 40.7413 172.372 40.7413C172.565 40.7413 172.756 40.7849 172.93 40.8689C173.104 40.9529 173.257 41.075 173.377 41.2262L174.767 43.262C174.867 43.4012 174.92 43.5678 174.92 43.7387C174.92 43.9096 174.867 44.0763 174.767 44.2155C174.65 44.3706 174.497 44.4951 174.321 44.5781C174.145 44.6612 173.951 44.7003 173.756 44.6923ZM170.46 43.4867C170.408 43.5592 170.379 43.6464 170.379 43.736C170.379 43.8256 170.408 43.9128 170.46 43.9853C170.521 44.0648 170.6 44.1287 170.69 44.1716C170.78 44.2145 170.88 44.2352 170.98 44.2319H173.759C173.859 44.2352 173.958 44.2145 174.049 44.1716C174.139 44.1287 174.218 44.0648 174.278 43.9853C174.331 43.9128 174.359 43.8256 174.359 43.736C174.359 43.6464 174.331 43.5592 174.278 43.4867L172.888 41.4536C172.826 41.3748 172.746 41.3112 172.655 41.2675C172.564 41.2238 172.465 41.2011 172.364 41.2011C172.263 41.2011 172.163 41.2238 172.073 41.2675C171.982 41.3112 171.902 41.3748 171.839 41.4536L170.449 43.4894L170.46 43.4867Z" fill="#263238"/>
<path d="M172.571 32.0608H172.12V41.0562H172.571V32.0608Z" fill="white" stroke="#263238" stroke-width="0.932567" stroke-linecap="round" stroke-linejoin="round"/>
<path d="M172.82 40.9164L172.529 41.3466C172.51 41.3711 172.485 41.3909 172.457 41.4045C172.429 41.4181 172.398 41.4252 172.367 41.4252C172.336 41.4252 172.305 41.4181 172.277 41.4045C172.249 41.3909 172.224 41.3711 172.205 41.3466L171.914 40.9164C171.842 40.815 171.933 40.689 172.073 40.689H172.661C172.801 40.689 172.891 40.826 172.82 40.9164Z" fill="white" stroke="#263238" stroke-width="0.932567" stroke-linecap="round" stroke-linejoin="round"/>
<path d="M172.608 37.897H172.128C171.996 37.897 171.889 38.0037 171.889 38.1354V40.1301C171.889 40.2617 171.996 40.3684 172.128 40.3684H172.608C172.74 40.3684 172.847 40.2617 172.847 40.1301V38.1354C172.847 38.0037 172.74 37.897 172.608 37.897Z" fill="white" stroke="#263238" stroke-width="0.932567" stroke-linecap="round" stroke-linejoin="round"/>
<path d="M172.608 30.3373H172.128C171.996 30.3373 171.889 30.444 171.889 30.5757V32.5704C171.889 32.702 171.996 32.8088 172.128 32.8088H172.608C172.74 32.8088 172.847 32.702 172.847 32.5704V30.5757C172.847 30.444 172.74 30.3373 172.608 30.3373Z" fill="white" stroke="#263238" stroke-width="0.932567" stroke-linecap="round" stroke-linejoin="round"/>
<path d="M179.983 44.6922H177.203C177.011 44.698 176.819 44.6578 176.645 44.5749C176.472 44.4919 176.32 44.3687 176.204 44.2154C176.104 44.0762 176.051 43.9096 176.051 43.7387C176.051 43.5678 176.104 43.4011 176.204 43.2619L177.593 41.2261C177.714 41.0749 177.867 40.9527 178.041 40.8688C178.215 40.7848 178.406 40.7412 178.6 40.7412C178.794 40.7412 178.985 40.7848 179.159 40.8688C179.333 40.9527 179.486 41.0749 179.607 41.2261L180.996 43.2619C181.096 43.4011 181.149 43.5678 181.149 43.7387C181.149 43.9096 181.096 44.0762 180.996 44.2154C180.879 44.371 180.725 44.4956 180.549 44.5787C180.372 44.6618 180.178 44.7007 179.983 44.6922ZM176.687 43.4866C176.635 43.5593 176.606 43.6465 176.606 43.7359C176.606 43.8254 176.635 43.9126 176.687 43.9853C176.748 44.0646 176.826 44.1283 176.917 44.1712C177.007 44.2141 177.106 44.2349 177.206 44.2319H179.986C180.086 44.2349 180.186 44.2141 180.276 44.1712C180.367 44.1284 180.446 44.0646 180.508 43.9853C180.56 43.9126 180.588 43.8254 180.588 43.7359C180.588 43.6465 180.56 43.5593 180.508 43.4866L179.118 41.4535C179.057 41.3723 178.978 41.3069 178.887 41.2629C178.795 41.219 178.695 41.1979 178.593 41.2014C178.492 41.1977 178.392 41.2187 178.301 41.2626C178.21 41.3066 178.131 41.3721 178.071 41.4535L176.679 43.4893L176.687 43.4866Z" fill="#263238"/>
<path d="M178.8 32.0608H178.35V41.0562H178.8V32.0608Z" fill="white" stroke="#263238" stroke-width="0.932567" stroke-linecap="round" stroke-linejoin="round"/>
<path d="M179.05 40.9164L178.756 41.3466C178.737 41.3711 178.713 41.3909 178.685 41.4045C178.656 41.4181 178.626 41.4252 178.594 41.4252C178.563 41.4252 178.532 41.4181 178.504 41.4045C178.476 41.3909 178.452 41.3711 178.432 41.3466L178.141 40.9164C178.07 40.815 178.16 40.689 178.301 40.689H178.888C179.031 40.689 179.119 40.826 179.05 40.9164Z" fill="white" stroke="#263238" stroke-width="0.932567" stroke-linecap="round" stroke-linejoin="round"/>
<path d="M178.836 37.897H178.355C178.223 37.897 178.116 38.0037 178.116 38.1354V40.1301C178.116 40.2617 178.223 40.3684 178.355 40.3684H178.836C178.968 40.3684 179.075 40.2617 179.075 40.1301V38.1354C179.075 38.0037 178.968 37.897 178.836 37.897Z" fill="white" stroke="#263238" stroke-width="0.932567" stroke-linecap="round" stroke-linejoin="round"/>
<path d="M178.836 30.3373H178.355C178.223 30.3373 178.116 30.444 178.116 30.5757V32.5704C178.116 32.702 178.223 32.8088 178.355 32.8088H178.836C178.968 32.8088 179.075 32.702 179.075 32.5704V30.5757C179.075 30.444 178.968 30.3373 178.836 30.3373Z" fill="white" stroke="#263238" stroke-width="0.932567" stroke-linecap="round" stroke-linejoin="round"/>
<path d="M152.188 46.9828L152.333 48.1528L149.345 48.2925L149.595 47.1198L152.188 46.9828Z" fill="#E8E8E8" stroke="#263238" stroke-width="0.932567" stroke-linecap="round" stroke-linejoin="round"/>
<path d="M157.256 56.8168C157.256 56.8168 152.067 61.5762 150.87 61.6502C150.576 61.6693 150.32 61.8529 150.073 61.6858C149.524 61.3132 148.73 60.524 148.845 57.3182C148.906 55.5646 149.969 48.2571 149.969 48.2571L151.891 48.1721L152.358 56.3921C154.006 54.6878 156.871 52.326 156.874 52.326C157.769 55.181 157.256 56.8168 157.256 56.8168Z" fill="white" stroke="#263238" stroke-width="0.932567" stroke-linecap="round" stroke-linejoin="round"/>
<path d="M170.34 63.4337C170.469 62.8653 170.715 62.3299 171.062 61.861L170.34 63.4337Z" fill="white"/>
<path d="M170.34 63.4337C170.469 62.8653 170.715 62.3299 171.062 61.861" stroke="#263238" stroke-width="0.932567" stroke-linecap="round" stroke-linejoin="round"/>
<path d="M151.77 58.3263C151.97 58.2359 152.448 57.3454 152.349 55.8247" stroke="#263238" stroke-width="0.932567" stroke-linecap="round" stroke-linejoin="round"/>
<path d="M153.612 38.8067V35.5324C153.613 35.3742 153.676 35.2227 153.788 35.1108C153.901 34.9989 154.052 34.9358 154.211 34.9351H159.364C159.522 34.9358 159.674 34.9989 159.786 35.1108C159.899 35.2227 159.962 35.3742 159.963 35.5324V38.8067C159.963 38.9651 159.899 39.117 159.787 39.2291C159.675 39.3411 159.523 39.404 159.364 39.404H157.57L157.713 40.6507H156.787V41.8289L155.689 39.9109H156.587L156.494 39.4067H154.208C154.13 39.4064 154.052 39.3906 153.979 39.3602C153.907 39.3299 153.841 39.2856 153.786 39.2299C153.73 39.1741 153.687 39.1081 153.657 39.0355C153.627 38.9629 153.612 38.8851 153.612 38.8067Z" fill="white" stroke="#263238" stroke-width="0.932567" stroke-linecap="round" stroke-linejoin="round"/>
<path d="M158.078 36.0557H154.596" stroke="#263238" stroke-width="0.932567" stroke-linecap="round" stroke-linejoin="round"/>
<path d="M158.979 36.9846H154.596" stroke="#263238" stroke-width="0.932567" stroke-linecap="round" stroke-linejoin="round"/>
<path d="M158.304 37.9108H154.596" stroke="#263238" stroke-width="0.932567" stroke-linecap="round" stroke-linejoin="round"/>
<path d="M39.0136 119.848C46.0962 119.848 51.8378 119.005 51.8378 117.965C51.8378 116.926 46.0962 116.083 39.0136 116.083C31.931 116.083 26.1895 116.926 26.1895 117.965C26.1895 119.005 31.931 119.848 39.0136 119.848Z" fill="#E8E8E8"/>
<path d="M37.8908 87.9677C50.225 87.9677 60.2239 77.9931 60.2239 65.6887C60.2239 53.3844 50.225 43.4098 37.8908 43.4098C25.5565 43.4098 15.5576 53.3844 15.5576 65.6887C15.5576 77.9931 25.5565 87.9677 37.8908 87.9677Z" fill="#E8E8E8"/>
<path d="M27.5906 80.2574C27.5906 80.2574 28.1592 83.5454 26.2393 87.2417H50.2479C50.2479 87.2417 49.1492 85.5182 47.9984 80.2574H27.5906Z" fill="white" stroke="#263238" stroke-width="0.87381" stroke-linecap="round" stroke-linejoin="round"/>
<path d="M33.0644 81.0164C31.7502 81.1214 30.4906 81.5863 29.4244 82.3599C28.3582 83.1334 27.5267 84.1856 27.0217 85.4004C26.7635 86.0252 26.4943 86.6581 26.2389 87.2499C24.7777 90.6229 26.1592 95.5302 29.8947 95.5302H47.0229C50.4095 95.5302 51.3352 91.2531 50.5249 88.0308C50.003 85.9594 48.9511 83.8797 47.1547 82.4221C44.7542 80.463 37.7392 80.6438 33.0644 81.0164Z" fill="#263238" stroke="#263238" stroke-width="0.87381" stroke-linecap="round" stroke-linejoin="round"/>
<path d="M16.7115 77.3968C16.7115 77.3968 13.6407 79.2491 13.5391 80.2574H17.3047L18.8017 79.186L18.2963 80.2629H19.4416C19.4416 80.2629 20.6584 79.3203 20.7243 78.2764L20.6007 77.3968L18.4034 76.4214L16.7115 77.3968Z" fill="white" stroke="#263238" stroke-width="0.87381" stroke-linecap="round" stroke-linejoin="round"/>
<path d="M52.6811 70.5935C52.6811 70.5935 52.1895 67.3685 51.11 62.7242C50.0306 58.0799 47.9211 57.7155 47.9211 57.7155H47.9019C45.1553 56.5373 38.0139 55.9016 38.0139 55.9016H37.6843C37.6843 55.9016 30.5265 56.5373 27.7963 57.7155H27.7771C27.7771 57.7155 25.6484 58.0881 24.569 62.7242C23.4895 67.3603 22.9951 70.5935 22.9951 70.5935C22.9951 70.5935 21.045 71.1196 17.5348 75.5255C16.9837 76.2242 16.5146 76.9835 16.1367 77.7887C16.1367 77.7887 18.8339 76.9037 20.7237 78.26C20.7237 78.26 26.9146 75.6406 27.225 72.8787C27.225 72.78 27.2497 72.6704 27.2635 72.5526C27.4393 76.7448 27.5903 80.2465 27.5903 80.2465H48.0859C48.0859 80.2465 48.2398 76.7448 48.4155 72.5526C48.4155 72.6704 48.4403 72.78 48.4513 72.8787C48.7644 75.6406 55.6173 78.7368 55.6173 78.7368C57.496 75.8543 60.2235 77.4462 60.2235 77.4462L52.6811 70.5935Z" fill="white"/>
<path opacity="0.3" d="M27.226 72.8841C27.226 72.8019 27.2479 72.7087 27.2589 72.6101L26.8112 62.9077C26.8112 62.9077 25.5752 63.1598 25.9295 66.1382C26.2839 69.1166 27.0282 68.6042 26.6135 69.7522C26.1987 70.9003 24.5892 69.5851 24.0563 70.5742C23.5235 71.5634 27.0337 71.3524 25.5835 73.9006C24.1332 76.4488 20.7246 78.2846 20.7246 78.2846C20.7246 78.2846 26.9183 75.6514 27.226 72.8841Z" fill="black"/>
<g opacity="0.3">
<path opacity="0.3" d="M48.5479 72.884C48.5479 72.8018 49.3554 72.9443 48.5479 72.884L48.7923 64.5791C48.7923 64.5791 48.7319 68.5959 49.1631 69.7522C49.5943 70.9085 51.1874 69.5851 51.7175 70.5742C52.2476 71.5634 48.7401 71.3524 50.1931 73.9006C51.6461 76.4488 55.0492 78.2846 55.0492 78.2846C55.0492 78.2846 48.861 75.6514 48.5479 72.884Z" fill="black"/>
</g>
<path opacity="0.3" d="M48.2349 74.7747C48.1003 77.9174 47.9987 80.2547 47.9987 80.2547H29.5713C41.9313 80.2547 48.2486 74.7747 48.2486 74.7747H48.2349Z" fill="black"/>
<path d="M52.6811 70.5935C52.6811 70.5935 52.1895 67.3685 51.11 62.7242C50.0306 58.0799 47.9211 57.7155 47.9211 57.7155H47.9019C45.1553 56.5373 38.0139 55.9016 38.0139 55.9016H37.6843C37.6843 55.9016 30.5265 56.5373 27.7963 57.7155H27.7771C27.7771 57.7155 25.6484 58.0881 24.569 62.7242C23.4895 67.3603 22.9951 70.5935 22.9951 70.5935C22.9951 70.5935 21.045 71.1196 17.5348 75.5255C16.9837 76.2242 16.5146 76.9835 16.1367 77.7887V77.7887C16.1367 77.7887 18.8339 76.9037 20.7237 78.26C20.7237 78.26 26.9146 75.6406 27.225 72.8787C27.225 72.78 27.2497 72.6704 27.2635 72.5526C27.4393 76.7448 27.5903 80.2465 27.5903 80.2465H48.0859C48.0859 80.2465 48.2398 76.7448 48.4155 72.5526C48.4155 72.6704 48.4403 72.78 48.4513 72.8787C48.7644 75.6406 55.6173 78.7368 55.6173 78.7368C57.496 75.8543 60.2235 77.4462 60.2235 77.4462L52.6811 70.5935Z" stroke="#263238" stroke-width="0.87381" stroke-linecap="round" stroke-linejoin="round"/>
<path d="M23.6514 70.5744C24.6397 70.5248 25.6084 70.862 26.3513 71.5142" stroke="#263238" stroke-width="0.87381" stroke-linecap="round" stroke-linejoin="round"/>
<path d="M25.582 63.1982C25.582 63.1982 26.851 63.4722 27.1421 69.6262L26.7603 61.5487" stroke="#263238" stroke-width="0.87381" stroke-linecap="round" stroke-linejoin="round"/>
<path d="M27.1592 70.4812L27.2173 71.7279" stroke="#263238" stroke-width="0.87381" stroke-linecap="round" stroke-linejoin="round"/>
<path d="M52.0271 70.5743C51.0407 70.521 50.0722 70.8532 49.3271 71.5004" stroke="#263238" stroke-width="0.87381" stroke-linecap="round" stroke-linejoin="round"/>
<path d="M48.8418 63.1982C48.8658 62.6502 48.8916 62.1022 48.9193 61.5542" stroke="#263238" stroke-width="0.87381" stroke-linecap="round" stroke-linejoin="round"/>
<path d="M41.6859 56.3454C41.3536 58.0058 39.744 58.6059 37.8049 58.6059C35.8657 58.6059 34.2617 58.0086 33.9238 56.3536H34.0007C34.2016 56.3263 34.3895 56.2389 34.5395 56.1029C34.6896 55.9669 34.7948 55.7888 34.8412 55.5919C34.8681 55.5134 34.882 55.431 34.8824 55.348V53.3999H40.8152V55.348C40.8145 55.4699 40.8369 55.5907 40.8811 55.7042C40.9451 55.8734 41.0536 56.0223 41.1953 56.1351C41.3369 56.2479 41.5064 56.3206 41.6859 56.3454Z" fill="white"/>
<path d="M40.7662 54.8577C39.7829 55.8222 38.687 56.4222 37.6295 56.4688C36.5309 56.5181 35.2564 55.6194 34.7373 54.7371C34.7588 54.6605 34.7689 54.5811 34.7675 54.5015V53.9042L40.7003 53.9672V54.5015C40.7003 54.6275 40.8514 54.7755 40.7662 54.8577Z" fill="#263238"/>
<path d="M41.6859 56.3454C41.3536 58.0058 39.744 58.6059 37.8049 58.6059C35.8657 58.6059 34.2617 58.0086 33.9238 56.3536H34.0007C34.2016 56.3263 34.3895 56.2389 34.5395 56.1029C34.6896 55.9669 34.7948 55.7888 34.8412 55.5919C34.8681 55.5134 34.882 55.431 34.8824 55.348V53.3999H40.8152V55.348C40.8145 55.4699 40.8369 55.5907 40.8811 55.7042C40.9451 55.8734 41.0536 56.0223 41.1953 56.1351C41.3369 56.2479 41.5064 56.3206 41.6859 56.3454V56.3454Z" stroke="#263238" stroke-width="0.87381" stroke-linecap="round" stroke-linejoin="round"/>
<path d="M33.4715 49.216C33.4715 49.216 31.4143 46.8952 31.6835 43.6976C31.9526 40.5 34.5839 40.5 34.5839 40.5C34.5839 40.5 37.7563 37.708 41.2968 39.4561C44.8373 41.2042 44.5928 47.2651 41.9725 48.7721L33.4715 49.216Z" fill="#263238"/>
<path d="M42.5404 47.6541C42.5679 47.1226 42.5651 46.7938 42.5651 46.7938C42.3289 45.3799 40.5957 45.2375 39.7992 45.2128C36.462 45.1005 35.5831 43.0592 35.5831 43.0592C33.5588 42.4536 32.9847 46.7938 32.9847 46.7938C32.9847 46.7938 32.9847 47.1226 33.0122 47.6541C32.6546 47.7222 32.3335 47.9164 32.1076 48.2011C31.8817 48.4859 31.766 48.8422 31.7817 49.205C31.7817 50.0708 32.4079 50.7695 33.1825 50.7695C33.2608 50.7692 33.3389 50.7618 33.416 50.7476L33.7785 52.7862C33.8472 53.2437 34.2784 54.3261 34.6657 54.5836C35.4897 55.1316 36.7944 55.9125 37.7749 55.9125C38.6209 55.9125 39.8074 55.2165 40.6836 54.7425C41.1725 54.4685 41.7109 53.4191 41.7576 52.8684L41.9856 50.8079C42.1143 50.8018 42.2427 50.789 42.3701 50.7695C43.1419 50.7695 43.7709 50.0708 43.7709 49.205C43.7866 48.8422 43.6709 48.4859 43.445 48.2011C43.219 47.9164 42.898 47.7222 42.5404 47.6541Z" fill="white" stroke="#263238" stroke-width="0.87381" stroke-linecap="round" stroke-linejoin="round"/>
<path d="M32.3196 46.339H31.957V47.6268H32.3196V46.339Z" fill="white" stroke="#263238" stroke-width="0.87381" stroke-linecap="round" stroke-linejoin="round"/>
<path d="M43.3977 46.339H43.0352V47.6268H43.3977V46.339Z" fill="white" stroke="#263238" stroke-width="0.87381" stroke-linecap="round" stroke-linejoin="round"/>
<path d="M37.6758 40.7137C36.1339 40.7134 34.6519 41.3098 33.5418 42.3774C32.4317 43.4449 31.78 44.9004 31.7238 46.4376C31.7227 46.4662 31.7274 46.4948 31.7377 46.5215C31.748 46.5483 31.7637 46.5726 31.7837 46.5931C31.8037 46.6136 31.8278 46.6299 31.8543 46.6408C31.8808 46.6518 31.9093 46.6572 31.938 46.6568H32.3226C32.3784 46.6568 32.4321 46.6351 32.4721 46.5962C32.5122 46.5573 32.5354 46.5043 32.5368 46.4486C32.5979 45.1299 33.1661 43.8855 34.1231 42.9739C35.0802 42.0623 36.3526 41.5536 37.6758 41.5536C38.9991 41.5536 40.2715 42.0623 41.2285 42.9739C42.1856 43.8855 42.7537 45.1299 42.8148 46.4486C42.817 46.5045 42.8408 46.5575 42.8812 46.5963C42.9217 46.6352 42.9757 46.6568 43.0318 46.6568H43.4136C43.4424 46.6572 43.4711 46.6517 43.4977 46.6408C43.5244 46.6299 43.5486 46.6137 43.5689 46.5933C43.5891 46.5728 43.605 46.5485 43.6157 46.5217C43.6263 46.495 43.6313 46.4664 43.6306 46.4376C43.5737 44.9002 42.9214 43.4447 41.8108 42.3772C40.7003 41.3097 39.218 40.7134 37.6758 40.7137Z" fill="white" stroke="#263238" stroke-width="0.87381" stroke-linecap="round" stroke-linejoin="round"/>
<path d="M32.9389 47.1638H32.8565C32.3703 47.1824 31.9102 47.3881 31.5728 47.7378C31.2354 48.0875 31.0469 48.554 31.0469 49.0393C31.0469 49.5247 31.2354 49.9912 31.5728 50.3409C31.9102 50.6906 32.3703 50.8963 32.8565 50.9149H32.9389V47.1638Z" fill="#263238" stroke="#263238" stroke-width="0.87381" stroke-miterlimit="10"/>
<path d="M33.386 49.0462C33.386 50.4354 33.4465 51.3396 32.9658 51.3396C32.4851 51.3396 32.3203 50.4354 32.3203 49.0462C32.3203 47.6571 32.4851 46.7501 32.9658 46.7501C33.4465 46.7501 33.386 47.6434 33.386 49.0462Z" fill="white" stroke="#263238" stroke-width="0.87381" stroke-linecap="round" stroke-linejoin="round"/>
<path d="M42.417 47.1638H42.4994C42.9856 47.1824 43.4457 47.3881 43.7831 47.7378C44.1205 48.0875 44.309 48.554 44.309 49.0393C44.309 49.5247 44.1205 49.9912 43.7831 50.3409C43.4457 50.6906 42.9856 50.8963 42.4994 50.9149H42.417V47.1638Z" fill="#263238" stroke="#263238" stroke-width="0.87381" stroke-miterlimit="10"/>
<path d="M41.967 49.0462C41.967 50.4354 41.9093 51.3396 42.39 51.3396C42.8707 51.3396 43.0355 50.4354 43.0355 49.0462C43.0355 47.6571 42.8707 46.7501 42.39 46.7501C41.9093 46.7501 41.967 47.6434 41.967 49.0462Z" fill="white" stroke="#263238" stroke-width="0.87381" stroke-linecap="round" stroke-linejoin="round"/>
<path d="M34.4629 49.3831C34.4629 49.3831 35.2457 50.3448 36.7124 49.5858" stroke="#263238" stroke-width="0.87381" stroke-linecap="round" stroke-linejoin="round"/>
<path d="M36.7109 53.1232C37.0347 53.3578 37.4246 53.4841 37.8247 53.4841C38.2249 53.4841 38.6147 53.3578 38.9385 53.1232" stroke="#263238" stroke-width="0.75" stroke-linecap="round" stroke-linejoin="round"/>
<path d="M34.2451 48.0926C34.2451 48.0926 35.6652 47.013 36.9286 48.0926" stroke="#263238" stroke-width="0.87381" stroke-linecap="round" stroke-linejoin="round"/>
<path d="M41.2196 48.1282C41.2196 48.1282 39.7996 47.0322 38.5361 48.1282" stroke="#263238" stroke-width="0.87381" stroke-linecap="round" stroke-linejoin="round"/>
<path d="M38.8571 51.6108C38.8571 51.6108 38.9835 52.3123 37.6953 52.2958C37.3794 52.2958 36.8054 52.0712 36.7861 51.6108" stroke="#263238" stroke-width="0.75" stroke-linecap="round" stroke-linejoin="round"/>
<path d="M34.7705 49.6379C34.8886 49.8708 35.155 50.1393 35.7511 50.153C36.3471 50.1667 36.4515 49.9311 36.4625 49.701C36.1968 49.8295 35.9036 49.891 35.6086 49.88C35.3136 49.8691 35.0258 49.7859 34.7705 49.6379Z" fill="#263238"/>
<path d="M41.0132 49.3832C41.0132 49.3832 40.2304 50.3449 38.7637 49.5859" stroke="#263238" stroke-width="0.87381" stroke-linecap="round" stroke-linejoin="round"/>
<path d="M40.7056 49.6379C40.5875 49.8708 40.3211 50.1393 39.7251 50.153C39.129 50.1667 39.0247 49.9311 39.0137 49.701C39.2792 49.8298 39.5725 49.8914 39.8675 49.8804C40.1626 49.8694 40.4504 49.7861 40.7056 49.6379Z" fill="#263238"/>
<path d="M35.2584 39.1656C35.2584 39.1656 34.536 39.5684 34.6156 40.7137C34.6156 40.7137 34.3629 39.9411 33.4346 40.2781" stroke="#263238" stroke-width="0.87381" stroke-linecap="round" stroke-linejoin="round"/>
<path d="M37.8381 59.4582C38.7848 59.458 39.7083 59.1659 40.4822 58.622C41.2561 58.0781 41.8426 57.3088 42.1613 56.4196C41.9114 56.3812 41.6642 56.3483 41.4252 56.3154C41.0488 56.9269 40.5216 57.4319 39.8938 57.7822C39.2661 58.1326 38.5588 58.3165 37.8395 58.3165C37.1202 58.3165 36.4129 58.1326 35.7851 57.7822C35.1573 57.4319 34.6301 56.9269 34.2537 56.3154C34.0147 56.3483 33.7675 56.3812 33.5176 56.4196C33.8362 57.3084 34.4223 58.0773 35.1956 58.6212C35.969 59.1651 36.8919 59.4574 37.8381 59.4582Z" fill="#263238" stroke="#263238" stroke-width="0.87381" stroke-linecap="round" stroke-linejoin="round"/>
<path d="M48.415 72.5636C48.5359 69.893 48.6577 67.2215 48.7803 64.5491" stroke="#263238" stroke-width="0.87381" stroke-linecap="round" stroke-linejoin="round"/>
<path d="M48.5059 45.2677V42.3167C48.5059 42.1713 48.448 42.032 48.345 41.9292C48.242 41.8264 48.1023 41.7687 47.9566 41.7687H43.3257C43.18 41.7687 43.0403 41.8264 42.9373 41.9292C42.8342 42.032 42.7764 42.1713 42.7764 42.3167V45.2677C42.7764 45.413 42.8342 45.5524 42.9373 45.6551C43.0403 45.7579 43.18 45.8157 43.3257 45.8157H44.9407L44.8116 46.9391H45.6356V47.9994L46.6217 46.2705H45.8114L45.8966 45.8157H47.9538C48.0262 45.816 48.0979 45.8021 48.1649 45.7747C48.2319 45.7474 48.2927 45.707 48.344 45.6561C48.3953 45.6052 48.4361 45.5447 48.4638 45.478C48.4916 45.4113 48.5059 45.3399 48.5059 45.2677Z" fill="white" stroke="#263238" stroke-width="0.87381" stroke-linecap="round" stroke-linejoin="round"/>
<path d="M43.6719 42.7906H46.8113" stroke="#263238" stroke-width="0.87381" stroke-linecap="round" stroke-linejoin="round"/>
<path d="M43.6719 43.6263H47.6188" stroke="#263238" stroke-width="0.87381" stroke-linecap="round" stroke-linejoin="round"/>
<path d="M43.6719 44.462H47.0118" stroke="#263238" stroke-width="0.87381" stroke-linecap="round" stroke-linejoin="round"/>
<path d="M62.7338 78.8299C62.7338 79.7012 61.3605 80.2465 59.674 80.2465C57.9876 80.2465 56.6143 79.6985 56.6143 78.8299C56.6143 77.9613 57.9876 77.2489 59.674 77.2489C61.3605 77.2489 62.7338 77.9558 62.7338 78.8299Z" fill="white" stroke="#263238" stroke-width="0.87381" stroke-linecap="round" stroke-linejoin="round"/>
<path d="M57.6939 79.9313C57.7763 79.9122 57.8422 79.4518 57.0979 79.1093C56.5815 78.8737 56.5677 78.6244 56.8644 78.3175C57.161 78.0106 57.6664 77.753 58.0564 77.8654C58.6909 78.0462 59.1112 79.3641 59.3941 79.0792C59.8198 78.9696 59.3062 77.7613 58.5453 77.364C59.9187 77.7037 59.9846 79.282 60.6163 79.1559C61.0997 79.0628 60.2648 77.4955 59.5424 77.0324C60.0053 77.2476 60.4102 77.5698 60.7235 77.9722C61.1821 78.6381 61.2343 78.8627 61.5475 78.7668C61.954 78.6381 60.9844 77.1749 60.8635 77.016C61.4733 77.2571 61.5887 77.7667 61.7754 77.9722C61.9622 78.1777 62.0501 78.5202 62.3083 78.386C62.5665 78.2517 62.3275 77.775 62.1545 77.4955C61.3305 76.1666 59.9571 75.9446 58.6497 76.109C57.617 76.2406 56.4304 76.6735 55.8014 77.4955C55.6414 77.7003 55.5473 77.9487 55.5316 78.208C55.5159 78.4672 55.5794 78.7251 55.7135 78.9477C55.9333 79.4107 56.7188 80.1505 57.6939 79.9313Z" fill="white" stroke="#263238" stroke-width="0.87381" stroke-linecap="round" stroke-linejoin="round"/>
<path d="M63.5356 80.2574H12.9887C12.8385 80.2574 12.7168 80.3789 12.7168 80.5287V80.9644C12.7168 81.1142 12.8385 81.2356 12.9887 81.2356H63.5356C63.6858 81.2356 63.8076 81.1142 63.8076 80.9644V80.5287C63.8076 80.3789 63.6858 80.2574 63.5356 80.2574Z" fill="#BFBFBF" stroke="#263238" stroke-width="0.87381" stroke-miterlimit="10"/>
<path d="M14.4724 80.2574L10.7534 68.9823C10.7394 68.9384 10.7357 68.8919 10.7427 68.8463C10.7498 68.8008 10.7673 68.7575 10.7939 68.7198C10.8205 68.6821 10.8554 68.6511 10.8961 68.6291C10.9367 68.6072 10.9819 68.5949 11.028 68.5933H22.7755L26.9587 80.2574H14.4724Z" fill="#263238"/>
<path d="M23.0966 68.5933L26.9419 79.6026H37.2419V79.9889C37.2419 80.0616 37.213 80.1313 37.1615 80.1827C37.1099 80.2341 37.0401 80.2629 36.9672 80.2629H26.2827L22.5829 69.0481C22.5665 68.9977 22.5623 68.9442 22.5705 68.8919C22.5787 68.8396 22.5991 68.7899 22.6301 68.747C22.6612 68.704 22.7019 68.6689 22.7491 68.6446C22.7962 68.6203 22.8485 68.6074 22.9015 68.607L23.0966 68.5933Z" fill="white" stroke="#263238" stroke-width="0.87381" stroke-linecap="round" stroke-linejoin="round"/>
<path d="M17.642 74.4266C17.6057 74.2351 17.5162 74.0575 17.3838 73.9142C17.4413 73.8465 17.5134 73.7925 17.5947 73.7565C17.6761 73.7204 17.7645 73.7031 17.8535 73.706C18.0611 73.7148 18.2601 73.791 18.4203 73.9231C18.5804 74.0552 18.6929 74.2358 18.7406 74.4376C18.766 74.5249 18.7702 74.6171 18.7528 74.7064C18.7354 74.7957 18.6969 74.8796 18.6405 74.9511C18.5841 75.0226 18.5115 75.0796 18.4286 75.1176C18.3457 75.1555 18.2549 75.1732 18.1638 75.1691C17.9532 75.1643 17.751 75.0857 17.5925 74.9472C17.6718 74.7854 17.6893 74.6004 17.642 74.4266Z" fill="white"/>
<path d="M41.4416 80.2574H45.1963C45.6965 79.8921 46.1018 79.4128 46.3785 78.8594C46.6551 78.306 46.7951 77.6946 46.7866 77.0763V75.3144C46.7866 75.2475 46.7734 75.1812 46.7477 75.1194C46.7221 75.0576 46.6844 75.0014 46.637 74.9541C46.5895 74.9068 46.5332 74.8692 46.4712 74.8436C46.4093 74.818 46.3428 74.8048 46.2757 74.8048H40.3759C40.3089 74.8048 40.2426 74.818 40.1808 74.8437C40.119 74.8693 40.0628 74.9069 40.0156 74.9542C39.9684 75.0016 39.931 75.0578 39.9056 75.1196C39.8803 75.1814 39.8674 75.2476 39.8678 75.3144V77.0763C39.8572 77.6932 39.9945 78.3038 40.2683 78.8571C40.542 79.4104 40.9443 79.8905 41.4416 80.2574Z" fill="white" stroke="#263238" stroke-width="0.87381" stroke-linecap="round" stroke-linejoin="round"/>
<path d="M47.8519 75.5556C47.6937 75.4562 47.5124 75.3995 47.3256 75.3908C47.1388 75.3822 46.953 75.4219 46.7862 75.5063V76.1419C46.9489 76.1148 47.116 76.1479 47.2559 76.2351C47.786 76.542 47.6734 77.1694 47.3026 77.8079C47.133 78.1697 46.8413 78.4607 46.4786 78.6298C46.3702 78.8935 46.2329 79.1443 46.0693 79.3779C46.7752 79.5313 47.4207 78.934 47.9261 78.0627C48.5194 77.0379 48.6979 76.0433 47.8519 75.5556Z" fill="white" stroke="#263238" stroke-width="0.87381" stroke-linecap="round" stroke-linejoin="round"/>
<path d="M43.3975 72.0292C43.5339 71.5854 43.6016 71.1234 43.598 70.6592C43.598 68.0836 41.1699 67.7795 41.1699 64.8531" stroke="#263238" stroke-width="0.87381" stroke-linecap="round" stroke-linejoin="round"/>
<path d="M41.6748 74.3008C42.1146 74.0275 42.4948 73.6687 42.7927 73.2458" stroke="#263238" stroke-width="0.87381" stroke-linecap="round" stroke-linejoin="round"/>
<path d="M43.1877 67.3082C43.0511 67.0567 42.9942 66.7702 43.0246 66.4862" stroke="#263238" stroke-width="0.87381" stroke-linecap="round" stroke-linejoin="round"/>
<path d="M45.0777 70.925C44.9541 70.1194 44.4899 69.3632 44.0312 68.6754" stroke="#263238" stroke-width="0.87381" stroke-linecap="round" stroke-linejoin="round"/>
<path d="M43.6719 74.3309C43.6719 74.3309 44.4739 73.9938 44.9134 72.4731" stroke="#263238" stroke-width="0.87381" stroke-linecap="round" stroke-linejoin="round"/>
<path d="M48.5773 95.522H28.0102C26.5084 95.522 25.291 96.7364 25.291 98.2346V111.798C25.291 113.296 26.5084 114.51 28.0102 114.51H48.5773C50.079 114.51 51.2965 113.296 51.2965 111.798V98.2346C51.2965 96.7364 50.079 95.522 48.5773 95.522Z" fill="white" stroke="#263238" stroke-width="0.87381" stroke-miterlimit="10"/>
<path d="M31.793 108.586L32.1033 114.003L32.139 114.05C32.3848 114.379 32.7051 114.645 33.0738 114.827C33.4424 115.01 33.849 115.102 34.2604 115.098C34.6717 115.093 35.0762 114.992 35.4407 114.801C35.8052 114.611 36.1195 114.338 36.3579 114.003L36.4733 108.586H31.793Z" fill="white" stroke="#263238" stroke-width="0.87381" stroke-linecap="round" stroke-linejoin="round"/>
<path d="M37.5003 119.297C35.4168 119.661 33.2856 119.661 31.2021 119.297C31.0076 119.105 30.8404 118.888 30.705 118.65C30.4944 118.276 30.3754 117.858 30.3578 117.43C30.3401 117.001 30.4243 116.574 30.6034 116.184L31.8586 113.951L36.8328 114.006L37.9535 116.045C38.2224 116.528 38.3382 117.082 38.2858 117.633C38.2333 118.183 38.015 118.705 37.6596 119.13C37.6094 119.188 37.5562 119.244 37.5003 119.297Z" fill="#BFBFBF" stroke="#263238" stroke-width="0.87381" stroke-miterlimit="10"/>
<path d="M36.2783 116.486C36.586 116.621 36.8795 116.786 37.1545 116.979L36.2783 116.486Z" fill="#BFBFBF"/>
<path d="M36.2783 116.486C36.586 116.621 36.8795 116.786 37.1545 116.979" stroke="#263238" stroke-width="0.87381" stroke-miterlimit="10"/>
<path d="M31.5869 116.979C32.1329 116.606 32.7476 116.345 33.3954 116.211C34.0432 116.077 34.7113 116.073 35.3608 116.198" fill="#BFBFBF"/>
<path d="M31.5869 116.979C32.1329 116.606 32.7476 116.345 33.3954 116.211C34.0432 116.077 34.7113 116.073 35.3608 116.198" stroke="#263238" stroke-width="0.87381" stroke-miterlimit="10"/>
<path d="M29.1144 86.2306L31.3117 111.351H36.9945C36.9945 111.351 37.5576 96.0069 37.9147 86.0443C37.938 85.4533 37.8413 84.8637 37.6302 84.311C37.4191 83.7583 37.0981 83.2539 36.6865 82.8282C36.2749 82.4025 35.7812 82.0643 35.2352 81.8339C34.6891 81.6035 34.1019 81.4858 33.509 81.4877C32.9003 81.4857 32.2979 81.6098 31.7398 81.8522C31.1817 82.0946 30.6802 82.45 30.2671 82.8959C29.8539 83.3418 29.5381 83.8685 29.3397 84.4425C29.1413 85.0166 29.0645 85.6255 29.1144 86.2306Z" fill="#263238"/>
<path d="M34.7697 81.6658C34.3559 81.5446 33.9266 81.4846 33.4953 81.4877V81.4877C32.8878 81.4875 32.2868 81.613 31.7304 81.8563C31.1739 82.0995 30.6741 82.4553 30.2624 82.901C29.8507 83.3466 29.5362 83.8726 29.3386 84.4457C29.141 85.0188 29.0646 85.6266 29.1144 86.2306L29.8944 95.5219" stroke="white" stroke-width="0.87381" stroke-linecap="round" stroke-linejoin="round"/>
<path d="M37.1429 83.3783C36.9178 83.0593 36.6529 82.7702 36.3546 82.5179C36.3546 82.5179 36.0112 82.2439 35.8574 82.1562" stroke="white" stroke-width="0.87381" stroke-linecap="round" stroke-linejoin="round"/>
<path d="M37.5391 95.522C37.6517 92.4122 37.8275 88.7734 37.9236 86.0444C37.9499 85.3669 37.8182 84.6925 37.5391 84.0743" stroke="white" stroke-width="0.87381" stroke-linecap="round" stroke-linejoin="round"/>
<path d="M41.0371 108.586L41.3475 114.003L41.3832 114.05C41.629 114.379 41.9492 114.645 42.3179 114.827C42.6866 115.01 43.0932 115.102 43.5045 115.098C43.9159 115.093 44.3203 114.992 44.6848 114.801C45.0494 114.611 45.3637 114.338 45.6021 114.003L45.7174 108.586H41.0371Z" fill="white" stroke="#263238" stroke-width="0.87381" stroke-linecap="round" stroke-linejoin="round"/>
<path d="M46.7461 119.297C44.6626 119.661 42.5315 119.661 40.448 119.297C40.2539 119.105 40.0876 118.888 39.9536 118.65C39.742 118.277 39.6221 117.859 39.604 117.43C39.5858 117.001 39.6699 116.574 39.8492 116.184L41.1072 113.951L46.0787 114.006L47.1993 116.045C47.4682 116.528 47.5841 117.082 47.5316 117.633C47.4792 118.183 47.2609 118.705 46.9054 119.13C46.8553 119.188 46.8021 119.244 46.7461 119.297Z" fill="#BFBFBF" stroke="#263238" stroke-width="0.87381" stroke-miterlimit="10"/>
<path d="M45.5234 116.486C45.8314 116.62 46.125 116.786 46.3996 116.979L45.5234 116.486Z" fill="#BFBFBF"/>
<path d="M45.5234 116.486C45.8314 116.62 46.125 116.786 46.3996 116.979" stroke="#263238" stroke-width="0.87381" stroke-miterlimit="10"/>
<path d="M40.8379 116.979C41.3839 116.606 41.9986 116.345 42.6464 116.211C43.2942 116.077 43.9623 116.073 44.6118 116.198" fill="#BFBFBF"/>
<path d="M40.8379 116.979C41.3839 116.606 41.9986 116.345 42.6464 116.211C43.2942 116.077 43.9623 116.073 44.6118 116.198" stroke="#263238" stroke-width="0.87381" stroke-miterlimit="10"/>
<path d="M38.3683 86.2307L40.5656 111.351H46.2485C46.2485 111.351 46.8115 96.007 47.1713 86.0443C47.1928 85.452 47.094 84.8614 46.8809 84.3081C46.6678 83.7548 46.3448 83.2501 45.9312 82.8245C45.5176 82.3989 45.0221 82.0611 44.4743 81.8314C43.9266 81.6016 43.3379 81.4848 42.7437 81.4877C42.1366 81.4883 41.5363 81.6144 40.9805 81.858C40.4247 82.1016 39.9255 82.4574 39.5145 82.903C39.1034 83.3486 38.7893 83.8744 38.592 84.4471C38.3948 85.0198 38.3186 85.6271 38.3683 86.2307Z" fill="#263238"/>
<path d="M44.5565 81.8659C43.986 81.6128 43.368 81.4839 42.7437 81.4878C42.1366 81.4884 41.5363 81.6145 40.9805 81.858C40.4247 82.1016 39.9255 82.4574 39.5145 82.903C39.1034 83.3487 38.7893 83.8744 38.592 84.4471C38.3948 85.0198 38.3186 85.6271 38.3683 86.2307L39.1923 95.522" stroke="white" stroke-width="0.87381" stroke-linecap="round" stroke-linejoin="round"/>
<path d="M46.3889 83.3783C46.1652 83.0581 45.9002 82.7689 45.6006 82.5179" stroke="white" stroke-width="0.87381" stroke-linecap="round" stroke-linejoin="round"/>
<path d="M47.0223 95.5219C47.1349 92.4119 47.0718 88.7732 47.1707 86.0442C47.1929 85.4447 47.0919 84.847 46.874 84.2878" stroke="white" stroke-width="0.87381" stroke-linecap="round" stroke-linejoin="round"/>
<path d="M114.331 43.4756V31.7841C114.331 31.2187 114.106 30.6765 113.705 30.2767C113.304 29.8769 112.761 29.6523 112.194 29.6523H93.8078C93.2411 29.6523 92.6975 29.8769 92.2968 30.2767C91.896 30.6765 91.6709 31.2187 91.6709 31.7841V43.4756C91.6709 44.041 91.896 44.5832 92.2968 44.983C92.6975 45.3828 93.2411 45.6074 93.8078 45.6074H100.21L99.7049 50.0571H103.001V54.2521L106.912 47.4021H103.704L104.042 45.6046H112.194C112.76 45.6046 113.303 45.3804 113.704 44.9812C114.105 44.582 114.33 44.0405 114.331 43.4756Z" fill="white" stroke="#263238" stroke-width="1.02547" stroke-linecap="round" stroke-linejoin="round"/>
<path d="M95.1797 33.6527H107.611" stroke="#263238" stroke-width="1.02547" stroke-linecap="round" stroke-linejoin="round"/>
<path d="M95.1797 36.9653H110.819" stroke="#263238" stroke-width="1.02547" stroke-linecap="round" stroke-linejoin="round"/>
<path d="M95.1797 40.2781H108.413" stroke="#263238" stroke-width="1.02547" stroke-linecap="round" stroke-linejoin="round"/>
<path d="M128.373 93.5381L139.481 97.2316L136.726 99.9826L141.867 105.112L130.76 101.418L133.515 98.6674L128.373 93.5381Z" fill="#E8E8E8" stroke="#263238" stroke-width="1.02547" stroke-linecap="round" stroke-linejoin="round"/>
<path d="M77.6262 93.5381L66.5187 97.2316L69.2736 99.9826L64.1318 105.112L75.2394 101.418L72.4845 98.6674L77.6262 93.5381Z" fill="#E8E8E8" stroke="#263238" stroke-width="1.02547" stroke-linecap="round" stroke-linejoin="round"/>
<path d="M102.69 8.8064L97.4521 19.2568H101.352V26.5123L106.588 16.0619H102.69V8.8064Z" fill="#E8E8E8" stroke="#263238" stroke-width="1.02547" stroke-linecap="round" stroke-linejoin="round"/>
</svg>
