<svg width="253" height="253" viewBox="0 0 253 253" fill="none" xmlns="http://www.w3.org/2000/svg">
<path d="M241.701 116.805C239.05 103.836 234.395 91.1763 228.859 79.5383C219.316 59.4602 203.68 42.7875 183.678 32.8901C134.596 8.60214 99.1762 18.7221 79.9482 38.4561C60.7202 58.1901 66.2862 92.0921 45.5402 106.766C24.7942 121.44 10.1202 128.018 9.10821 154.836C8.09621 181.654 21.2522 201.894 42.5042 208.472C63.7562 215.05 95.6342 236.302 159.39 224.158C223.146 212.014 238.832 178.112 242.88 153.824C244.904 141.604 244.206 129.066 241.701 116.805Z" fill="#CBCBCB"/>
<path opacity="0.7" d="M241.701 116.805C239.05 103.836 234.395 91.1763 228.859 79.5383C219.316 59.4602 203.68 42.7875 183.678 32.8901C134.596 8.60214 99.1762 18.7221 79.9482 38.4561C60.7202 58.1901 66.2862 92.0921 45.5402 106.766C24.7942 121.44 10.1202 128.018 9.10821 154.836C8.09621 181.654 21.2522 201.894 42.5042 208.472C63.7562 215.05 95.6342 236.302 159.39 224.158C223.146 212.014 238.832 178.112 242.88 153.824C244.904 141.604 244.206 129.066 241.701 116.805Z" fill="white"/>
<path d="M92.2543 42.7671H87.6699V63.083H92.2543V42.7671Z" fill="#C9C9C9" stroke="#263238" stroke-linecap="round" stroke-linejoin="round"/>
<path d="M92.2543 45.8237H87.6699V47.8073H92.2543V45.8237Z" fill="white" stroke="#263238" stroke-linecap="round" stroke-linejoin="round"/>
<path d="M92.2543 58.4277H87.6699V60.4113H92.2543V58.4277Z" fill="white" stroke="#263238" stroke-linecap="round" stroke-linejoin="round"/>
<path d="M97.6036 42.7671H91.1875V63.083H97.6036V42.7671Z" fill="#878787" stroke="#263238" stroke-linecap="round" stroke-linejoin="round"/>
<path d="M97.1469 42.7671H92.5625V63.083H97.1469V42.7671Z" fill="#C9C9C9" stroke="#263238" stroke-linecap="round" stroke-linejoin="round"/>
<path d="M97.1469 45.8237H92.5625V47.8073H97.1469V45.8237Z" fill="white" stroke="#263238" stroke-linecap="round" stroke-linejoin="round"/>
<path d="M97.1469 58.4277H92.5625V60.4113H97.1469V58.4277Z" fill="white" stroke="#263238" stroke-linecap="round" stroke-linejoin="round"/>
<path d="M102.491 42.7671H96.0752V63.083H102.491V42.7671Z" fill="#878787" stroke="#263238" stroke-linecap="round" stroke-linejoin="round"/>
<path d="M102.035 42.7671H97.4502V63.083H102.035V42.7671Z" fill="#C9C9C9" stroke="#263238" stroke-linecap="round" stroke-linejoin="round"/>
<path d="M102.035 45.8237H97.4502V47.8073H102.035V45.8237Z" fill="white" stroke="#263238" stroke-linecap="round" stroke-linejoin="round"/>
<path d="M102.035 58.4277H97.4502V60.4113H102.035V58.4277Z" fill="white" stroke="#263238" stroke-linecap="round" stroke-linejoin="round"/>
<path d="M107.378 42.7671H100.962V63.083H107.378V42.7671Z" fill="#C9C9C9" stroke="#263238" stroke-linecap="round" stroke-linejoin="round"/>
<path d="M111.558 63.2904H122.325L125.189 60.6997H111.558V63.2904Z" fill="white" stroke="#263238" stroke-linecap="round" stroke-linejoin="round"/>
<path d="M123.971 63.422L123.627 62.83L111.336 62.8047L111.69 63.422H123.971Z" fill="white" stroke="#263238" stroke-linecap="round" stroke-linejoin="round"/>
<path d="M105.325 43.1904L101.356 45.4854L111.527 63.0723L115.495 60.7774L105.325 43.1904Z" fill="#C9C9C9" stroke="#263238" stroke-linecap="round" stroke-linejoin="round"/>
<path d="M106.855 45.8291L102.887 48.124L103.88 49.8411L107.848 47.5462L106.855 45.8291Z" fill="white" stroke="#263238" stroke-linecap="round" stroke-linejoin="round"/>
<path d="M113.17 56.7392L109.201 59.0342L110.194 60.7513L114.163 58.4563L113.17 56.7392Z" fill="white" stroke="#263238" stroke-linecap="round" stroke-linejoin="round"/>
<path d="M125.119 60.877L115.388 60.8517L105.218 43.2632L114.948 43.2885L125.119 60.877Z" fill="#C9C9C9" stroke="#263238" stroke-linecap="round" stroke-linejoin="round"/>
<path d="M130.421 53.0036C130.421 53.0036 128.65 52.3711 128.144 49.5881C127.638 46.8051 126.753 42.8836 127.765 41.9981C128.777 41.1126 130.674 40.6066 130.927 42.3776C131.18 44.1486 130.801 47.5641 131.18 48.3231C131.56 49.0821 132.825 48.5761 132.825 47.0581C132.825 44.5585 131.813 41.9981 132.172 39.4681C132.678 35.9717 136.22 35.5871 136.599 39.4681C136.812 41.6136 136.873 43.8046 136.873 45.9601C136.873 46.8456 138.391 47.3516 138.264 45.2011C138.173 43.6831 139.276 41.9121 140.794 42.4181C142.312 42.9241 141.047 49.6286 140.541 50.7671C140.035 51.9056 136.873 52.1181 136.873 52.1181V55.0276L133.078 55.1541L132.951 52.2446C132.178 52.6913 131.312 52.9512 130.421 53.0036Z" fill="#CBCBCB" stroke="#263238" stroke-linecap="round" stroke-linejoin="round"/>
<path d="M133.838 47.458C133.883 48.0905 133.914 48.47 133.914 48.47" stroke="#263238" stroke-linecap="round" stroke-linejoin="round"/>
<path d="M134.09 37.6465C134.09 37.6465 133.26 38.2233 133.321 39.9538C133.361 41.0063 133.563 43.9209 133.72 46.0512" stroke="#263238" stroke-linecap="round" stroke-linejoin="round"/>
<path d="M135.517 43.6123L135.648 47.8475" stroke="#263238" stroke-linecap="round" stroke-linejoin="round"/>
<path d="M137.369 50.6001C137.076 50.6457 136.78 50.6711 136.483 50.676" stroke="#263238" stroke-linecap="round" stroke-linejoin="round"/>
<path d="M140.011 43.4858C139.718 44.0397 139.564 44.6559 139.56 45.2821C139.56 46.2941 139.626 49.1328 138.984 49.9019C138.827 50.0746 138.635 50.2125 138.422 50.3067" stroke="#263238" stroke-linecap="round" stroke-linejoin="round"/>
<path d="M129.03 49.1782C129.182 49.939 129.547 50.6409 130.083 51.2022C130.399 51.4557 130.79 51.5988 131.196 51.6097C131.601 51.6207 131.999 51.4989 132.329 51.2629" stroke="#263238" stroke-linecap="round" stroke-linejoin="round"/>
<path d="M128.908 42.3325C128.908 42.3325 127.628 42.3325 128.074 44.5741C128.266 45.5203 128.443 46.6841 128.671 47.7821" stroke="#263238" stroke-linecap="round" stroke-linejoin="round"/>
<path d="M133.722 50.8633L133.98 53.621" stroke="#263238" stroke-linecap="round" stroke-linejoin="round"/>
<path d="M140.289 53.8892L139.829 57.6639L139.515 60.2344L139.151 63.2249H130.048L129.683 60.2344L129.37 57.6639L128.909 53.8892H140.289Z" fill="white" stroke="#263238" stroke-linecap="round" stroke-linejoin="round"/>
<path d="M139.828 57.6641L139.514 60.2346H129.683L129.369 57.6641H139.828Z" fill="#CBCBCB" stroke="#263238" stroke-linecap="round" stroke-linejoin="round"/>
<path d="M145.288 63.2246H86.8604V67.0955H145.288V63.2246Z" fill="white" stroke="#263238" stroke-linecap="round" stroke-linejoin="round"/>
<path d="M145.287 63.2246H131.817V67.0955H145.287V63.2246Z" fill="white" stroke="#263238" stroke-linecap="round" stroke-linejoin="round"/>
<path d="M130.508 67.1108C136.767 69.4182 135.639 73.7799 135.639 73.7799H141.564V67.1108H130.508Z" fill="#919191" stroke="#263238" stroke-linecap="round" stroke-linejoin="round"/>
<path d="M132.507 67.1108C138.761 69.4182 137.633 73.7799 137.633 73.7799H143.563V67.1108H132.507Z" fill="white" stroke="#263238" stroke-linecap="round" stroke-linejoin="round"/>
<path d="M90.4072 67.1113C96.6665 69.4187 95.5381 73.7804 95.5381 73.7804H101.463V67.1113H90.4072Z" fill="#919191" stroke="#263238" stroke-linecap="round" stroke-linejoin="round"/>
<path d="M92.4062 67.1113C98.6604 69.4187 97.532 73.7804 97.532 73.7804H103.462V67.1113H92.4062Z" fill="white" stroke="#263238" stroke-linecap="round" stroke-linejoin="round"/>
<path d="M226.708 43.4907H174.307V116.233H226.708V43.4907Z" fill="#919191" stroke="#263238" stroke-linecap="round" stroke-linejoin="round"/>
<path d="M224.435 46.6484H176.583V113.076H224.435V46.6484Z" fill="#CBCBCB"/>
<path opacity="0.5" d="M224.435 46.6484H176.583V113.076H224.435V46.6484Z" fill="white"/>
<path d="M187.103 108.031C185.82 109.988 184.199 111.701 182.316 113.091H224.436V46.6479H216.674L215.662 46.9667C208.072 49.3601 200.229 56.2872 195.781 68.8765" stroke="#263238" stroke-linecap="round" stroke-linejoin="round"/>
<path d="M195.042 71.083C193.275 77.0869 192.299 83.2956 192.138 89.552C191.859 97.061 190.26 102.46 188.125 106.341" stroke="#263238" stroke-linecap="round" stroke-linejoin="round"/>
<path d="M219.755 63.5078C212.797 67.5558 204.696 74.3565 201.67 84.7851C200.046 90.3511 201.569 95.3707 204.58 99.6666" stroke="#263238" stroke-linecap="round" stroke-linejoin="round"/>
<path d="M206.21 101.761C210.384 106.649 216.33 110.495 221.142 113.081H224.436V61.0537C223.495 61.4939 222.493 61.9898 221.451 62.5717" stroke="#263238" stroke-linecap="round" stroke-linejoin="round"/>
<path d="M184.538 63.9683C188.201 56.4998 188.586 50.5745 188.166 46.6479H176.594V77.0383C178.304 74.6044 180.399 71.3509 182.929 66.9891C183.086 66.721 183.232 66.4831 183.379 66.1998" stroke="#263238" stroke-linecap="round" stroke-linejoin="round"/>
<path d="M189.072 92.7347C188.51 96.4133 186.82 99.085 184.827 99.085C182.373 99.085 180.379 95.037 180.379 90.0276C180.379 85.0182 182.373 80.9702 184.827 80.9702C187.281 80.9702 189.274 85.0182 189.274 90.0276" stroke="#263238" stroke-linecap="round" stroke-linejoin="round"/>
<path d="M191.182 71.4374C191.182 73.3652 190.332 74.9338 189.275 74.9338C188.217 74.9338 187.372 73.3652 187.372 71.4374C187.372 69.5095 188.222 67.9409 189.275 67.9409C190.327 67.9409 191.182 69.5045 191.182 71.4374Z" stroke="#263238" stroke-linecap="round" stroke-linejoin="round"/>
<path d="M215.46 86.2073C217.296 87.0827 218.496 88.6108 218.496 90.3464C218.496 93.0636 215.51 95.2698 211.821 95.2698C208.133 95.2698 205.152 93.0636 205.152 90.3464C205.152 87.6292 208.138 85.418 211.821 85.418C212.409 85.4176 212.996 85.4752 213.572 85.59" stroke="#263238" stroke-linecap="round" stroke-linejoin="round"/>
<path d="M214.635 90.3464C214.635 91.4849 213.386 92.4109 211.837 92.4109C210.289 92.4109 209.039 91.4849 209.039 90.3464C209.039 89.2079 210.294 88.2769 211.837 88.2769C213.381 88.2769 214.635 89.2028 214.635 90.3464Z" stroke="#263238" stroke-linecap="round" stroke-linejoin="round"/>
<path d="M219.148 77.7925C219.148 79.3712 217.585 80.6514 215.652 80.6514C213.719 80.6514 212.155 79.3712 212.155 77.7925C212.155 76.2138 213.719 74.9336 215.652 74.9336C217.585 74.9336 219.148 76.2138 219.148 77.7925Z" stroke="#263238" stroke-linecap="round" stroke-linejoin="round"/>
<path d="M193.883 61.904C195.2 61.904 196.267 59.2715 196.267 56.0243C196.267 52.777 195.2 50.1445 193.883 50.1445C192.567 50.1445 191.5 52.777 191.5 56.0243C191.5 59.2715 192.567 61.904 193.883 61.904Z" stroke="#263238" stroke-linecap="round" stroke-linejoin="round"/>
<path d="M200.401 106.553C200.401 107.214 200.205 107.86 199.838 108.409C199.471 108.958 198.95 109.386 198.339 109.639C197.729 109.892 197.058 109.958 196.41 109.829C195.762 109.7 195.167 109.382 194.7 108.915C194.233 108.448 193.915 107.853 193.786 107.205C193.657 106.557 193.723 105.886 193.976 105.275C194.229 104.665 194.657 104.144 195.206 103.777C195.755 103.41 196.401 103.214 197.061 103.214C197.947 103.214 198.796 103.566 199.423 104.192C200.049 104.818 200.401 105.668 200.401 106.553Z" stroke="#263238" stroke-linecap="round" stroke-linejoin="round"/>
<path d="M215.971 56.9756C215.972 57.3854 215.851 57.7862 215.624 58.1273C215.397 58.4684 215.074 58.7345 214.696 58.8917C214.318 59.049 213.901 59.0904 213.499 59.0107C213.097 58.931 212.728 58.7338 212.438 58.4441C212.148 58.1543 211.951 57.7851 211.872 57.3832C211.792 56.9813 211.833 56.5647 211.991 56.1864C212.148 55.808 212.414 55.4848 212.755 55.2578C213.096 55.0308 213.497 54.9101 213.907 54.9111C214.454 54.9125 214.978 55.1304 215.365 55.5173C215.752 55.9042 215.97 56.4285 215.971 56.9756Z" stroke="#263238" stroke-linecap="round" stroke-linejoin="round"/>
<path d="M202.941 71.594C202.942 71.8144 202.878 72.0301 202.756 72.2138C202.634 72.3976 202.461 72.541 202.258 72.6261C202.054 72.7111 201.83 72.7339 201.614 72.6915C201.398 72.6491 201.199 72.5435 201.043 72.388C200.886 72.2325 200.78 72.0342 200.737 71.8181C200.693 71.602 200.715 71.3779 200.799 71.1742C200.883 70.9705 201.026 70.7964 201.209 70.6738C201.392 70.5513 201.608 70.4859 201.828 70.4859C201.974 70.4852 202.119 70.5134 202.254 70.5687C202.389 70.6241 202.511 70.7057 202.615 70.8086C202.718 70.9116 202.8 71.034 202.856 71.1688C202.912 71.3035 202.941 71.448 202.941 71.594V71.594Z" stroke="#263238" stroke-linecap="round" stroke-linejoin="round"/>
<path d="M224.435 46.6484H176.583V113.076H224.435V46.6484Z" stroke="#263238" stroke-linecap="round" stroke-linejoin="round"/>
<path d="M146.231 141.372H133.231V146.265H146.231V141.372Z" fill="#263238" stroke="#263238" stroke-linecap="round" stroke-linejoin="round"/>
<path d="M163.671 142.11H111.933L114.382 102.004H166.125L163.671 142.11Z" fill="#919191" stroke="#263238" stroke-linecap="round" stroke-linejoin="round"/>
<path d="M162.189 142.11H110.45L112.899 102.004H164.638L162.189 142.11Z" fill="#263238" stroke="#263238" stroke-linecap="round" stroke-linejoin="round"/>
<path d="M159.451 139.879H113.461L115.637 104.231H161.627L159.451 139.879Z" fill="white" stroke="#263238" stroke-linecap="round" stroke-linejoin="round"/>
<path d="M146.073 134.565H114.833L116.508 107.095H147.753L146.073 134.565Z" fill="#919191" stroke="#263238" stroke-linecap="round" stroke-linejoin="round"/>
<path d="M127.159 122.765C127.159 122.765 120.652 125.341 120.612 126.034C120.571 126.727 119.296 134.565 119.296 134.565H138.645L137.016 125.538L129.856 122.563L127.159 122.765Z" fill="white" stroke="#263238" stroke-linecap="round" stroke-linejoin="round"/>
<path d="M127.35 121.177C126.861 121.306 126.406 121.543 126.02 121.87C125.514 122.376 124.896 124.051 124.896 124.051L124.871 126.034L127.437 124.648L130.042 124.476L132.481 126.758L132.795 123.287C132.795 123.287 132.421 121.303 131.631 121.202C130.842 121.101 127.35 121.177 127.35 121.177Z" fill="white" stroke="#263238" stroke-linecap="round" stroke-linejoin="round"/>
<path d="M127.271 119.294L127.159 122.766L128.692 125.245L131.227 122.664L131.622 119.492L127.271 119.294Z" fill="white" stroke="#263238" stroke-linecap="round" stroke-linejoin="round"/>
<path d="M133.524 115.236C133.342 118.146 131.409 121.673 129.289 121.673C127.169 121.673 125.666 118.131 125.843 115.236C126.02 112.342 127.867 109.969 130.003 109.969C132.138 109.969 133.701 112.332 133.524 115.236Z" fill="white" stroke="#263238" stroke-linecap="round" stroke-linejoin="round"/>
<path d="M125.807 115.621C125.807 115.621 125.124 113.84 124.841 115.226C124.557 116.612 125.954 118.1 125.954 118.1L125.807 115.621Z" fill="white" stroke="#263238" stroke-linecap="round" stroke-linejoin="round"/>
<path d="M133.524 115.236C133.524 115.236 135.199 114.533 134.708 116.021C134.583 116.442 134.366 116.829 134.072 117.155C133.778 117.481 133.414 117.736 133.008 117.903L133.524 115.236Z" fill="white" stroke="#263238" stroke-linecap="round" stroke-linejoin="round"/>
<path d="M129.08 115.621C129.094 115.442 129.07 115.263 129.01 115.094C128.95 114.925 128.856 114.771 128.733 114.64C128.61 114.51 128.462 114.406 128.297 114.336C128.132 114.267 127.954 114.232 127.775 114.235C127.402 114.244 127.046 114.391 126.774 114.647C126.503 114.903 126.335 115.249 126.302 115.621C126.289 115.8 126.313 115.98 126.373 116.149C126.433 116.318 126.527 116.473 126.649 116.603C126.772 116.734 126.921 116.838 127.086 116.909C127.251 116.979 127.429 117.014 127.608 117.012C127.982 117.003 128.338 116.855 128.61 116.598C128.882 116.342 129.049 115.994 129.08 115.621Z" fill="white" stroke="#263238" stroke-linecap="round" stroke-linejoin="round"/>
<path d="M132.452 115.621L133.965 115.227" stroke="#263238" stroke-linecap="round" stroke-linejoin="round"/>
<path d="M132.451 115.621C132.465 115.443 132.441 115.264 132.381 115.095C132.322 114.927 132.228 114.772 132.106 114.642C131.984 114.512 131.836 114.408 131.671 114.338C131.507 114.268 131.33 114.233 131.151 114.234C130.777 114.243 130.42 114.389 130.147 114.645C129.874 114.901 129.706 115.248 129.673 115.621C129.66 115.8 129.684 115.979 129.744 116.149C129.804 116.318 129.898 116.473 130.021 116.603C130.143 116.734 130.292 116.838 130.457 116.909C130.622 116.979 130.8 117.014 130.979 117.012C131.353 117.002 131.71 116.855 131.981 116.598C132.253 116.341 132.42 115.993 132.451 115.621Z" fill="white" stroke="#263238" stroke-linecap="round" stroke-linejoin="round"/>
<path d="M129.659 109.372C129.659 109.372 128.141 108.582 127.003 109.078C125.864 109.574 125.024 112.251 125.08 112.944C125.258 113.853 125.502 114.747 125.808 115.621L127.013 112.15L130.17 110.763L129.659 109.372Z" fill="#263238" stroke="#263238" stroke-linecap="round" stroke-linejoin="round"/>
<path d="M128.131 110.07C128.131 110.07 130.631 108.086 132.655 109.058C133.274 109.327 133.786 109.795 134.11 110.388C134.433 110.981 134.55 111.665 134.441 112.332C134.41 112.838 134.37 115.105 134.37 115.105L133.166 115.307L132.574 113.44C131.89 113.169 131.224 112.855 130.58 112.499C130.58 112.499 127.903 112.15 128.131 110.07Z" fill="#263238" stroke="#263238" stroke-linecap="round" stroke-linejoin="round"/>
<path d="M129.081 115.621L128.904 118.5H129.598" fill="white"/>
<path d="M129.081 115.621L128.904 118.5H129.598" stroke="#263238" stroke-linecap="round" stroke-linejoin="round"/>
<path d="M128.541 119.588H130.029" stroke="#263238" stroke-linecap="round" stroke-linejoin="round"/>
<path d="M128.692 125.245L128.141 134.267" stroke="#263238" stroke-linecap="round" stroke-linejoin="round"/>
<path d="M137.006 125.538C137.006 125.538 134.936 130.203 134.876 131.195C134.815 132.187 134.582 134.368 134.582 134.368" stroke="#263238" stroke-linecap="round" stroke-linejoin="round"/>
<path d="M120.61 126.034C120.61 126.034 122.67 129.607 122.938 130.082C123.206 130.558 122.877 134.348 122.877 134.348" stroke="#263238" stroke-linecap="round" stroke-linejoin="round"/>
<path d="M138.387 128.913L139.07 125.837L140.234 124.648L141.332 122.862H141.828L141.22 124.749L142.759 123.853L143.75 122.27L144.327 122.563L142.91 126.237L140.664 127.324L140.274 128.812L138.387 128.913Z" fill="white" stroke="#263238" stroke-linecap="round" stroke-linejoin="round"/>
<path d="M140.311 134.565L140.498 128.417L138.241 128.018L136.46 134.565H140.311Z" fill="white" stroke="#263238" stroke-linecap="round" stroke-linejoin="round"/>
<path d="M145.937 136.848H114.691L114.833 134.566H146.074L145.937 136.848Z" fill="white" stroke="#263238" stroke-linecap="round" stroke-linejoin="round"/>
<path d="M115.967 135.461H144.632" stroke="#263238" stroke-linecap="round" stroke-linejoin="round"/>
<path d="M159.502 114.426H148.987L149.433 107.186H159.947L159.502 114.426Z" fill="#CBCBCB" stroke="#263238" stroke-linecap="round" stroke-linejoin="round"/>
<path d="M159.502 114.427H148.987L149.063 113.238H159.578L159.502 114.427Z" fill="white" stroke="#263238" stroke-linecap="round" stroke-linejoin="round"/>
<path d="M156.107 110.383L153.374 108.749L153.177 112.018L156.107 110.383Z" fill="white" stroke="#263238" stroke-linecap="round" stroke-linejoin="round"/>
<path d="M158.818 125.635H148.304L148.744 118.399H159.259L158.818 125.635Z" fill="#CBCBCB" stroke="#263238" stroke-linecap="round" stroke-linejoin="round"/>
<path d="M158.818 125.635H148.304L148.38 124.446H158.889L158.818 125.635Z" fill="white" stroke="#263238" stroke-linecap="round" stroke-linejoin="round"/>
<path d="M155.425 121.597L152.692 119.962L152.495 123.231L155.425 121.597Z" fill="white" stroke="#263238" stroke-linecap="round" stroke-linejoin="round"/>
<path d="M158.131 136.848H147.621L148.061 129.607H158.576L158.131 136.848Z" fill="#CBCBCB" stroke="#263238" stroke-linecap="round" stroke-linejoin="round"/>
<path d="M158.131 136.848H147.621L147.692 135.659H158.207L158.131 136.848Z" fill="white" stroke="#263238" stroke-linecap="round" stroke-linejoin="round"/>
<path d="M154.736 132.805L152.009 131.17L151.807 134.439L154.736 132.805Z" fill="white" stroke="#263238" stroke-linecap="round" stroke-linejoin="round"/>
<path d="M149.018 115.621H159.229" stroke="#263238" stroke-linecap="round" stroke-linejoin="round"/>
<path d="M148.942 116.815H159.159" stroke="#263238" stroke-linecap="round" stroke-linejoin="round"/>
<path d="M148.325 126.93H158.541" stroke="#263238" stroke-linecap="round" stroke-linejoin="round"/>
<path d="M148.255 128.119H158.471" stroke="#263238" stroke-linecap="round" stroke-linejoin="round"/>
<path d="M143.796 146.264H136.115C136.115 145.498 136.42 144.763 136.961 144.221C137.503 143.679 138.238 143.375 139.004 143.375H140.897C141.663 143.375 142.398 143.679 142.94 144.221C143.482 144.763 143.786 145.498 143.786 146.264H143.796Z" fill="white" stroke="#263238" stroke-linecap="round" stroke-linejoin="round"/>
<path d="M132.457 144.69H94.9014V146.264H132.457V144.69Z" fill="#919191" stroke="#263238" stroke-linecap="round" stroke-linejoin="round"/>
<path d="M132.447 144.69H123.01V146.264H132.447V144.69Z" fill="white" stroke="#263238" stroke-linecap="round" stroke-linejoin="round"/>
<path d="M79.5068 69.1349V39.2354" stroke="#263238" stroke-linecap="round" stroke-linejoin="round"/>
<path d="M79.5068 218.774V72.1104" stroke="#263238" stroke-linecap="round" stroke-linejoin="round"/>
<path d="M147.788 156.759L152.342 218.152C152.366 218.376 152.474 218.583 152.645 218.73C152.815 218.877 153.036 218.954 153.261 218.944C153.486 218.934 153.699 218.839 153.856 218.678C154.014 218.517 154.104 218.302 154.108 218.076L153.425 156.759H147.788Z" fill="#919191" stroke="#263238" stroke-linecap="round" stroke-linejoin="round"/>
<path d="M151.224 156.759L153.627 218.86C153.769 218.784 153.887 218.671 153.969 218.533C154.051 218.395 154.094 218.237 154.093 218.076L153.425 156.759H151.224Z" fill="white" stroke="#263238" stroke-linecap="round" stroke-linejoin="round"/>
<path d="M176.413 156.759L180.967 218.152C180.991 218.376 181.099 218.582 181.27 218.73C181.44 218.877 181.661 218.953 181.886 218.943C182.111 218.934 182.324 218.839 182.481 218.677C182.639 218.516 182.729 218.301 182.733 218.076L182.05 156.759H176.413Z" fill="#919191" stroke="#263238" stroke-linecap="round" stroke-linejoin="round"/>
<path d="M179.58 156.759L182.383 218.769C182.488 218.687 182.573 218.582 182.631 218.461C182.689 218.341 182.718 218.209 182.717 218.076L182.049 156.759H179.58Z" fill="white" stroke="#263238" stroke-linecap="round" stroke-linejoin="round"/>
<path d="M100.957 157.427L96.4032 218.147C96.3878 218.37 96.2883 218.579 96.1248 218.731C95.9613 218.883 95.7461 218.967 95.5227 218.967C95.4056 218.969 95.2893 218.948 95.1804 218.904C95.0715 218.861 94.9723 218.797 94.8886 218.715C94.8048 218.633 94.7381 218.535 94.6924 218.427C94.6466 218.319 94.6227 218.204 94.6221 218.086L95.295 157.265L100.957 157.427Z" fill="#263238" stroke="#263238" stroke-linecap="round" stroke-linejoin="round"/>
<path d="M72.3589 157.427L67.8049 218.147C67.7895 218.37 67.69 218.579 67.5265 218.731C67.363 218.883 67.1478 218.967 66.9244 218.967C66.8077 218.966 66.6923 218.942 66.5848 218.897C66.4773 218.852 66.3798 218.785 66.298 218.702C66.2161 218.619 66.1516 218.52 66.108 218.412C66.0644 218.304 66.0427 218.188 66.044 218.071L66.717 157.25L72.3589 157.427Z" fill="#263238" stroke="#263238" stroke-linecap="round" stroke-linejoin="round"/>
<path d="M183.725 147.691H65.002V157.255H183.725V147.691Z" fill="#919191" stroke="#263238" stroke-linecap="round" stroke-linejoin="round"/>
<path d="M183.724 147.691H149.7V157.255H183.724V147.691Z" fill="white" stroke="#263238" stroke-linecap="round" stroke-linejoin="round"/>
<path d="M183.725 149.209H65.002V151.846H183.725V149.209Z" fill="#263238" stroke="#263238" stroke-linecap="round" stroke-linejoin="round"/>
<path d="M185.434 146.32H63.291V149.518H185.434V146.32Z" fill="#919191" stroke="#263238" stroke-linecap="round" stroke-linejoin="round"/>
<path d="M185.428 146.32H151.886V149.518H185.428V146.32Z" fill="white" stroke="#263238" stroke-linecap="round" stroke-linejoin="round"/>
<path d="M149.417 87.0322H132.932C132.073 87.0322 131.249 87.3734 130.642 87.9807C130.035 88.588 129.693 89.4117 129.693 90.2706V96.3426C129.693 96.7681 129.776 97.1895 129.939 97.5827C130.101 97.9759 130.34 98.3331 130.64 98.634C130.941 98.9348 131.298 99.1733 131.692 99.3359C132.085 99.4984 132.506 99.5817 132.932 99.581H141.564L138.331 108.613L144.524 99.581H149.417C149.843 99.5817 150.264 99.4984 150.657 99.3359C151.051 99.1733 151.408 98.9348 151.709 98.634C152.009 98.3331 152.248 97.9759 152.41 97.5827C152.573 97.1895 152.656 96.7681 152.656 96.3426V90.2706C152.656 89.4117 152.314 88.588 151.707 87.9807C151.1 87.3734 150.276 87.0322 149.417 87.0322Z" fill="white" stroke="#263238" stroke-linecap="round" stroke-linejoin="round"/>
<path d="M136.757 94.688C137.408 94.688 137.936 94.1602 137.936 93.5091C137.936 92.8579 137.408 92.3301 136.757 92.3301C136.106 92.3301 135.578 92.8579 135.578 93.5091C135.578 94.1602 136.106 94.688 136.757 94.688Z" fill="#263238"/>
<path d="M141.175 94.688C141.826 94.688 142.354 94.1602 142.354 93.5091C142.354 92.8579 141.826 92.3301 141.175 92.3301C140.524 92.3301 139.996 92.8579 139.996 93.5091C139.996 94.1602 140.524 94.688 141.175 94.688Z" fill="#263238"/>
<path d="M146.766 93.509C146.766 93.2757 146.697 93.0475 146.567 92.8535C146.437 92.6595 146.253 92.5084 146.037 92.4193C145.821 92.3303 145.584 92.3072 145.355 92.3531C145.126 92.399 144.916 92.5118 144.752 92.6772C144.587 92.8426 144.475 93.0531 144.43 93.2822C144.385 93.5112 144.409 93.7484 144.499 93.9637C144.589 94.1791 144.741 94.3629 144.936 94.4918C145.13 94.6207 145.359 94.689 145.592 94.688C145.747 94.688 145.9 94.6575 146.043 94.5982C146.185 94.5389 146.315 94.452 146.424 94.3424C146.533 94.2329 146.62 94.1029 146.678 93.9598C146.737 93.8168 146.767 93.6636 146.766 93.509Z" fill="#263238"/>
<path d="M227.7 219.098H241.362" stroke="#263238" stroke-linecap="round" stroke-linejoin="round"/>
<path d="M12.1445 219.098H220.617" stroke="#263238" stroke-linecap="round" stroke-linejoin="round"/>
<path d="M92.416 129.678C90.9334 127.148 86.5717 117.408 86.5717 117.408C86.7032 116.367 86.9164 115.338 87.2092 114.331C87.5685 113.319 88.4742 110.253 88.2921 109.615C88.1099 108.978 85.4838 107.804 85.2156 107.713C84.9474 107.622 85.5749 106.083 84.578 105.719C83.5812 105.355 83.222 105.901 83.222 105.901L82.8425 108.431L81.6787 110.253C81.194 109.884 80.6871 109.546 80.1607 109.241C79.346 108.785 77.4434 108.603 77.3523 109.332C77.2613 110.06 78.8703 110.688 79.432 111.143C79.9937 111.599 80.7021 113.769 81.3396 114.407C81.919 115.039 82.4629 115.703 82.969 116.396L83.3333 117.575C83.3333 117.575 84.573 129.511 84.7197 132.481C84.8665 135.452 85.3117 143.31 86.2023 144.494C87.0929 145.678 87.2447 146.427 89.7443 145.536C92.2439 144.646 92.7095 143.456 93.2863 140.785C93.8631 138.113 93.8986 132.198 92.416 129.678Z" fill="white" stroke="#263238" stroke-linecap="round" stroke-linejoin="round"/>
<path d="M93.3061 140.8C93.8981 138.133 93.8981 132.198 92.4155 129.668C92.2536 129.39 92.0563 129.03 91.8336 128.605C88.4788 127.629 85.291 129.223 85.291 129.223L84.4814 129.577C84.5877 130.816 84.6687 131.854 84.699 132.486C84.8508 135.451 85.291 143.315 86.1816 144.499C87.0722 145.683 87.224 146.432 89.7236 145.541C92.2232 144.651 92.709 143.472 93.3061 140.8Z" fill="#CBCBCB" stroke="#263238" stroke-linecap="round" stroke-linejoin="round"/>
<path d="M81.5979 89.562C81.9633 90.9042 82.1672 92.2853 82.2051 93.6758C82.2051 95.6542 81.5979 96.8737 82.5138 97.4809C83.4297 98.0881 84.1887 98.0932 84.0318 99.3126C83.9718 99.9858 83.7049 100.624 83.2677 101.139C83.2677 101.139 82.9641 107.383 82.6605 107.996C82.3569 108.608 78.395 107.844 77.4791 107.687C76.5632 107.53 73.9776 108.755 72.2977 105.405C70.6177 102.055 71.9941 97.0255 75.0402 94.4348C77.1354 92.6919 79.3246 91.0652 81.5979 89.562Z" fill="white" stroke="#263238" stroke-linecap="round" stroke-linejoin="round"/>
<path d="M82.2053 93.6508C82.2053 93.6508 81.3805 93.0335 80.9453 94.1163" stroke="#263238" stroke-linecap="round" stroke-linejoin="round"/>
<path d="M81.4657 96.1704C81.3473 96.7839 81.3856 97.4174 81.5771 98.0123" stroke="#263238" stroke-linecap="round" stroke-linejoin="round"/>
<path d="M82.983 103.325C82.8478 103.369 82.705 103.383 82.5638 103.368C82.4226 103.352 82.2863 103.307 82.1636 103.236C82.0409 103.164 81.9347 103.068 81.8519 102.952C81.769 102.837 81.7113 102.705 81.6826 102.566" stroke="#263238" stroke-linecap="round" stroke-linejoin="round"/>
<path d="M84.7085 131.965C84.7085 131.965 84.2025 134.282 83.7522 135.507C83.3018 136.731 75.2261 138.978 71.7094 139.443C69.3927 139.733 67.0611 139.886 64.7266 139.904L64.9492 146.31C64.9492 146.31 71.76 146.446 72.2407 146.31C72.7214 146.173 84.1873 141.047 84.1873 141.047L89.136 140.4C89.136 140.4 91.2157 139.894 91.2966 138.28C91.3776 136.665 89.5408 132.076 88.7059 131.363C87.871 130.649 86.1101 128.757 85.0526 129.92C83.995 131.084 84.7085 131.965 84.7085 131.965Z" fill="white" stroke="#263238" stroke-linecap="round" stroke-linejoin="round"/>
<path d="M69.5248 143.466C69.5248 140.699 70.2332 140.628 71.0428 139.53C68.9508 139.764 66.8481 139.888 64.7431 139.904L64.5762 145.784C64.5762 145.784 68.3054 146.128 70.5773 146.29C70.3901 146.578 69.5248 145.248 69.5248 143.466Z" fill="#CBCBCB" stroke="#263238" stroke-linecap="round" stroke-linejoin="round"/>
<path d="M91.5149 155.914C88.8206 152.886 85.3958 150.599 81.5669 149.27L72.6815 153.06C71.9915 151.366 71.0758 149.773 69.9592 148.324L68.2996 146.3L69.3672 140.496C69.3672 140.496 75.7631 136.114 76.5879 134.217L76.6182 134.156C77.9035 136.145 83.4796 144.752 84.527 145.587C85.711 146.538 89.2631 146.654 90.8014 145.232C92.3396 143.81 93.0531 142.864 92.6989 140.734C92.6989 140.734 90.3308 135.639 89.0253 133.387C87.7199 131.135 84.8812 123.085 83.4593 120.595C82.4473 118.814 82.0274 117.559 81.3088 116.719C80.81 115.86 80.2214 115.056 79.553 114.321C78.1312 112.803 74.2198 112.423 73.3899 112.069C72.5601 111.715 72.4437 111.593 67.7076 110.177C62.9714 108.76 57.6381 107.925 53.8482 110.885C53.8482 110.885 48.7578 116.927 46.7642 126.875C44.7706 136.823 44.6289 146.892 44.3961 148.668C44.1634 150.444 42.1444 159.092 41.5524 164.066C40.9604 169.04 46.1519 174.034 49.3499 175.582C52.5478 177.131 66.2857 177.358 74.3412 175.582C82.3967 173.806 95.1884 165.751 95.1884 165.751C95.1884 165.751 95.659 160.772 91.5149 155.914Z" fill="#CBCBCB" stroke="#263238" stroke-linecap="round" stroke-linejoin="round"/>
<path d="M70.5725 134.029L68.9482 133.974" stroke="#263238" stroke-linecap="round" stroke-linejoin="round"/>
<path d="M69.96 131.444C72.2352 132.21 74.4508 133.144 76.5886 134.237L72.4191 134.095" stroke="#263238" stroke-linecap="round" stroke-linejoin="round"/>
<path d="M91.9653 134.435C92.4327 135.169 92.7204 136.002 92.8052 136.868C92.8052 137.987 92.9925 139.484 92.5269 139.019C92.0614 138.553 91.8691 136.96 91.8691 136.96L91.9653 134.435Z" fill="white" stroke="#263238" stroke-linecap="round" stroke-linejoin="round"/>
<path d="M89.1621 133.128C89.1621 133.128 90.9129 132.177 91.6921 133.321C92.4714 134.464 92.2639 136.746 91.6921 137.875C91.1203 139.003 90.4676 137.925 90.5486 136.923C90.6295 135.922 89.1621 133.128 89.1621 133.128Z" fill="white" stroke="#263238" stroke-linecap="round" stroke-linejoin="round"/>
<path d="M88.5039 131.914C88.5039 131.914 90.2597 130.963 91.0339 132.106C91.8081 133.25 91.6006 135.527 91.0339 136.66C90.4672 137.794 89.8094 136.711 89.8903 135.709C89.9713 134.707 88.5039 131.914 88.5039 131.914Z" fill="white" stroke="#263238" stroke-linecap="round" stroke-linejoin="round"/>
<path d="M87.7002 130.604C87.7002 130.604 89.456 129.653 90.2302 130.796C91.0044 131.94 90.802 134.222 90.2302 135.35C89.6584 136.479 89.0057 135.401 89.0866 134.399C89.1676 133.397 87.7002 130.604 87.7002 130.604Z" fill="white" stroke="#263238" stroke-linecap="round" stroke-linejoin="round"/>
<path d="M83.2574 84.8108C83.2866 86.6293 82.8176 88.4212 81.9014 89.9923C79.3106 93.9542 76.8768 93.4938 75.8294 96.6968C74.7819 99.8997 73.2184 103.224 74.8882 105.076C76.558 106.928 77.9242 105.835 77.9242 105.835C77.9242 105.835 78.9919 108.578 76.2493 111.32C73.5068 114.063 68.7858 112.995 67.5664 112.54C66.7984 112.244 66.0801 111.833 65.4361 111.32C65.4361 111.32 64.6721 113.455 60.8821 113.455C57.0922 113.455 52.7861 110.865 52.7861 106.139C52.7861 101.413 55.3718 98.2198 55.9841 96.3881C56.5963 94.5564 54.9164 88.9246 57.5021 85.4231C60.0877 81.9216 64.08 79.3511 67.116 79.3511C70.152 79.3511 76.0773 81.0158 76.1026 81.0259C76.5023 81.2435 79.0627 80.2011 79.7559 80.2467C82.3011 80.3884 83.2271 82.4782 83.2574 84.8108Z" fill="#263238" stroke="#263238" stroke-linecap="round" stroke-linejoin="round"/>
<path d="M73.3701 106.483C73.9226 106.557 74.4824 106.557 75.0348 106.483" stroke="#919191" stroke-linecap="round" stroke-linejoin="round"/>
<path d="M81.061 87.4673C80.8207 88.8236 80.3208 90.1208 79.5885 91.2876C77.2205 95.0067 74.5285 96.3476 71.3053 99.8896C69.2358 102.182 69.6254 104.469 71.3053 105.668" stroke="#919191" stroke-linecap="round" stroke-linejoin="round"/>
<path d="M81.1064 83.5156C81.2051 84.0736 81.2542 84.6391 81.2532 85.2057" stroke="#919191" stroke-linecap="round" stroke-linejoin="round"/>
<path d="M77.9241 87.0625C77.9241 87.0625 77.4181 92.2996 75.2221 95.3407C73.0261 98.3817 68.6441 99.8947 68.801 103.113" stroke="#919191" stroke-linecap="round" stroke-linejoin="round"/>
<path d="M98.3158 174.727C98.3158 174.727 101.473 190.949 104.175 198.833C106.877 206.716 109.579 213.927 110.247 214.605C110.915 215.283 112.727 217.757 112.727 217.757C111.889 218.426 110.866 218.82 109.797 218.885C108.218 218.885 106.194 216.861 104.388 215.728C102.581 214.594 102.364 213.927 98.756 212.575C95.1482 211.224 98.083 207.622 98.9837 205.815C99.5045 204.84 99.8115 203.766 99.8844 202.663C98.4523 197.589 95.9138 192.896 92.4512 188.92C86.8296 182.615 85.7012 167.992 85.7012 167.992L96.5144 163.944L98.3158 174.727Z" fill="white" stroke="#263238" stroke-linecap="round" stroke-linejoin="round"/>
<path d="M109.802 213.795L109.149 213.927C109.149 213.927 105.318 208.745 102.394 206.944C101.397 206.256 100.224 205.866 99.0137 205.821C98.108 207.622 95.1833 211.225 98.786 212.576C102.389 213.927 102.616 214.6 104.418 215.728C106.219 216.857 108.248 218.886 109.827 218.886C110.896 218.82 111.919 218.426 112.757 217.757C112.757 217.757 110.95 215.278 110.277 214.605C110.086 214.356 109.926 214.084 109.802 213.795Z" fill="#CBCBCB" stroke="#263238" stroke-linecap="round" stroke-linejoin="round"/>
<path d="M107.985 218.243C106.204 217.013 104.595 214.281 101.696 212.576C99.0593 211.027 97.7033 210.967 97.1416 211.083C97.2792 211.444 97.5004 211.768 97.7871 212.028C98.0738 212.287 98.4179 212.475 98.7912 212.576C102.399 213.927 102.622 214.6 104.423 215.728C105.561 216.457 106.816 217.58 107.985 218.243Z" fill="#CBCBCB" stroke="#263238" stroke-linecap="round" stroke-linejoin="round"/>
<path d="M109.802 218.886C109.687 218.882 109.572 218.87 109.458 218.851C109.571 218.872 109.687 218.884 109.802 218.886Z" fill="#CBCBCB" stroke="#263238" stroke-linecap="round" stroke-linejoin="round"/>
<path d="M78.2379 150.282C78.2379 150.282 89.0663 146.447 90.0783 148.977C91.0903 151.507 95.7252 160.944 94.0352 164.82C92.3452 168.696 80.4643 153.688 78.7742 153.364C77.0842 153.04 78.0405 151.416 78.2379 150.282Z" fill="white" stroke="#263238" stroke-linecap="round" stroke-linejoin="round"/>
<path d="M88.8492 155.226C88.8492 155.226 101.16 154.214 103.523 156.41C105.886 158.606 97.7903 184.913 93.4032 193.176C86.5267 206.099 88.6064 209.484 88.6064 209.484C88.6064 209.484 89.1124 211.508 92.4874 214.716C95.8624 217.924 96.8744 218.425 95.6904 218.931C94.5063 219.437 89.4514 218.931 88.9454 218.592C88.4394 218.253 84.7304 215.222 81.3554 214.21C77.9803 213.198 78.4863 212.52 80.0043 209.484C81.5223 206.448 81.3554 208.978 83.0404 203.751C85.0602 197.31 86.6558 190.743 87.817 184.093C88.7126 178.674 90.0788 172.723 89.6942 167.213L88.8492 155.226Z" fill="white" stroke="#263238" stroke-linecap="round" stroke-linejoin="round"/>
<path d="M97.8654 163.463C96.5762 160.353 94.3585 157.717 91.5151 155.914C86.1313 152.478 81.5672 149.27 81.5672 149.27L72.6818 153.06C72.6818 153.06 74.8475 156.734 63.7155 158.591C55.1438 160.017 47.2755 157.948 43.0302 155.453C42.4382 158.393 41.8209 161.662 41.5122 164.055C40.9202 169.029 46.132 174.003 49.3299 175.547C52.5278 177.09 78.2933 180.283 85.2306 175.825C97.8654 167.744 97.8654 163.463 97.8654 163.463Z" fill="#263238" stroke="#263238" stroke-linecap="round" stroke-linejoin="round"/>
<path d="M71.6752 155.848C70.4861 156.825 68.1687 157.872 63.7159 158.596C55.1442 160.023 47.2759 157.953 43.0306 155.458C42.8788 156.212 42.727 156.976 42.5752 157.761C45.4847 159.512 51.5972 162.477 58.4889 161.632C66.7114 160.625 70.3647 158.378 71.6752 155.848Z" fill="#CBCBCB" stroke="#263238" stroke-linecap="round" stroke-linejoin="round"/>
<path d="M65.1072 166.687C64.7125 167.193 64.3026 167.699 63.8877 168.204" stroke="white" stroke-linecap="round" stroke-linejoin="round"/>
<path d="M71.3052 157.083C69.748 159.946 68.0106 162.708 66.1035 165.351" stroke="white" stroke-linecap="round" stroke-linejoin="round"/>
<path d="M67.5974 160.286C67.5974 160.286 64.5614 164.334 61.3584 166.697" stroke="white" stroke-linecap="round" stroke-linejoin="round"/>
<path d="M92.4874 214.706C89.1123 211.508 88.6063 209.484 88.6063 209.484C88.4933 209.379 88.4037 209.252 88.3432 209.11C88.1155 209.348 87.4274 209.798 85.7424 209.15C84.28 208.589 82.8936 207.632 81.4313 206.99C81.0821 207.612 80.7431 208.002 80.0043 209.484C78.4863 212.52 77.9803 213.198 81.3554 214.21C84.7304 215.222 88.4394 218.258 88.9454 218.592C89.4514 218.926 94.5114 219.437 95.6903 218.931C96.8693 218.425 95.8624 217.909 92.4874 214.706Z" fill="#CBCBCB" stroke="#263238" stroke-linecap="round" stroke-linejoin="round"/>
<path d="M95.5938 165.179L101.332 161.637" stroke="#263238" stroke-linecap="round" stroke-linejoin="round"/>
<path d="M27.0459 133.108C27.0459 133.108 45.3226 130.821 57.0011 134.12L58.7772 178.552H31.3722C31.3722 178.552 33.1381 154.684 27.0459 133.108Z" fill="#919191" stroke="#263238" stroke-linecap="round" stroke-linejoin="round"/>
<path d="M57.0011 134.12C45.3226 130.821 27.0459 133.108 27.0459 133.108C29.0017 140.299 30.3007 147.653 30.9269 155.079C41.1323 160.175 50.4794 166.833 58.6304 174.813L57.0011 134.12Z" fill="#757575" stroke="#263238" stroke-linecap="round" stroke-linejoin="round"/>
<path d="M91.4642 220.11C91.2574 220.111 91.0554 220.048 90.8853 219.931C90.7153 219.813 90.5853 219.646 90.5129 219.452C86.4649 208.543 85.4529 180.222 85.3922 179.023C85.3828 178.755 85.4804 178.494 85.6636 178.297C85.8467 178.101 86.1004 177.985 86.3688 177.976C86.6372 177.966 86.8983 178.064 87.0948 178.247C87.2912 178.43 87.4068 178.684 87.4162 178.952C87.4162 179.246 88.4687 208.143 92.4104 218.744C92.5036 218.996 92.4931 219.274 92.3811 219.518C92.2692 219.762 92.0649 219.951 91.8133 220.044C91.7023 220.089 91.5837 220.111 91.4642 220.11Z" fill="white" stroke="#263238" stroke-linecap="round" stroke-linejoin="round"/>
<path d="M69.4291 220.11C69.2232 220.11 69.0223 220.047 68.8532 219.929C68.6841 219.812 68.5549 219.645 68.4828 219.452C64.4348 208.543 63.4228 180.222 63.3571 179.023C63.3477 178.755 63.4453 178.494 63.6284 178.297C63.8116 178.101 64.0652 177.985 64.3336 177.976C64.602 177.966 64.8632 178.064 65.0596 178.247C65.256 178.43 65.3717 178.684 65.3811 178.952C65.3811 179.246 66.4335 208.143 70.3804 218.744C70.4736 218.996 70.463 219.274 70.3511 219.518C70.2391 219.762 70.0349 219.951 69.7833 220.044C69.6704 220.089 69.5502 220.111 69.4291 220.11Z" fill="white" stroke="#263238" stroke-linecap="round" stroke-linejoin="round"/>
<path d="M91.1916 178.532H30.8916V176.508H89.1777C89.7145 176.508 90.2293 176.722 90.6089 177.101C90.9885 177.481 91.2017 177.995 91.2017 178.532H91.1916Z" fill="#919191" stroke="#263238" stroke-linecap="round" stroke-linejoin="round"/>
<path d="M91.1866 178.042H30.8916V180.05H91.1866V178.042Z" fill="white" stroke="#263238" stroke-linecap="round" stroke-linejoin="round"/>
<path d="M56.5501 220.11C56.3978 220.113 56.2468 220.082 56.1082 220.019C55.9696 219.956 55.8471 219.862 55.7498 219.745C55.6526 219.627 55.583 219.49 55.5463 219.342C55.5097 219.194 55.5069 219.04 55.5381 218.891C61.261 191.779 56.0441 134.768 55.9733 134.196C55.961 134.063 55.975 133.929 56.0145 133.802C56.054 133.674 56.1182 133.556 56.2035 133.453C56.2888 133.351 56.3935 133.266 56.5115 133.204C56.6296 133.141 56.7588 133.103 56.8917 133.091C57.1601 133.066 57.4274 133.149 57.6347 133.321C57.842 133.493 57.9725 133.741 57.9973 134.009C58.053 134.586 63.3103 191.896 57.5267 219.306C57.4796 219.531 57.3572 219.733 57.1797 219.879C57.0022 220.026 56.7801 220.107 56.5501 220.11Z" fill="white" stroke="#263238" stroke-linecap="round" stroke-linejoin="round"/>
<path d="M25.1787 219.371C25.0844 219.372 24.9905 219.359 24.9004 219.331C24.6431 219.258 24.4253 219.086 24.2944 218.853C24.1636 218.619 24.1304 218.344 24.2021 218.086C37.3581 171.382 26.1907 133.776 26.0793 133.402C26.0156 133.15 26.0511 132.883 26.1785 132.657C26.306 132.431 26.5156 132.262 26.764 132.186C27.0124 132.11 27.2805 132.132 27.5129 132.248C27.7453 132.365 27.9241 132.566 28.0123 132.81C28.1286 133.19 39.4884 171.332 26.1502 218.633C26.0907 218.845 25.9637 219.032 25.7883 219.165C25.613 219.298 25.3989 219.371 25.1787 219.371Z" fill="white" stroke="#263238" stroke-linecap="round" stroke-linejoin="round"/>
<path d="M210.182 135.937C210.182 135.937 203.963 132.481 203.503 140.314C203.042 148.147 201.894 199.056 201.894 199.056" stroke="#263238" stroke-width="2" stroke-linecap="round" stroke-linejoin="round"/>
<path d="M200.274 141.002C200.274 141.002 205.334 152.291 203.042 198.367" stroke="#263238" stroke-width="2" stroke-linecap="round" stroke-linejoin="round"/>
<path d="M205.258 137.515C205.258 137.515 202.875 139.033 201.524 137.293C200.173 135.552 202.44 132.354 200.441 130.988C198.442 129.622 194.986 131.707 194.986 131.707C194.986 131.707 197.643 132.486 197.557 133.938C197.471 135.39 196.191 135.937 196.039 135.304C195.887 134.672 194.597 131.474 192.441 132.805C191.818 133.172 191.277 133.661 190.849 134.244C190.421 134.827 190.116 135.491 189.952 136.195C189.952 136.195 194.976 135.658 195.28 137.546C195.584 139.433 193.221 137.217 191.146 137.096C189.071 136.974 187.179 137.278 187.316 138.533C187.362 139.643 187.296 140.755 187.118 141.852C188.254 140.909 189.69 140.402 191.166 140.425C193.448 140.562 193.362 142.014 191.288 141.892C189.213 141.771 187.432 143.744 187.432 143.744C187.432 143.744 189.324 146.978 191.728 148.577C194.131 150.176 194.997 149.589 195.27 148.369C195.543 147.15 194.906 143.977 196.358 144.063C197.81 144.149 193.954 149.538 195.806 149.857C197.658 150.176 199.151 149.639 199.637 148.42L200.143 147.2C200.143 147.2 199.495 144.038 199.778 142.808C200.062 141.579 200.401 142.844 200.73 144.326C201.058 145.809 201.266 149.351 201.898 149.179C202.531 149.007 204.56 146.426 205.036 145.409C205.511 144.392 202.364 141.3 202.399 140.678C202.435 140.056 204.864 141.24 205.243 141.887C205.519 142.379 205.767 142.886 205.987 143.405C205.987 143.405 207.505 142.454 207.464 139.539C207.424 136.625 205.258 137.515 205.258 137.515Z" fill="#CBCBCB"/>
<path opacity="0.3" d="M205.258 137.515C205.258 137.515 202.875 139.033 201.524 137.293C200.173 135.552 202.44 132.354 200.441 130.988C198.442 129.622 194.986 131.707 194.986 131.707C194.986 131.707 197.643 132.486 197.557 133.938C197.471 135.39 196.191 135.937 196.039 135.304C195.887 134.672 194.597 131.474 192.441 132.805C191.818 133.172 191.277 133.661 190.849 134.244C190.421 134.827 190.116 135.491 189.952 136.195C189.952 136.195 194.976 135.658 195.28 137.546C195.584 139.433 193.221 137.217 191.146 137.096C189.071 136.974 187.179 137.278 187.316 138.533C187.362 139.643 187.296 140.755 187.118 141.852C188.254 140.909 189.69 140.402 191.166 140.425C193.448 140.562 193.362 142.014 191.288 141.892C189.213 141.771 187.432 143.744 187.432 143.744C187.432 143.744 189.324 146.978 191.728 148.577C194.131 150.176 194.997 149.589 195.27 148.369C195.543 147.15 194.906 143.977 196.358 144.063C197.81 144.149 193.954 149.538 195.806 149.857C197.658 150.176 199.151 149.639 199.637 148.42L200.143 147.2C200.143 147.2 199.495 144.038 199.778 142.808C200.062 141.579 200.401 142.844 200.73 144.326C201.058 145.809 201.266 149.351 201.898 149.179C202.531 149.007 204.56 146.426 205.036 145.409C205.511 144.392 202.364 141.3 202.399 140.678C202.435 140.056 204.864 141.24 205.243 141.887C205.519 142.379 205.767 142.886 205.987 143.405C205.987 143.405 207.505 142.454 207.464 139.539C207.424 136.625 205.258 137.515 205.258 137.515Z" fill="#263238"/>
<path d="M193.194 144.351C194.748 142.434 197.03 139.838 198.948 138.598" stroke="#263238" stroke-linecap="round" stroke-linejoin="round"/>
<path d="M191.399 146.684C191.399 146.684 191.794 146.133 192.442 145.303" stroke="#263238" stroke-linecap="round" stroke-linejoin="round"/>
<path d="M199.961 139.074C199.961 139.074 202.268 142.333 202.693 145.688" stroke="#263238" stroke-linecap="round" stroke-linejoin="round"/>
<path d="M197.341 141.002C197.341 141.002 197.989 140.622 197.746 144.771" stroke="#263238" stroke-linecap="round" stroke-linejoin="round"/>
<path d="M199.035 137.126C199.035 137.126 200.356 135.957 199.658 133.625" stroke="#263238" stroke-linecap="round" stroke-linejoin="round"/>
<path d="M197.254 139.125L196.312 137.404" stroke="#263238" stroke-linecap="round" stroke-linejoin="round"/>
<path d="M195.275 140.88C195.275 140.88 192.29 138.624 190.423 138.512" stroke="#263238" stroke-linecap="round" stroke-linejoin="round"/>
<path d="M213.739 131.368C213.739 131.368 213.643 134.788 210.971 134.955C208.299 135.122 206.65 130.669 203.918 131.742C201.185 132.815 200.922 137.693 200.922 137.693C200.922 137.693 203.513 135.562 204.909 136.635C206.306 137.708 205.982 139.368 205.228 139.104C204.474 138.841 200.416 137.936 200.274 141.002C200.218 141.876 200.339 142.753 200.63 143.579C200.921 144.405 201.377 145.164 201.969 145.809C201.969 145.809 204.859 140.41 206.964 141.392C209.069 142.373 205.228 143.233 203.69 145.227C202.152 147.221 201.16 149.321 202.521 150.044C203.664 150.752 204.732 151.574 205.709 152.498C205.709 152.498 205.344 149.675 207.034 147.484C208.725 145.293 210.116 146.366 208.583 148.359C207.05 150.353 207.809 153.485 207.809 153.485C207.809 153.485 212.332 153.794 215.571 152.473C218.809 151.152 218.829 149.897 217.787 148.779C216.745 147.661 213.142 146.153 214.215 144.731C215.287 143.309 218.06 150.869 219.644 149.229C221.228 147.59 221.703 145.733 220.813 144.412L219.922 143.097C219.922 143.097 216.32 141.579 215.277 140.466C214.235 139.352 215.738 139.868 217.443 140.547C219.148 141.225 222.837 143.436 223.1 142.682C223.363 141.928 222.154 138.128 221.466 136.974C220.777 135.82 215.525 136.848 214.928 136.387C214.331 135.927 217.17 134.302 218.075 134.363C218.755 134.42 219.43 134.512 220.099 134.641C220.099 134.641 220.18 132.476 217.235 130.528C214.291 128.58 213.739 131.368 213.739 131.368Z" fill="#CBCBCB"/>
<path opacity="0.2" d="M213.739 131.368C213.739 131.368 213.643 134.788 210.971 134.955C208.299 135.122 206.65 130.669 203.918 131.742C201.185 132.815 200.922 137.693 200.922 137.693C200.922 137.693 203.513 135.562 204.909 136.635C206.306 137.708 205.982 139.368 205.228 139.104C204.474 138.841 200.416 137.936 200.274 141.002C200.218 141.876 200.339 142.753 200.63 143.579C200.921 144.405 201.377 145.164 201.969 145.809C201.969 145.809 204.859 140.41 206.964 141.392C209.069 142.373 205.228 143.233 203.69 145.227C202.152 147.221 201.16 149.321 202.521 150.044C203.664 150.752 204.732 151.574 205.709 152.498C205.709 152.498 205.344 149.675 207.034 147.484C208.725 145.293 210.116 146.366 208.583 148.359C207.05 150.353 207.809 153.485 207.809 153.485C207.809 153.485 212.332 153.794 215.571 152.473C218.809 151.152 218.829 149.897 217.787 148.779C216.745 147.661 213.142 146.153 214.215 144.731C215.287 143.309 218.06 150.869 219.644 149.229C221.228 147.59 221.703 145.733 220.813 144.412L219.922 143.097C219.922 143.097 216.32 141.579 215.277 140.466C214.235 139.352 215.738 139.868 217.443 140.547C219.148 141.225 222.837 143.436 223.1 142.682C223.363 141.928 222.154 138.128 221.466 136.974C220.777 135.82 215.525 136.848 214.928 136.387C214.331 135.927 217.17 134.302 218.075 134.363C218.755 134.42 219.43 134.512 220.099 134.641C220.099 134.641 220.18 132.476 217.235 130.528C214.291 128.58 213.739 131.368 213.739 131.368Z" fill="#263238"/>
<path d="M212.363 148.101C211.508 145.222 210.455 141.174 210.526 138.421" stroke="#263238" stroke-linecap="round" stroke-linejoin="round"/>
<path d="M213.471 151.496C213.471 151.496 213.187 150.717 212.798 149.508" stroke="#263238" stroke-linecap="round" stroke-linejoin="round"/>
<path d="M211.689 137.733C211.689 137.733 216.522 137.642 220.17 139.504" stroke="#263238" stroke-linecap="round" stroke-linejoin="round"/>
<path d="M211.841 141.68C211.841 141.68 211.902 140.775 215.889 143.846" stroke="#263238" stroke-linecap="round" stroke-linejoin="round"/>
<path d="M209.129 137.344C209.129 137.344 208.856 135.228 206.048 134.338" stroke="#263238" stroke-linecap="round" stroke-linejoin="round"/>
<path d="M209.893 140.476L207.53 140.243" stroke="#263238" stroke-linecap="round" stroke-linejoin="round"/>
<path d="M210.303 143.653C210.303 143.653 206.007 145.106 204.626 146.902" stroke="#263238" stroke-linecap="round" stroke-linejoin="round"/>
<path d="M185.074 154.138C185.074 154.138 198.665 163.119 198.438 197.907" stroke="#263238" stroke-width="2" stroke-linecap="round" stroke-linejoin="round"/>
<path d="M201.832 151.765C201.832 151.765 201.397 155.701 198.29 155.64C195.184 155.58 193.736 150.287 190.457 151.269C187.179 152.25 186.435 157.847 186.435 157.847C186.435 157.847 189.633 155.63 191.141 157.007C192.648 158.383 192.117 160.26 191.272 159.886C190.427 159.511 185.828 158.079 185.377 161.606C185.231 162.61 185.29 163.633 185.551 164.613C185.812 165.594 186.269 166.511 186.895 167.309C186.895 167.309 190.741 161.353 193.074 162.689C195.406 164.025 190.898 164.647 188.934 166.803C186.971 168.958 185.64 171.286 187.128 172.247C188.382 173.173 189.539 174.224 190.579 175.385C190.579 175.385 190.422 172.096 192.578 169.722C194.733 167.349 196.246 168.71 194.283 170.881C192.32 173.052 192.907 176.72 192.907 176.72C192.907 176.72 198.103 177.505 201.964 176.29C205.825 175.076 205.961 173.629 204.863 172.242C203.765 170.856 199.753 168.771 201.124 167.263C202.495 165.755 204.98 174.712 206.963 172.966C208.947 171.22 209.665 169.13 208.765 167.521L207.864 165.912C207.864 165.912 203.851 163.833 202.753 162.441C201.655 161.05 203.34 161.798 205.243 162.74C207.145 163.681 211.198 166.58 211.568 165.74C211.937 164.9 210.905 160.407 210.222 158.995C209.539 157.584 203.381 158.287 202.733 157.7C202.085 157.113 205.521 155.509 206.558 155.676C207.331 155.805 208.096 155.973 208.851 156.182C208.851 156.182 209.144 153.692 205.931 151.162C202.718 148.632 201.832 151.765 201.832 151.765Z" fill="#CBCBCB"/>
<path opacity="0.3" d="M201.832 151.765C201.832 151.765 201.397 155.701 198.29 155.64C195.184 155.58 193.736 150.287 190.457 151.269C187.179 152.25 186.435 157.847 186.435 157.847C186.435 157.847 189.633 155.63 191.141 157.007C192.648 158.383 192.117 160.26 191.272 159.886C190.427 159.511 185.828 158.079 185.377 161.606C185.231 162.61 185.29 163.633 185.551 164.613C185.812 165.594 186.269 166.511 186.895 167.309C186.895 167.309 190.741 161.353 193.074 162.689C195.406 164.025 190.898 164.647 188.934 166.803C186.971 168.958 185.64 171.286 187.128 172.247C188.382 173.173 189.539 174.224 190.579 175.385C190.579 175.385 190.422 172.096 192.578 169.722C194.733 167.349 196.246 168.71 194.283 170.881C192.32 173.052 192.907 176.72 192.907 176.72C192.907 176.72 198.103 177.505 201.964 176.29C205.825 175.076 205.961 173.629 204.863 172.242C203.765 170.856 199.753 168.771 201.124 167.263C202.495 165.755 204.98 174.712 206.963 172.966C208.947 171.22 209.665 169.13 208.765 167.521L207.864 165.912C207.864 165.912 203.851 163.833 202.753 162.441C201.655 161.05 203.34 161.798 205.243 162.74C207.145 163.681 211.198 166.58 211.568 165.74C211.937 164.9 210.905 160.407 210.222 158.995C209.539 157.584 203.381 158.287 202.733 157.7C202.085 157.113 205.521 155.509 206.558 155.676C207.331 155.805 208.096 155.973 208.851 156.182C208.851 156.182 209.144 153.692 205.931 151.162C202.718 148.632 201.832 151.765 201.832 151.765Z" fill="#263238"/>
<path d="M198.666 170.942C197.938 167.562 197.123 162.78 197.457 159.598" stroke="#263238" stroke-linecap="round" stroke-linejoin="round"/>
<path d="M199.627 174.964C199.627 174.964 199.374 174.038 199.035 172.606" stroke="#263238" stroke-linecap="round" stroke-linejoin="round"/>
<path d="M198.857 158.914C198.857 158.914 204.423 159.268 208.471 161.758" stroke="#263238" stroke-linecap="round" stroke-linejoin="round"/>
<path d="M198.67 163.438C198.67 163.438 198.827 162.4 203.138 166.322" stroke="#263238" stroke-linecap="round" stroke-linejoin="round"/>
<path d="M195.948 158.226C195.948 158.226 195.832 155.757 192.68 154.461" stroke="#263238" stroke-linecap="round" stroke-linejoin="round"/>
<path d="M196.535 161.91L193.833 161.419" stroke="#263238" stroke-linecap="round" stroke-linejoin="round"/>
<path d="M196.712 165.614C196.712 165.614 191.617 166.889 189.851 168.827" stroke="#263238" stroke-linecap="round" stroke-linejoin="round"/>
<path d="M190.372 181.548C190.372 181.548 199.126 188.227 200.047 198.134L198.205 164.956" stroke="#263238" stroke-width="2" stroke-linecap="round" stroke-linejoin="round"/>
<path d="M211.563 176.71C200.047 174.636 200.047 198.134 200.047 198.134" stroke="#263238" stroke-width="2" stroke-linecap="round" stroke-linejoin="round"/>
<path d="M201.428 197.907C201.428 197.907 194.749 149.3 214.078 149.3" stroke="#263238" stroke-width="2" stroke-linecap="round" stroke-linejoin="round"/>
<path d="M207.177 175.314C205.603 173.543 202.258 173.543 200.295 178.067C198.332 182.59 200.098 181.806 200.098 181.806C200.098 181.806 203.832 180.622 206.195 179.838C208.558 179.053 211.7 177.085 211.898 178.264C212.095 179.443 210.324 180.622 208.158 181.017C205.993 181.411 200.295 182.985 200.882 184.184C201.469 185.383 202.85 188.905 202.85 188.905C204.53 187.478 206.303 186.164 208.158 184.973C210.719 183.4 212.292 183.987 210.916 185.758C209.54 187.529 205.603 189.492 206.392 191.855C207.182 194.218 211.898 197.163 211.898 197.163C211.898 197.163 212.49 192.25 213.866 190.676C215.242 189.102 215.242 190.873 214.848 193.626C214.65 194.798 214.518 195.981 214.453 197.168L219.958 199.136C220.859 197.766 221.844 196.452 222.908 195.205L223.92 194.193C223.92 194.193 219.594 190.458 219.397 188.121C219.199 185.783 222.346 188.121 223.328 188.515C224.31 188.91 225.883 191.663 225.883 191.663C225.883 191.663 226.87 187.139 227.067 185.565L227.265 183.992C227.265 183.992 223.131 182.418 221.557 182.418C219.983 182.418 219.199 183.597 219.199 182.029C219.199 180.46 220.773 179.468 222.544 179.666C224.146 179.933 225.725 180.328 227.265 180.844C227.265 180.844 228.444 179.863 228.049 176.913C227.654 173.963 226.673 173.963 224.315 174.747C221.957 175.531 220.378 177.308 218.607 177.308C216.836 177.308 217.823 175.142 219.002 174.555C220.181 173.968 223.131 172.784 223.723 172.587C224.315 172.389 220.576 169.637 218.607 169.242C216.639 168.847 214.094 170.254 214.281 172.192C214.65 176.296 208.75 177.1 207.177 175.314Z" fill="#CBCBCB"/>
<path d="M219.836 195.564C219.897 196.154 219.937 196.746 219.957 197.34" stroke="#263238" stroke-linecap="round" stroke-linejoin="round"/>
<path d="M215.885 181.446C217.618 185.34 218.867 189.432 219.604 193.631" stroke="#263238" stroke-linecap="round" stroke-linejoin="round"/>
<path d="M215.176 179.868C214.204 177.773 213.471 176.493 213.471 176.493C214.544 175.987 215.436 175.164 216.026 174.135C216.486 173.203 217.161 172.393 217.994 171.772" stroke="#263238" stroke-linecap="round" stroke-linejoin="round"/>
<path d="M206.589 183.172C206.589 183.172 213.673 180.222 213.673 180.809" stroke="#263238" stroke-linecap="round" stroke-linejoin="round"/>
<path d="M217.579 179.443C217.579 179.443 220.726 177.869 223.479 177.869" stroke="#263238" stroke-linecap="round" stroke-linejoin="round"/>
<path d="M216.421 184.184C215.056 185.306 213.803 186.558 212.681 187.923C211.534 189.277 210.605 190.802 209.929 192.442" stroke="#263238" stroke-linecap="round" stroke-linejoin="round"/>
<path d="M218.591 184.953C218.591 184.953 222.725 183.769 224.885 185.737" stroke="#263238" stroke-linecap="round" stroke-linejoin="round"/>
<path d="M226.064 158.378C223.924 157.113 221.556 157.083 220.392 155.747C219.228 154.411 221.51 153.723 222.73 154.229C223.949 154.735 226.778 156.187 227.309 156.501C227.84 156.814 227.476 152.195 226.484 150.429C225.492 148.663 222.775 147.671 221.424 149.098C218.565 152.098 214.102 148.162 214.406 145.814C214.71 143.466 212.519 140.941 207.828 142.419C203.137 143.896 204.878 144.721 204.878 144.721C204.878 144.721 208.218 146.77 210.363 148.035C212.508 149.3 216.05 150.388 215.286 151.309C214.522 152.23 212.473 151.668 210.758 150.297C209.042 148.926 204.119 145.647 203.613 146.866C203.107 148.086 201.336 151.446 201.336 151.446C203.516 151.78 205.671 152.258 207.788 152.878C210.651 153.778 211.238 155.352 209.002 155.473C206.765 155.595 202.697 153.915 201.412 156.055C200.127 158.196 201.012 163.691 201.012 163.691C201.012 163.691 205.111 160.918 207.201 160.923C209.29 160.928 207.954 162.092 205.617 163.6C204.603 164.219 203.625 164.895 202.687 165.624L204.812 171.073C206.438 170.853 208.075 170.735 209.715 170.719L211.102 170.82C211.102 170.82 211.102 165.103 212.741 163.408C214.381 161.712 214.674 165.634 215.023 166.636C215.372 167.638 214.325 170.628 214.325 170.628C214.325 170.628 218.373 168.407 219.699 167.521L221.019 166.641C221.019 166.641 219.501 162.487 218.464 161.303C217.427 160.119 216.03 160.291 217.214 159.279C218.398 158.267 220.179 158.773 221.191 160.26C222.04 161.645 222.776 163.095 223.393 164.597C223.393 164.597 224.911 164.845 226.879 162.613C228.847 160.382 228.205 159.643 226.064 158.378ZM207.459 164.673C205.885 163.883 209.619 162.309 209.619 162.309C211.001 162.117 209.027 165.462 207.459 164.673ZM210.105 157.33C209.437 156.996 211.446 156.318 211.446 156.318C214.35 156.86 210.773 157.664 210.1 157.33H210.105Z" fill="#CBCBCB"/>
<path d="M207.409 168.68C207.005 169.11 206.58 169.53 206.149 169.935" stroke="#263238" stroke-linecap="round" stroke-linejoin="round"/>
<path d="M215.48 156.44C213.673 160.299 211.397 163.92 208.705 167.223" stroke="#263238" stroke-linecap="round" stroke-linejoin="round"/>
<path d="M216.209 154.871C217.155 152.761 217.636 151.37 217.636 151.37C218.724 151.847 219.931 151.981 221.097 151.754C222.101 151.489 223.154 151.466 224.168 151.688" stroke="#263238" stroke-linecap="round" stroke-linejoin="round"/>
<path d="M214.497 154.355C214.943 153.966 208.076 150.555 208.076 150.555" stroke="#263238" stroke-linecap="round" stroke-linejoin="round"/>
<path d="M218.115 156.42C218.115 156.42 221.369 157.766 223.175 159.846" stroke="#263238" stroke-linecap="round" stroke-linejoin="round"/>
<path d="M213.78 158.626C212.038 158.331 210.273 158.205 208.507 158.252C206.731 158.274 204.969 158.573 203.285 159.137" stroke="#263238" stroke-linecap="round" stroke-linejoin="round"/>
<path d="M214.604 160.776C214.604 160.776 218.202 163.119 218.147 166.044" stroke="#263238" stroke-linecap="round" stroke-linejoin="round"/>
<path d="M195.502 185.626C193.782 184.614 191.874 184.589 190.948 183.511C190.022 182.433 191.844 181.892 192.825 182.297C193.807 182.701 196.084 183.875 196.514 184.128C196.944 184.381 196.646 180.657 195.846 179.256C195.047 177.854 192.861 177.039 191.773 178.183C189.471 180.601 185.878 177.429 186.126 175.541C186.374 173.654 184.608 171.62 180.818 172.809C177.028 173.998 178.445 174.661 178.445 174.661C178.445 174.661 181.132 176.311 182.857 177.328C184.583 178.345 187.436 179.225 186.819 179.964C186.202 180.703 184.557 180.257 183.176 179.149C181.795 178.041 177.833 175.405 177.428 176.386C177.023 177.368 175.596 180.07 175.596 180.07C177.35 180.341 179.084 180.726 180.788 181.224C183.09 181.947 183.56 183.212 181.759 183.309C179.958 183.405 176.699 182.054 175.687 183.779C174.675 185.505 175.363 189.927 175.363 189.927C175.363 189.927 178.662 187.691 180.342 187.696C182.022 187.701 180.95 188.637 179.072 189.851C178.256 190.349 177.469 190.893 176.714 191.481L178.42 195.862C179.728 195.687 181.046 195.594 182.366 195.584L183.485 195.66C183.485 195.66 183.485 191.061 184.805 189.694C186.126 188.328 186.359 191.486 186.637 192.295C186.915 193.105 186.075 195.508 186.075 195.508C186.075 195.508 189.344 193.717 190.402 193.009L191.464 192.295C191.464 192.295 190.24 188.956 189.41 187.999C188.58 187.043 187.447 187.19 188.398 186.36C189.349 185.53 190.781 185.965 191.596 187.144C192.279 188.259 192.873 189.427 193.372 190.635C193.372 190.635 194.591 190.833 196.175 189.042C197.759 187.25 197.228 186.648 195.502 185.626ZM180.524 190.686C179.259 190.054 182.265 188.789 182.265 188.789C183.373 188.637 181.789 191.329 180.524 190.691V190.686ZM182.665 184.786C182.123 184.513 183.743 183.977 183.743 183.977C186.075 184.427 183.196 185.054 182.665 184.786Z" fill="#CBCBCB"/>
<path d="M180.494 193.919C180.166 194.264 179.826 194.603 179.482 194.931" stroke="#263238" stroke-linecap="round" stroke-linejoin="round"/>
<path d="M186.986 184.067C185.532 187.173 183.702 190.087 181.536 192.745" stroke="#263238" stroke-linecap="round" stroke-linejoin="round"/>
<path d="M187.573 182.803C188.332 181.108 188.722 179.989 188.722 179.989C189.597 180.372 190.567 180.48 191.505 180.298C192.312 180.084 193.159 180.067 193.974 180.247" stroke="#263238" stroke-linecap="round" stroke-linejoin="round"/>
<path d="M181.025 179.332C181.025 179.332 186.556 182.079 186.197 182.368" stroke="#263238" stroke-linecap="round" stroke-linejoin="round"/>
<path d="M189.107 184.052C189.107 184.052 191.723 185.135 193.155 186.81" stroke="#263238" stroke-linecap="round" stroke-linejoin="round"/>
<path d="M185.615 185.829C184.215 185.591 182.794 185.491 181.375 185.53C179.946 185.544 178.528 185.785 177.175 186.244" stroke="#263238" stroke-linecap="round" stroke-linejoin="round"/>
<path d="M186.283 187.559C186.283 187.559 189.178 189.446 189.122 191.794" stroke="#263238" stroke-linecap="round" stroke-linejoin="round"/>
<path d="M188.479 153.151C188.479 153.151 186.314 154.725 184.937 153.151C183.561 151.577 185.53 148.43 183.561 147.251C181.593 146.072 178.451 148.233 178.451 148.233C178.451 148.233 181.006 148.825 181.006 150.201C181.006 151.577 179.827 152.169 179.63 151.577C179.432 150.985 178.056 148.035 176.088 149.417C175.52 149.798 175.037 150.291 174.665 150.865C174.294 151.439 174.043 152.082 173.927 152.756C173.927 152.756 178.643 151.972 179.038 153.743C179.432 155.514 177.074 153.546 175.106 153.546C173.138 153.546 171.367 153.94 171.564 155.119C171.671 156.166 171.671 157.22 171.564 158.267C172.583 157.313 173.909 156.755 175.303 156.693C177.464 156.693 177.464 158.069 175.501 158.069C173.537 158.069 171.959 160.038 171.959 160.038C171.959 160.038 173.927 162.987 176.285 164.364C178.643 165.74 179.432 165.148 179.63 163.969C179.827 162.79 179.038 159.84 180.414 159.84C181.79 159.84 178.451 165.148 180.217 165.345C181.982 165.543 183.364 164.951 183.759 163.772L184.153 162.593C184.153 162.593 183.364 159.643 183.561 158.464C183.759 157.285 184.153 158.464 184.543 159.84C184.932 161.217 185.332 164.556 185.924 164.364C186.516 164.172 188.282 161.606 188.677 160.624C189.072 159.643 185.924 156.89 185.924 156.298C185.924 155.706 188.282 156.693 188.677 157.28C189.072 157.867 189.461 158.656 189.461 158.656C189.461 158.656 190.837 157.675 190.64 154.922C190.443 152.169 188.479 153.151 188.479 153.151Z" fill="#CBCBCB"/>
<path d="M177.46 160.286C178.821 158.388 180.84 155.808 182.581 154.527" stroke="#263238" stroke-linecap="round" stroke-linejoin="round"/>
<path d="M175.891 162.593C175.891 162.593 176.24 162.046 176.801 161.227" stroke="#263238" stroke-linecap="round" stroke-linejoin="round"/>
<path d="M183.562 154.922C183.562 154.922 185.925 157.872 186.512 161.019" stroke="#263238" stroke-linecap="round" stroke-linejoin="round"/>
<path d="M181.203 156.89C181.203 156.89 181.79 156.496 181.79 160.432" stroke="#263238" stroke-linecap="round" stroke-linejoin="round"/>
<path d="M182.579 153.151C182.579 153.151 183.758 151.972 182.974 149.806" stroke="#263238" stroke-linecap="round" stroke-linejoin="round"/>
<path d="M181.005 155.12L180.023 153.546" stroke="#263238" stroke-linecap="round" stroke-linejoin="round"/>
<path d="M179.235 156.89C179.235 156.89 176.285 154.922 174.514 154.922" stroke="#263238" stroke-linecap="round" stroke-linejoin="round"/>
<path d="M208.34 197.213H193.135V219.098H208.34V197.213Z" fill="#263238" stroke="#263238" stroke-width="2" stroke-linecap="round" stroke-linejoin="round"/>
</svg>
