<svg width="291" height="291" viewBox="0 0 291 291" fill="none" xmlns="http://www.w3.org/2000/svg">
<path d="M233.79 252.739C243.101 246.169 250.727 237.49 256.045 227.411C289.312 165.084 281.799 73.1806 217.732 33.7617C188.12 15.5451 145.5 4.01572 113.49 22.727C87.5329 37.8998 71.6211 66.4701 58.4562 92.4622C50.186 108.834 43.3708 126.404 33.1741 141.699C19.9511 161.534 5.39528 188.027 20.0908 211.074C40.1174 242.467 77.9416 256.802 112.239 266.242C149.452 276.479 191.298 277.934 225.671 257.96C228.453 256.342 231.159 254.602 233.79 252.739Z" fill="#C8C8C8"/>
<path opacity="0.7" d="M233.79 252.739C243.101 246.169 250.727 237.49 256.045 227.411C289.312 165.084 281.799 73.1806 217.732 33.7617C188.12 15.5451 145.5 4.01572 113.49 22.727C87.5329 37.8998 71.6211 66.4701 58.4562 92.4622C50.186 108.834 43.3708 126.404 33.1741 141.699C19.9511 161.534 5.39528 188.027 20.0908 211.074C40.1174 242.467 77.9416 256.802 112.239 266.242C149.452 276.479 191.298 277.934 225.671 257.96C228.453 256.342 231.159 254.602 233.79 252.739Z" fill="white"/>
<g opacity="0.3">
<path opacity="0.3" d="M263.064 46.8335H203.118V125.561H263.064V46.8335Z" stroke="black" stroke-miterlimit="10"/>
<path opacity="0.3" d="M252.064 61.2788H214.117V111.115H252.064V61.2788Z" stroke="black" stroke-miterlimit="10"/>
</g>
<path d="M189.074 38.0103H30.3623V179.285H189.074V38.0103Z" fill="#263238" stroke="#263238" stroke-miterlimit="10"/>
<path d="M186.065 34.5708H27.3535V175.845H186.065V34.5708Z" fill="white" stroke="#263238" stroke-linecap="round" stroke-linejoin="round"/>
<path d="M155.161 91.5837H163.053V83.6918H155.161V91.5837Z" fill="white" stroke="#263238" stroke-linecap="round" stroke-linejoin="round"/>
<path d="M165.491 91.5837H173.383V83.6918H165.491V91.5837Z" fill="white" stroke="#263238" stroke-linecap="round" stroke-linejoin="round"/>
<path d="M152.006 88.115H111.912" stroke="#263238" stroke-linecap="round" stroke-linejoin="round"/>
<path d="M155.161 110.213H163.053V102.321H155.161V110.213Z" fill="white" stroke="#263238" stroke-linecap="round" stroke-linejoin="round"/>
<path d="M165.491 110.213H173.383V102.321H165.491V110.213Z" fill="white" stroke="#263238" stroke-linecap="round" stroke-linejoin="round"/>
<path d="M152.006 106.739H111.912" stroke="#263238" stroke-linecap="round" stroke-linejoin="round"/>
<path d="M155.161 128.843H163.053V120.951H155.161V128.843Z" fill="white" stroke="#263238" stroke-linecap="round" stroke-linejoin="round"/>
<path d="M165.491 128.843H173.383V120.951H165.491V128.843Z" fill="white" stroke="#263238" stroke-linecap="round" stroke-linejoin="round"/>
<path d="M152.006 125.369H111.912" stroke="#263238" stroke-linecap="round" stroke-linejoin="round"/>
<path d="M79.7106 91.5837H87.6025V83.6918H79.7106V91.5837Z" fill="white" stroke="#263238" stroke-linecap="round" stroke-linejoin="round"/>
<path d="M90.0466 91.5837H97.9385V83.6918H90.0466V91.5837Z" fill="white" stroke="#263238" stroke-linecap="round" stroke-linejoin="round"/>
<path d="M76.5559 88.1147H36.4619" stroke="#263238" stroke-linecap="round" stroke-linejoin="round"/>
<path d="M79.7106 110.213H87.6025V102.321H79.7106V110.213Z" fill="white" stroke="#263238" stroke-linecap="round" stroke-linejoin="round"/>
<path d="M90.0466 110.213H97.9385V102.321H90.0466V110.213Z" fill="white" stroke="#263238" stroke-linecap="round" stroke-linejoin="round"/>
<path d="M76.5559 106.739H36.4619" stroke="#263238" stroke-linecap="round" stroke-linejoin="round"/>
<path d="M79.7106 128.843H87.6025V120.951H79.7106V128.843Z" fill="white" stroke="#263238" stroke-linecap="round" stroke-linejoin="round"/>
<path d="M90.0466 128.843H97.9385V120.951H90.0466V128.843Z" fill="white" stroke="#263238" stroke-linecap="round" stroke-linejoin="round"/>
<path d="M76.5559 125.369H36.4619" stroke="#263238" stroke-linecap="round" stroke-linejoin="round"/>
<path d="M47.6482 155.976H38.9531V164.671H47.6482V155.976Z" fill="white" stroke="#263238" stroke-linecap="round" stroke-linejoin="round"/>
<path d="M83.1316 155.976H74.4365V164.671H83.1316V155.976Z" fill="white" stroke="#263238" stroke-linecap="round" stroke-linejoin="round"/>
<path d="M120.026 155.976H111.331V164.671H120.026V155.976Z" fill="white" stroke="#263238" stroke-linecap="round" stroke-linejoin="round"/>
<path d="M92.6357 86.3339L93.9802 89.0344L100.493 82.7429" stroke="#263238" stroke-width="2" stroke-linecap="round" stroke-linejoin="round"/>
<path d="M92.6357 104.754L93.9802 107.449L100.493 101.157" stroke="#263238" stroke-width="2" stroke-linecap="round" stroke-linejoin="round"/>
<path d="M81.4043 124.071L82.7545 126.766L89.2671 120.474" stroke="#263238" stroke-width="2" stroke-linecap="round" stroke-linejoin="round"/>
<path d="M167.65 86.1129L168.995 88.8075L175.507 82.5161" stroke="#263238" stroke-width="2" stroke-linecap="round" stroke-linejoin="round"/>
<path d="M156.779 104.975L158.124 107.67L164.636 101.384" stroke="#263238" stroke-width="2" stroke-linecap="round" stroke-linejoin="round"/>
<path d="M156.779 123.902L158.124 126.597L164.636 120.311" stroke="#263238" stroke-width="2" stroke-linecap="round" stroke-linejoin="round"/>
<path d="M186.065 34.5708H27.3535V56.6402H186.065V34.5708Z" fill="white" stroke="#263238" stroke-linecap="round" stroke-linejoin="round"/>
<path d="M186.065 34.5708H180.088V175.845H186.065V34.5708Z" fill="#DBDBDB" stroke="#263238" stroke-linecap="round" stroke-linejoin="round"/>
<path d="M186.065 55.8022H180.088V83.069H186.065V55.8022Z" fill="#949494" stroke="#263238" stroke-linecap="round" stroke-linejoin="round"/>
<path d="M186.065 34.5708H27.3535V45.3029H186.065V34.5708Z" fill="#DBDBDB" stroke="#263238" stroke-linecap="round" stroke-linejoin="round"/>
<path d="M97.9896 37.696H35.4014V42.1658H97.9896V37.696Z" fill="white" stroke="#263238" stroke-linecap="round" stroke-linejoin="round"/>
<path d="M176.695 37.9055H182.189" stroke="#263238" stroke-linecap="round" stroke-linejoin="round"/>
<path d="M176.695 40.2278H182.189" stroke="#263238" stroke-linecap="round" stroke-linejoin="round"/>
<path d="M176.695 42.5559H182.189" stroke="#263238" stroke-linecap="round" stroke-linejoin="round"/>
<path d="M82.7949 65.5681C82.7949 64.1888 83.5224 63.4031 84.8494 63.4031C86.1763 63.4031 86.898 64.1888 86.898 65.5681V70.0379C86.898 71.4114 86.1763 72.1971 84.8494 72.1971C83.5224 72.1971 82.7949 71.4114 82.7949 70.0379V65.5681ZM84.151 70.1252C84.151 70.7363 84.4187 70.9691 84.8494 70.9691C85.2801 70.9691 85.5478 70.7363 85.5478 70.1252V65.4692C85.5478 64.8523 85.2801 64.6195 84.8494 64.6195C84.4187 64.6195 84.151 64.8523 84.151 65.4692V70.1252Z" fill="#263238"/>
<path d="M88.9761 65.8768V72.0983H87.7598V63.5022H89.4534L90.8444 68.6471V63.5022H92.0491V72.0983H90.6581L88.9761 65.8768Z" fill="#263238"/>
<path d="M93.0146 63.5022H94.3707V70.8703H96.6114V72.0983H93.0321L93.0146 63.5022Z" fill="#263238"/>
<path d="M97.1943 63.5022H98.5446V72.0983H97.1943V63.5022Z" fill="#263238"/>
<path d="M100.721 65.8768V72.0983H99.5225V63.5022H101.216L102.607 68.6471V63.5022H103.806V72.0983H102.432L100.721 65.8768Z" fill="#263238"/>
<path d="M106.11 67.1281H107.967V68.3561H106.11V70.8703H108.438V72.0983H104.76V63.5022H108.444V64.7302H106.116L106.11 67.1281Z" fill="#263238"/>
<path d="M110.794 63.5022H114.967V64.7302H113.553V72.0983H112.202V64.7302H110.794V63.5022Z" fill="#263238"/>
<path d="M116.912 67.1281H118.762V68.3561H116.912V70.8703H119.24V72.0983H115.556V63.5022H119.24V64.7302H116.912V67.1281Z" fill="#263238"/>
<path d="M121.895 63.4031C123.21 63.4031 123.885 64.1888 123.885 65.5681V65.8358H122.611V65.4808C122.611 64.8639 122.366 64.6311 121.935 64.6311C121.505 64.6311 121.26 64.8639 121.26 65.4808C121.26 67.2268 123.897 67.5818 123.897 70.0379C123.897 71.4114 123.21 72.1971 121.883 72.1971C120.556 72.1971 119.893 71.4114 119.893 70.0379V69.5083H121.173V70.1252C121.173 70.7363 121.441 70.9574 121.871 70.9574C122.302 70.9574 122.57 70.7363 122.57 70.1252C122.57 68.3792 119.933 68.0242 119.933 65.5681C119.893 64.1888 120.585 63.4031 121.895 63.4031Z" fill="#263238"/>
<path d="M124.28 63.502H128.453V64.73H127.045V72.0981H125.712V64.73H124.298L124.28 63.502Z" fill="#263238"/>
<path d="M45.7219 153.881H44.3542L44.1214 152.321H42.486L42.2532 153.881H40.9902L42.3638 145.285H44.3426L45.7219 153.881ZM42.6373 151.151H43.941L43.2891 146.804L42.6373 151.151Z" fill="#263238"/>
<path d="M80.6348 147.246V147.549C80.6348 148.433 80.3671 148.998 79.7618 149.295C80.4893 149.574 80.7686 150.226 80.7686 151.134V151.838C80.7686 153.165 80.0702 153.875 78.72 153.875H76.5957V145.285H78.6327C80.0353 145.285 80.6348 145.937 80.6348 147.246ZM77.9459 146.495V148.765H78.4756C78.9761 148.765 79.2845 148.544 79.2845 147.857V147.38C79.2845 146.763 79.075 146.495 78.5978 146.495H77.9459ZM77.9459 149.987V152.629H78.72C79.174 152.629 79.4184 152.42 79.4184 151.78V151.035C79.4184 150.232 79.1623 149.987 78.5512 149.987H77.9459Z" fill="#263238"/>
<path d="M117.878 150.674V151.838C117.878 153.217 117.191 154.003 115.864 154.003C114.537 154.003 113.851 153.217 113.851 151.838V147.368C113.851 145.995 114.537 145.209 115.864 145.209C117.191 145.209 117.878 145.995 117.878 147.368V148.206H116.603V147.246C116.603 146.629 116.33 146.396 115.899 146.396C115.469 146.396 115.201 146.629 115.201 147.246V151.902C115.201 152.519 115.474 152.74 115.899 152.74C116.324 152.74 116.603 152.519 116.603 151.902V150.674H117.878Z" fill="#263238"/>
<path d="M37.0723 140.704H140.232" stroke="#263238" stroke-linecap="round" stroke-linejoin="round"/>
<path opacity="0.3" d="M206.512 35.2634H217.901V23.8737H206.512V35.2634Z" stroke="black" stroke-linecap="round" stroke-linejoin="round"/>
<path opacity="0.3" d="M221.428 35.2634H232.817V23.8737H221.428V35.2634Z" stroke="black" stroke-linecap="round" stroke-linejoin="round"/>
<path opacity="0.3" d="M208.962 28.378L210.906 32.2658L216.621 25.9744" stroke="black" stroke-width="2" stroke-linecap="round" stroke-linejoin="round"/>
<path opacity="0.3" d="M34.0937 202.367H45.4834V190.977H34.0937V202.367Z" stroke="black" stroke-linecap="round" stroke-linejoin="round"/>
<path opacity="0.3" d="M49.0038 202.367H60.3936V190.977H49.0038V202.367Z" stroke="black" stroke-linecap="round" stroke-linejoin="round"/>
<path opacity="0.3" d="M36.5322 195.482L38.4761 199.37L44.1913 193.078" stroke="black" stroke-width="2" stroke-linecap="round" stroke-linejoin="round"/>
<path opacity="0.3" d="M88.0507 202.367H99.4404V190.977H88.0507V202.367Z" stroke="black" stroke-linecap="round" stroke-linejoin="round"/>
<path opacity="0.3" d="M102.968 202.367H114.357V190.977H102.968V202.367Z" stroke="black" stroke-linecap="round" stroke-linejoin="round"/>
<path opacity="0.3" d="M90.4951 195.482L92.439 199.37L98.1542 193.078" stroke="black" stroke-width="2" stroke-linecap="round" stroke-linejoin="round"/>
<g opacity="0.3">
<path opacity="0.3" d="M105.715 29.5703C109.7 28.9263 112.409 25.1733 111.765 21.1879C111.121 17.2024 107.368 14.4937 103.382 15.1378C99.3969 15.7818 96.6881 19.5348 97.3322 23.5202C97.9763 27.5057 101.729 30.2144 105.715 29.5703Z" stroke="black" stroke-linecap="round" stroke-linejoin="round"/>
<path opacity="0.3" d="M106.593 24.9967L104.55 22.3544V18.1931" stroke="black" stroke-linecap="round" stroke-linejoin="round"/>
</g>
<g opacity="0.3">
<path opacity="0.3" d="M240.994 162.564H239.912L239.725 161.33H238.41L238.224 162.564H237.24L238.334 155.749H239.9L240.994 162.564ZM238.55 160.405H239.58L239.062 156.954L238.55 160.405Z" fill="black"/>
<path opacity="0.3" d="M256.237 157.314V157.559C256.278 157.831 256.234 158.109 256.111 158.354C255.989 158.6 255.793 158.802 255.55 158.932C255.824 159.057 256.049 159.266 256.193 159.53C256.337 159.793 256.391 160.096 256.348 160.393V160.975C256.375 161.195 256.351 161.418 256.278 161.627C256.205 161.836 256.086 162.025 255.928 162.181C255.771 162.337 255.58 162.454 255.37 162.525C255.161 162.595 254.937 162.616 254.718 162.587H253.036V155.749H254.654C255.76 155.749 256.237 156.261 256.237 157.314ZM254.107 156.732V158.537H254.526C254.922 158.537 255.166 158.362 255.166 157.815V157.437C255.166 156.948 255.003 156.732 254.619 156.732H254.107ZM254.107 159.509V161.604H254.718C255.079 161.604 255.3 161.441 255.3 160.934V160.352C255.3 159.724 255.091 159.526 254.608 159.526L254.107 159.509Z" fill="black"/>
<path opacity="0.3" d="M271.672 160.05V160.952C271.672 162.046 271.131 162.669 270.077 162.669C269.024 162.669 268.477 162.046 268.477 160.952V157.407C268.477 156.313 269.024 155.69 270.077 155.69C271.131 155.69 271.672 156.313 271.672 157.407V158.071H270.659V157.314C270.659 156.825 270.444 156.645 270.106 156.645C269.769 156.645 269.524 156.825 269.524 157.314V160.998C269.524 161.487 269.74 161.662 270.106 161.662C270.473 161.662 270.659 161.487 270.659 160.998V160.05H271.672Z" fill="black"/>
<path opacity="0.3" d="M243.125 166.283H234.843V174.565H243.125V166.283Z" stroke="black" stroke-miterlimit="10"/>
<path opacity="0.3" d="M258.531 166.283H250.249V174.565H258.531V166.283Z" stroke="black" stroke-miterlimit="10"/>
<path opacity="0.3" d="M273.936 166.283H265.654V174.565H273.936V166.283Z" stroke="black" stroke-miterlimit="10"/>
</g>
<path d="M46.816 262.226H29.292" stroke="#263238" stroke-miterlimit="10"/>
<path d="M275.478 262.226H52.5254" stroke="#263238" stroke-miterlimit="10"/>
<path d="M208.146 262.028L211.894 205.109L214.653 178.046L207.087 169.601L203.292 166.842C203.292 166.842 197.95 171.498 194.161 172.528C190.372 173.558 186.729 174.6 186.729 174.6C186.729 174.6 173.802 198.904 172.761 209.933C171.719 220.962 170.002 261.819 170.002 261.819L171.439 262.028H208.146Z" fill="#9E9E9E" stroke="#263238" stroke-miterlimit="10"/>
<path d="M190.379 215.102C190.379 215.102 189.733 214.77 191.025 211.441" stroke="#263238" stroke-miterlimit="10"/>
<path d="M188.86 174.018C189.503 178.617 189.859 183.25 189.925 187.893C189.925 187.893 193.807 186.339 196.909 180.909C198.623 177.995 200.098 174.947 201.321 171.795L188.86 174.018Z" fill="#263238" stroke="#263238" stroke-miterlimit="10"/>
<path d="M208.147 262.028L211.517 210.853C208.211 212.541 201.687 215.329 194.488 215.451C185.863 215.596 175.183 208.897 175.183 208.897L172.779 209.84C172.779 209.869 172.779 209.904 172.779 209.933C171.743 220.991 170.021 261.819 170.021 261.819L171.458 262.028H208.147Z" fill="white" stroke="#263238" stroke-miterlimit="10"/>
<path d="M202.536 233.382C202.536 246.565 202.99 259.247 203.118 262.017H228.522C228.872 257.908 231.06 232.335 232.183 223.168C233.411 213.152 241.466 198.241 241.466 192.904C241.466 187.567 243.102 188.411 235.745 184.529C228.389 180.647 212.162 172.267 209.916 171.242C207.669 170.218 205.213 167.75 205.213 167.75C205.213 167.75 206.028 172.86 205.795 186.753C205.563 200.645 202.536 218.477 202.536 233.382Z" fill="white"/>
<g opacity="0.2">
<path opacity="0.2" d="M205.213 167.802C205.516 170.22 205.691 172.653 205.737 175.089V168.297C205.411 168 205.213 167.802 205.213 167.802Z" fill="black"/>
<path opacity="0.2" d="M238.62 201.064V202.81C238.818 202.28 239.016 201.768 239.202 201.262V201.052H239.277C239.353 200.86 239.423 200.662 239.493 200.47H239.202V193.224H241.454C241.454 193.137 241.454 193.044 241.454 192.957C241.454 192.869 241.454 192.747 241.454 192.642H239.202V186.438C239.021 186.328 238.829 186.223 238.62 186.106V192.642H232.509V185.367H237.235L236.14 184.785H232.509V182.865L231.927 182.556V184.768H225.816V179.378L225.234 179.076V184.768H219.123V177.51H222.167L221.038 176.928H219.123V175.945L218.541 175.642V176.928H212.43V172.534C212.226 172.429 212.034 172.33 211.848 172.243V176.928H205.795C205.795 177.12 205.795 177.312 205.795 177.51H211.848V184.785H205.847C205.847 184.977 205.847 185.169 205.847 185.367H211.848V192.642H205.737V189.878C205.62 192.718 205.411 195.698 205.155 198.73V200.476H205.003L204.951 201.058H205.155V208.356H204.282L204.224 208.938H205.184V216.213H203.531L203.479 216.795H205.184V224.07H202.914L202.879 224.652H205.207V231.927H202.629C202.629 232.125 202.629 232.317 202.629 232.509H205.213V239.784H202.646C202.646 239.982 202.646 240.174 202.646 240.366H205.207V247.641H202.763C202.763 247.839 202.763 248.031 202.763 248.223H205.196V262.046H205.778V248.206H211.848V262.028H212.43V248.206H218.541V262.028H219.123V248.206H225.234V262.028H225.816V248.206H229.733C229.733 248.014 229.733 247.822 229.785 247.624H225.816V240.366H230.472C230.472 240.174 230.513 239.982 230.53 239.784H225.816V232.509H231.193C231.193 232.311 231.228 232.125 231.252 231.927H225.816V224.652H231.927V225.426L232.183 223.197C232.264 222.545 232.375 221.87 232.509 221.178V216.795H233.597L233.772 216.213H232.509V208.938H236.292C236.367 208.746 236.437 208.548 236.513 208.356H232.509V201.081L238.62 201.064ZM232.509 193.224H238.62V200.499H232.509V193.224ZM211.848 247.624H205.737V240.366H211.848V247.624ZM211.848 239.767H205.737V232.492H211.848V239.767ZM211.848 231.91H205.737V224.652H211.848V231.91ZM211.848 224.053H205.737V216.778H211.848V224.053ZM211.848 216.196H205.737V208.938H211.848V216.196ZM211.848 208.339H205.737V201.064H211.848V208.339ZM211.848 200.482H205.737V193.224H211.848V200.482ZM218.541 247.624H212.43V240.366H218.541V247.624ZM218.541 239.767H212.43V232.492H218.541V239.767ZM218.541 231.91H212.43V224.652H218.541V231.91ZM218.541 224.053H212.43V216.778H218.541V224.053ZM218.541 216.196H212.43V208.938H218.541V216.196ZM218.541 208.339H212.43V201.064H218.541V208.339ZM218.541 200.482H212.43V193.224H218.541V200.482ZM218.541 192.625H212.43V185.35H218.541V192.625ZM218.541 184.768H212.43V177.51H218.541V184.768ZM225.234 247.624H219.123V240.366H225.234V247.624ZM225.234 239.767H219.123V232.492H225.234V239.767ZM225.234 231.91H219.123V224.652H225.234V231.91ZM225.234 224.053H219.123V216.778H225.234V224.053ZM225.234 216.196H219.123V208.938H225.234V216.196ZM225.234 208.339H219.123V201.064H225.234V208.339ZM225.234 200.482H219.123V193.224H225.234V200.482ZM225.234 192.625H219.123V185.35H225.234V192.625ZM231.927 224.053H225.816V216.778H231.927V224.053ZM231.927 216.196H225.816V208.938H231.927V216.196ZM231.927 208.339H225.816V201.064H231.927V208.339ZM231.927 200.482H225.816V193.224H231.927V200.482ZM231.927 192.625H225.816V185.35H231.927V192.625Z" fill="black"/>
</g>
<path d="M202.536 233.382C202.536 246.565 202.99 259.247 203.118 262.017H228.522C228.872 257.908 231.06 232.335 232.183 223.168C233.411 213.152 241.466 198.241 241.466 192.904C241.466 187.567 243.102 188.411 235.745 184.529C228.389 180.647 212.162 172.267 209.916 171.242C207.669 170.218 205.213 167.75 205.213 167.75C205.213 167.75 206.028 172.86 205.795 186.753C205.563 200.645 202.536 218.477 202.536 233.382Z" stroke="#263238" stroke-miterlimit="10"/>
<path d="M205.214 167.802C205.214 167.802 206.029 172.912 205.796 186.805C205.749 190.297 205.511 194.068 205.214 197.956C205.912 196.996 208.165 193.928 208.706 193.754C209.317 193.55 212.588 196.617 215.242 197.025C217.896 197.432 218.92 197.432 216.062 194.365C213.205 191.298 211.988 182.312 210.952 175.566C210.755 174.122 210.438 172.697 210.004 171.306H209.934C207.664 170.259 205.214 167.802 205.214 167.802Z" fill="#263238" stroke="#263238" stroke-miterlimit="10"/>
<path d="M221.981 231.008C223.861 230.152 225.339 229.413 225.339 229.413L226.031 234.756C226.031 234.756 215.858 239.237 210.172 239.58C204.486 239.924 203.968 240.098 203.968 240.098L204.137 234.93" stroke="#263238" stroke-miterlimit="10"/>
<path d="M216.889 233.097C217.93 232.748 219.153 232.253 220.346 231.735" stroke="#263238" stroke-miterlimit="10"/>
<path d="M206.029 234.412C209.004 234.336 211.971 234.066 214.911 233.603" stroke="#263238" stroke-miterlimit="10"/>
<path d="M226.031 234.756L226.375 238.894" stroke="#263238" stroke-miterlimit="10"/>
<path d="M148.055 262.028H176.642C176.706 259.787 177.533 231.31 178.092 216.778C178.674 201.646 188.94 178.692 188.94 178.692C188.94 178.692 190.314 175.456 188.859 174.001C187.404 172.546 183.912 173.128 181.293 175.165C178.674 177.202 154.521 187.678 153.066 189.133C151.611 190.588 151.902 195.535 151.32 201.355C150.738 207.175 141.135 247.333 141.135 247.333C141.135 247.333 138.516 247.915 137.643 248.497C136.77 249.079 136.77 250.825 136.77 250.825C136.77 250.825 137.934 251.116 141.426 252.862C144.638 254.468 147.601 260.986 148.055 262.028Z" fill="white"/>
<path opacity="0.2" d="M185.077 185.35V188.324C185.275 187.788 185.467 187.27 185.659 186.77V185.35H186.206L186.433 184.768H185.659V177.51H189.325C189.366 177.33 189.413 177.132 189.442 176.928H185.659V173.273C185.467 173.302 185.275 173.331 185.077 173.378V176.928H178.966V176.532L178.384 176.829V176.928H178.186L177.022 177.51H178.384V184.785H172.273V179.78L171.691 180.053V184.768H165.58V182.911L164.998 183.185V184.768H161.616L160.382 185.35H164.998V192.642H158.887V186.066L158.305 186.345V192.642H152.194V191.176C151.866 193.295 151.672 195.433 151.612 197.578V200.488H151.402L151.35 201.07H151.612V208.356H150.046L149.924 208.938H151.612V216.213H148.347C148.306 216.405 148.259 216.603 148.219 216.795H151.612V224.07H146.577C146.531 224.268 146.49 224.46 146.443 224.652H151.612V231.927H145.501V228.726L144.919 231.24V231.898H144.767L144.633 232.48H144.919V239.784H142.928L142.789 240.366H144.919V247.641H139.977C139.384 247.8 138.801 247.994 138.231 248.223V251.389C138.406 251.459 138.598 251.541 138.813 251.639V248.223H144.919V256.371C145.122 256.662 145.314 256.953 145.501 257.25V248.229H151.612V262.051H152.194V248.206H158.305V262.028H158.887V248.206H164.998V262.028H165.58V248.206H171.691V262.028H172.273V248.206H177.051V247.624H172.273V240.366H177.295V239.784H172.273V232.509H177.546V231.927H172.273V224.652H177.807C177.807 224.46 177.807 224.262 177.807 224.07H172.273V216.795H178.093C178.093 216.603 178.093 216.411 178.122 216.213H172.273V208.938H178.384V213.239C178.535 211.999 178.727 210.725 178.966 209.433V208.938H179.059C179.094 208.746 179.134 208.554 179.169 208.356H178.966V201.081H180.915C180.968 200.889 181.026 200.697 181.078 200.499H178.966V193.224H183.331C183.4 193.032 183.464 192.834 183.528 192.642H178.966V185.367L185.077 185.35ZM178.966 177.51H185.077V184.785H178.966V177.51ZM151.612 247.641H145.501V240.366H151.612V247.641ZM151.612 239.784H145.501V232.509H151.612V239.784ZM158.305 247.641H152.194V240.366H158.305V247.641ZM158.305 239.784H152.194V232.509H158.305V239.784ZM158.305 231.927H152.194V224.652H158.305V231.927ZM158.305 224.07H152.194V216.795H158.305V224.07ZM158.305 216.213H152.194V208.938H158.305V216.213ZM158.305 208.356H152.194V201.081H158.305V208.356ZM158.305 200.499H152.194V193.224H158.305V200.499ZM164.998 247.641H158.887V240.366H164.998V247.641ZM164.998 239.784H158.887V232.509H164.998V239.784ZM164.998 231.927H158.887V224.652H164.998V231.927ZM164.998 224.07H158.887V216.795H164.998V224.07ZM164.998 216.213H158.887V208.938H164.998V216.213ZM164.998 208.356H158.887V201.081H164.998V208.356ZM164.998 200.499H158.887V193.224H164.998V200.499ZM171.691 247.641H165.58V240.366H171.691V247.641ZM171.691 239.784H165.58V232.509H171.691V239.784ZM171.691 231.927H165.58V224.652H171.691V231.927ZM171.691 224.07H165.58V216.795H171.691V224.07ZM171.691 216.213H165.58V208.938H171.691V216.213ZM171.691 208.356H165.58V201.081H171.691V208.356ZM171.691 200.499H165.58V193.224H171.691V200.499ZM171.691 192.642H165.58V185.367H171.691V192.642ZM178.384 208.356H172.273V201.081H178.384V208.356ZM178.384 200.499H172.273V193.224H178.384V200.499ZM178.384 192.642H172.273V185.367H178.384V192.642Z" fill="black"/>
<path d="M148.055 262.028H176.642C176.706 259.787 177.533 231.31 178.092 216.778C178.674 201.646 188.94 178.692 188.94 178.692C188.94 178.692 190.314 175.456 188.859 174.001C187.404 172.546 183.912 173.128 181.293 175.165C178.674 177.202 154.521 187.678 153.066 189.133C151.611 190.588 151.902 195.535 151.32 201.355C150.738 207.175 141.135 247.333 141.135 247.333C141.135 247.333 138.516 247.915 137.643 248.497C136.77 249.079 136.77 250.825 136.77 250.825C136.77 250.825 137.934 251.116 141.426 252.862C144.638 254.468 147.601 260.986 148.055 262.028Z" stroke="#263238" stroke-miterlimit="10"/>
<path d="M136.77 250.842C136.77 250.842 137.934 251.133 141.426 252.879C144.918 254.625 148.119 262.191 148.119 262.191H153.758C154.113 261.132 154.98 257.279 151.029 252.588C146.373 247.059 141.135 247.35 141.135 247.35C141.135 247.35 138.516 247.932 137.643 248.514C136.77 249.096 136.77 250.842 136.77 250.842Z" fill="#263238" stroke="#263238" stroke-miterlimit="10"/>
<path d="M185.345 173.308C184.093 176.62 181.131 184.11 178.675 187.678C175.474 192.334 169.654 196.117 171.691 197.863C173.728 199.609 179.548 194.08 179.548 194.08C179.548 194.08 181.003 198.154 181.294 199.318C181.31 199.371 181.336 199.42 181.37 199.463C183.471 192.393 185.997 185.457 188.936 178.692C188.936 178.692 190.309 175.456 188.854 174.001C188.103 173.244 186.823 173.046 185.345 173.308Z" fill="#263238" stroke="#263238" stroke-miterlimit="10"/>
<path d="M164.09 201.401C164.257 200.325 164.366 199.241 164.416 198.154" stroke="#263238" stroke-miterlimit="10"/>
<path d="M159.469 262.756C159.469 262.756 160.342 244.132 160.342 233.365C160.342 225.606 162.454 212.558 163.642 204.567" stroke="#263238" stroke-miterlimit="10"/>
<path d="M160.923 229.308C160.923 229.308 165.579 230.763 167.907 231.054L174.891 231.927L174.361 238.521C174.361 238.521 174.018 238.329 168.78 236.583C163.542 234.837 160.341 233.382 160.341 233.382" stroke="#263238" stroke-miterlimit="10"/>
<path d="M174.362 238.504C174.362 238.504 174.018 251.424 174.018 253.17C174.018 254.916 168.78 253.752 168.78 253.752" stroke="#263238" stroke-miterlimit="10"/>
<path d="M178.541 167.162C178.541 167.162 184.03 175.054 188.942 178.692C193.854 182.329 198.044 177.237 201.321 171.777C204.597 166.318 206.78 162.314 208.415 157.582C210.051 152.851 208.415 145.029 201.868 138.842C195.32 132.655 180.025 123.553 176.208 128.285C172.39 133.016 168.746 143.417 171.29 152.304C172.809 157.647 175.264 162.677 178.541 167.162Z" fill="#9E9E9E" stroke="#263238" stroke-miterlimit="10"/>
<path d="M176.23 150.185C178.301 149.565 180.509 149.565 182.58 150.185" stroke="#263238" stroke-width="2" stroke-miterlimit="10" stroke-linecap="round"/>
<path d="M180.926 155.057C181.1 155.999 180.879 156.832 180.431 156.913C179.983 156.995 179.488 156.296 179.314 155.348C179.139 154.399 179.36 153.573 179.808 153.491C180.256 153.41 180.751 154.108 180.926 155.057Z" fill="#263238"/>
<path d="M197.117 155.307C197.286 156.25 197.065 157.053 196.622 157.163C196.18 157.274 195.68 156.547 195.505 155.598C195.33 154.649 195.552 153.823 196 153.741C196.448 153.66 196.943 154.358 197.117 155.307Z" fill="#263238"/>
<path d="M185.124 168.14C187.227 168.865 189.451 169.173 191.672 169.048C195.495 168.868 198.772 166.138 198.772 166.138" stroke="#263238" stroke-miterlimit="10"/>
<path d="M176.771 132.306C176.771 132.306 184.855 150.744 185.867 151.25C186.88 151.757 188.9 145.692 188.9 145.692C188.9 145.692 191.676 150.738 194.97 152.257C198.264 153.776 199.265 151.25 199.265 151.25C200.915 152.18 202.518 153.192 204.067 154.283L205.329 155.289L206.592 159.835C206.592 159.835 202.804 172.214 204.067 173.733C205.329 175.252 212.401 173.227 212.401 173.227C212.401 173.227 210.655 175.753 212.907 175.753C215.159 175.753 219.222 176.259 225.03 168.425C230.838 160.591 231.345 147.968 231.345 147.968C231.345 147.968 234.121 150.994 234.377 147.205C234.633 143.417 231.095 137.102 231.095 137.102C231.095 137.102 236.647 142.66 236.146 136.852C235.646 131.043 232.358 124.473 231.095 122.959C229.832 121.446 222.248 117.139 222.248 117.139C222.248 117.139 225.28 116.633 223.011 113.094C220.741 109.556 212.401 108.549 209.369 108.549C206.336 108.549 200.022 109.562 200.022 109.562C200.022 109.562 204.067 101.728 199.771 101.222C195.476 100.715 187.899 109.055 187.899 109.055C187.899 109.055 180.333 102.991 178.045 104.254C175.758 105.517 177.289 107.286 177.289 107.286C177.289 107.286 167.441 108.043 164.659 112.338C161.877 116.633 165.166 119.159 165.166 119.159C165.166 119.159 147.484 131.282 150.261 135.827C153.037 140.373 158.094 136.083 158.094 136.083C158.094 136.083 151.017 154.271 152.03 155.534C153.043 156.797 157.85 155.028 157.85 155.028C157.85 155.028 157.6 169.676 161.388 171.195C165.177 172.715 165.934 169.933 165.934 169.933C165.934 169.933 167.953 171.952 172.505 172.202C177.056 172.453 178.563 167.151 178.563 167.151C178.563 167.151 173.512 155.278 173.768 145.43C174.024 135.583 176.771 132.306 176.771 132.306Z" fill="#263238" stroke="#263238" stroke-miterlimit="10"/>
<path d="M186.944 153.578C186.944 153.578 185.122 163.042 186.577 165.044C188.032 167.046 193.131 165.044 193.491 163.955" fill="#9E9E9E"/>
<path d="M186.944 153.578C186.944 153.578 185.122 163.042 186.577 165.044C188.032 167.046 193.131 165.044 193.491 163.955" stroke="#263238" stroke-miterlimit="10"/>
<path d="M179.389 159.404C183.359 159.404 186.577 157.041 186.577 154.125C186.577 151.21 183.359 148.846 179.389 148.846C175.419 148.846 172.201 151.21 172.201 154.125C172.201 157.041 175.419 159.404 179.389 159.404Z" stroke="#263238" stroke-miterlimit="10"/>
<path d="M196.675 159.043C200.645 159.043 203.863 156.68 203.863 153.765C203.863 150.849 200.645 148.486 196.675 148.486C192.705 148.486 189.487 150.849 189.487 153.765C189.487 156.68 192.705 159.043 196.675 159.043Z" stroke="#263238" stroke-miterlimit="10"/>
<path d="M186.944 153.578C186.944 153.578 188.399 152.49 189.488 153.765" stroke="#263238" stroke-miterlimit="10"/>
<path d="M127.056 254.281C127.056 254.281 136.193 251.703 139.004 251.238C141.815 250.772 147.443 255.923 148.38 258.734C149.317 261.545 148.118 262.173 148.118 262.173L129.395 261.551L127.056 254.281Z" fill="#9E9E9E" stroke="#263238" stroke-miterlimit="10"/>
<path d="M130.368 253.374C130.368 253.374 137.265 255.958 138.988 256.994C140.71 258.03 140.192 260.096 139.162 261.126C137.92 262.165 136.437 262.877 134.85 263.198C133.243 263.29 131.632 263.29 130.025 263.198C127.959 263.024 126.062 263.373 124.339 263.373C122.616 263.373 117.442 262.855 117.442 262.855L115.888 261.819C115.888 261.819 112.978 262.68 110.72 263.565C108.462 264.449 109.166 262.529 110.889 261.149C112.612 259.77 116.924 256.325 117.617 255.981C118.309 255.638 127.097 253.071 127.097 253.071L130.368 253.374Z" fill="#9E9E9E" stroke="#263238" stroke-miterlimit="10"/>
<path d="M132.951 254.061C132.951 254.061 128.464 251.995 127.26 251.995C126.055 251.995 117.435 254.905 116.231 255.783C115.026 256.662 113.815 264.921 114.677 265.439C115.538 265.957 116.231 264.403 116.423 263.373C116.615 262.343 119.013 256.819 119.013 256.819L117.267 265.613C117.267 265.613 117.959 266.987 118.646 265.782C119.333 264.577 123.645 256.301 123.989 255.783C124.44 255.303 124.965 254.896 125.543 254.579C125.543 254.579 124.681 258.373 123.989 261.993C123.296 265.613 123.82 266.649 124.856 266.818C125.892 266.987 126.404 264.577 126.922 263.373C127.44 262.168 129.681 255.265 129.681 255.265" fill="#9E9E9E"/>
<path d="M132.952 254.061C132.952 254.061 128.464 251.995 127.26 251.995C126.055 251.995 117.435 254.905 116.231 255.783C115.026 256.662 113.815 264.921 114.677 265.439C115.538 265.957 116.231 264.403 116.423 263.373C116.615 262.343 119.013 256.819 119.013 256.819L117.267 265.613C117.267 265.613 117.959 266.987 118.646 265.782C119.333 264.577 123.645 256.301 123.989 255.783C124.44 255.303 124.965 254.896 125.543 254.579C125.543 254.579 124.681 258.373 123.989 261.993C123.296 265.613 123.82 266.649 124.856 266.818C125.892 266.987 126.404 264.577 126.922 263.373C127.44 262.168 129.681 255.265 129.681 255.265" stroke="#263238" stroke-miterlimit="10"/>
<path d="M137.935 257.512C137.935 257.512 132.767 262.855 132.074 264.059C131.381 265.264 131.387 265.439 133.285 265.439C135.182 265.439 141.043 261.644 141.555 261.126C142.067 260.608 141.904 259.06 140.693 258.024C140.308 257.724 139.856 257.522 139.376 257.432C138.896 257.343 138.402 257.371 137.935 257.512Z" fill="#9E9E9E" stroke="#263238" stroke-miterlimit="10"/>
<path d="M170.212 256.918C170.212 256.918 163.315 259.147 161.621 260.41C159.928 261.673 157.483 263.064 158.013 263.489C158.543 263.914 160.242 263.489 160.772 263.064C161.301 262.639 163.74 262.214 163.74 262.214C163.74 262.214 166.603 260.515 168.832 259.141C171.061 257.768 172.755 256.278 170.212 256.918Z" fill="#9E9E9E" stroke="#263238" stroke-miterlimit="10"/>
<path d="M208.281 245.243C208.281 245.243 189.075 248.735 182.126 251.174C175.177 253.612 172.412 255.312 168.938 257.768C165.463 260.224 158.421 264.862 159.468 265.677C160.516 266.492 164.165 263.634 164.782 263.023C165.399 262.412 169.886 260.573 169.886 260.573L172.889 259.037C172.889 259.037 168.367 264.606 166.738 266.021C165.108 267.435 166.208 268.319 167.436 267.912C168.664 267.505 170.98 265.066 170.98 265.066L178.447 260.154C178.447 260.154 175.38 264.449 173.949 265.671C172.517 266.894 175.584 267.924 176.201 266.899C176.818 265.875 179.879 263.221 179.879 263.221C179.879 263.221 184.983 260.567 186.211 259.543C187.439 258.519 190.501 255.661 190.501 255.661L213.385 257.5C213.385 257.5 214.817 256.685 214.002 251.983C213.187 247.28 208.281 245.243 208.281 245.243Z" fill="#9E9E9E" stroke="#263238" stroke-miterlimit="10"/>
<path d="M223.808 209.078L235.047 236.874L216.859 243.206L221.969 258.123C221.969 258.123 235.029 258.158 245.249 257.541C255.469 256.924 262.64 250.761 261.004 243.41C259.369 236.059 253.24 225.426 248.334 212.756C243.428 200.086 244.947 192.531 242.7 188.649C240.454 184.767 234.116 183.743 234.116 183.743L230.624 183.161" fill="white"/>
<path opacity="0.2" d="M259.282 251.139V248.229H260.801C260.865 248.037 260.917 247.845 260.964 247.647H259.282V240.366H260.155C260.091 240.18 260.021 239.982 259.957 239.784H259.282V238.009C259.096 237.526 258.904 237.031 258.7 236.537V239.784H252.589V232.509H256.977C256.89 232.317 256.808 232.125 256.721 231.927H252.589V224.652H253.404C253.311 224.46 253.223 224.268 253.136 224.07H252.589V222.854C252.397 222.423 252.199 221.993 252.007 221.556V224.07H245.896V216.795H249.97C249.888 216.603 249.807 216.411 249.731 216.213H245.896V208.938H246.984C246.92 208.746 246.862 208.548 246.804 208.356H245.896V205.039C245.675 204.119 245.483 203.241 245.314 202.397V208.356H239.203V201.081H245.069L244.965 200.499H239.203V193.224H243.981L243.894 192.642H239.203V185.507C238.692 185.233 238.168 184.986 237.631 184.768H232.51V183.464L231.928 183.359V184.768H230.211L230.054 185.35H231.928V192.642H228.145L227.994 193.224H231.934V200.499H226.073L225.916 201.081H231.928V208.356H225.817V201.454L225.235 203.66V208.316H224.001L223.85 208.898H225.235V212.582L225.817 214.019V208.938H231.928V216.213H226.69L226.923 216.795H231.928V224.07H229.891L230.129 224.652H231.957V229.174L232.539 230.612V224.652H238.621V231.927H233.039L233.278 232.509H238.621V239.784H232.51V237.771L231.928 237.974V239.784H226.725L225.049 240.366H225.235V247.641H219.124V242.403L218.542 242.607V247.612H218.373L219.124 249.801V248.194H225.235V258.088H225.817V248.194H231.928V258.013H232.51V248.206H238.621V257.826H239.203V248.206H245.314V257.518L245.896 257.471V248.206H252.007V256.191L252.589 255.97V248.206H258.7V251.861C258.904 251.622 259.101 251.384 259.282 251.139ZM231.928 247.647H225.817V240.366H231.928V247.647ZM238.621 247.647H232.51V240.366H238.621V247.647ZM238.621 224.076H232.51V216.801H238.621V224.076ZM238.621 216.219H232.51V208.938H238.621V216.219ZM238.621 208.362H232.51V201.087H238.621V208.362ZM238.621 200.505H232.51V193.224H238.621V200.505ZM238.621 192.648H232.51V185.373H238.621V192.648ZM245.314 247.647H239.203V240.366H245.314V247.647ZM245.314 239.79H239.203V232.515H245.314V239.79ZM245.314 231.933H239.203V224.652H245.314V231.933ZM245.314 224.076H239.203V216.801H245.314V224.076ZM245.314 216.219H239.203V208.938H245.314V216.219ZM252.007 247.647H245.896V240.366H252.007V247.647ZM252.007 239.79H245.896V232.515H252.007V239.79ZM252.007 231.933H245.896V224.652H252.007V231.933ZM252.589 247.647V240.366H258.7V247.641L252.589 247.647Z" fill="#263238"/>
<path d="M223.808 209.078L235.047 236.874L216.859 243.206L221.969 258.123C221.969 258.123 235.029 258.158 245.249 257.541C255.469 256.924 262.64 250.761 261.004 243.41C259.369 236.059 253.24 225.426 248.334 212.756C243.428 200.086 244.947 192.531 242.7 188.649C240.454 184.767 234.116 183.743 234.116 183.743L230.624 183.161" stroke="#263238" stroke-miterlimit="10"/>
<path d="M245.988 234.046C242.28 234.732 238.624 235.675 235.047 236.868C235.047 236.868 242.811 231.758 247.1 231.351" stroke="#263238" stroke-miterlimit="10"/>
<path d="M251.192 233.801C250.386 233.686 249.57 233.658 248.759 233.72" stroke="#263238" stroke-miterlimit="10"/>
<path d="M222.173 240.948C222.173 240.948 226.306 244.9 227.528 247.961C228.75 251.022 228.302 259.339 227.487 260.154C226.672 260.969 211.465 260.87 208.962 257.744C208.31 256.93 212.774 255.05 210.528 250.551C208.281 246.052 207.257 245.65 207.257 245.65C207.257 245.65 205.418 244.626 208.892 242.38C212.367 240.133 220.334 238.504 222.173 240.948Z" fill="#263238" stroke="#263238" stroke-miterlimit="10"/>
<path d="M258.402 272.457H243.316L241.431 242.636H260.288L258.402 272.457Z" fill="#263238" stroke="#263238" stroke-linejoin="round"/>
<path d="M261.126 242.682H240.599V247.024H261.126V242.682Z" fill="white" stroke="#263238" stroke-linejoin="round"/>
<path d="M261.126 242.845H240.599L242.647 240.273H259.071L261.126 242.845Z" fill="white" stroke="#263238" stroke-linejoin="round"/>
<path d="M258.955 263.71L259.706 251.832H242.013L242.763 263.71H258.955Z" fill="white" stroke="#263238" stroke-linejoin="round"/>
<path d="M171.469 274.442L190.058 269.53V272.044L171.469 277.253V274.442Z" fill="#263238" stroke="#263238" stroke-linejoin="round"/>
<path d="M190.058 269.53H92.87L74.083 274.442H171.469L190.058 269.53Z" fill="white" stroke="#263238" stroke-linejoin="round"/>
<path d="M171.469 218.279H74.083V277.253H171.469V218.279Z" fill="white" stroke="#263238" stroke-linejoin="round"/>
<path d="M171.469 226.812C150.284 227.818 137.667 247.344 118.92 260.428C101.833 272.359 80.7296 274.396 74.1064 274.716V277.253H171.469V226.812Z" fill="#263238" stroke="#263238" stroke-linejoin="round"/>
<path d="M171.469 274.442H74.083V277.253H171.469V274.442Z" fill="white" stroke="#263238" stroke-miterlimit="10"/>
<path d="M45.2514 254.986C45.2514 254.986 37.1383 242.007 43.6509 234.703C50.1635 227.399 60.686 230.914 62.8569 237.677C65.0278 244.44 60.4241 255.8 60.4241 255.8L45.2514 254.986Z" fill="white" stroke="#263238" stroke-linecap="round" stroke-linejoin="round"/>
<path d="M45.5187 240.11C44.1684 240.11 39.0294 238.218 37.4056 235.786C35.7818 233.353 35.5024 227.94 40.1119 227.94C44.7213 227.94 46.3335 236.053 46.3335 236.053L46.6012 239.027" fill="white"/>
<path d="M45.5187 240.11C44.1684 240.11 39.0294 238.218 37.4056 235.786C35.7818 233.353 35.5024 227.94 40.1119 227.94C44.7213 227.94 46.3335 236.053 46.3335 236.053L46.6012 239.027" stroke="#263238" stroke-linecap="round" stroke-linejoin="round"/>
<path d="M49.6806 235.058C48.47 234.476 44.7161 230.472 44.3494 227.568C43.9828 224.663 46.1595 219.705 50.2742 221.748C54.389 223.79 52.2181 231.787 52.2181 231.787L51.1298 234.569" fill="white"/>
<path d="M49.6806 235.058C48.47 234.476 44.7161 230.472 44.3494 227.568C43.9828 224.663 46.1595 219.705 50.2742 221.748C54.389 223.79 52.2181 231.787 52.2181 231.787L51.1298 234.569" stroke="#263238" stroke-linecap="round" stroke-linejoin="round"/>
<path d="M54.5914 236.42C53.9163 235.256 53.0083 229.849 54.312 227.23C55.6157 224.611 60.1786 221.689 62.46 225.682C64.7414 229.674 58.5082 235.11 58.5082 235.11L56.058 236.821" fill="white"/>
<path d="M54.5914 236.42C53.9163 235.256 53.0083 229.849 54.312 227.23C55.6157 224.611 60.1786 221.689 62.46 225.682C64.7414 229.674 58.5082 235.11 58.5082 235.11L56.058 236.821" stroke="#263238" stroke-linecap="round" stroke-linejoin="round"/>
<path d="M56.2037 246.116C55.9825 244.777 56.9952 239.4 59.1137 237.386C61.2321 235.372 66.5342 234.214 67.2966 238.748C68.059 243.282 60.3126 246.232 60.3126 246.232L57.4026 246.989" fill="white"/>
<path d="M56.2037 246.116C55.9825 244.777 56.9952 239.4 59.1137 237.386C61.2321 235.372 66.5342 234.214 67.2966 238.748C68.059 243.282 60.3126 246.232 60.3126 246.232L57.4026 246.989" stroke="#263238" stroke-linecap="round" stroke-linejoin="round"/>
<path d="M38 232.521L38.9137 233.958" stroke="white" stroke-linecap="round" stroke-linejoin="round"/>
<path d="M40.6123 236.047L42.044 237.217" stroke="white" stroke-linecap="round" stroke-linejoin="round"/>
<path d="M39.0469 229.779L40.4786 231.869" stroke="white" stroke-linecap="round" stroke-linejoin="round"/>
<path d="M42.4395 233.568L44.005 236.437" stroke="white" stroke-linecap="round" stroke-linejoin="round"/>
<path d="M46.0889 226.648L46.6127 228.214" stroke="white" stroke-linecap="round" stroke-linejoin="round"/>
<path d="M47.917 231.083L48.8307 232.393" stroke="white" stroke-linecap="round" stroke-linejoin="round"/>
<path d="M47.5264 223.517L48.702 226.125" stroke="white" stroke-linecap="round" stroke-linejoin="round"/>
<path d="M42.958 241.92L43.3538 244.265" stroke="white" stroke-linecap="round" stroke-linejoin="round"/>
<path d="M44.1328 246.483L44.6566 248.444" stroke="white" stroke-linecap="round" stroke-linejoin="round"/>
<path d="M45.4375 242.048L45.9613 244.655" stroke="white" stroke-linecap="round" stroke-linejoin="round"/>
<path d="M47.1367 246.483L47.5267 248.444" stroke="white" stroke-linecap="round" stroke-linejoin="round"/>
<path d="M48.0498 238.655L48.8297 242.31" stroke="white" stroke-linecap="round" stroke-linejoin="round"/>
<path d="M49.877 245.831L50.005 247.53" stroke="white" stroke-linecap="round" stroke-linejoin="round"/>
<path d="M51.3096 237.479L51.9614 240.872" stroke="white" stroke-linecap="round" stroke-linejoin="round"/>
<path d="M51.9619 244.399L52.2238 247.92" stroke="white" stroke-linecap="round" stroke-linejoin="round"/>
<path d="M55.0977 238.783V241.658" stroke="white" stroke-linecap="round" stroke-linejoin="round"/>
<path d="M54.7031 245.313L54.837 247.53" stroke="white" stroke-linecap="round" stroke-linejoin="round"/>
<path d="M58.3579 225.211L57.7061 226.782" stroke="white" stroke-linecap="round" stroke-linejoin="round"/>
<path d="M57.4429 228.604L56.791 230.827" stroke="white" stroke-linecap="round" stroke-linejoin="round"/>
<path d="M61.2263 228.214L60.1846 230.303" stroke="white" stroke-linecap="round" stroke-linejoin="round"/>
<path d="M57.9667 232.654L56.791 233.958" stroke="white" stroke-linecap="round" stroke-linejoin="round"/>
<path d="M55.4876 228.086L55.0977 229.779" stroke="white" stroke-linecap="round" stroke-linejoin="round"/>
<path d="M61.2266 237.479L59.7949 239.83" stroke="white" stroke-linecap="round" stroke-linejoin="round"/>
<path d="M58.8814 241.262L58.0957 243.351" stroke="white" stroke-linecap="round" stroke-linejoin="round"/>
<path d="M60.0576 244.399L62.4031 243.09" stroke="white" stroke-linecap="round" stroke-linejoin="round"/>
<path d="M63.8397 237.479L62.6641 239.44" stroke="white" stroke-linecap="round" stroke-linejoin="round"/>
<path d="M65.0158 239.697L63.4502 240.872" stroke="white" stroke-linecap="round" stroke-linejoin="round"/>
<path d="M63.3274 250.458H41.1416V272.644H63.3274V250.458Z" fill="#263238" stroke="#263238" stroke-linecap="round" stroke-linejoin="round"/>
</svg>
