<svg width="198" height="132" viewBox="0 0 198 132" fill="none" xmlns="http://www.w3.org/2000/svg">
<path d="M159.355 80.9529C159.355 80.9529 156.111 79.1498 155.87 83.2339C155.63 87.3179 155.028 113.884 155.028 113.884" stroke="#263238" stroke-width="2" stroke-linecap="round" stroke-linejoin="round"/>
<path d="M154.176 83.5956C154.176 83.5956 156.816 89.4854 155.62 113.523" stroke="#263238" stroke-width="2" stroke-linecap="round" stroke-linejoin="round"/>
<path d="M156.787 81.774C156.787 81.774 155.543 82.566 154.838 81.6605C154.133 80.755 155.316 79.0812 154.273 78.3684C153.231 77.6556 151.427 78.7433 151.427 78.7433C151.427 78.7433 152.813 79.1498 152.769 79.9075C152.724 80.6652 152.056 80.9635 151.977 80.6203C151.897 80.2771 151.224 78.6218 150.097 79.3162C149.773 79.5083 149.491 79.764 149.268 80.068C149.045 80.372 148.886 80.7179 148.801 81.085C148.801 81.085 151.422 80.8051 151.581 81.7925C151.739 82.7798 150.506 81.6209 149.424 81.5575C148.341 81.4942 147.354 81.6525 147.425 82.3073C147.449 82.8865 147.415 83.4668 147.322 84.0391C147.914 83.5457 148.664 83.2815 149.434 83.2946C150.625 83.3633 150.58 84.121 149.498 84.0576C148.415 83.9942 147.486 85.0238 147.486 85.0238C147.486 85.0238 148.473 86.7108 149.727 87.545C150.981 88.3793 151.433 88.073 151.575 87.4368C151.718 86.8006 151.385 85.1453 152.143 85.1902C152.901 85.235 150.889 88.0493 151.855 88.2156C152.821 88.3819 153.6 88.0994 153.854 87.4632L154.118 86.827C154.118 86.827 153.78 85.1796 153.928 84.5354C154.075 83.8913 154.252 84.5539 154.424 85.3274C154.595 86.101 154.704 87.9516 155.034 87.8618C155.364 87.7721 156.422 86.423 156.671 85.895C156.919 85.367 155.277 83.7487 155.295 83.424C155.314 83.0993 156.581 83.717 156.779 84.055C156.922 84.3118 157.052 84.5762 157.167 84.847C157.167 84.847 157.959 84.3506 157.938 82.83C157.917 81.3094 156.787 81.774 156.787 81.774Z" fill="white"/>
<path opacity="0.3" d="M156.787 81.774C156.787 81.774 155.543 82.566 154.838 81.6605C154.133 80.755 155.316 79.0812 154.273 78.3684C153.231 77.6556 151.427 78.7433 151.427 78.7433C151.427 78.7433 152.813 79.1498 152.769 79.9075C152.724 80.6652 152.056 80.9635 151.977 80.6203C151.897 80.2771 151.224 78.6218 150.097 79.3162C149.773 79.5083 149.491 79.764 149.268 80.068C149.045 80.372 148.886 80.7179 148.801 81.085C148.801 81.085 151.422 80.8051 151.581 81.7925C151.739 82.7798 150.506 81.6209 149.424 81.5575C148.341 81.4942 147.354 81.6525 147.425 82.3073C147.449 82.8865 147.415 83.4668 147.322 84.0391C147.914 83.5457 148.664 83.2815 149.434 83.2946C150.625 83.3633 150.58 84.121 149.498 84.0576C148.415 83.9942 147.486 85.0238 147.486 85.0238C147.486 85.0238 148.473 86.7108 149.727 87.545C150.981 88.3793 151.433 88.073 151.575 87.4368C151.718 86.8006 151.385 85.1453 152.143 85.1902C152.901 85.235 150.889 88.0493 151.855 88.2156C152.821 88.3819 153.6 88.0994 153.854 87.4632L154.118 86.827C154.118 86.827 153.78 85.1796 153.928 84.5354C154.075 83.8913 154.252 84.5539 154.424 85.3274C154.595 86.101 154.704 87.9516 155.034 87.8618C155.364 87.7721 156.422 86.423 156.671 85.895C156.919 85.367 155.277 83.7487 155.295 83.424C155.314 83.0993 156.581 83.717 156.779 84.055C156.922 84.3118 157.052 84.5762 157.167 84.847C157.167 84.847 157.959 84.3506 157.938 82.83C157.917 81.3094 156.787 81.774 156.787 81.774Z" fill="#263238"/>
<path d="M150.493 85.3407C151.304 84.3401 152.494 82.9858 153.495 82.339" stroke="#263238" stroke-linecap="round" stroke-linejoin="round"/>
<path d="M149.554 86.5604C149.554 86.5604 149.762 86.27 150.1 85.837" stroke="#263238" stroke-linecap="round" stroke-linejoin="round"/>
<path d="M154.022 82.587C154.022 82.587 155.226 84.2872 155.448 86.0375" stroke="#263238" stroke-linecap="round" stroke-linejoin="round"/>
<path d="M152.66 83.593C152.66 83.593 152.998 83.3976 152.871 85.5598" stroke="#263238" stroke-linecap="round" stroke-linejoin="round"/>
<path d="M153.539 81.5759C153.539 81.5759 154.225 80.9634 153.864 79.749" stroke="#263238" stroke-linecap="round" stroke-linejoin="round"/>
<path d="M152.61 82.6135L152.119 81.7159" stroke="#263238" stroke-linecap="round" stroke-linejoin="round"/>
<path d="M151.578 83.5296C151.578 83.5296 150.02 82.3521 149.046 82.2941" stroke="#263238" stroke-linecap="round" stroke-linejoin="round"/>
<path d="M161.211 78.5664C161.211 78.5664 161.161 80.351 159.767 80.4381C158.373 80.5253 157.512 78.2047 156.087 78.7617C154.661 79.3188 154.524 81.8664 154.524 81.8664C154.524 81.8664 155.875 80.7549 156.604 81.3173C157.333 81.8796 157.164 82.7429 156.77 82.6056C156.377 82.4683 154.257 81.9957 154.186 83.5956C154.156 84.0513 154.219 84.5082 154.371 84.9388C154.523 85.3694 154.761 85.7648 155.07 86.1009C155.07 86.1009 156.578 83.2867 157.676 83.7989C158.774 84.311 156.77 84.7572 155.968 85.7973C155.165 86.8375 154.648 87.9331 155.358 88.3106C155.954 88.6814 156.511 89.1112 157.021 89.5937C157.021 89.5937 156.831 88.1205 157.713 86.9774C158.595 85.8343 159.321 86.394 158.521 87.4341C157.721 88.4743 158.117 90.1058 158.117 90.1058C158.117 90.1058 160.477 90.2695 162.167 89.5778C163.856 88.8861 163.867 88.2341 163.323 87.648C162.779 87.0619 160.899 86.2778 161.459 85.5492C162.019 84.8205 163.465 88.7541 164.292 87.8988C165.118 87.0434 165.364 86.0745 164.902 85.3855L164.437 84.6965C164.437 84.6965 162.557 83.9045 162.013 83.3263C161.47 82.7481 162.254 83.0121 163.143 83.3659C164.033 83.7197 165.958 84.8733 166.095 84.4826C166.232 84.0919 165.601 82.1066 165.242 81.5047C164.883 80.9028 162.143 81.4361 161.831 81.1958C161.52 80.9556 163.001 80.1081 163.473 80.1398C163.946 80.1715 164.529 80.285 164.529 80.285C164.529 80.285 164.572 79.1577 163.035 78.1387C161.499 77.1197 161.211 78.5664 161.211 78.5664Z" fill="white"/>
<path opacity="0.2" d="M161.211 78.5664C161.211 78.5664 161.161 80.351 159.767 80.4381C158.373 80.5253 157.512 78.2047 156.087 78.7617C154.661 79.3188 154.524 81.8664 154.524 81.8664C154.524 81.8664 155.875 80.7549 156.604 81.3173C157.333 81.8796 157.164 82.7429 156.77 82.6056C156.377 82.4683 154.257 81.9957 154.186 83.5956C154.156 84.0513 154.219 84.5082 154.371 84.9388C154.523 85.3694 154.761 85.7648 155.07 86.1009C155.07 86.1009 156.578 83.2867 157.676 83.7989C158.774 84.311 156.77 84.7572 155.968 85.7973C155.165 86.8375 154.648 87.9331 155.358 88.3106C155.954 88.6814 156.511 89.1112 157.021 89.5937C157.021 89.5937 156.831 88.1205 157.713 86.9774C158.595 85.8343 159.321 86.394 158.521 87.4341C157.721 88.4743 158.117 90.1058 158.117 90.1058C158.117 90.1058 160.477 90.2695 162.167 89.5778C163.856 88.8861 163.867 88.2341 163.323 87.648C162.779 87.0619 160.899 86.2778 161.459 85.5492C162.019 84.8205 163.465 88.7541 164.292 87.8988C165.118 87.0434 165.364 86.0745 164.902 85.3855L164.437 84.6965C164.437 84.6965 162.557 83.9045 162.013 83.3263C161.47 82.7481 162.254 83.0121 163.143 83.3659C164.033 83.7197 165.958 84.8733 166.095 84.4826C166.232 84.0919 165.601 82.1066 165.242 81.5047C164.883 80.9028 162.143 81.4361 161.831 81.1958C161.52 80.9556 163.001 80.1081 163.473 80.1398C163.946 80.1715 164.529 80.285 164.529 80.285C164.529 80.285 164.572 79.1577 163.035 78.1387C161.499 77.1197 161.211 78.5664 161.211 78.5664Z" fill="#263238"/>
<path d="M160.491 87.2995C160.042 85.8053 159.498 83.688 159.535 82.2466" stroke="#263238" stroke-linecap="round" stroke-linejoin="round"/>
<path d="M161.071 89.0683C161.071 89.0683 160.923 88.6644 160.72 88.0308" stroke="#263238" stroke-linecap="round" stroke-linejoin="round"/>
<path d="M160.142 81.8875C160.142 81.8875 162.663 81.8426 164.566 82.8115" stroke="#263238" stroke-linecap="round" stroke-linejoin="round"/>
<path d="M160.222 83.9362C160.222 83.9362 160.253 83.4662 162.334 85.0687" stroke="#263238" stroke-linecap="round" stroke-linejoin="round"/>
<path d="M158.806 81.6869C158.806 81.6869 158.663 80.5807 157.198 80.1161" stroke="#263238" stroke-linecap="round" stroke-linejoin="round"/>
<path d="M159.205 83.321L157.972 83.1996" stroke="#263238" stroke-linecap="round" stroke-linejoin="round"/>
<path d="M159.418 84.9763C159.418 84.9763 157.177 85.7366 156.456 86.6712" stroke="#263238" stroke-linecap="round" stroke-linejoin="round"/>
<path d="M146.256 90.4464C146.256 90.4464 153.347 95.135 153.225 113.282" stroke="#263238" stroke-width="2" stroke-linecap="round" stroke-linejoin="round"/>
<path d="M154.999 89.2081C154.999 89.2081 154.772 91.2621 153.151 91.233C151.53 91.204 150.759 88.4399 149.065 88.9494C147.37 89.4589 146.966 92.3814 146.966 92.3814C146.966 92.3814 148.632 91.2277 149.421 91.9432C150.21 92.6586 149.93 93.6407 149.49 93.4453C149.049 93.25 146.649 92.5055 146.414 94.3456C146.338 94.8693 146.368 95.4031 146.505 95.9145C146.641 96.426 146.879 96.9044 147.206 97.3209C147.206 97.3209 149.212 94.2136 150.429 94.9079C151.646 95.6022 149.294 95.9296 148.27 97.0542C147.246 98.1789 146.551 99.3959 147.327 99.8975C147.982 100.38 148.585 100.929 149.128 101.534C149.128 101.534 149.046 99.8157 150.184 98.5801C151.322 97.3446 152.095 98.0521 151.074 99.1821C150.052 100.312 150.355 102.229 150.355 102.229C150.355 102.229 153.067 102.64 155.081 102.007C157.095 101.373 157.167 100.618 156.594 99.8949C156.021 99.1715 153.927 98.0838 154.643 97.2971C155.358 96.5104 156.655 101.183 157.689 100.275C158.724 99.3669 159.099 98.2713 158.629 97.4317L158.136 96.5922C158.136 96.5922 156.042 95.5072 155.469 94.7812C154.896 94.0552 155.775 94.4433 156.768 94.9343C157.761 95.4253 159.875 96.9407 160.068 96.4998C160.261 96.0589 159.72 93.7199 159.374 92.9833C159.028 92.2468 155.804 92.6137 155.467 92.3075C155.129 92.0013 156.921 91.1617 157.462 91.2515C157.865 91.3186 158.264 91.4068 158.658 91.5155C158.658 91.5155 158.811 90.2166 157.135 88.8966C155.459 87.5766 154.999 89.2081 154.999 89.2081Z" fill="white"/>
<path opacity="0.3" d="M154.999 89.2081C154.999 89.2081 154.772 91.2621 153.151 91.233C151.53 91.204 150.759 88.4399 149.065 88.9494C147.37 89.4589 146.966 92.3814 146.966 92.3814C146.966 92.3814 148.632 91.2277 149.421 91.9432C150.21 92.6586 149.93 93.6407 149.49 93.4453C149.049 93.25 146.649 92.5055 146.414 94.3456C146.338 94.8693 146.368 95.4031 146.505 95.9145C146.641 96.426 146.879 96.9044 147.206 97.3209C147.206 97.3209 149.212 94.2136 150.429 94.9079C151.646 95.6022 149.294 95.9296 148.27 97.0542C147.246 98.1789 146.551 99.3959 147.327 99.8975C147.982 100.38 148.585 100.929 149.128 101.534C149.128 101.534 149.046 99.8157 150.184 98.5801C151.322 97.3446 152.095 98.0521 151.074 99.1821C150.052 100.312 150.355 102.229 150.355 102.229C150.355 102.229 153.067 102.64 155.081 102.007C157.095 101.373 157.167 100.618 156.594 99.8949C156.021 99.1715 153.927 98.0838 154.643 97.2971C155.358 96.5104 156.655 101.183 157.689 100.275C158.724 99.3669 159.099 98.2713 158.629 97.4317L158.136 96.5922C158.136 96.5922 156.042 95.5072 155.469 94.7812C154.896 94.0552 155.775 94.4433 156.768 94.9343C157.761 95.4253 159.875 96.9407 160.068 96.4998C160.261 96.0589 159.72 93.7199 159.374 92.9833C159.028 92.2468 155.804 92.6137 155.467 92.3075C155.129 92.0013 156.921 91.1617 157.462 91.2515C157.865 91.3186 158.264 91.4068 158.658 91.5155C158.658 91.5155 158.811 90.2166 157.135 88.8966C155.459 87.5766 154.999 89.2081 154.999 89.2081Z" fill="#263238"/>
<path d="M153.347 99.2165C152.967 97.453 152.542 94.9582 152.716 93.2976" stroke="#263238" stroke-linecap="round" stroke-linejoin="round"/>
<path d="M153.848 101.313C153.848 101.313 153.716 100.832 153.539 100.082" stroke="#263238" stroke-linecap="round" stroke-linejoin="round"/>
<path d="M153.452 92.928C153.452 92.928 156.356 93.1154 158.468 94.4143" stroke="#263238" stroke-linecap="round" stroke-linejoin="round"/>
<path d="M153.349 95.304C153.349 95.304 153.43 94.776 155.68 96.8088" stroke="#263238" stroke-linecap="round" stroke-linejoin="round"/>
<path d="M151.928 92.5822C151.928 92.5822 151.867 91.2939 150.223 90.618" stroke="#263238" stroke-linecap="round" stroke-linejoin="round"/>
<path d="M152.235 94.5041L150.825 94.248" stroke="#263238" stroke-linecap="round" stroke-linejoin="round"/>
<path d="M152.328 96.4365C152.328 96.4365 149.669 97.0992 148.748 98.1103" stroke="#263238" stroke-linecap="round" stroke-linejoin="round"/>
<path d="M149.02 104.75C149.02 104.75 153.587 108.235 154.067 113.404L153.119 96.0959" stroke="#263238" stroke-width="2" stroke-linecap="round" stroke-linejoin="round"/>
<path d="M160.076 102.226C154.067 101.144 154.067 113.404 154.067 113.404" stroke="#263238" stroke-width="2" stroke-linecap="round" stroke-linejoin="round"/>
<path d="M154.788 113.282C154.788 113.282 151.303 87.9225 161.388 87.9225" stroke="#263238" stroke-width="2" stroke-linecap="round" stroke-linejoin="round"/>
<path d="M157.788 101.495C156.967 100.573 155.222 100.573 154.197 102.934C153.173 105.294 154.094 104.882 154.094 104.882C154.094 104.882 156.043 104.267 157.262 103.855C158.482 103.443 160.135 102.419 160.238 103.037C160.341 103.654 159.417 104.267 158.287 104.473C157.157 104.679 154.184 105.497 154.49 106.115C154.797 106.733 155.517 108.575 155.517 108.575C156.395 107.832 157.32 107.146 158.287 106.524C159.623 105.703 160.444 106.012 159.726 106.933C159.008 107.855 156.954 108.884 157.365 110.114C157.777 111.345 160.248 112.886 160.248 112.886C160.248 112.886 160.555 110.32 161.275 109.499C161.996 108.678 161.993 109.602 161.787 111.038C161.684 111.65 161.616 112.267 161.582 112.886L164.454 113.911C164.924 113.196 165.438 112.51 165.993 111.859L166.521 111.347C166.521 111.347 164.264 109.396 164.161 108.179C164.058 106.962 165.7 108.179 166.212 108.385C166.724 108.591 167.545 110.025 167.545 110.025C167.545 110.025 168.06 107.667 168.163 106.857L168.266 106.036C168.266 106.036 166.109 105.215 165.288 105.215C164.467 105.215 164.058 105.83 164.058 105.009C164.058 104.188 164.879 103.675 165.803 103.778C166.639 103.917 167.463 104.123 168.266 104.394C168.266 104.394 168.881 103.879 168.675 102.34C168.469 100.8 167.957 100.8 166.727 101.212C165.497 101.624 164.673 102.532 163.749 102.532C162.825 102.532 163.34 101.405 163.955 101.096C164.57 100.787 166.109 100.172 166.418 100.069C166.727 99.9662 164.776 98.5301 163.749 98.3268C162.722 98.1235 161.394 98.8548 161.492 99.8659C161.687 102.01 158.609 102.432 157.788 101.495Z" fill="white"/>
<path d="M164.393 112.06C164.424 112.369 164.446 112.68 164.456 112.989" stroke="#263238" stroke-linecap="round" stroke-linejoin="round"/>
<path d="M162.33 104.694C163.232 106.727 163.881 108.863 164.263 111.054" stroke="#263238" stroke-linecap="round" stroke-linejoin="round"/>
<path d="M161.961 103.871C161.454 102.778 161.071 102.113 161.071 102.113C161.626 101.845 162.087 101.415 162.391 100.88C162.632 100.394 162.984 99.9727 163.418 99.6494" stroke="#263238" stroke-linecap="round" stroke-linejoin="round"/>
<path d="M157.478 105.6C157.478 105.6 161.174 104.061 161.174 104.37" stroke="#263238" stroke-linecap="round" stroke-linejoin="round"/>
<path d="M163.226 103.652C163.226 103.652 164.868 102.831 166.304 102.831" stroke="#263238" stroke-linecap="round" stroke-linejoin="round"/>
<path d="M162.623 106.128C161.912 106.713 161.258 107.365 160.672 108.076C160.073 108.783 159.589 109.58 159.236 110.436" stroke="#263238" stroke-linecap="round" stroke-linejoin="round"/>
<path d="M163.737 106.524C163.737 106.524 165.894 105.909 167.021 106.933" stroke="#263238" stroke-linecap="round" stroke-linejoin="round"/>
<path d="M167.639 92.664C166.522 92.004 165.287 91.9882 164.679 91.2912C164.072 90.5942 165.263 90.2352 165.899 90.4992C166.535 90.7632 168.011 91.5209 168.288 91.6872C168.565 91.8535 168.375 89.4379 167.858 88.5192C167.34 87.6005 165.923 87.0804 165.218 87.8222C163.726 89.3904 161.398 87.3338 161.556 86.1089C161.715 84.8839 160.572 83.5666 158.124 84.3401C155.677 85.1136 156.585 85.5386 156.585 85.5386C156.585 85.5386 158.328 86.6078 159.447 87.2705C160.566 87.9331 162.414 88.4981 162.016 88.9786C161.617 89.459 160.548 89.166 159.653 88.4506C158.758 87.7351 156.189 86.0244 155.925 86.6606C155.661 87.2969 154.737 89.0366 154.737 89.0366C155.874 89.211 156.999 89.4605 158.103 89.7838C159.597 90.251 159.904 91.0721 158.737 91.1354C157.57 91.1988 155.447 90.3223 154.777 91.439C154.106 92.5558 154.568 95.4254 154.568 95.4254C154.568 95.4254 156.707 93.9761 157.797 93.9814C158.887 93.9866 158.19 94.5912 156.971 95.3779C156.442 95.7019 155.932 96.0544 155.442 96.4339L156.551 99.2772C157.399 99.1623 158.253 99.1014 159.109 99.095L159.832 99.1452C159.832 99.1452 159.832 96.162 160.688 95.2776C161.543 94.3932 161.696 96.4392 161.878 96.9619C162.061 97.4846 161.514 99.0449 161.514 99.0449C161.514 99.0449 163.626 97.8859 164.318 97.4266L165.007 96.9646C165.007 96.9646 164.215 94.7998 163.687 94.1794C163.159 93.559 162.417 93.6514 163.035 93.1234C163.652 92.5954 164.582 92.8594 165.11 93.6329C165.552 94.3555 165.936 95.112 166.258 95.8954C166.258 95.8954 167.05 96.0247 168.077 94.8605C169.104 93.6962 168.758 93.3214 167.639 92.664ZM157.929 95.9482C157.108 95.539 159.056 94.7179 159.056 94.7179C159.777 94.6097 158.75 96.36 157.932 95.9429L157.929 95.9482ZM159.31 92.1175C158.961 91.9433 160.009 91.5895 160.009 91.5895C161.53 91.872 159.663 92.2891 159.312 92.1122L159.31 92.1175Z" fill="white"/>
<path d="M157.908 98.0337C157.695 98.2607 157.476 98.4798 157.251 98.691" stroke="#263238" stroke-linecap="round" stroke-linejoin="round"/>
<path d="M162.12 91.6476C161.177 93.6617 159.99 95.5521 158.585 97.2761" stroke="#263238" stroke-linecap="round" stroke-linejoin="round"/>
<path d="M162.5 90.8292C162.994 89.7283 163.244 89.0023 163.244 89.0023C163.812 89.2526 164.442 89.3227 165.05 89.203C165.574 89.0661 166.124 89.0552 166.653 89.1713" stroke="#263238" stroke-linecap="round" stroke-linejoin="round"/>
<path d="M161.607 90.552C161.839 90.3513 158.257 88.5693 158.257 88.5693" stroke="#263238" stroke-linecap="round" stroke-linejoin="round"/>
<path d="M163.495 91.6396C163.495 91.6396 165.193 92.3419 166.135 93.4269" stroke="#263238" stroke-linecap="round" stroke-linejoin="round"/>
<path d="M161.232 92.7881C160.324 92.6358 159.403 92.5713 158.482 92.5954C157.556 92.6057 156.637 92.7616 155.76 93.0574" stroke="#263238" stroke-linecap="round" stroke-linejoin="round"/>
<path d="M161.663 93.91C161.663 93.91 163.54 95.135 163.511 96.6582" stroke="#263238" stroke-linecap="round" stroke-linejoin="round"/>
<path d="M151.696 106.878C150.799 106.35 149.803 106.334 149.32 105.772C148.837 105.209 149.788 104.927 150.3 105.141C150.812 105.355 151.997 105.962 152.224 106.094C152.451 106.226 152.293 104.285 151.876 103.554C151.459 102.823 150.318 102.395 149.764 102.994C148.563 104.254 146.688 102.601 146.817 101.614C146.947 100.626 146.025 99.5676 144.048 100.191C142.071 100.814 142.81 101.157 142.81 101.157C142.81 101.157 144.212 102.018 145.112 102.548C146.012 103.079 147.488 103.536 147.179 103.924C146.87 104.312 145.999 104.074 145.278 103.496C144.558 102.918 142.491 101.542 142.277 102.055C142.063 102.567 141.324 103.979 141.324 103.979C142.239 104.119 143.144 104.319 144.032 104.578C145.233 104.956 145.479 105.619 144.539 105.669C143.599 105.719 141.899 105.014 141.371 105.912C140.843 106.809 141.205 109.119 141.205 109.119C141.205 109.119 142.926 107.955 143.803 107.958C144.679 107.96 144.119 108.449 143.14 109.082C142.714 109.342 142.302 109.625 141.907 109.93L142.799 112.219C143.482 112.126 144.17 112.076 144.859 112.071L145.442 112.113C145.442 112.113 145.442 109.711 146.131 109C146.82 108.29 146.942 109.935 147.087 110.355C147.232 110.774 146.794 112.031 146.794 112.031C146.794 112.031 148.499 111.099 149.051 110.727L149.605 110.357C149.605 110.357 148.966 108.615 148.534 108.116C148.101 107.617 147.509 107.691 148.006 107.258C148.502 106.825 149.249 107.055 149.674 107.67C150.03 108.252 150.34 108.861 150.601 109.491C150.601 109.491 151.237 109.594 152.063 108.657C152.89 107.72 152.591 107.408 151.696 106.878ZM143.882 109.518C143.222 109.188 144.79 108.528 144.79 108.528C145.368 108.446 144.542 109.85 143.879 109.52L143.882 109.518ZM144.996 106.434C144.713 106.294 145.558 106.012 145.558 106.012C146.783 106.249 145.276 106.579 144.996 106.437V106.434Z" fill="white"/>
<path d="M143.88 111.202C143.708 111.384 143.531 111.561 143.352 111.73" stroke="#263238" stroke-linecap="round" stroke-linejoin="round"/>
<path d="M147.253 106.065C146.493 107.684 145.537 109.205 144.407 110.592" stroke="#263238" stroke-linecap="round" stroke-linejoin="round"/>
<path d="M147.56 105.405C147.956 104.52 148.159 103.934 148.159 103.934C148.615 104.135 149.122 104.192 149.611 104.095C150.032 103.985 150.474 103.976 150.899 104.069" stroke="#263238" stroke-linecap="round" stroke-linejoin="round"/>
<path d="M144.143 103.594C144.143 103.594 147.028 105.027 146.841 105.178" stroke="#263238" stroke-linecap="round" stroke-linejoin="round"/>
<path d="M148.367 106.057C148.367 106.057 149.732 106.622 150.479 107.493" stroke="#263238" stroke-linecap="round" stroke-linejoin="round"/>
<path d="M146.538 106.981C145.808 106.857 145.067 106.805 144.326 106.825C143.581 106.834 142.841 106.959 142.135 107.197" stroke="#263238" stroke-linecap="round" stroke-linejoin="round"/>
<path d="M146.884 107.884C146.884 107.884 148.397 108.868 148.367 110.096" stroke="#263238" stroke-linecap="round" stroke-linejoin="round"/>
<path d="M148.032 89.9342C148.032 89.9342 146.902 90.7553 146.184 89.9342C145.466 89.1132 146.493 87.4711 145.464 86.856C144.434 86.2409 142.797 87.3682 142.797 87.3682C142.797 87.3682 144.13 87.677 144.13 88.3951C144.13 89.1132 143.515 89.4194 143.412 89.1132C143.309 88.807 142.591 87.2652 141.564 87.9833C141.268 88.1828 141.016 88.4403 140.822 88.7403C140.628 89.0402 140.497 89.3763 140.437 89.7283C140.437 89.7283 142.897 89.3165 143.103 90.2405C143.309 91.1645 142.076 90.1375 141.052 90.1375C140.028 90.1375 139.101 90.3435 139.204 90.9586C139.26 91.5045 139.26 92.0547 139.204 92.6006C139.736 92.103 140.428 91.8118 141.155 91.7796C142.282 91.7796 142.282 92.4977 141.258 92.4977C140.234 92.4977 139.41 93.5246 139.41 93.5246C139.41 93.5246 140.437 95.0638 141.667 95.7818C142.897 96.4999 143.309 96.1937 143.412 95.5759C143.515 94.9582 143.103 93.4217 143.821 93.4217C144.54 93.4217 142.797 96.1937 143.719 96.294C144.64 96.3943 145.361 96.0907 145.567 95.473L145.772 94.8578C145.772 94.8578 145.361 93.3187 145.464 92.7036C145.567 92.0885 145.772 92.7036 145.976 93.4217C146.179 94.1398 146.388 95.8848 146.694 95.7818C147 95.6789 147.927 94.3457 148.133 93.8335C148.339 93.3214 146.694 91.8826 146.694 91.5763C146.694 91.2701 147.927 91.7796 148.133 92.0885C148.281 92.3207 148.418 92.5604 148.542 92.8066C148.542 92.8066 149.26 92.2944 149.157 90.8556C149.054 89.4168 148.032 89.9342 148.032 89.9342Z" fill="white"/>
<path d="M142.295 93.654C143.005 92.664 144.056 91.3176 144.967 90.6523" stroke="#263238" stroke-linecap="round" stroke-linejoin="round"/>
<path d="M141.464 94.8578C141.464 94.8578 141.646 94.5727 141.939 94.145" stroke="#263238" stroke-linecap="round" stroke-linejoin="round"/>
<path d="M145.464 90.8556C145.464 90.8556 146.694 92.3947 147.003 94.0368" stroke="#263238" stroke-linecap="round" stroke-linejoin="round"/>
<path d="M144.236 91.872C144.236 91.872 144.543 91.666 144.543 93.72" stroke="#263238" stroke-linecap="round" stroke-linejoin="round"/>
<path d="M144.954 89.9342C144.954 89.9342 145.569 89.3165 145.157 88.1892" stroke="#263238" stroke-linecap="round" stroke-linejoin="round"/>
<path d="M144.133 90.9585L143.618 90.1375" stroke="#263238" stroke-linecap="round" stroke-linejoin="round"/>
<path d="M143.209 91.8719C143.209 91.8719 141.67 90.845 140.746 90.845" stroke="#263238" stroke-linecap="round" stroke-linejoin="round"/>
<path d="M158.394 112.921H150.461V124.339H158.394V112.921Z" fill="#263238" stroke="#263238" stroke-width="2" stroke-linecap="round" stroke-linejoin="round"/>
<path d="M86.9397 25.1802C86.9397 25.1802 87.035 21.8063 86.9159 18.9049C86.7968 16.0035 87.0377 9.78369 87.0377 9.78369" stroke="#263238" stroke-miterlimit="10"/>
<path d="M86.9824 13.4428L85.665 12.4053" stroke="#263238" stroke-miterlimit="10"/>
<path d="M86.9658 14.1556L87.4357 13.3979" stroke="#263238" stroke-miterlimit="10"/>
<path d="M86.8613 17.1574L88.0309 16.1885" stroke="#263238" stroke-miterlimit="10"/>
<path d="M87.0367 11.0589L86.4189 10.4966" stroke="#263238" stroke-miterlimit="10"/>
<path d="M86.8497 17.6827L86.0762 16.8538" stroke="#263238" stroke-miterlimit="10"/>
<path d="M86.9164 20.9404L85.3086 19.4725" stroke="#263238" stroke-miterlimit="10"/>
<path d="M86.958 22.7488C87.3677 22.5899 87.7664 22.4038 88.1513 22.1918" stroke="#263238" stroke-miterlimit="10"/>
<path d="M86.0632 13.9629C85.4164 13.4639 83.2463 13.5511 82.8292 14.5886C82.412 15.6261 83.74 17.3183 85.0072 17.1995C85.5061 17.152 85.7226 17.1177 85.918 16.8379L84.136 15.0955L86.0658 16.6478C86.12 16.5467 86.1642 16.4406 86.1978 16.331C86.2189 16.2544 86.2401 16.1699 86.2559 16.0828C86.3905 15.4624 86.673 14.4302 86.0632 13.9629Z" fill="white"/>
<path d="M90.2639 12.759V12.796C90.0896 13.5695 89.2079 14.0078 88.4608 13.9418C88.3572 13.933 88.2546 13.9144 88.1545 13.8863C87.9799 14.1627 87.8719 14.4759 87.8389 14.8011C87.8059 15.1264 87.8489 15.4549 87.9644 15.7607C87.9956 15.8481 88.0373 15.9315 88.0885 16.0089C88.3076 15.8294 90.652 13.8282 90.652 13.8282L88.2179 16.1726C88.9518 16.9646 90.6731 16.851 91.2724 15.3964C91.8717 13.9418 91.1087 12.9676 90.2639 12.759Z" fill="white"/>
<path d="M89.0705 10.053C87.8086 9.78899 86.6787 10.3487 86.6945 11.666C86.7015 11.9565 86.7679 12.2424 86.8895 12.5062C87.0112 12.77 87.1856 13.006 87.402 13.1999L88.7035 11.4258L87.6106 13.3609C87.8555 13.5279 88.139 13.6297 88.4343 13.6566C89.1787 13.72 90.0631 13.2817 90.2374 12.5082C90.4195 11.6449 90.3324 10.3302 89.0705 10.053Z" fill="white"/>
<path d="M87.5965 5.47266C87.5965 5.47266 87.4671 5.51226 86.6593 5.90562C86.1863 6.1664 85.8358 6.60383 85.6844 7.12228C85.5331 7.64073 85.5931 8.19802 85.8514 8.67234C86.0752 9.11548 86.4623 9.45436 86.9312 9.61746L87.2559 6.4785L87.1186 9.6597C87.1801 9.66602 87.242 9.66602 87.3034 9.6597C87.8314 9.6069 88.6578 8.97858 88.737 7.6929C88.8162 6.40722 87.5965 5.47266 87.5965 5.47266Z" fill="white"/>
<path d="M83.9092 8.32651L86.346 10.2748C86.37 10.189 86.3781 10.0995 86.3697 10.0108C86.2562 8.89675 85.1448 8.24995 84.4108 8.01763C83.6769 7.78531 83.1674 8.19979 83.6399 9.26635C84.1125 10.3329 85.3507 10.8504 85.9025 10.6893C86.0336 10.657 86.1516 10.5851 86.2404 10.4834L83.9092 8.32651Z" fill="white"/>
<path d="M85.5857 10.8239C85.2121 10.797 84.8495 10.6855 84.5252 10.498C84.201 10.3105 83.9236 10.0519 83.7139 9.74151C83.4551 9.71696 83.1969 9.79463 82.9947 9.95793C82.7924 10.1212 82.662 10.3572 82.6315 10.6154C82.3833 11.777 83.2228 12.9914 84.4346 12.8435C84.8152 12.8237 85.1763 12.6693 85.4537 12.4079L83.2888 10.4306L85.6068 12.1967C85.6522 12.1152 85.6809 12.0255 85.6913 11.9327C85.7661 11.5608 85.7294 11.175 85.5857 10.8239Z" fill="white"/>
<path d="M85.5722 17.284C85.3754 17.3683 85.1656 17.4183 84.9518 17.4319C84.1598 17.5058 83.352 16.8854 82.9507 16.1567C82.715 16.1727 82.4915 16.2672 82.3159 16.4251C82.1402 16.583 82.0226 16.7953 81.9818 17.0279C81.7416 18.3875 83.0009 20.1801 84.2733 19.895C84.6042 19.8306 84.9105 19.6752 85.1578 19.4462L82.3805 16.7745L85.3188 19.2719C85.4868 19.0565 85.5951 18.8006 85.6329 18.5301C85.7721 18.1222 85.7504 17.6765 85.5722 17.284Z" fill="white"/>
<path d="M91.1606 20.064C90.2261 18.9816 89.1146 19.9505 89.1146 19.9505C89.1146 19.9505 88.4335 20.1749 88.1748 21.1411C88.0956 21.4343 88.1075 21.7446 88.2091 22.0308L91.0181 20.394L88.2778 22.1839C88.5418 22.6697 89.0909 22.9759 89.8618 22.7515C91.092 22.4136 92.0926 21.1543 91.1606 20.064Z" fill="white"/>
<path d="M88.8321 24.1613H84.9434V29.9191H88.8321V24.1613Z" fill="#263238"/>
<path d="M131.755 29.8716H80.4648V124.708H131.755V29.8716Z" fill="white" stroke="#263238" stroke-miterlimit="10"/>
<path d="M124.521 31.0728H81.5312V123.264H124.521V31.0728Z" fill="#263238" stroke="#263238" stroke-linecap="round" stroke-linejoin="round"/>
<path d="M124.521 45.371H81.5312V46.7306H124.521V45.371Z" fill="white" stroke="#263238" stroke-miterlimit="10"/>
<path d="M124.521 61.0896H81.5312V62.4492H124.521V61.0896Z" fill="white" stroke="#263238" stroke-miterlimit="10"/>
<path d="M110.666 31.0886H109.753V45.3684H110.666V31.0886Z" fill="white" stroke="#263238" stroke-miterlimit="10"/>
<path d="M96.0511 31.0886H95.1377V45.3684H96.0511V31.0886Z" fill="white" stroke="#263238" stroke-miterlimit="10"/>
<path d="M110.666 62.465H109.753V76.7447H110.666V62.465Z" fill="white" stroke="#263238" stroke-miterlimit="10"/>
<path d="M96.0511 62.465H95.1377V76.7447H96.0511V62.465Z" fill="white" stroke="#263238" stroke-miterlimit="10"/>
<path d="M103.287 46.8071H102.374V61.0869H103.287V46.8071Z" fill="white" stroke="#263238" stroke-miterlimit="10"/>
<path d="M124.521 76.7473H81.5312V78.1069H124.521V76.7473Z" fill="white" stroke="#263238" stroke-miterlimit="10"/>
<path d="M124.521 92.4132H81.5312V123.745H124.521V92.4132Z" fill="white" stroke="#263238" stroke-miterlimit="10"/>
<path d="M103.287 78.1307H102.374V92.4105H103.287V78.1307Z" fill="white" stroke="#263238" stroke-miterlimit="10"/>
<path d="M125.575 29.8636V124.687L131.758 124.708V29.8636H125.575Z" fill="#263238" stroke="#263238" stroke-linecap="round" stroke-linejoin="round"/>
<path d="M113.507 32.1974H111.3V45.3367H113.507V32.1974Z" fill="white" stroke="#263238" stroke-miterlimit="10"/>
<path d="M113.507 42.5145H111.3V43.5917H113.507V42.5145Z" fill="white" stroke="#263238" stroke-miterlimit="10"/>
<path d="M113.507 33.5306H111.3V34.6078H113.507V33.5306Z" fill="white" stroke="#263238" stroke-miterlimit="10"/>
<path d="M115.764 32.1974H113.557V45.3367H115.764V32.1974Z" fill="white" stroke="#263238" stroke-miterlimit="10"/>
<path d="M115.764 42.5145H113.557V43.5917H115.764V42.5145Z" fill="white" stroke="#263238" stroke-miterlimit="10"/>
<path d="M115.764 33.5306H113.557V34.6078H115.764V33.5306Z" fill="white" stroke="#263238" stroke-miterlimit="10"/>
<path d="M118.024 32.1974H115.817V45.3367H118.024V32.1974Z" fill="white" stroke="#263238" stroke-miterlimit="10"/>
<path d="M118.024 42.5145H115.817V43.5917H118.024V42.5145Z" fill="white" stroke="#263238" stroke-miterlimit="10"/>
<path d="M118.024 33.5306H115.817V34.6078H118.024V33.5306Z" fill="white" stroke="#263238" stroke-miterlimit="10"/>
<path d="M120.281 32.1974H118.074V45.3367H120.281V32.1974Z" fill="white" stroke="#263238" stroke-miterlimit="10"/>
<path d="M123.959 32.1974H120.263V45.3367H123.959V32.1974Z" fill="white" stroke="#263238" stroke-miterlimit="10"/>
<path d="M120.281 42.5145H118.074V43.5917H120.281V42.5145Z" fill="white" stroke="#263238" stroke-miterlimit="10"/>
<path d="M120.281 33.5306H118.074V34.6078H120.281V33.5306Z" fill="white" stroke="#263238" stroke-miterlimit="10"/>
<path d="M98.7412 32.1974H96.5342V45.3367H98.7412V32.1974Z" fill="white" stroke="#263238" stroke-miterlimit="10"/>
<path d="M98.7412 42.5145H96.5342V43.5917H98.7412V42.5145Z" fill="white" stroke="#263238" stroke-miterlimit="10"/>
<path d="M98.7412 33.5306H96.5342V34.6078H98.7412V33.5306Z" fill="white" stroke="#263238" stroke-miterlimit="10"/>
<path d="M100.999 32.1974H98.792V45.3367H100.999V32.1974Z" fill="white" stroke="#263238" stroke-miterlimit="10"/>
<path d="M100.999 42.5145H98.792V43.5917H100.999V42.5145Z" fill="white" stroke="#263238" stroke-miterlimit="10"/>
<path d="M100.999 33.5306H98.792V34.6078H100.999V33.5306Z" fill="white" stroke="#263238" stroke-miterlimit="10"/>
<path d="M103.259 32.1974H101.052V45.3367H103.259V32.1974Z" fill="white" stroke="#263238" stroke-miterlimit="10"/>
<path d="M103.259 42.5145H101.052V43.5917H103.259V42.5145Z" fill="white" stroke="#263238" stroke-miterlimit="10"/>
<path d="M103.259 33.5306H101.052V34.6078H103.259V33.5306Z" fill="white" stroke="#263238" stroke-miterlimit="10"/>
<path d="M105.516 32.1974H103.309V45.3367H105.516V32.1974Z" fill="white" stroke="#263238" stroke-miterlimit="10"/>
<path d="M109.194 32.1974H105.498V45.3367H109.194V32.1974Z" fill="white" stroke="#263238" stroke-miterlimit="10"/>
<path d="M105.516 42.5145H103.309V43.5917H105.516V42.5145Z" fill="white" stroke="#263238" stroke-miterlimit="10"/>
<path d="M105.516 33.5306H103.309V34.6078H105.516V33.5306Z" fill="white" stroke="#263238" stroke-miterlimit="10"/>
<path d="M98.7412 63.6213H96.5342V76.7606H98.7412V63.6213Z" fill="white" stroke="#263238" stroke-miterlimit="10"/>
<path d="M98.7412 73.9385H96.5342V75.0156H98.7412V73.9385Z" fill="white" stroke="#263238" stroke-miterlimit="10"/>
<path d="M98.7412 64.9572H96.5342V66.0343H98.7412V64.9572Z" fill="white" stroke="#263238" stroke-miterlimit="10"/>
<path d="M100.999 63.6213H98.792V76.7606H100.999V63.6213Z" fill="white" stroke="#263238" stroke-miterlimit="10"/>
<path d="M100.999 73.9385H98.792V75.0156H100.999V73.9385Z" fill="white" stroke="#263238" stroke-miterlimit="10"/>
<path d="M100.999 64.9572H98.792V66.0343H100.999V64.9572Z" fill="white" stroke="#263238" stroke-miterlimit="10"/>
<path d="M103.259 63.6213H101.052V76.7606H103.259V63.6213Z" fill="white" stroke="#263238" stroke-miterlimit="10"/>
<path d="M103.259 73.9385H101.052V75.0156H103.259V73.9385Z" fill="white" stroke="#263238" stroke-miterlimit="10"/>
<path d="M103.259 64.9572H101.052V66.0343H103.259V64.9572Z" fill="white" stroke="#263238" stroke-miterlimit="10"/>
<path d="M105.516 63.6213H103.309V76.7606H105.516V63.6213Z" fill="white" stroke="#263238" stroke-miterlimit="10"/>
<path d="M109.194 63.6213H105.498V76.7606H109.194V63.6213Z" fill="white" stroke="#263238" stroke-miterlimit="10"/>
<path d="M105.516 73.9385H103.309V75.0156H105.516V73.9385Z" fill="white" stroke="#263238" stroke-miterlimit="10"/>
<path d="M105.516 64.9572H103.309V66.0343H105.516V64.9572Z" fill="white" stroke="#263238" stroke-miterlimit="10"/>
<path d="M113.317 63.6213H111.11V76.7606H113.317V63.6213Z" fill="white" stroke="#263238" stroke-miterlimit="10"/>
<path d="M113.317 73.9385H111.11V75.0156H113.317V73.9385Z" fill="white" stroke="#263238" stroke-miterlimit="10"/>
<path d="M113.317 64.9572H111.11V66.0343H113.317V64.9572Z" fill="white" stroke="#263238" stroke-miterlimit="10"/>
<path d="M115.577 63.6213H113.37V76.7606H115.577V63.6213Z" fill="white" stroke="#263238" stroke-miterlimit="10"/>
<path d="M115.577 73.9385H113.37V75.0156H115.577V73.9385Z" fill="white" stroke="#263238" stroke-miterlimit="10"/>
<path d="M115.577 64.9572H113.37V66.0343H115.577V64.9572Z" fill="white" stroke="#263238" stroke-miterlimit="10"/>
<path d="M117.834 63.6213H115.627V76.7606H117.834V63.6213Z" fill="white" stroke="#263238" stroke-miterlimit="10"/>
<path d="M117.834 73.9385H115.627V75.0156H117.834V73.9385Z" fill="white" stroke="#263238" stroke-miterlimit="10"/>
<path d="M117.834 64.9572H115.627V66.0343H117.834V64.9572Z" fill="white" stroke="#263238" stroke-miterlimit="10"/>
<path d="M120.094 63.6213H117.887V76.7606H120.094V63.6213Z" fill="white" stroke="#263238" stroke-miterlimit="10"/>
<path d="M123.768 63.6213H120.072V76.7606H123.768V63.6213Z" fill="white" stroke="#263238" stroke-miterlimit="10"/>
<path d="M120.094 73.9385H117.887V75.0156H120.094V73.9385Z" fill="white" stroke="#263238" stroke-miterlimit="10"/>
<path d="M120.094 64.9572H117.887V66.0343H120.094V64.9572Z" fill="white" stroke="#263238" stroke-miterlimit="10"/>
<path d="M84.2578 63.6213H82.0508V76.7606H84.2578V63.6213Z" fill="white" stroke="#263238" stroke-miterlimit="10"/>
<path d="M84.2578 73.9385H82.0508V75.0156H84.2578V73.9385Z" fill="white" stroke="#263238" stroke-miterlimit="10"/>
<path d="M84.2578 64.9572H82.0508V66.0343H84.2578V64.9572Z" fill="white" stroke="#263238" stroke-miterlimit="10"/>
<path d="M86.5186 63.6213H84.3115V76.7606H86.5186V63.6213Z" fill="white" stroke="#263238" stroke-miterlimit="10"/>
<path d="M86.5186 73.9385H84.3115V75.0156H86.5186V73.9385Z" fill="white" stroke="#263238" stroke-miterlimit="10"/>
<path d="M86.5186 64.9572H84.3115V66.0343H86.5186V64.9572Z" fill="white" stroke="#263238" stroke-miterlimit="10"/>
<path d="M88.7764 63.6213H86.5693V76.7606H88.7764V63.6213Z" fill="white" stroke="#263238" stroke-miterlimit="10"/>
<path d="M88.7764 73.9385H86.5693V75.0156H88.7764V73.9385Z" fill="white" stroke="#263238" stroke-miterlimit="10"/>
<path d="M88.7764 64.9572H86.5693V66.0343H88.7764V64.9572Z" fill="white" stroke="#263238" stroke-miterlimit="10"/>
<path d="M91.0351 63.6213H88.8281V76.7606H91.0351V63.6213Z" fill="white" stroke="#263238" stroke-miterlimit="10"/>
<path d="M94.7106 63.6213H91.0146V76.7606H94.7106V63.6213Z" fill="white" stroke="#263238" stroke-miterlimit="10"/>
<path d="M91.0351 73.9385H88.8281V75.0156H91.0351V73.9385Z" fill="white" stroke="#263238" stroke-miterlimit="10"/>
<path d="M91.0351 64.9572H88.8281V66.0343H91.0351V64.9572Z" fill="white" stroke="#263238" stroke-miterlimit="10"/>
<path d="M83.9766 32.1974H81.7695V45.3367H83.9766V32.1974Z" fill="white" stroke="#263238" stroke-miterlimit="10"/>
<path d="M83.9766 42.5145H81.7695V43.5916H83.9766V42.5145Z" fill="white" stroke="#263238" stroke-miterlimit="10"/>
<path d="M83.9766 33.5306H81.7695V34.6078H83.9766V33.5306Z" fill="white" stroke="#263238" stroke-miterlimit="10"/>
<path d="M86.2334 32.1974H84.0264V45.3367H86.2334V32.1974Z" fill="white" stroke="#263238" stroke-miterlimit="10"/>
<path d="M86.2334 42.5145H84.0264V43.5917H86.2334V42.5145Z" fill="white" stroke="#263238" stroke-miterlimit="10"/>
<path d="M86.2334 33.5306H84.0264V34.6078H86.2334V33.5306Z" fill="white" stroke="#263238" stroke-miterlimit="10"/>
<path d="M88.4932 32.1974H86.2861V45.3367H88.4932V32.1974Z" fill="white" stroke="#263238" stroke-miterlimit="10"/>
<path d="M88.4932 42.5145H86.2861V43.5917H88.4932V42.5145Z" fill="white" stroke="#263238" stroke-miterlimit="10"/>
<path d="M88.4932 33.5306H86.2861V34.6078H88.4932V33.5306Z" fill="white" stroke="#263238" stroke-miterlimit="10"/>
<path d="M90.75 32.1974H88.543V45.3367H90.75V32.1974Z" fill="white" stroke="#263238" stroke-miterlimit="10"/>
<path d="M94.4275 32.1974H90.7314V45.3367H94.4275V32.1974Z" fill="white" stroke="#263238" stroke-miterlimit="10"/>
<path d="M90.75 42.5145H88.543V43.5917H90.75V42.5145Z" fill="white" stroke="#263238" stroke-miterlimit="10"/>
<path d="M90.75 33.5306H88.543V34.6078H90.75V33.5306Z" fill="white" stroke="#263238" stroke-miterlimit="10"/>
<path d="M90.5068 47.8552H88.2998V60.9945H90.5068V47.8552Z" fill="white" stroke="#263238" stroke-miterlimit="10"/>
<path d="M90.5068 58.1724H88.2998V59.2495H90.5068V58.1724Z" fill="white" stroke="#263238" stroke-miterlimit="10"/>
<path d="M90.5068 49.191H88.2998V50.2682H90.5068V49.191Z" fill="white" stroke="#263238" stroke-miterlimit="10"/>
<path d="M88.3291 47.8552H86.1221V60.9945H88.3291V47.8552Z" fill="white" stroke="#263238" stroke-miterlimit="10"/>
<path d="M88.3291 58.1724H86.1221V59.2495H88.3291V58.1724Z" fill="white" stroke="#263238" stroke-miterlimit="10"/>
<path d="M88.3291 49.191H86.1221V50.2682H88.3291V49.191Z" fill="white" stroke="#263238" stroke-miterlimit="10"/>
<path d="M86.1514 47.8552H83.9443V60.9945H86.1514V47.8552Z" fill="white" stroke="#263238" stroke-miterlimit="10"/>
<path d="M86.1514 58.1724H83.9443V59.2495H86.1514V58.1724Z" fill="white" stroke="#263238" stroke-miterlimit="10"/>
<path d="M86.1514 49.191H83.9443V50.2682H86.1514V49.191Z" fill="white" stroke="#263238" stroke-miterlimit="10"/>
<path d="M83.9766 47.8552H81.7695V60.9945H83.9766V47.8552Z" fill="white" stroke="#263238" stroke-miterlimit="10"/>
<path d="M83.9766 58.1724H81.7695V59.2495H83.9766V58.1724Z" fill="white" stroke="#263238" stroke-miterlimit="10"/>
<path d="M83.9766 49.191H81.7695V50.2682H83.9766V49.191Z" fill="white" stroke="#263238" stroke-miterlimit="10"/>
<path d="M92.7646 47.8552H90.5576V60.9945H92.7646V47.8552Z" fill="white" stroke="#263238" stroke-miterlimit="10"/>
<path d="M92.7646 58.1724H90.5576V59.2495H92.7646V58.1724Z" fill="white" stroke="#263238" stroke-miterlimit="10"/>
<path d="M92.7646 49.191H90.5576V50.2682H92.7646V49.191Z" fill="white" stroke="#263238" stroke-miterlimit="10"/>
<path d="M95.0215 47.8552H92.8145V60.9945H95.0215V47.8552Z" fill="white" stroke="#263238" stroke-miterlimit="10"/>
<path d="M95.0215 58.1724H92.8145V59.2495H95.0215V58.1724Z" fill="white" stroke="#263238" stroke-miterlimit="10"/>
<path d="M95.0215 49.191H92.8145V50.2682H95.0215V49.191Z" fill="white" stroke="#263238" stroke-miterlimit="10"/>
<path d="M97.2813 47.8552H95.0742V60.9945H97.2813V47.8552Z" fill="white" stroke="#263238" stroke-miterlimit="10"/>
<path d="M100.959 47.8552H97.2627V60.9945H100.959V47.8552Z" fill="white" stroke="#263238" stroke-miterlimit="10"/>
<path d="M97.2813 58.1724H95.0742V59.2495H97.2813V58.1724Z" fill="white" stroke="#263238" stroke-miterlimit="10"/>
<path d="M97.2813 49.191H95.0742V50.2682H97.2813V49.191Z" fill="white" stroke="#263238" stroke-miterlimit="10"/>
<path d="M106.2 47.8552H103.993V60.9945H106.2V47.8552Z" fill="white" stroke="#263238" stroke-miterlimit="10"/>
<path d="M106.2 58.1724H103.993V59.2495H106.2V58.1724Z" fill="white" stroke="#263238" stroke-miterlimit="10"/>
<path d="M106.2 49.191H103.993V50.2682H106.2V49.191Z" fill="white" stroke="#263238" stroke-miterlimit="10"/>
<path d="M108.459 47.8552H106.252V60.9945H108.459V47.8552Z" fill="white" stroke="#263238" stroke-miterlimit="10"/>
<path d="M108.459 58.1724H106.252V59.2495H108.459V58.1724Z" fill="white" stroke="#263238" stroke-miterlimit="10"/>
<path d="M108.459 49.191H106.252V50.2682H108.459V49.191Z" fill="white" stroke="#263238" stroke-miterlimit="10"/>
<path d="M112.977 47.8521L110.92 48.7208L116.094 60.9762L118.152 60.1075L112.977 47.8521Z" fill="white" stroke="#263238" stroke-miterlimit="10"/>
<path d="M117.042 57.474L114.984 58.3428L115.408 59.3472L117.466 58.4785L117.042 57.474Z" fill="white" stroke="#263238" stroke-miterlimit="10"/>
<path d="M113.505 49.0975L111.447 49.9662L111.871 50.9707L113.929 50.1019L113.505 49.0975Z" fill="white" stroke="#263238" stroke-miterlimit="10"/>
<path d="M116.097 60.9708H120.703L122.776 60.1076L118.153 60.1023L116.097 60.9708Z" fill="white" stroke="#263238" stroke-miterlimit="10"/>
<path d="M112.979 47.8473H117.306L122.777 60.1074L118.154 60.1022L112.979 47.8473Z" fill="white" stroke="#263238" stroke-miterlimit="10"/>
<path d="M110.638 47.8552H108.431V60.9945H110.638V47.8552Z" fill="white" stroke="#263238" stroke-miterlimit="10"/>
<path d="M110.638 58.1724H108.431V59.2495H110.638V58.1724Z" fill="white" stroke="#263238" stroke-miterlimit="10"/>
<path d="M110.638 49.191H108.431V50.2682H110.638V49.191Z" fill="white" stroke="#263238" stroke-miterlimit="10"/>
<path d="M110.638 47.8552H112.979L110.92 48.7159L116.097 60.9707H110.638V47.8552Z" fill="white" stroke="#263238" stroke-miterlimit="10"/>
<path d="M90.5068 79.2238H88.2998V92.363H90.5068V79.2238Z" fill="white" stroke="#263238" stroke-miterlimit="10"/>
<path d="M90.5068 89.5409H88.2998V90.618H90.5068V89.5409Z" fill="white" stroke="#263238" stroke-miterlimit="10"/>
<path d="M90.5068 80.5569H88.2998V81.634H90.5068V80.5569Z" fill="white" stroke="#263238" stroke-miterlimit="10"/>
<path d="M88.3291 79.2238H86.1221V92.363H88.3291V79.2238Z" fill="white" stroke="#263238" stroke-miterlimit="10"/>
<path d="M88.3291 89.5409H86.1221V90.618H88.3291V89.5409Z" fill="white" stroke="#263238" stroke-miterlimit="10"/>
<path d="M88.3291 80.5569H86.1221V81.634H88.3291V80.5569Z" fill="white" stroke="#263238" stroke-miterlimit="10"/>
<path d="M86.1514 79.2238H83.9443V92.363H86.1514V79.2238Z" fill="white" stroke="#263238" stroke-miterlimit="10"/>
<path d="M86.1514 89.5409H83.9443V90.618H86.1514V89.5409Z" fill="white" stroke="#263238" stroke-miterlimit="10"/>
<path d="M86.1514 80.5569H83.9443V81.634H86.1514V80.5569Z" fill="white" stroke="#263238" stroke-miterlimit="10"/>
<path d="M83.9766 79.2238H81.7695V92.363H83.9766V79.2238Z" fill="white" stroke="#263238" stroke-miterlimit="10"/>
<path d="M83.9766 89.5409H81.7695V90.618H83.9766V89.5409Z" fill="white" stroke="#263238" stroke-miterlimit="10"/>
<path d="M83.9766 80.5569H81.7695V81.634H83.9766V80.5569Z" fill="white" stroke="#263238" stroke-miterlimit="10"/>
<path d="M92.7646 79.2238H90.5576V92.363H92.7646V79.2238Z" fill="white" stroke="#263238" stroke-miterlimit="10"/>
<path d="M92.7646 89.5409H90.5576V90.618H92.7646V89.5409Z" fill="white" stroke="#263238" stroke-miterlimit="10"/>
<path d="M92.7646 80.5569H90.5576V81.634H92.7646V80.5569Z" fill="white" stroke="#263238" stroke-miterlimit="10"/>
<path d="M95.0215 79.2238H92.8145V92.363H95.0215V79.2238Z" fill="white" stroke="#263238" stroke-miterlimit="10"/>
<path d="M95.0215 89.5409H92.8145V90.618H95.0215V89.5409Z" fill="white" stroke="#263238" stroke-miterlimit="10"/>
<path d="M95.0215 80.5569H92.8145V81.634H95.0215V80.5569Z" fill="white" stroke="#263238" stroke-miterlimit="10"/>
<path d="M97.2813 79.2238H95.0742V92.363H97.2813V79.2238Z" fill="white" stroke="#263238" stroke-miterlimit="10"/>
<path d="M100.959 79.2238H97.2627V92.363H100.959V79.2238Z" fill="white" stroke="#263238" stroke-miterlimit="10"/>
<path d="M97.2813 89.5409H95.0742V90.618H97.2813V89.5409Z" fill="white" stroke="#263238" stroke-miterlimit="10"/>
<path d="M97.2813 80.5569H95.0742V81.634H97.2813V80.5569Z" fill="white" stroke="#263238" stroke-miterlimit="10"/>
<path d="M106.2 79.2238H103.993V92.363H106.2V79.2238Z" fill="white" stroke="#263238" stroke-miterlimit="10"/>
<path d="M106.2 89.5409H103.993V90.618H106.2V89.5409Z" fill="white" stroke="#263238" stroke-miterlimit="10"/>
<path d="M106.2 80.5569H103.993V81.634H106.2V80.5569Z" fill="white" stroke="#263238" stroke-miterlimit="10"/>
<path d="M108.459 79.2238H106.252V92.363H108.459V79.2238Z" fill="white" stroke="#263238" stroke-miterlimit="10"/>
<path d="M108.459 89.5409H106.252V90.618H108.459V89.5409Z" fill="white" stroke="#263238" stroke-miterlimit="10"/>
<path d="M108.459 80.5569H106.252V81.634H108.459V80.5569Z" fill="white" stroke="#263238" stroke-miterlimit="10"/>
<path d="M112.977 79.2189L110.919 80.0876L116.093 92.3431L118.151 91.4743L112.977 79.2189Z" fill="white" stroke="#263238" stroke-miterlimit="10"/>
<path d="M116.987 88.6075L114.933 89.4785L115.358 90.4816L117.413 89.6106L116.987 88.6075Z" fill="white" stroke="#263238" stroke-width="0.99925" stroke-miterlimit="10"/>
<path d="M113.503 80.4644L111.445 81.3331L111.869 82.3376L113.927 81.4689L113.503 80.4644Z" fill="white" stroke="#263238" stroke-miterlimit="10"/>
<path d="M116.097 92.3392H120.703L122.776 91.4759L118.153 91.468L116.097 92.3392Z" fill="white" stroke="#263238" stroke-miterlimit="10"/>
<path d="M112.979 79.2131H117.306L122.777 91.4759L118.154 91.468L112.979 79.2131Z" fill="white" stroke="#263238" stroke-miterlimit="10"/>
<path d="M110.638 79.2238H108.431V92.363H110.638V79.2238Z" fill="white" stroke="#263238" stroke-miterlimit="10"/>
<path d="M110.638 89.5409H108.431V90.618H110.638V89.5409Z" fill="white" stroke="#263238" stroke-miterlimit="10"/>
<path d="M110.638 80.5569H108.431V81.634H110.638V80.5569Z" fill="white" stroke="#263238" stroke-miterlimit="10"/>
<path d="M110.638 79.2238H112.979L110.92 80.0818L116.097 92.3393H110.638V79.2238Z" fill="white" stroke="#263238" stroke-miterlimit="10"/>
<path d="M102.374 92.4105V123.219" stroke="#263238" stroke-miterlimit="10"/>
<path d="M81.8789 96.2253H124.51" stroke="#263238" stroke-miterlimit="10"/>
<path d="M90.6289 98.8311V104.417" stroke="#263238" stroke-width="2" stroke-miterlimit="10"/>
<path d="M92.4902 98.8311V104.417" stroke="#263238" stroke-width="2" stroke-miterlimit="10"/>
<path d="M112.039 98.8311V104.417" stroke="#263238" stroke-width="2" stroke-miterlimit="10"/>
<path d="M113.9 98.8311V104.417" stroke="#263238" stroke-width="2" stroke-miterlimit="10"/>
<path d="M136.394 30.3626V20.8903H150.169" stroke="#263238" stroke-miterlimit="10"/>
<path d="M151.183 20.8903H156.986V44.3863H136.394V31.7987" stroke="#263238" stroke-miterlimit="10"/>
<path d="M149.494 41.2182H139.169V24.0582H154.209V41.2182H150.677" stroke="#263238" stroke-miterlimit="10"/>
<path d="M149.58 29.3383H143.796V35.9383H149.58V29.3383Z" stroke="#263238" stroke-miterlimit="10"/>
<path d="M158.815 41.3132V35.4049H167.409" stroke="#263238" stroke-miterlimit="10"/>
<path d="M168.04 35.4049H171.659V50.0595H158.815V42.2082" stroke="#263238" stroke-miterlimit="10"/>
<path d="M166.986 48.085H160.547V37.3798H169.927V48.085H167.722" stroke="#263238" stroke-miterlimit="10"/>
<path d="M167.041 40.6744H163.433V44.7902H167.041V40.6744Z" stroke="#263238" stroke-miterlimit="10"/>
<path d="M22.6514 124.708H171.547" stroke="#263238" stroke-linecap="round" stroke-linejoin="round"/>
<path d="M33.212 87.7483C33.212 87.7483 31.628 66.6283 32.42 64.2523C33.212 61.8763 38.096 62.0083 39.02 62.0083C39.944 62.0083 59.216 62.0083 61.988 63.3283C64.76 64.6483 65.156 97.1203 65.156 97.1203H34.532L33.212 87.7483Z" fill="#263238" stroke="#263238" stroke-miterlimit="10"/>
<path d="M66.2091 86.0322C66.2091 86.0322 63.0411 86.0322 62.4075 89.2002C61.7739 92.3682 64.2687 105.436 64.4535 109.132C64.6383 112.828 65.2877 117.976 65.2877 117.976H76.5077L79.0157 86.0322H66.2091Z" fill="#263238" stroke="#263238" stroke-miterlimit="10"/>
<path d="M79.0157 86.0322C79.0157 86.0322 75.8477 86.0322 75.0557 89.2002C74.2637 92.3682 76.1117 105.436 76.1117 109.132C76.1117 112.828 76.5077 117.976 76.5077 117.976H80.4677C80.4677 117.976 80.8637 108.472 80.8637 107.152C80.8637 105.832 82.4477 92.1042 81.6557 89.3322C80.8637 86.5602 80.2037 86.2962 79.0157 86.0322Z" fill="#636363" stroke="#263238" stroke-miterlimit="10"/>
<path d="M45.5545 63.3943C45.5545 63.3943 35.0605 67.6843 35.0605 68.1463C35.0605 68.6083 38.6245 81.0163 39.9445 82.9303C41.2645 84.8443 42.1885 86.9563 42.5845 87.7483C42.9805 88.5403 44.6965 90.5203 46.0825 90.5203C47.4685 90.5203 49.1185 88.8703 53.5405 88.2103C57.9625 87.5503 61.9225 87.6163 62.7145 87.0223C63.5065 86.4283 62.5165 84.8443 62.3845 84.5143C62.2525 84.1843 61.7245 82.9963 61.7245 82.9963C61.7245 82.9963 66.0145 86.5603 67.7305 86.6923C69.4465 86.8243 70.7005 85.9663 70.9645 84.8443C71.2285 83.7223 70.2385 81.0163 69.5785 79.5643C68.9185 78.1123 65.8165 75.8023 64.4305 74.0203C63.0445 72.2383 61.2625 70.1263 60.0085 68.6743C58.9158 67.3961 57.5666 66.3617 56.0485 65.6383C54.8605 65.1103 51.8245 63.7903 49.9105 63.5923C47.9965 63.3943 45.5545 63.3943 45.5545 63.3943Z" fill="white" stroke="#263238" stroke-miterlimit="10"/>
<path d="M66.1222 78.8594C66.1222 78.8594 64.6279 82.9963 65.1559 84.0523C65.6839 85.1083 67.091 85.4594 67.091 85.4594" stroke="#263238" stroke-miterlimit="10"/>
<path d="M43.9697 64.7803L52.6817 73.2283L54.0017 66.8923" stroke="#263238" stroke-miterlimit="10"/>
<path d="M66.5424 79.3663C66.5424 79.3663 68.6544 80.8842 69.3804 80.3563C70.1064 79.8283 69.9084 78.8383 69.4464 77.7823C68.9844 76.7263 67.4664 76.1323 66.8724 76.5943C66.2784 77.0563 66.0804 78.9043 66.5424 79.3663Z" fill="white" stroke="#263238" stroke-miterlimit="10"/>
<path d="M44.8936 60.6223L45.2236 64.5823L52.2196 71.4463L53.2756 66.5623L53.7376 64.5163C53.7376 64.5163 49.1836 63.7243 47.7316 62.7343C46.2796 61.7443 44.8936 60.6223 44.8936 60.6223Z" fill="white" stroke="#263238" stroke-miterlimit="10"/>
<path d="M53.7376 64.5163C53.7376 64.5163 49.1836 63.7243 47.7316 62.7343C46.2796 61.7443 44.8936 60.6223 44.8936 60.6223L45.2236 64.5823L46.9924 66.3168C48.3678 66.7049 49.738 66.8923 50.6699 66.5333C51.704 66.1573 52.6923 65.6658 53.6161 65.0681L53.7376 64.5163Z" fill="#263238" stroke="#263238" stroke-miterlimit="10"/>
<path d="M42.8032 57.5652C42.8032 57.5652 41.5703 51.9314 41.5703 50.9652C41.5703 49.9989 44.9152 45.0674 49.4903 45.8594C54.0654 46.6514 56.6183 49.2914 56.7952 50.0834C56.9721 50.8754 56.2672 52.4594 56.2672 52.4594C56.4065 52.9183 56.495 53.391 56.5312 53.8692C56.5312 54.3972 55.7392 56.6834 55.7392 56.6834L55.4752 54.3074C55.4752 54.3074 53.2761 54.9252 52.0432 54.9252C50.8103 54.9252 48.6983 54.1332 48.6983 54.1332C48.6983 54.1332 49.1392 55.5403 48.6983 56.2452C48.2574 56.95 46.9401 57.5652 46.9401 57.5652C46.9401 57.5652 46.7632 58.9723 46.2352 58.9723C45.5838 58.9393 44.9365 58.8509 44.3001 58.7083C43.9463 58.6212 42.8032 57.5652 42.8032 57.5652Z" fill="#263238" stroke="#263238" stroke-miterlimit="10"/>
<path d="M44.8279 58.1803C44.8279 58.1803 44.651 56.0683 42.8901 56.5963C41.1292 57.1243 42.275 59.0594 43.2439 60.0283C44.2127 60.9972 44.4741 60.2923 44.4741 60.2923C44.4741 60.2923 44.7381 62.3172 46.0581 63.4603C47.3781 64.6034 49.403 66.7154 51.515 66.4514C53.627 66.1874 55.1239 63.5474 55.3879 61.6123C55.6519 59.6772 55.8261 55.0994 55.8261 54.5714C55.7625 53.9759 55.645 53.3874 55.475 52.8131C55.475 52.8131 53.627 54.1331 51.9559 53.7794C50.2847 53.4256 48.5239 52.7234 47.7319 52.7234C46.9399 52.7234 47.1141 53.8691 47.3781 54.2203C47.6421 54.5714 48.347 55.2763 47.555 55.7171C46.763 56.158 45.707 56.5963 45.707 56.5963V58.4443L44.8279 58.1803Z" fill="white" stroke="#263238" stroke-miterlimit="10"/>
<path d="M53.2469 57.2194L52.8139 61.9898L50.6465 61.3615" stroke="#263238" stroke-miterlimit="10"/>
<path d="M51.4164 61.7469C51.4164 61.7469 50.3604 61.7469 49.7796 61.7971C49.4307 61.8548 49.0762 61.8708 48.7236 61.8446C48.4833 61.7971 48.1956 61.6044 48.6761 62.0849C49.1565 62.5653 50.6033 63.1409 51.3741 63.2412C52.145 63.3415 52.6757 63.096 53.2512 62.7132C53.8267 62.3304 54.3072 61.9423 54.0221 61.8473C53.6248 61.7766 53.2217 61.7439 52.8182 61.7496V61.9925L51.4164 61.7469Z" fill="#263238" stroke="#263238" stroke-miterlimit="10"/>
<path d="M49.9001 58.8561C50.0736 58.8561 50.2143 58.5654 50.2143 58.2067C50.2143 57.848 50.0736 57.5573 49.9001 57.5573C49.7266 57.5573 49.5859 57.848 49.5859 58.2067C49.5859 58.5654 49.7266 58.8561 49.9001 58.8561Z" fill="#263238"/>
<path d="M54.5954 58.1117C54.5954 58.4707 54.4555 58.7611 54.2839 58.7611C54.1123 58.7611 53.9697 58.4707 53.9697 58.1117C53.9697 57.7526 54.1096 57.4596 54.2839 57.4596C54.4581 57.4596 54.5954 57.7526 54.5954 58.1117Z" fill="#263238"/>
<path d="M48.7188 57.2193C48.7188 57.2193 50.0203 56.3032 51.0789 56.6913" stroke="#263238" stroke-miterlimit="10"/>
<path d="M53.4893 56.7388C53.4893 56.7388 54.8383 56.1105 55.4165 56.6887" stroke="#263238" stroke-miterlimit="10"/>
<path d="M50.7442 59.4C50.7442 59.4 50.4538 59.7379 49.4902 60.0257" stroke="#263238" stroke-miterlimit="10"/>
<path d="M53.3926 59.1941C53.6777 59.3909 53.9852 59.5531 54.3087 59.6772" stroke="#263238" stroke-miterlimit="10"/>
<path d="M57.5 71.7103L57.962 70.5223C57.962 70.5223 58.556 71.1163 60.14 71.1163C61.724 71.1163 64.298 72.2383 64.298 72.2383L64.496 72.5683C64.496 72.5683 64.958 71.1823 65.816 70.9183C66.674 70.6543 68.06 69.7303 68.258 69.4663L68.456 69.2023L69.38 69.9943L65.288 75.4063L57.632 72.4363L57.5 71.7103Z" fill="white" stroke="#263238" stroke-miterlimit="10"/>
<path d="M57.5659 71.2483L55.5859 81.7423L62.4499 83.3263L64.9579 73.1623L57.5659 71.2483Z" fill="white" stroke="#263238" stroke-miterlimit="10"/>
<path d="M64.9582 73.1623L69.3802 69.9943L66.7402 80.1583L62.4502 83.3263L64.9582 73.1623Z" fill="white" stroke="#263238" stroke-miterlimit="10"/>
<path d="M49.0518 79.8283L52.0429 78.5954C52.0429 78.5954 54.6829 75.7811 54.9469 75.5171C55.2109 75.2531 57.8509 74.9891 57.8509 74.9891L60.7549 76.9243C60.7549 76.9243 61.2829 77.3651 60.7549 77.5394C60.2269 77.7136 59.0838 77.1883 59.0838 77.1883L57.938 76.4834L57.2358 76.8371L58.73 78.0674C58.73 78.0674 59.1709 79.2131 59.1709 79.8283C59.1628 80.2234 59.0729 80.6127 58.9069 80.9714L58.0278 82.2043L55.3878 80.8843C55.3878 80.8843 53.8038 82.0274 53.45 82.2043C53.0962 82.3811 49.754 82.1171 49.754 82.1171L49.0518 79.8283Z" fill="white" stroke="#263238" stroke-miterlimit="10"/>
<path d="M55.3643 76.7448L56.2988 76.5679L57.1014 76.7896" stroke="#263238" stroke-miterlimit="10"/>
<path d="M54.4746 78.4819C54.4746 78.4819 56.5655 77.9011 56.7001 77.9011C56.8348 77.9011 58.3924 79.5036 58.3924 79.5036L58.5693 81.2407" stroke="#263238" stroke-miterlimit="10"/>
<path d="M54.5645 79.5933L56.254 79.6381L57.8116 80.6625C57.9697 81.1606 58.0428 81.6818 58.0281 82.2042" stroke="#263238" stroke-miterlimit="10"/>
<path d="M36.9076 66.8922C36.9076 66.8922 34.9698 67.1562 34.7058 68.8273C34.4418 70.4984 32.6836 84.5802 33.2116 86.1642C33.7396 87.7482 43.5076 85.0211 43.8587 84.8442C44.2098 84.6673 49.7538 82.9962 49.8436 82.6451C49.9334 82.294 50.1076 79.3873 49.3156 79.2131C48.5236 79.0388 40.9547 79.3002 40.9547 79.3002L39.8987 70.1473" fill="white"/>
<path d="M36.9076 66.8922C36.9076 66.8922 34.9698 67.1562 34.7058 68.8273C34.4418 70.4984 32.6836 84.5802 33.2116 86.1642C33.7396 87.7482 43.5076 85.0211 43.8587 84.8442C44.2098 84.6673 49.7538 82.9962 49.8436 82.6451C49.9334 82.294 50.1076 79.3873 49.3156 79.2131C48.5236 79.0388 40.9547 79.3002 40.9547 79.3002L39.8987 70.1473" stroke="#263238" stroke-miterlimit="10"/>
<path d="M40.9549 79.3003L36.29 80.0923" stroke="#263238" stroke-miterlimit="10"/>
<path d="M35.4111 79.0363L39.4583 79.5643" stroke="#263238" stroke-miterlimit="10"/>
<path d="M68.1914 74.3503C68.1914 74.3503 66.4094 76.1983 66.4754 76.6603C66.5414 77.1223 67.4654 76.3963 67.6634 76.1983C67.8614 76.0003 68.7854 75.4723 68.7854 74.9443C68.7854 74.4163 68.5874 73.8223 68.1914 74.3503Z" fill="white" stroke="#263238" stroke-miterlimit="10"/>
<path d="M68.3901 75.4723C68.3901 75.4723 68.9181 76.0003 68.9181 76.4623C68.9181 76.9243 67.7961 78.4423 67.2681 78.4423C66.7401 78.4423 67.1361 77.3863 67.4001 76.9243C67.6641 76.4623 68.3901 75.4723 68.3901 75.4723Z" fill="white" stroke="#263238" stroke-miterlimit="10"/>
<path d="M68.9179 76.4623C68.9179 76.4623 69.5779 76.6603 69.5779 77.2543C69.5779 77.8483 68.3239 78.8383 67.9939 78.9043C67.6639 78.9703 67.7299 78.3763 67.9939 77.9143C68.2579 77.4523 68.9179 76.4623 68.9179 76.4623Z" fill="white" stroke="#263238" stroke-miterlimit="10"/>
<path d="M69.5782 77.2543C69.7133 77.5888 69.7588 77.9528 69.7102 78.3103C69.6442 78.9703 68.6541 79.3663 68.3241 79.3663C67.9941 79.3663 67.9941 78.9043 67.9941 78.9043C68.5527 78.3844 69.0815 77.8336 69.5782 77.2543Z" fill="white" stroke="#263238" stroke-miterlimit="10"/>
<path d="M48.8201 124.708H47.5661L46.9404 116.392H49.4484L48.8201 124.708Z" fill="white" stroke="#263238" stroke-miterlimit="10"/>
<path d="M37.3357 124.708H36.0817L35.4561 116.392H37.964L37.3357 124.708Z" fill="white" stroke="#263238" stroke-miterlimit="10"/>
<path d="M78.784 124.708H77.53L76.9043 116.392H79.4123L78.784 124.708Z" fill="white" stroke="#263238" stroke-miterlimit="10"/>
<path d="M67.2996 124.708H66.0456L65.4199 116.392H67.9279L67.2996 124.708Z" fill="white" stroke="#263238" stroke-miterlimit="10"/>
<path d="M77.0362 100.481H47.0723V117.905H77.0362V100.481Z" fill="#263238" stroke="#263238" stroke-miterlimit="10"/>
<path d="M98.7707 97.6932C98.7707 97.6932 101.939 96.3732 102.644 95.8452C103.348 95.3172 104.315 96.4603 103.874 97.6932C103.433 98.9261 102.29 101.125 100.532 102.181C98.7734 103.237 97.3636 104.116 97.0098 104.467C96.6561 104.819 96.7458 106.141 95.2516 106.669C93.7574 107.197 91.9067 106.141 90.8507 104.467C89.7947 102.794 89.0898 101.653 89.0898 101.653C89.0898 101.653 89.1796 100.42 90.9378 99.8052C92.6961 99.1901 95.6898 98.9234 95.6898 98.9234L98.7707 97.6932Z" fill="white" stroke="#263238" stroke-miterlimit="10"/>
<path d="M62.7138 87.0222C62.7138 87.0222 64.802 86.5153 65.33 86.7793C65.858 87.0433 67.6189 88.7171 67.6189 88.7171C67.6189 88.7171 78.266 88.8913 79.058 89.2451C79.85 89.5989 88.034 95.8451 89.7949 96.7242C91.5558 97.6033 93.05 98.3953 93.05 98.3953L91.73 104.203V104.731L91.8197 105.613C91.8197 105.613 87.242 104.203 86.0989 103.939C84.9558 103.675 80.2038 101.212 79.7629 101.212C79.322 101.212 75.7157 100.156 75.7157 100.156C75.7157 100.156 75.1878 99.8051 69.4669 99.2771C63.746 98.7491 57.3229 98.1313 55.034 98.0442C52.7451 97.9571 49.754 97.7802 48.6109 97.3393C47.4678 96.8985 45.4429 93.8202 45.0918 91.9722C44.7406 90.1242 48.434 88.5402 50.018 87.8353C51.602 87.1305 57.4998 86.2513 58.5558 86.2513C59.6118 86.2513 62.7138 87.0222 62.7138 87.0222Z" fill="white" stroke="#263238" stroke-miterlimit="10"/>
<path d="M64.715 89.5963L62.9541 92.1492L65.3301 90.5652" fill="white"/>
<path d="M64.715 89.5963L62.9541 92.1492L65.3301 90.5652" stroke="#263238" stroke-miterlimit="10"/>
<path d="M91.7294 97.2523C91.7294 97.2523 94.2823 95.2274 94.8103 94.6123C95.3383 93.9972 97.0991 90.6523 97.4503 89.5963C97.8014 88.5403 98.6831 88.0123 99.2983 88.8043C99.9134 89.5963 100.354 91.1803 100.705 91.8852C101.057 92.5901 100.531 96.0194 99.4751 97.1652C98.4191 98.3109 96.9592 101.086 96.6583 101.653C95.8663 103.147 94.6334 103.324 93.8414 103.411C93.0494 103.499 91.1143 101.389 91.1143 101.389L91.7294 97.2523Z" fill="white" stroke="#263238" stroke-miterlimit="10"/>
<path d="M52.5706 91.3571C52.5706 91.3571 55.2106 90.8291 57.5866 91.0931C59.9626 91.3571 64.8017 92.8513 66.8266 93.3793C68.8514 93.9073 72.4577 94.1713 74.1314 94.7891C75.8052 95.4068 80.2034 96.1962 83.5457 96.1962C86.8879 96.1962 91.9937 96.6371 91.9937 96.6371C91.9937 96.6371 91.2914 101.74 91.4657 102.709C91.6393 103.489 91.875 104.253 92.1706 104.995C92.1706 104.995 85.3937 105.523 83.4586 105.787C81.5234 106.051 73.6906 104.821 72.3706 104.467C71.0506 104.114 69.1154 103.588 67.8826 103.588C66.6497 103.588 64.2737 104.116 60.8417 104.467C57.4097 104.818 52.5706 103.324 51.9554 103.237C51.3403 103.15 49.1386 102.355 48.6106 102.004C48.0826 101.653 45.0017 96.1962 46.0577 93.9073C47.1137 91.6184 48.4337 91.2673 48.4337 91.2673" fill="white"/>
<path d="M52.5706 91.3571C52.5706 91.3571 55.2106 90.8291 57.5866 91.0931C59.9626 91.3571 64.8017 92.8513 66.8266 93.3793C68.8514 93.9073 72.4577 94.1713 74.1314 94.7891C75.8052 95.4068 80.2034 96.1962 83.5457 96.1962C86.8879 96.1962 91.9937 96.6371 91.9937 96.6371C91.9937 96.6371 91.2914 101.74 91.4657 102.709C91.6393 103.489 91.875 104.253 92.1706 104.995C92.1706 104.995 85.3937 105.523 83.4586 105.787C81.5234 106.051 73.6906 104.821 72.3706 104.467C71.0506 104.114 69.1154 103.588 67.8826 103.588C66.6497 103.588 64.2737 104.116 60.8417 104.467C57.4097 104.818 52.5706 103.324 51.9554 103.237C51.3403 103.15 49.1386 102.355 48.6106 102.004C48.0826 101.653 45.0017 96.1962 46.0577 93.9073C47.1137 91.6184 48.4337 91.2673 48.4337 91.2673" stroke="#263238" stroke-miterlimit="10"/>
<path d="M68.7598 100.235C70.4573 100.573 72.2551 101.603 74.6866 102.556C77.9311 103.826 84.4255 103.71 85.2624 103.826C86.0993 103.942 88.2245 103.826 88.2245 103.826" fill="white"/>
<path d="M68.7598 100.235C70.4573 100.573 72.2551 101.603 74.6866 102.556C77.9311 103.826 84.4255 103.71 85.2624 103.826C86.0993 103.942 88.2245 103.826 88.2245 103.826" stroke="#263238" stroke-miterlimit="10"/>
<path d="M55.6709 101.429L56.6398 101.569C59.4593 101.991 64.8238 100.441 67.0731 100.159" fill="white"/>
<path d="M55.6709 101.429L56.6398 101.569C59.4593 101.991 64.8238 100.441 67.0731 100.159" stroke="#263238" stroke-miterlimit="10"/>
<path d="M52.832 101.146C52.832 101.146 53.3389 101.146 54.6616 101.302L52.832 101.146Z" fill="white"/>
<path d="M52.832 101.146C52.832 101.146 53.3389 101.146 54.6616 101.302" stroke="#263238" stroke-miterlimit="10"/>
<path d="M35.7173 86.0322C35.7173 86.0322 32.5493 86.0322 31.9157 89.2002C31.2821 92.3682 33.7637 105.436 33.9617 109.132C34.1597 112.828 34.796 117.976 34.796 117.976H46.016L48.524 86.0322H35.7173Z" fill="#263238" stroke="#263238" stroke-miterlimit="10"/>
<path d="M48.5235 86.0322C48.5235 86.0322 45.3555 86.0322 44.5635 89.2002C43.7715 92.3682 45.6195 105.436 45.6195 109.132C45.6195 112.828 46.0155 117.976 46.0155 117.976H49.9755C49.9755 117.976 50.3715 108.472 50.3715 107.152C50.3715 105.832 51.9555 92.1042 51.1635 89.3322C50.3715 86.5602 49.7115 86.2962 48.5235 86.0322Z" fill="#636363" stroke="#263238" stroke-miterlimit="10"/>
<path d="M74.2957 124.708H73.0417L72.416 116.392H74.924L74.2957 124.708Z" fill="white" stroke="#263238" stroke-miterlimit="10"/>
<path d="M84.9871 124.708H83.7331L83.1074 116.392H85.6154L84.9871 124.708Z" fill="white" stroke="#263238" stroke-miterlimit="10"/>
<path d="M90.0037 124.708H88.7497L88.124 116.392H90.632L90.0037 124.708Z" fill="white" stroke="#263238" stroke-miterlimit="10"/>
<path d="M100.563 124.708H99.3093L98.6836 116.392H101.192L100.563 124.708Z" fill="white" stroke="#263238" stroke-miterlimit="10"/>
<path d="M72.7456 105.568H100.32C100.828 105.568 101.315 105.77 101.674 106.129C102.033 106.488 102.234 106.975 102.234 107.482V121.012H70.8184V107.482C70.8184 107.23 70.8683 106.98 70.9653 106.747C71.0623 106.514 71.2045 106.302 71.3836 106.124C71.5627 105.946 71.7753 105.806 72.0091 105.71C72.2428 105.615 72.4931 105.567 72.7456 105.568Z" fill="#263238" stroke="#263238" stroke-miterlimit="10"/>
<path d="M100.334 105.568H90.3017C89.7941 105.568 89.3072 105.77 88.9483 106.129C88.5893 106.488 88.3877 106.975 88.3877 107.482V121.012H102.248V107.482C102.247 106.975 102.045 106.488 101.686 106.13C101.328 105.771 100.841 105.569 100.334 105.568Z" fill="#636363" stroke="#263238" stroke-miterlimit="10"/>
</svg>
