<svg width="185" height="185" viewBox="0 0 185 185" fill="none" xmlns="http://www.w3.org/2000/svg">
<path d="M162.181 61.9194H129.133V136.889H162.181V61.9194Z" stroke="#263238" stroke-width="0.75" stroke-linecap="round" stroke-linejoin="round"/>
<path d="M159.281 64.8202H132.034V133.988H159.281V64.8202Z" stroke="#263238" stroke-width="0.75" stroke-linecap="round" stroke-linejoin="round"/>
<path d="M135.131 95.36L134.388 96.6513" stroke="#263238" stroke-width="0.75" stroke-linecap="round" stroke-linejoin="round"/>
<path d="M142.953 81.818L135.989 93.88" stroke="#263238" stroke-width="0.75" stroke-linecap="round" stroke-linejoin="round"/>
<path d="M149.343 70.7477L144.066 79.8867" stroke="#263238" stroke-width="0.75" stroke-linecap="round" stroke-linejoin="round"/>
<path d="M150.46 68.8162L149.897 69.7856" stroke="#263238" stroke-width="0.75" stroke-linecap="round" stroke-linejoin="round"/>
<path d="M137.347 128.234L136.714 129.33" stroke="#263238" stroke-width="0.75" stroke-linecap="round" stroke-linejoin="round"/>
<path d="M138.812 125.696L138.143 126.862" stroke="#263238" stroke-width="0.75" stroke-linecap="round" stroke-linejoin="round"/>
<path d="M147.748 110.219L140.248 123.214" stroke="#263238" stroke-width="0.75" stroke-linecap="round" stroke-linejoin="round"/>
<path d="M154.389 98.7159L148.518 108.891" stroke="#263238" stroke-width="0.75" stroke-linecap="round" stroke-linejoin="round"/>
<path d="M155.844 96.2L155.263 97.2064" stroke="#263238" stroke-width="0.75" stroke-linecap="round" stroke-linejoin="round"/>
<path d="M145.657 119.958L140.248 129.33" stroke="#263238" stroke-width="0.75" stroke-linecap="round" stroke-linejoin="round"/>
<path d="M152.576 107.973L146.445 118.592" stroke="#263238" stroke-width="0.75" stroke-linecap="round" stroke-linejoin="round"/>
<path d="M154.016 105.483L153.291 106.738" stroke="#263238" stroke-width="0.75" stroke-linecap="round" stroke-linejoin="round"/>
<path d="M134.388 105.061L133.566 106.486" stroke="#263238" stroke-width="0.75" stroke-linecap="round" stroke-linejoin="round"/>
<path d="M141.576 92.611L135.046 103.922" stroke="#263238" stroke-width="0.75" stroke-linecap="round" stroke-linejoin="round"/>
<path d="M150.549 77.0709L142.346 91.2752" stroke="#263238" stroke-width="0.75" stroke-linecap="round" stroke-linejoin="round"/>
<path d="M155.94 67.7322L151.182 75.9758" stroke="#263238" stroke-width="0.75" stroke-linecap="round" stroke-linejoin="round"/>
<path d="M55.8658 61.9194H22.8174V136.889H55.8658V61.9194Z" stroke="#263238" stroke-width="0.75" stroke-linecap="round" stroke-linejoin="round"/>
<path d="M52.9646 64.8202H25.7178V133.988H52.9646V64.8202Z" stroke="#263238" stroke-width="0.75" stroke-linecap="round" stroke-linejoin="round"/>
<path d="M28.816 95.36L28.0723 96.6513" stroke="#263238" stroke-width="0.75" stroke-linecap="round" stroke-linejoin="round"/>
<path d="M36.6333 81.818L29.6699 93.88" stroke="#263238" stroke-width="0.75" stroke-linecap="round" stroke-linejoin="round"/>
<path d="M43.0272 70.7477L37.751 79.8867" stroke="#263238" stroke-width="0.75" stroke-linecap="round" stroke-linejoin="round"/>
<path d="M44.1407 68.8162L43.582 69.7856" stroke="#263238" stroke-width="0.75" stroke-linecap="round" stroke-linejoin="round"/>
<path d="M31.0311 128.234L30.3984 129.33" stroke="#263238" stroke-width="0.75" stroke-linecap="round" stroke-linejoin="round"/>
<path d="M32.4957 125.696L31.8223 126.862" stroke="#263238" stroke-width="0.75" stroke-linecap="round" stroke-linejoin="round"/>
<path d="M41.4323 110.219L33.9287 123.214" stroke="#263238" stroke-width="0.75" stroke-linecap="round" stroke-linejoin="round"/>
<path d="M48.0738 98.7159L42.1982 108.891" stroke="#263238" stroke-width="0.75" stroke-linecap="round" stroke-linejoin="round"/>
<path d="M49.527 96.2L48.9424 97.2064" stroke="#263238" stroke-width="0.75" stroke-linecap="round" stroke-linejoin="round"/>
<path d="M39.3418 119.958L33.9287 129.33" stroke="#263238" stroke-width="0.75" stroke-linecap="round" stroke-linejoin="round"/>
<path d="M46.2608 107.973L40.1299 118.592" stroke="#263238" stroke-width="0.75" stroke-linecap="round" stroke-linejoin="round"/>
<path d="M47.6961 105.483L46.9746 106.738" stroke="#263238" stroke-width="0.75" stroke-linecap="round" stroke-linejoin="round"/>
<path d="M28.0712 105.062L27.2461 106.486" stroke="#263238" stroke-width="0.75" stroke-linecap="round" stroke-linejoin="round"/>
<path d="M35.2571 92.611L28.7266 103.922" stroke="#263238" stroke-width="0.75" stroke-linecap="round" stroke-linejoin="round"/>
<path d="M44.2295 77.0709L36.0303 91.2752" stroke="#263238" stroke-width="0.75" stroke-linecap="round" stroke-linejoin="round"/>
<path d="M49.6195 67.7322L44.8613 75.9758" stroke="#263238" stroke-width="0.75" stroke-linecap="round" stroke-linejoin="round"/>
<path d="M10.915 168.139H174.085" stroke="#263238" stroke-linecap="round" stroke-linejoin="round"/>
<path d="M67.5952 138.828H64.7646V148.451H67.5952V138.828Z" fill="white"/>
<path opacity="0.2" d="M67.5952 138.828H64.7646V148.451H67.5952V138.828Z" fill="black"/>
<path d="M70.4291 139.886H67.5986V148.451H70.4291V139.886Z" fill="white"/>
<path d="M73.9628 139.886H71.9648V148.451H73.9628V139.886Z" fill="white"/>
<path opacity="0.9" d="M73.9628 139.886H71.9648V148.451H73.9628V139.886Z" fill="white"/>
<path d="M71.9683 138.983H70.1553V148.455H71.9683V138.983Z" fill="white"/>
<path opacity="0.1" d="M71.9683 138.983H70.1553V148.455H71.9683V138.983Z" fill="black"/>
<path d="M76.7973 138.828H73.9668V148.451H76.7973V138.828Z" fill="white"/>
<path d="M79.6274 139.886H76.7969V148.451H79.6274V139.886Z" fill="white"/>
<path opacity="0.2" d="M79.6274 139.886H76.7969V148.451H79.6274V139.886Z" fill="#263238"/>
<path d="M83.165 139.886H81.167V148.451H83.165V139.886Z" fill="white"/>
<path opacity="0.8" d="M83.165 139.886H81.167V148.451H83.165V139.886Z" fill="white"/>
<path d="M81.1665 138.983H79.3535V148.455H81.1665V138.983Z" fill="white"/>
<path opacity="0.1" d="M81.1665 138.983H79.3535V148.455H81.1665V138.983Z" fill="black"/>
<path d="M96.6695 148.455H99.5V138.831H96.6695V148.455Z" fill="white"/>
<path opacity="0.2" d="M96.6695 148.455H99.5V138.831H96.6695V148.455Z" fill="black"/>
<path d="M93.8355 148.455H96.666V139.89H93.8355V148.455Z" fill="white"/>
<path d="M90.3018 148.455H92.2998V139.89H90.3018V148.455Z" fill="white"/>
<path opacity="0.9" d="M90.3018 148.455H92.2998V139.89H90.3018V148.455Z" fill="white"/>
<path d="M92.2964 148.451H94.1094V138.979H92.2964V148.451Z" fill="white"/>
<path opacity="0.1" d="M92.2964 148.451H94.1094V138.979H92.2964V148.451Z" fill="black"/>
<path d="M87.4683 148.455H90.2988V138.831H87.4683V148.455Z" fill="white"/>
<path d="M84.6373 148.455H87.4678V139.89H84.6373V148.455Z" fill="white"/>
<path opacity="0.2" d="M84.6373 148.455H87.4678V139.89H84.6373V148.455Z" fill="#263238"/>
<path d="M83.0981 148.451H84.9111V138.979H83.0981V148.451Z" fill="white"/>
<path opacity="0.1" d="M83.0981 148.451H84.9111V138.979H83.0981V148.451Z" fill="black"/>
<path d="M112.987 148.455H115.817V138.831H112.987V148.455Z" fill="white"/>
<path opacity="0.2" d="M112.987 148.455H115.817V138.831H112.987V148.455Z" fill="black"/>
<path d="M110.153 148.455H112.983V139.89H110.153V148.455Z" fill="white"/>
<path d="M106.619 148.455H108.617V139.89H106.619V148.455Z" fill="white"/>
<path opacity="0.9" d="M106.619 148.455H108.617V139.89H106.619V148.455Z" fill="white"/>
<path d="M108.614 148.451H110.427V138.979H108.614V148.451Z" fill="white"/>
<path opacity="0.1" d="M108.614 148.451H110.427V138.979H108.614V148.451Z" fill="black"/>
<path d="M103.785 148.455H106.615V138.831H103.785V148.455Z" fill="white"/>
<path d="M117.659 148.115L119.519 147.617L117.016 138.282L115.157 138.78L117.659 148.115Z" fill="white"/>
<path d="M100.955 148.455H103.785V139.89H100.955V148.455Z" fill="white"/>
<path opacity="0.2" d="M100.955 148.455H103.785V139.89H100.955V148.455Z" fill="#263238"/>
<path d="M99.4155 148.451H101.229V138.979H99.4155V148.451Z" fill="white"/>
<path opacity="0.1" d="M99.4155 148.451H101.229V138.979H99.4155V148.451Z" fill="black"/>
<path d="M118.607 160.956L120.509 160.447L118.018 151.151L116.117 151.66L118.607 160.956Z" fill="white"/>
<path opacity="0.2" d="M118.607 160.956L120.509 160.447L118.018 151.151L116.117 151.66L118.607 160.956Z" fill="black"/>
<path d="M113.723 160.861H116.554V152.296H113.723V160.861Z" fill="white"/>
<path d="M110.182 160.861H112.18V152.296H110.182V160.861Z" fill="white"/>
<path opacity="0.9" d="M110.182 160.861H112.18V152.296H110.182V160.861Z" fill="white"/>
<path d="M112.18 160.865H113.993V151.393H112.18V160.865Z" fill="white"/>
<path opacity="0.1" d="M112.18 160.865H113.993V151.393H112.18V160.865Z" fill="black"/>
<path d="M107.355 160.865H110.186V151.241H107.355V160.865Z" fill="white"/>
<path d="M104.521 160.861H107.352V152.296H104.521V160.861Z" fill="white"/>
<path opacity="0.2" d="M104.521 160.861H107.352V152.296H104.521V160.861Z" fill="#263238"/>
<path d="M100.987 160.861H102.985V152.296H100.987V160.861Z" fill="white"/>
<path opacity="0.8" d="M100.987 160.861H102.985V152.296H100.987V160.861Z" fill="white"/>
<path d="M102.982 160.865H104.795V151.393H102.982V160.865Z" fill="white"/>
<path opacity="0.1" d="M102.982 160.865H104.795V151.393H102.982V160.865Z" fill="black"/>
<path d="M87.4828 151.241H84.6523V160.865H87.4828V151.241Z" fill="white"/>
<path opacity="0.2" d="M87.4828 151.241H84.6523V160.865H87.4828V151.241Z" fill="black"/>
<path d="M90.3139 152.299H87.4834V160.865H90.3139V152.299Z" fill="white"/>
<path d="M93.8505 152.299H91.8525V160.865H93.8505V152.299Z" fill="white"/>
<path opacity="0.9" d="M93.8505 152.299H91.8525V160.865H93.8505V152.299Z" fill="white"/>
<path d="M91.8521 151.393H90.0391V160.865H91.8521V151.393Z" fill="white"/>
<path opacity="0.1" d="M91.8521 151.393H90.0391V160.865H91.8521V151.393Z" fill="black"/>
<path d="M96.6801 151.241H93.8496V160.865H96.6801V151.241Z" fill="white"/>
<path d="M99.5112 152.299H96.6807V160.865H99.5112V152.299Z" fill="white"/>
<path opacity="0.2" d="M99.5112 152.299H96.6807V160.865H99.5112V152.299Z" fill="#263238"/>
<path d="M101.05 151.393H99.2373V160.865H101.05V151.393Z" fill="white"/>
<path opacity="0.1" d="M101.05 151.393H99.2373V160.865H101.05V151.393Z" fill="black"/>
<path d="M71.1655 151.241H68.335V160.865H71.1655V151.241Z" fill="white"/>
<path opacity="0.2" d="M71.1655 151.241H68.335V160.865H71.1655V151.241Z" fill="black"/>
<path d="M73.9965 152.299H71.166V160.865H73.9965V152.299Z" fill="white"/>
<path d="M77.5331 152.299H75.5352V160.865H77.5331V152.299Z" fill="white"/>
<path opacity="0.9" d="M77.5331 152.299H75.5352V160.865H77.5331V152.299Z" fill="white"/>
<path d="M75.5357 151.393H73.7227V160.865H75.5357V151.393Z" fill="white"/>
<path opacity="0.1" d="M75.5357 151.393H73.7227V160.865H75.5357V151.393Z" fill="black"/>
<path d="M80.3647 151.241H77.5342V160.865H80.3647V151.241Z" fill="white"/>
<path d="M68.3298 151.653L66.4785 151.156L63.9877 160.452L65.839 160.948L68.3298 151.653Z" fill="white"/>
<path d="M83.1947 152.299H80.3643V160.865H83.1947V152.299Z" fill="white"/>
<path opacity="0.2" d="M83.1947 152.299H80.3643V160.865H83.1947V152.299Z" fill="#263238"/>
<path d="M84.7339 151.393H82.9209V160.865H84.7339V151.393Z" fill="white"/>
<path opacity="0.1" d="M84.7339 151.393H82.9209V160.865H84.7339V151.393Z" fill="black"/>
<path d="M66.9407 168.139H64.1102L63.7217 162.663H67.3292L66.9407 168.139Z" fill="#263238"/>
<path d="M120.89 168.139H118.059L117.671 162.663H121.278L120.89 168.139Z" fill="#263238"/>
<path d="M124.009 135.194H60.9907C60.6306 135.194 60.2852 135.337 60.0305 135.592C59.7759 135.847 59.6328 136.192 59.6328 136.552V162.297C59.6328 162.657 59.7759 163.002 60.0305 163.257C60.2852 163.512 60.6306 163.655 60.9907 163.655H124.009C124.369 163.655 124.715 163.512 124.969 163.257C125.224 163.002 125.367 162.657 125.367 162.297V136.552C125.367 136.192 125.224 135.847 124.969 135.592C124.715 135.337 124.369 135.194 124.009 135.194ZM122.648 137.914V148.455H62.3375V137.914H122.648ZM62.3523 160.95V150.398H122.662V160.95H62.3523Z" fill="white" stroke="#263238" stroke-width="0.75" stroke-linecap="round" stroke-linejoin="round"/>
<path d="M114.693 81.1189H71.088C69.6862 81.1189 68.5498 82.2553 68.5498 83.6571V93.0181C68.5498 94.4199 69.6862 95.5563 71.088 95.5563H114.693C116.094 95.5563 117.231 94.4199 117.231 93.0181V83.6571C117.231 82.2553 116.094 81.1189 114.693 81.1189Z" fill="#263238" stroke="#263238" stroke-linecap="round" stroke-linejoin="round"/>
<path d="M113.916 80.3419H70.3116C68.9098 80.3419 67.7734 81.4783 67.7734 82.8801V92.2411C67.7734 93.6429 68.9098 94.7793 70.3116 94.7793H113.916C115.318 94.7793 116.454 93.6429 116.454 92.2411V82.8801C116.454 81.4783 115.318 80.3419 113.916 80.3419Z" fill="white" stroke="#263238" stroke-linecap="round" stroke-linejoin="round"/>
<path d="M113.916 80.3419H70.3116C68.9098 80.3419 67.7734 81.4783 67.7734 82.8801V92.2411C67.7734 93.6429 68.9098 94.7793 70.3116 94.7793H113.916C115.318 94.7793 116.454 93.6429 116.454 92.2411V82.8801C116.454 81.4783 115.318 80.3419 113.916 80.3419Z" stroke="#263238" stroke-linecap="round" stroke-linejoin="round"/>
<path d="M78.5518 91.8231H72.1396V83.7126H76.4132L78.5518 85.8513V91.8231Z" fill="white"/>
<path opacity="0.5" d="M78.5518 91.8231H72.1396V83.7126H76.4132L78.5518 85.8513V91.8231Z" fill="white"/>
<path d="M78.5518 91.8231H72.1396V83.7126H76.4132L78.5518 85.8513V91.8231Z" stroke="#263238" stroke-linecap="round" stroke-linejoin="round"/>
<path d="M76.4131 85.8511H78.5517L76.4131 83.7125V85.8511Z" fill="white" stroke="#263238" stroke-linecap="round" stroke-linejoin="round"/>
<path d="M73.5636 88.0156C73.4628 88.006 73.3692 87.9591 73.3011 87.8842C73.233 87.8093 73.1953 87.7117 73.1953 87.6105C73.1953 87.5092 73.233 87.4116 73.3011 87.3367C73.3692 87.2618 73.4628 87.215 73.5636 87.2053H77.1266C77.2274 87.215 77.321 87.2618 77.3891 87.3367C77.4572 87.4116 77.4949 87.5092 77.4949 87.6105C77.4949 87.7117 77.4572 87.8093 77.3891 87.8842C77.321 87.9591 77.2274 88.006 77.1266 88.0156H73.5636Z" fill="#858585" stroke="#263238" stroke-width="0.75" stroke-linecap="round" stroke-linejoin="round"/>
<path d="M73.5636 89.7214C73.4628 89.7118 73.3692 89.665 73.3011 89.59C73.233 89.5151 73.1953 89.4175 73.1953 89.3163C73.1953 89.2151 73.233 89.1175 73.3011 89.0425C73.3692 88.9676 73.4628 88.9208 73.5636 88.9111H76.3497C76.4504 88.9208 76.544 88.9676 76.6121 89.0425C76.6802 89.1175 76.7179 89.2151 76.7179 89.3163C76.7179 89.4175 76.6802 89.5151 76.6121 89.59C76.544 89.665 76.4504 89.7118 76.3497 89.7214H73.5636Z" fill="#858585" stroke="#263238" stroke-width="0.75" stroke-linecap="round" stroke-linejoin="round"/>
<path d="M94.7606 88.4819H82.8281C82.6155 88.4961 82.4162 88.5905 82.2706 88.7461C82.125 88.9017 82.0439 89.1069 82.0439 89.32C82.0439 89.5331 82.125 89.7382 82.2706 89.8939C82.4162 90.0495 82.6155 90.1439 82.8281 90.1581H94.7606V88.4819Z" fill="white"/>
<path d="M82.8281 90.1579C82.6155 90.1438 82.4162 90.0494 82.2706 89.8937C82.125 89.7381 82.0439 89.533 82.0439 89.3199C82.0439 89.1068 82.125 88.9016 82.2706 88.746C82.4162 88.5904 82.6155 88.496 82.8281 88.4818H111.244C111.359 88.4742 111.474 88.4902 111.582 88.5289C111.691 88.5675 111.79 88.628 111.874 88.7066C111.958 88.7852 112.025 88.8801 112.07 88.9856C112.116 89.0911 112.14 89.2049 112.14 89.3199C112.14 89.4349 112.116 89.5486 112.07 89.6541C112.025 89.7596 111.958 89.8546 111.874 89.9332C111.79 90.0117 111.691 90.0722 111.582 90.1109C111.474 90.1495 111.359 90.1656 111.244 90.1579H82.8281Z" stroke="#263238" stroke-linecap="round" stroke-linejoin="round"/>
<path d="M95.0309 86.21H94.1318V85.7845L94.9865 83.7606H95.5008V85.7845H95.7228V86.21H95.5008V86.7539H95.0309V86.21ZM95.0309 85.7845V84.619L94.5684 85.7882L95.0309 85.7845Z" fill="#263238"/>
<path d="M95.9414 86.0473V85.8142H96.3854V86.0806C96.3854 86.2952 96.4779 86.3729 96.6296 86.3729C96.7813 86.3729 96.8738 86.2952 96.8738 86.0806V85.4109C96.8738 85.1963 96.7776 85.1149 96.6296 85.1149C96.4816 85.1149 96.3854 85.1963 96.3854 85.4109V85.4368H95.9414L96.0265 83.7644H97.266V84.1936H96.4446L96.4076 84.9077C96.4489 84.8375 96.5087 84.78 96.5805 84.7415C96.6523 84.703 96.7333 84.685 96.8146 84.6894C97.1587 84.6894 97.3363 84.9336 97.3363 85.3739V86.0473C97.3363 86.5283 97.0958 86.7873 96.6333 86.7873C96.1708 86.7873 95.9414 86.5283 95.9414 86.0473Z" fill="#263238"/>
<path d="M97.6356 84.9484V84.2084C97.6299 84.1454 97.6374 84.082 97.6576 84.022C97.6778 83.9621 97.7103 83.9071 97.7529 83.8604C97.7955 83.8137 97.8474 83.7765 97.9053 83.751C97.9631 83.7255 98.0257 83.7123 98.0889 83.7123C98.1521 83.7123 98.2146 83.7255 98.2725 83.751C98.3303 83.7765 98.3822 83.8137 98.4249 83.8604C98.4675 83.9071 98.5 83.9621 98.5202 84.022C98.5403 84.082 98.5478 84.1454 98.5421 84.2084V84.9484C98.5478 85.0113 98.5403 85.0748 98.5202 85.1347C98.5 85.1946 98.4675 85.2497 98.4249 85.2963C98.3822 85.343 98.3303 85.3803 98.2725 85.4058C98.2146 85.4313 98.1521 85.4445 98.0889 85.4445C98.0257 85.4445 97.9631 85.4313 97.9053 85.4058C97.8474 85.3803 97.7955 85.343 97.7529 85.2963C97.7103 85.2497 97.6778 85.1946 97.6576 85.1347C97.6374 85.0748 97.6299 85.0113 97.6356 84.9484ZM98.2424 84.9706V84.1788C98.2424 84.0493 98.1832 83.9938 98.0907 83.9938C97.9982 83.9938 97.9353 84.0493 97.9353 84.1788V84.9706C97.9353 85.1038 97.9908 85.1593 98.0907 85.1593C98.1906 85.1593 98.2424 85.1001 98.2424 84.9706ZM99.1748 83.7644H99.4745L98.3164 86.7577H98.0167L99.1748 83.7644ZM98.9491 86.3211V85.5811C98.9434 85.5181 98.9509 85.4547 98.9711 85.3947C98.9913 85.3348 99.0237 85.2798 99.0664 85.2331C99.109 85.1864 99.1609 85.1492 99.2188 85.1237C99.2766 85.0982 99.3392 85.085 99.4024 85.085C99.4656 85.085 99.5281 85.0982 99.586 85.1237C99.6438 85.1492 99.6957 85.1864 99.7384 85.2331C99.781 85.2798 99.8134 85.3348 99.8336 85.3947C99.8538 85.4547 99.8613 85.5181 99.8556 85.5811V86.3211C99.8613 86.384 99.8538 86.4475 99.8336 86.5074C99.8134 86.5673 99.781 86.6224 99.7384 86.669C99.6957 86.7157 99.6438 86.753 99.586 86.7785C99.5281 86.804 99.4656 86.8172 99.4024 86.8172C99.3392 86.8172 99.2766 86.804 99.2188 86.7785C99.1609 86.753 99.109 86.7157 99.0664 86.669C99.0237 86.6224 98.9913 86.5673 98.9711 86.5074C98.9509 86.4475 98.9434 86.384 98.9491 86.3211ZM99.5559 86.3433V85.5515C99.5559 85.4183 99.4967 85.3628 99.4005 85.3628C99.3043 85.3628 99.2488 85.4183 99.2488 85.5515V86.3433C99.2488 86.4765 99.3043 86.532 99.4005 86.532C99.4967 86.532 99.5559 86.4765 99.5559 86.3433Z" fill="#263238"/>
<path d="M114.693 97.8726H71.088C69.6862 97.8726 68.5498 99.009 68.5498 100.411V109.772C68.5498 111.174 69.6862 112.31 71.088 112.31H114.693C116.094 112.31 117.231 111.174 117.231 109.772V100.411C117.231 99.009 116.094 97.8726 114.693 97.8726Z" fill="#263238" stroke="#263238" stroke-linecap="round" stroke-linejoin="round"/>
<path d="M113.916 97.0955H70.3116C68.9098 97.0955 67.7734 98.2318 67.7734 99.6337V108.995C67.7734 110.396 68.9098 111.533 70.3116 111.533H113.916C115.318 111.533 116.454 110.396 116.454 108.995V99.6337C116.454 98.2318 115.318 97.0955 113.916 97.0955Z" fill="white" stroke="#263238" stroke-linecap="round" stroke-linejoin="round"/>
<path d="M104.173 105.132H82.8281C82.6155 105.146 82.4162 105.241 82.2706 105.396C82.125 105.552 82.0439 105.757 82.0439 105.97C82.0439 106.183 82.125 106.388 82.2706 106.544C82.4162 106.699 82.6155 106.794 82.8281 106.808H104.173V105.132Z" fill="white"/>
<path d="M82.8281 106.808C82.6155 106.794 82.4162 106.699 82.2706 106.544C82.125 106.388 82.0439 106.183 82.0439 105.97C82.0439 105.757 82.125 105.552 82.2706 105.396C82.4162 105.24 82.6155 105.146 82.8281 105.132H111.244C111.359 105.124 111.474 105.14 111.582 105.179C111.691 105.218 111.79 105.278 111.874 105.357C111.958 105.435 112.025 105.53 112.07 105.636C112.116 105.741 112.14 105.855 112.14 105.97C112.14 106.085 112.116 106.199 112.07 106.304C112.025 106.41 111.958 106.505 111.874 106.583C111.79 106.662 111.691 106.722 111.582 106.761C111.474 106.8 111.359 106.816 111.244 106.808H82.8281Z" stroke="#263238" stroke-linecap="round" stroke-linejoin="round"/>
<path d="M94.1871 102.712V102.446C94.1726 102.325 94.1939 102.203 94.2486 102.094C94.3032 101.986 94.3886 101.895 94.4942 101.835C94.3935 101.776 94.3124 101.689 94.2611 101.585C94.2097 101.48 94.1904 101.362 94.2056 101.247V101.125C94.2056 100.934 94.2812 100.752 94.4158 100.617C94.5504 100.483 94.733 100.407 94.9234 100.407C95.1138 100.407 95.2963 100.483 95.4309 100.617C95.5656 100.752 95.6412 100.934 95.6412 101.125V101.247C95.6545 101.363 95.634 101.48 95.5822 101.584C95.5303 101.689 95.4493 101.776 95.3489 101.835C95.4551 101.895 95.5413 101.985 95.5966 102.093C95.6519 102.202 95.6739 102.325 95.6597 102.446V102.712C95.6597 102.908 95.5817 103.097 95.443 103.235C95.3042 103.374 95.116 103.452 94.9197 103.452C94.7234 103.452 94.5352 103.374 94.3964 103.235C94.2577 103.097 94.1797 102.908 94.1797 102.712H94.1871ZM95.1898 102.686V102.398C95.1898 102.172 95.0973 102.061 94.9234 102.061C94.7495 102.061 94.657 102.172 94.657 102.398V102.686C94.657 102.912 94.7495 103.023 94.9234 103.023C95.0973 103.023 95.1898 102.912 95.1898 102.686ZM95.1898 101.336V101.099C95.1898 100.903 95.1047 100.799 94.9419 100.799C94.7791 100.799 94.694 100.903 94.694 101.099V101.336C94.694 101.532 94.7791 101.635 94.9419 101.635C95.1047 101.635 95.1713 101.532 95.1713 101.336H95.1898Z" fill="#263238"/>
<path d="M95.9419 102.697V102.464H96.3859V102.731C96.3859 102.945 96.4784 103.023 96.6301 103.023C96.7818 103.023 96.8743 102.945 96.8743 102.731V102.061C96.8743 101.846 96.7781 101.765 96.6301 101.765C96.4821 101.765 96.3859 101.846 96.3859 102.061V102.087H95.9419L96.027 100.414H97.2665V100.844H96.4451L96.4081 101.558C96.4494 101.488 96.5092 101.43 96.581 101.391C96.6527 101.353 96.7337 101.335 96.8151 101.339C97.1592 101.339 97.3368 101.584 97.3368 102.024V102.697C97.3438 102.794 97.3308 102.89 97.2988 102.982C97.2667 103.073 97.2162 103.156 97.1504 103.227C97.0846 103.298 97.005 103.354 96.9164 103.393C96.8278 103.431 96.7322 103.451 96.6356 103.451C96.539 103.451 96.4434 103.431 96.3549 103.393C96.2663 103.354 96.1866 103.298 96.1208 103.227C96.055 103.156 96.0045 103.073 95.9725 102.982C95.9404 102.89 95.9275 102.794 95.9345 102.697H95.9419Z" fill="#263238"/>
<path d="M97.6356 101.598V100.858C97.6299 100.795 97.6374 100.732 97.6576 100.672C97.6778 100.612 97.7103 100.557 97.7529 100.51C97.7955 100.464 97.8474 100.426 97.9053 100.401C97.9631 100.375 98.0257 100.362 98.0889 100.362C98.1521 100.362 98.2146 100.375 98.2725 100.401C98.3303 100.426 98.3822 100.464 98.4249 100.51C98.4675 100.557 98.5 100.612 98.5202 100.672C98.5403 100.732 98.5478 100.795 98.5421 100.858V101.598C98.5478 101.661 98.5403 101.725 98.5202 101.785C98.5 101.845 98.4675 101.9 98.4249 101.946C98.3822 101.993 98.3303 102.03 98.2725 102.056C98.2146 102.081 98.1521 102.094 98.0889 102.094C98.0257 102.094 97.9631 102.081 97.9053 102.056C97.8474 102.03 97.7955 101.993 97.7529 101.946C97.7103 101.9 97.6778 101.845 97.6576 101.785C97.6374 101.725 97.6299 101.661 97.6356 101.598ZM98.2424 101.621V100.829C98.2424 100.699 98.1832 100.64 98.0907 100.64C97.9982 100.64 97.9353 100.699 97.9353 100.829V101.621C97.9353 101.754 97.9908 101.809 98.0907 101.809C98.1906 101.809 98.2424 101.75 98.2424 101.621ZM99.1748 100.414H99.4745L98.3164 103.408H98.0167L99.1748 100.414ZM98.9491 102.971V102.231C98.9434 102.168 98.9509 102.105 98.9711 102.045C98.9913 101.985 99.0237 101.93 99.0664 101.883C99.109 101.836 99.1609 101.799 99.2188 101.774C99.2766 101.748 99.3392 101.735 99.4024 101.735C99.4656 101.735 99.5281 101.748 99.586 101.774C99.6438 101.799 99.6957 101.836 99.7384 101.883C99.781 101.93 99.8134 101.985 99.8336 102.045C99.8538 102.105 99.8613 102.168 99.8556 102.231V102.971C99.8613 103.034 99.8538 103.098 99.8336 103.157C99.8134 103.217 99.781 103.272 99.7384 103.319C99.6957 103.366 99.6438 103.403 99.586 103.428C99.5281 103.454 99.4656 103.467 99.4024 103.467C99.3392 103.467 99.2766 103.454 99.2188 103.428C99.1609 103.403 99.109 103.366 99.0664 103.319C99.0237 103.272 98.9913 103.217 98.9711 103.157C98.9509 103.098 98.9434 103.034 98.9491 102.971ZM99.5559 102.993V102.201C99.5559 102.068 99.4967 102.013 99.4005 102.013C99.3043 102.013 99.2488 102.068 99.2488 102.201V102.993C99.2488 103.126 99.3043 103.182 99.4005 103.182C99.4967 103.182 99.5559 103.126 99.5559 102.993Z" fill="#263238"/>
<path d="M78.5518 108.473H72.1396V100.363H76.4132L78.5518 102.501V108.473Z" fill="white"/>
<path opacity="0.5" d="M78.5518 108.473H72.1396V100.363H76.4132L78.5518 102.501V108.473Z" fill="white" stroke="#263238" stroke-linecap="round" stroke-linejoin="round"/>
<path d="M78.5518 108.473H72.1396V100.363H76.4132L78.5518 102.501V108.473Z" stroke="#263238" stroke-linecap="round" stroke-linejoin="round"/>
<path d="M73.5636 104.666C73.4628 104.656 73.3692 104.609 73.3011 104.534C73.233 104.459 73.1953 104.362 73.1953 104.26C73.1953 104.159 73.233 104.062 73.3011 103.987C73.3692 103.912 73.4628 103.865 73.5636 103.855H77.1266C77.2274 103.865 77.321 103.912 77.3891 103.987C77.4572 104.062 77.4949 104.159 77.4949 104.26C77.4949 104.362 77.4572 104.459 77.3891 104.534C77.321 104.609 77.2274 104.656 77.1266 104.666H73.5636Z" fill="#858585" stroke="#263238" stroke-width="0.75" stroke-linecap="round" stroke-linejoin="round"/>
<path d="M73.5636 106.371C73.4628 106.362 73.3692 106.315 73.3011 106.24C73.233 106.165 73.1953 106.067 73.1953 105.966C73.1953 105.865 73.233 105.767 73.3011 105.692C73.3692 105.618 73.4628 105.571 73.5636 105.561H76.3497C76.4504 105.571 76.544 105.618 76.6121 105.692C76.6802 105.767 76.7179 105.865 76.7179 105.966C76.7179 106.067 76.6802 106.165 76.6121 106.24C76.544 106.315 76.4504 106.362 76.3497 106.371H73.5636Z" fill="#858585" stroke="#263238" stroke-width="0.75" stroke-linecap="round" stroke-linejoin="round"/>
<path d="M76.4131 102.501H78.5517L76.4131 100.363V102.501Z" fill="white" stroke="#263238" stroke-linecap="round" stroke-linejoin="round"/>
<path d="M120.654 58.7487H65.1241C63.7223 58.7487 62.5859 59.885 62.5859 61.2869V74.1888C62.5859 75.5906 63.7223 76.727 65.1241 76.727H120.654C122.056 76.727 123.192 75.5906 123.192 74.1888V61.2869C123.192 59.885 122.056 58.7487 120.654 58.7487Z" fill="#263238" stroke="#263238" stroke-linecap="round" stroke-linejoin="round"/>
<path d="M119.876 57.9717H64.3468C62.945 57.9717 61.8086 59.1081 61.8086 60.5099V73.4118C61.8086 74.8136 62.945 75.95 64.3468 75.95H119.876C121.278 75.95 122.415 74.8136 122.415 73.4118V60.5099C122.415 59.1081 121.278 57.9717 119.876 57.9717Z" fill="white" stroke="#263238" stroke-linecap="round" stroke-linejoin="round"/>
<path d="M82.9612 74.47H71.0879V59.4517H79.0022L82.9612 63.407V74.47Z" fill="white"/>
<path opacity="0.7" d="M82.9612 74.47H71.0879V59.4517H79.0022L82.9612 63.407V74.47Z" fill="white"/>
<path d="M82.9612 74.47H71.0879V59.4517H79.0022L82.9612 63.407V74.47Z" stroke="#263238" stroke-linecap="round" stroke-linejoin="round"/>
<path d="M79.0029 63.407H82.9619L79.0029 59.4517V63.407Z" fill="white" stroke="#263238" stroke-linecap="round" stroke-linejoin="round"/>
<path d="M74.5917 65.257H72.2607V67.588H74.5917V65.257Z" stroke="white" stroke-width="0.75" stroke-linecap="round" stroke-linejoin="round"/>
<path d="M76.9892 65.257H74.6582V67.588H76.9892V65.257Z" stroke="white" stroke-width="0.75" stroke-linecap="round" stroke-linejoin="round"/>
<path d="M79.3906 65.257H77.0596V67.588H79.3906V65.257Z" stroke="white" stroke-width="0.75" stroke-linecap="round" stroke-linejoin="round"/>
<path d="M81.789 65.257H79.458V67.588H81.789V65.257Z" stroke="white" stroke-width="0.75" stroke-linecap="round" stroke-linejoin="round"/>
<path d="M74.5917 67.588H72.2607V69.919H74.5917V67.588Z" stroke="white" stroke-width="0.75" stroke-linecap="round" stroke-linejoin="round"/>
<path d="M76.9892 67.588H74.6582V69.919H76.9892V67.588Z" stroke="white" stroke-width="0.75" stroke-linecap="round" stroke-linejoin="round"/>
<path d="M79.3906 67.588H77.0596V69.919H79.3906V67.588Z" stroke="white" stroke-width="0.75" stroke-linecap="round" stroke-linejoin="round"/>
<path d="M81.789 67.588H79.458V69.919H81.789V67.588Z" stroke="white" stroke-width="0.75" stroke-linecap="round" stroke-linejoin="round"/>
<path d="M74.5917 69.9189H72.2607V72.2499H74.5917V69.9189Z" stroke="white" stroke-width="0.75" stroke-linecap="round" stroke-linejoin="round"/>
<path d="M76.9892 69.9189H74.6582V72.2499H76.9892V69.9189Z" stroke="white" stroke-width="0.75" stroke-linecap="round" stroke-linejoin="round"/>
<path d="M79.3906 69.9189H77.0596V72.2499H79.3906V69.9189Z" stroke="white" stroke-width="0.75" stroke-linecap="round" stroke-linejoin="round"/>
<path d="M81.789 69.9189H79.458V72.2499H81.789V69.9189Z" stroke="white" stroke-width="0.75" stroke-linecap="round" stroke-linejoin="round"/>
<path d="M72.3057 72.0243L74.6589 69.8635L75.8244 69.919L77.0972 67.6213L78.2257 68.7535L79.4911 67.4252L80.6233 65.257" stroke="white" stroke-width="2" stroke-linecap="round" stroke-linejoin="round"/>
<path d="M79.2871 65.9341L80.6228 65.257L80.8929 66.7148" stroke="white" stroke-width="2" stroke-linecap="round" stroke-linejoin="round"/>
<path d="M87.631 66.4817H86.9502V66.0303C87.4904 66.0303 87.6902 65.9119 87.8308 65.516H88.26V69.586H87.6199L87.631 66.4817Z" fill="#263238"/>
<path d="M89.0176 68.6276V66.4816C89.0176 66.2236 89.1201 65.9761 89.3026 65.7936C89.4851 65.6111 89.7326 65.5085 89.9907 65.5085C90.2488 65.5085 90.4963 65.6111 90.6788 65.7936C90.8613 65.9761 90.9638 66.2236 90.9638 66.4816V68.6276C90.9638 68.8857 90.8613 69.1332 90.6788 69.3157C90.4963 69.4982 90.2488 69.6007 89.9907 69.6007C89.7326 69.6007 89.4851 69.4982 89.3026 69.3157C89.1201 69.1332 89.0176 68.8857 89.0176 68.6276ZM90.3237 68.6683V66.4483C90.3237 66.1597 90.1942 66.0487 89.9907 66.0487C89.7872 66.0487 89.6577 66.1597 89.6577 66.4483V68.6683C89.6577 68.9606 89.7872 69.0716 89.9907 69.0716C90.1942 69.0716 90.3237 68.9606 90.3237 68.6683Z" fill="#263238"/>
<path d="M91.3496 68.6276V66.4816C91.3496 66.2236 91.4521 65.9761 91.6346 65.7936C91.8171 65.6111 92.0646 65.5085 92.3227 65.5085C92.5808 65.5085 92.8283 65.6111 93.0108 65.7936C93.1933 65.9761 93.2958 66.2236 93.2958 66.4816V68.6276C93.2958 68.8857 93.1933 69.1332 93.0108 69.3157C92.8283 69.4982 92.5808 69.6007 92.3227 69.6007C92.0646 69.6007 91.8171 69.4982 91.6346 69.3157C91.4521 69.1332 91.3496 68.8857 91.3496 68.6276ZM92.6557 68.6683V66.4483C92.6557 66.1597 92.5262 66.0487 92.3227 66.0487C92.1192 66.0487 91.9897 66.1597 91.9897 66.4483V68.6683C91.9897 68.9606 92.1192 69.0716 92.3227 69.0716C92.5262 69.0716 92.6557 68.9606 92.6557 68.6683Z" fill="#263238"/>
<path d="M93.6914 67.1292V66.1117C93.6914 65.9478 93.7565 65.7906 93.8724 65.6748C93.9883 65.5589 94.1454 65.4938 94.3093 65.4938C94.4732 65.4938 94.6303 65.5589 94.7462 65.6748C94.8621 65.7906 94.9272 65.9478 94.9272 66.1117V67.1292C94.9272 67.2931 94.8621 67.4502 94.7462 67.5661C94.6303 67.682 94.4732 67.7471 94.3093 67.7471C94.1454 67.7471 93.9883 67.682 93.8724 67.5661C93.7565 67.4502 93.6914 67.2931 93.6914 67.1292ZM94.5202 67.1588V66.0821C94.5202 65.9008 94.4388 65.8231 94.3093 65.8231C94.1798 65.8231 94.0984 65.9008 94.0984 66.0821V67.1588C94.0984 67.3401 94.1761 67.4141 94.3093 67.4141C94.4425 67.4141 94.5202 67.3401 94.5202 67.1588ZM95.7893 65.516H96.2L94.6201 69.586H94.2131L95.7893 65.516ZM95.4785 69.0014V67.9802C95.4785 67.899 95.4945 67.8187 95.5255 67.7437C95.5566 67.6687 95.6021 67.6006 95.6595 67.5433C95.7168 67.4859 95.785 67.4404 95.8599 67.4093C95.9349 67.3783 96.0152 67.3623 96.0964 67.3623C96.1775 67.3623 96.2579 67.3783 96.3328 67.4093C96.4078 67.4404 96.4759 67.4859 96.5333 67.5433C96.5907 67.6006 96.6362 67.6687 96.6672 67.7437C96.6983 67.8187 96.7143 67.899 96.7143 67.9802V69.0014C96.7143 69.0825 96.6983 69.1629 96.6672 69.2378C96.6362 69.3128 96.5907 69.3809 96.5333 69.4383C96.4759 69.4957 96.4078 69.5412 96.3328 69.5722C96.2579 69.6033 96.1775 69.6193 96.0964 69.6193C96.0152 69.6193 95.9349 69.6033 95.8599 69.5722C95.785 69.5412 95.7168 69.4957 95.6595 69.4383C95.6021 69.3809 95.5566 69.3128 95.5255 69.2378C95.4945 69.1629 95.4785 69.0825 95.4785 69.0014ZM96.3073 69.031V67.9506C96.3073 67.7693 96.2259 67.6953 96.0964 67.6953C95.9669 67.6953 95.8892 67.7693 95.8892 67.9506V69.031C95.8892 69.2086 95.9632 69.2863 96.0964 69.2863C96.2296 69.2863 96.3073 69.2086 96.3073 69.031Z" fill="#263238"/>
<path d="M97.751 68.3206V66.7111C97.751 66.5276 97.8239 66.3516 97.9536 66.2218C98.0834 66.0921 98.2594 66.0192 98.4429 66.0192C98.6264 66.0192 98.8024 66.0921 98.9321 66.2218C99.0619 66.3516 99.1348 66.5276 99.1348 66.7111V67.0293H98.6908V66.6815C98.6908 66.4854 98.5946 66.404 98.454 66.404C98.3134 66.404 98.2209 66.4854 98.2209 66.6815V68.3539C98.2209 68.55 98.3134 68.6277 98.454 68.6277C98.5946 68.6277 98.6908 68.55 98.6908 68.3539V67.8951H99.1348V68.3206C99.1348 68.5041 99.0619 68.6801 98.9321 68.8098C98.8024 68.9396 98.6264 69.0125 98.4429 69.0125C98.2594 69.0125 98.0834 68.9396 97.9536 68.8098C97.8239 68.6801 97.751 68.5041 97.751 68.3206Z" fill="#263238"/>
<path d="M99.3896 68.3021V66.7296C99.3896 66.5402 99.4649 66.3586 99.5988 66.2247C99.7327 66.0907 99.9144 66.0155 100.104 66.0155C100.293 66.0155 100.475 66.0907 100.609 66.2247C100.743 66.3586 100.818 66.5402 100.818 66.7296V68.3021C100.818 68.4915 100.743 68.6731 100.609 68.8071C100.475 68.941 100.293 69.0162 100.104 69.0162C99.9144 69.0162 99.7327 68.941 99.5988 68.8071C99.4649 68.6731 99.3896 68.4915 99.3896 68.3021ZM100.348 68.3317V66.7C100.348 66.4854 100.255 66.404 100.104 66.404C99.9521 66.404 99.8596 66.4854 99.8596 66.7V68.3317C99.8596 68.5463 99.9558 68.6277 100.104 68.6277C100.252 68.6277 100.348 68.5463 100.348 68.3317Z" fill="#263238"/>
<path d="M101.133 66.0192H101.806L102.106 68.1615L102.406 66.0192H103.075V69.0125H102.631V66.7481L102.287 69.0125H101.895L101.555 66.7481V69.0125H101.144L101.133 66.0192Z" fill="#263238"/>
<path d="M103.434 66.0192H104.125C104.595 66.0192 104.825 66.2819 104.825 66.7592V67.0552C104.825 67.5325 104.595 67.7952 104.125 67.7952H103.903V69.0125H103.434V66.0192ZM104.125 67.366C104.273 67.366 104.355 67.2994 104.355 67.0848V66.7148C104.355 66.5002 104.273 66.4336 104.125 66.4336H103.903V67.3512L104.125 67.366Z" fill="#263238"/>
<path d="M105.08 66.0192H105.55V68.5833H106.323V69.0125H105.08V66.0192Z" fill="#263238"/>
<path d="M106.561 66.0192H107.841V66.4484H107.03V67.2365H107.671V67.6657H107.027V68.5833H107.837V69.0125H106.561V66.0192Z" fill="#263238"/>
<path d="M108.469 66.4484H107.98V66.0192H109.431V66.4484H108.939V69.0125H108.469V66.4484Z" fill="#263238"/>
<path d="M109.661 66.0192H110.941V66.4484H110.131V67.2365H110.775V67.6657H110.131V68.5833H110.941V69.0125H109.661V66.0192Z" fill="#263238"/>
<path d="M111.211 66.0192H111.929C112.399 66.0192 112.628 66.2819 112.628 66.7592V68.2725C112.628 68.7498 112.399 69.0125 111.929 69.0125H111.211V66.0192ZM111.918 68.5833C112.069 68.5833 112.158 68.5056 112.158 68.2947V66.737C112.158 66.5261 112.069 66.4484 111.918 66.4484H111.681V68.5833H111.918Z" fill="#263238"/>
<path d="M114.693 114.63H71.088C69.6862 114.63 68.5498 115.766 68.5498 117.168V126.529C68.5498 127.931 69.6862 129.067 71.088 129.067H114.693C116.094 129.067 117.231 127.931 117.231 126.529V117.168C117.231 115.766 116.094 114.63 114.693 114.63Z" fill="#263238" stroke="#263238" stroke-linecap="round" stroke-linejoin="round"/>
<path d="M113.916 113.853H70.3116C68.9098 113.853 67.7734 114.989 67.7734 116.391V125.752C67.7734 127.154 68.9098 128.29 70.3116 128.29H113.916C115.318 128.29 116.454 127.154 116.454 125.752V116.391C116.454 114.989 115.318 113.853 113.916 113.853Z" fill="white" stroke="#263238" stroke-linecap="round" stroke-linejoin="round"/>
<path d="M102.668 121.786H82.8284C82.6066 121.786 82.3939 121.874 82.2371 122.03C82.0803 122.187 81.9922 122.4 81.9922 122.622C81.9922 122.843 82.0803 123.056 82.2371 123.213C82.3939 123.37 82.6066 123.458 82.8284 123.458H102.668V121.786Z" fill="white"/>
<path d="M82.8284 123.458C82.6066 123.458 82.3939 123.37 82.2371 123.213C82.0803 123.056 81.9922 122.843 81.9922 122.622C81.9922 122.4 82.0803 122.187 82.2371 122.03C82.3939 121.874 82.6066 121.786 82.8284 121.786H111.244C111.354 121.786 111.463 121.807 111.564 121.849C111.666 121.891 111.758 121.953 111.836 122.03C111.913 122.108 111.975 122.2 112.017 122.302C112.059 122.403 112.081 122.512 112.081 122.622C112.081 122.732 112.059 122.84 112.017 122.942C111.975 123.043 111.913 123.135 111.836 123.213C111.758 123.291 111.666 123.352 111.564 123.394C111.463 123.436 111.354 123.458 111.244 123.458H82.8284Z" stroke="#263238" stroke-linecap="round" stroke-linejoin="round"/>
<path d="M78.5518 125.127H72.1396V117.016H76.4132L78.5518 119.151V125.127Z" fill="white"/>
<path opacity="0.5" d="M78.5518 125.127H72.1396V117.016H76.4132L78.5518 119.151V125.127Z" fill="white"/>
<path d="M78.5518 125.127H72.1396V117.016H76.4132L78.5518 119.151V125.127Z" stroke="#263238" stroke-linecap="round" stroke-linejoin="round"/>
<path d="M73.5636 121.319C73.4628 121.31 73.3692 121.263 73.3011 121.188C73.233 121.113 73.1953 121.015 73.1953 120.914C73.1953 120.813 73.233 120.715 73.3011 120.64C73.3692 120.566 73.4628 120.519 73.5636 120.509H77.1266C77.2274 120.519 77.321 120.566 77.3891 120.64C77.4572 120.715 77.4949 120.813 77.4949 120.914C77.4949 121.015 77.4572 121.113 77.3891 121.188C77.321 121.263 77.2274 121.31 77.1266 121.319H73.5636Z" fill="#858585" stroke="#263238" stroke-width="0.75" stroke-linecap="round" stroke-linejoin="round"/>
<path d="M73.5635 123.021C73.4565 123.021 73.3539 122.979 73.2783 122.903C73.2026 122.828 73.1602 122.725 73.1602 122.618C73.1602 122.511 73.2026 122.408 73.2783 122.333C73.3539 122.257 73.4565 122.215 73.5635 122.215H76.3496C76.4565 122.215 76.5591 122.257 76.6347 122.333C76.7104 122.408 76.7529 122.511 76.7529 122.618C76.7529 122.725 76.7104 122.828 76.6347 122.903C76.5591 122.979 76.4565 123.021 76.3496 123.021H73.5635Z" fill="#858585" stroke="#263238" stroke-width="0.75" stroke-linecap="round" stroke-linejoin="round"/>
<path d="M76.4131 119.151H78.5517L76.4131 117.016V119.151Z" fill="white" stroke="#263238" stroke-linecap="round" stroke-linejoin="round"/>
<path d="M95.1638 117.494H94.2129V117.068H95.6226V117.479L94.8826 120.069H94.4016L95.1638 117.494Z" fill="#263238"/>
<path d="M95.9189 119.351V117.778C95.9189 117.589 95.9942 117.407 96.1281 117.273C96.262 117.14 96.4437 117.064 96.6331 117.064C96.8224 117.064 97.0041 117.14 97.138 117.273C97.2719 117.407 97.3472 117.589 97.3472 117.778V119.351C97.3472 119.54 97.2719 119.722 97.138 119.856C97.0041 119.99 96.8224 120.065 96.6331 120.065C96.4437 120.065 96.262 119.99 96.1281 119.856C95.9942 119.722 95.9189 119.54 95.9189 119.351ZM96.8772 119.381V117.749C96.8772 117.534 96.7811 117.453 96.6331 117.453C96.4851 117.453 96.3889 117.534 96.3889 117.749V119.381C96.3889 119.595 96.4851 119.673 96.6331 119.673C96.7811 119.673 96.8772 119.595 96.8772 119.381Z" fill="#263238"/>
<path d="M97.6356 118.252V117.512C97.6299 117.449 97.6374 117.386 97.6576 117.326C97.6778 117.266 97.7103 117.211 97.7529 117.164C97.7955 117.117 97.8474 117.08 97.9053 117.055C97.9631 117.029 98.0257 117.016 98.0889 117.016C98.1521 117.016 98.2146 117.029 98.2725 117.055C98.3303 117.08 98.3822 117.117 98.4249 117.164C98.4675 117.211 98.5 117.266 98.5202 117.326C98.5403 117.386 98.5478 117.449 98.5421 117.512V118.252C98.5478 118.315 98.5403 118.379 98.5202 118.438C98.5 118.498 98.4675 118.553 98.4249 118.6C98.3822 118.647 98.3303 118.684 98.2725 118.71C98.2146 118.735 98.1521 118.748 98.0889 118.748C98.0257 118.748 97.9631 118.735 97.9053 118.71C97.8474 118.684 97.7955 118.647 97.7529 118.6C97.7103 118.553 97.6778 118.498 97.6576 118.438C97.6374 118.379 97.6299 118.315 97.6356 118.252ZM98.2424 118.274V117.482C98.2424 117.349 98.1832 117.294 98.0907 117.294C97.9982 117.294 97.9353 117.349 97.9353 117.482V118.274C97.9353 118.404 97.9908 118.459 98.0907 118.459C98.1906 118.459 98.2424 118.4 98.2424 118.274ZM99.16 117.068H99.4597L98.3016 120.058H98.0019L99.16 117.068ZM98.9343 119.625V118.885C98.9286 118.822 98.9361 118.758 98.9563 118.698C98.9765 118.639 99.009 118.583 99.0516 118.537C99.0942 118.49 99.1461 118.453 99.204 118.427C99.2618 118.402 99.3243 118.389 99.3876 118.389C99.4508 118.389 99.5133 118.402 99.5712 118.427C99.629 118.453 99.6809 118.49 99.7236 118.537C99.7662 118.583 99.7986 118.639 99.8188 118.698C99.839 118.758 99.8465 118.822 99.8408 118.885V119.625C99.8465 119.688 99.839 119.751 99.8188 119.811C99.7986 119.871 99.7662 119.926 99.7236 119.973C99.6809 120.019 99.629 120.057 99.5712 120.082C99.5133 120.108 99.4508 120.121 99.3876 120.121C99.3243 120.121 99.2618 120.108 99.204 120.082C99.1461 120.057 99.0942 120.019 99.0516 119.973C99.009 119.926 98.9765 119.871 98.9563 119.811C98.9361 119.751 98.9286 119.688 98.9343 119.625ZM99.5411 119.643V118.855C99.5411 118.722 99.4819 118.666 99.3857 118.666C99.2895 118.666 99.234 118.722 99.234 118.855V119.643C99.234 119.776 99.2895 119.832 99.3857 119.832C99.4819 119.832 99.5559 119.776 99.5559 119.643H99.5411Z" fill="#263238"/>
<path d="M43.8232 40.7741L53.5875 33.2261L63.3518 40.7741H43.8232Z" fill="#263238" stroke="#263238" stroke-linecap="round" stroke-linejoin="round"/>
<path d="M56.1402 32.634H51.0342V37H56.1402V32.634Z" fill="#263238" stroke="#263238" stroke-linecap="round" stroke-linejoin="round"/>
<path d="M53.5879 21.7856V37" stroke="#263238" stroke-width="0.75" stroke-linecap="round" stroke-linejoin="round"/>
<path d="M121.646 40.7741L131.414 33.2261L141.178 40.7741H121.646Z" fill="#263238" stroke="#263238" stroke-linecap="round" stroke-linejoin="round"/>
<path d="M133.966 32.634H128.86V37H133.966V32.634Z" fill="#263238" stroke="#263238" stroke-linecap="round" stroke-linejoin="round"/>
<path d="M131.413 21.0457V37.0001" stroke="#263238" stroke-width="0.75" stroke-linecap="round" stroke-linejoin="round"/>
<path d="M135.224 158.578L135.017 164.683L138.176 164.835L139.327 158.578H135.224Z" fill="white" stroke="#263238" stroke-linecap="round" stroke-linejoin="round"/>
<path d="M129.041 166.556C130.106 166.186 131.949 165.557 132.641 165.124C133.196 164.776 133.969 163.644 134.543 163.325C134.663 163.273 134.793 163.246 134.924 163.246C135.055 163.246 135.184 163.273 135.305 163.325C135.398 163.429 135.458 163.558 135.479 163.695C135.495 163.755 135.528 163.809 135.574 163.85C135.62 163.891 135.677 163.917 135.738 163.926C135.8 163.935 135.862 163.925 135.918 163.899C135.974 163.872 136.02 163.83 136.052 163.777C136.141 163.603 136.267 163.451 136.422 163.333C136.911 163.059 138.231 162.981 138.664 163.333C139.382 163.921 139.641 165.949 139.774 166.863C139.808 167.062 139.774 168.172 139.774 168.172H128.245V167.666C128.244 167.42 128.32 167.181 128.463 166.981C128.605 166.782 128.808 166.633 129.041 166.556Z" fill="white" stroke="#263238" stroke-linecap="round" stroke-linejoin="round"/>
<path d="M139.782 168.165H128.245V167.658C128.245 167.532 128.266 167.407 128.308 167.288H139.797C139.797 167.677 139.782 168.165 139.782 168.165Z" fill="#858585" stroke="#263238" stroke-linecap="round" stroke-linejoin="round"/>
<path d="M137.217 111.248L134.794 160.902L139.234 161.642C139.234 161.642 142.031 147.271 142.372 142.565C142.453 141.455 142.372 138.106 142.372 138.106L145.513 122.644C145.513 122.644 147.581 120.735 147.822 111.644L137.217 111.248Z" fill="#263238" stroke="#263238" stroke-linecap="round" stroke-linejoin="round"/>
<path opacity="0.7" d="M143.79 130.466C143.96 129.748 144.16 129.041 144.4 128.338C144.437 128.238 144.482 128.146 144.526 128.053C144.636 127.003 144.805 125.959 145.033 124.927C145.111 124.541 145.319 124.194 145.621 123.943C145.707 123.748 145.836 123.574 145.998 123.435C146.16 123.296 146.351 123.195 146.557 123.14C146.421 122.184 146.213 121.241 145.936 120.317C145.654 119.347 145.196 118.419 145.059 117.416C145.022 117.157 144.874 116.887 144.922 116.857C144.604 116.733 144.293 116.592 143.989 116.435L143.934 116.391C143.65 121.077 143.602 125.775 143.79 130.466Z" fill="black"/>
<path d="M137.007 139.649C137.793 139.467 138.514 139.074 139.094 138.513" stroke="#7F7F7F" stroke-width="0.75" stroke-linecap="round" stroke-linejoin="round"/>
<path d="M134.209 161.845L139.578 162.286L139.977 160.547L134.209 160.095V161.845Z" fill="white" stroke="#263238" stroke-linecap="round" stroke-linejoin="round"/>
<path d="M149.713 157.827L150.856 164.965L153.779 164.735L153.683 157.428L149.713 157.827Z" fill="white" stroke="#263238" stroke-linecap="round" stroke-linejoin="round"/>
<path d="M144.817 166.556C145.886 166.186 147.729 165.557 148.417 165.124C148.972 164.776 149.749 163.644 150.319 163.325C150.44 163.273 150.57 163.246 150.702 163.246C150.834 163.246 150.964 163.273 151.085 163.325C151.152 163.394 151.199 163.48 151.222 163.573C151.242 163.644 151.282 163.707 151.338 163.755C151.394 163.803 151.463 163.833 151.536 163.841C151.609 163.849 151.683 163.836 151.748 163.802C151.814 163.768 151.867 163.716 151.903 163.651C151.978 163.523 152.079 163.413 152.199 163.325C152.687 163.052 154.008 162.974 154.441 163.325C155.159 163.914 155.418 165.941 155.551 166.855C155.58 167.055 155.551 168.165 155.551 168.165H144.025V167.658C144.025 167.415 144.101 167.177 144.244 166.979C144.386 166.781 144.586 166.633 144.817 166.556Z" fill="white" stroke="#263238" stroke-linecap="round" stroke-linejoin="round"/>
<path d="M155.562 168.165H144.025V167.658C144.024 167.532 144.044 167.407 144.085 167.288H155.573C155.573 167.677 155.562 168.165 155.562 168.165Z" fill="#858585" stroke="#263238" stroke-linecap="round" stroke-linejoin="round"/>
<path d="M143.396 112.746C143.396 112.746 144.506 119.173 145.528 124.564C146.223 128.22 146.268 139.02 146.268 139.02L149.812 161.32L154.182 160.732C154.182 160.732 154.234 147.005 153.742 142.602C153.631 141.621 153.449 138.709 153.449 138.709C153.449 138.709 153.616 127.062 154.515 123.169C155.159 120.394 156.439 117.479 154.885 111.792L143.396 112.746Z" fill="#263238" stroke="#263238" stroke-linecap="round" stroke-linejoin="round"/>
<path d="M147.227 139.649C147.671 140.264 148.332 140.689 149.077 140.837" stroke="#7F7F7F" stroke-width="0.75" stroke-linecap="round" stroke-linejoin="round"/>
<path d="M149.08 160.317L149.332 161.953L154.748 161.372L154.711 159.611L149.08 160.317Z" fill="white" stroke="#263238" stroke-linecap="round" stroke-linejoin="round"/>
<path d="M122.777 83.0169L121.581 81.0078C121.581 81.0078 121.293 77.7259 120.627 77.0858C119.961 76.4457 118.481 74.5624 118.27 74.9324C117.937 75.5244 119.169 76.5789 119.169 76.5789L119.395 77.7999C119.395 77.7999 117.4 76.3643 116.838 76.3643C116.838 76.3643 115.247 74.481 114.685 74.4773C114.122 74.4736 114.914 75.7797 114.914 75.7797C114.914 75.7797 114.378 75.369 114.274 75.6243C114.17 75.8796 114.966 76.7528 114.966 76.7528C114.966 76.7528 114.659 77.0858 115.121 77.7999C115.057 78.0306 115.058 78.2745 115.123 78.5048C115.188 78.7351 115.316 78.9431 115.491 79.106C116.105 79.5944 119.406 81.4629 119.406 81.4629L120.516 84.0751L122.777 83.0169Z" fill="#858585" stroke="#263238" stroke-linecap="round" stroke-linejoin="round"/>
<path d="M115.402 76.8046C115.402 76.8046 115.839 76.9822 115.658 77.6223C115.832 77.8699 115.93 78.1632 115.939 78.4659C115.983 79.0283 118.832 78.7508 119.602 79.9459" stroke="#263238" stroke-width="0.75" stroke-linecap="round" stroke-linejoin="round"/>
<path d="M115.402 76.1127L116.564 77.3411" stroke="#263238" stroke-width="0.75" stroke-linecap="round" stroke-linejoin="round"/>
<path d="M135.112 82.51L127.486 88.4522L122.262 81.3334L119.602 82.6654C119.602 82.6654 123.783 94.2168 126.946 94.2168C130.309 94.2168 136.703 88.8148 136.703 88.8148C136.703 88.8148 137.106 87.7825 135.112 82.51Z" fill="white" stroke="#263238" stroke-linecap="round" stroke-linejoin="round"/>
<path d="M127.774 89.0183C127.953 89.3972 128.086 89.7959 128.17 90.206" stroke="#263238" stroke-width="0.75" stroke-linecap="round" stroke-linejoin="round"/>
<path d="M135.112 82.51L136.737 104.011V112.943C136.737 112.943 146.094 114.053 155.325 112.706L155.007 103.511L155.943 83.0169C155.943 83.0169 151.659 79.92 145.08 79.92C138.501 79.92 135.112 82.51 135.112 82.51Z" fill="white" stroke="#263238" stroke-linecap="round" stroke-linejoin="round"/>
<path opacity="0.2" d="M155.326 112.706L155.03 104.466C154.87 108.436 150.49 106.945 149.498 106.76C148.436 106.56 147.215 110.06 147.215 110.06C147.215 110.06 143.145 110.76 139.959 110.512C136.774 110.264 136.726 107.356 136.726 107.356V112.943C136.726 112.943 146.094 114.067 155.326 112.706Z" fill="black"/>
<path d="M141.121 103.803C145.045 103.381 148.811 102.025 152.103 99.8481L141.121 103.803Z" fill="white"/>
<path d="M141.121 103.803C145.045 103.381 148.811 102.025 152.103 99.8481" stroke="#263238" stroke-width="0.75" stroke-linecap="round" stroke-linejoin="round"/>
<path d="M139.489 103.914C139.489 103.914 139.804 103.914 140.359 103.874L139.489 103.914Z" fill="white"/>
<path d="M139.489 103.914C139.489 103.914 139.804 103.914 140.359 103.874" stroke="#263238" stroke-width="0.75" stroke-linecap="round" stroke-linejoin="round"/>
<path d="M142.656 83.546L141.036 82.9577L139.489 84.4525L140.621 79.8275L141.987 78.7545L142.682 79.1948L145.79 79.0764L148.206 79.2725L149.357 78.9173L150.586 80.1457L147.851 85.3738L146.704 83.3943L144.173 83.7088L142.656 83.546Z" fill="white"/>
<path opacity="0.5" d="M142.656 83.546L141.036 82.9577L139.489 84.4525L140.621 79.8275L141.987 78.7545L142.682 79.1948L145.79 79.0764L148.206 79.2725L149.357 78.9173L150.586 80.1457L147.851 85.3738L146.704 83.3943L144.173 83.7088L142.656 83.546Z" fill="white"/>
<path d="M142.656 83.546L141.036 82.9577L139.489 84.4525L140.621 79.8275L141.987 78.7545L142.682 79.1948L145.79 79.0764L148.206 79.2725L149.357 78.9173L150.586 80.1457L147.851 85.3738L146.704 83.3943L144.173 83.7088L142.656 83.546Z" stroke="#263238" stroke-linecap="round" stroke-linejoin="round"/>
<path d="M148.04 80.1309L147.67 74.4773L144.096 75.11L143.356 77.7666L142.616 80.068L142.265 80.105L143.238 85.3886L148.396 80.2086L148.04 80.1309Z" fill="#858585"/>
<path d="M139.253 74.8695C139.253 76.3051 139.475 79.5167 141.447 79.8904C143.489 80.2789 145.832 77.9553 146.671 77.0266C146.882 76.7959 147.046 76.5271 147.156 76.2348L147.604 75.0471C147.896 75.0695 148.189 75.0079 148.447 74.8695H139.253Z" fill="#263238" stroke="#263238" stroke-width="0.5" stroke-linecap="round" stroke-linejoin="round"/>
<path d="M148.04 80.1309L147.67 74.4773L144.096 75.11L143.356 77.7666L142.616 80.068L142.265 80.105L143.238 85.3886L148.396 80.2086L148.04 80.1309Z" stroke="#263238" stroke-linecap="round" stroke-linejoin="round"/>
<path d="M141.636 67.6101C141.636 67.6101 139.945 66.3225 140.774 65.3087C141.206 64.7833 141.769 65.4752 141.769 65.4752C141.769 65.4752 141.469 63.862 142.672 63.6252C143.782 63.418 143.737 64.6908 143.737 64.6908C143.737 64.6908 144.311 63.5993 145.313 63.8435C146.113 64.0359 145.806 65.1681 145.806 65.1681C145.806 65.1681 146.871 63.8435 147.974 64.4281C148.925 64.9276 148.14 66.1264 148.14 66.1264C148.14 66.1264 149.272 65.7268 149.905 66.3632C150.538 66.9996 149.905 67.8432 149.905 67.8432C149.905 67.8432 151.152 67.8432 151.208 68.7756C151.263 69.708 150.242 69.8856 150.242 69.8856C150.242 69.8856 151.685 70.3518 151.696 71.484C151.707 72.6162 150.741 72.2536 150.741 72.2536C150.741 72.2536 151.341 73.3192 150.841 73.8853C150.785 73.9611 150.712 74.0226 150.628 74.065C150.544 74.1074 150.451 74.1295 150.357 74.1295C150.262 74.1295 150.169 74.1074 150.085 74.065C150.001 74.0226 149.928 73.9611 149.872 73.8853C149.872 73.8853 150.497 75.2284 149.705 75.6206C149.139 75.8981 148.806 75.2173 148.806 75.2173C148.806 75.2173 148.329 76.3791 147.752 75.6687C147.175 74.9583 144.311 69.486 144.311 69.486L141.636 67.6101Z" fill="#263238" stroke="#263238" stroke-width="0.75" stroke-linecap="round" stroke-linejoin="round"/>
<path d="M141.147 67.662L140.082 69.882C139.972 70.1134 139.916 70.3661 139.915 70.622V71.3176L139.327 72.7976C139.297 72.8747 139.272 72.9538 139.253 73.0344C139.064 73.8225 138.165 78.0553 140.363 78.9174C142.302 79.6796 145.032 77.8407 146.035 77.0859C146.285 76.8977 146.496 76.6627 146.657 76.394L147.323 75.3136C147.605 75.3981 147.908 75.3909 148.186 75.2933C148.464 75.1956 148.705 75.0123 148.873 74.7697C149.469 73.915 150.157 73.4525 149.339 72.6829C148.521 71.9133 147.767 73.1454 147.767 73.1454L147.878 70.9735L146.93 69.3085L146.882 68.2614C146.882 68.2614 143.782 67.9173 141.702 66.7814L141.147 67.662Z" fill="white" stroke="#263238" stroke-width="0.75" stroke-linecap="round" stroke-linejoin="round"/>
<path d="M141.147 67.662L140.082 69.882C139.972 70.1134 139.916 70.3661 139.915 70.622V71.3176L139.327 72.7976C139.297 72.8747 139.272 72.9538 139.253 73.0344C139.064 73.8225 138.165 78.0553 140.363 78.9174C142.302 79.6796 145.032 77.8407 146.035 77.0859C146.285 76.8977 146.496 76.6627 146.657 76.394L147.323 75.3136C147.605 75.3981 147.908 75.3909 148.186 75.2933C148.464 75.1956 148.705 75.0123 148.873 74.7697C149.469 73.915 150.157 73.4525 149.339 72.6829C148.521 71.9133 147.767 73.1454 147.767 73.1454L147.878 70.9735L146.93 69.3085L146.882 68.2614C146.882 68.2614 143.782 67.9173 141.702 66.7814L141.147 67.662Z" fill="#858585" stroke="#263238" stroke-linecap="round" stroke-linejoin="round"/>
<path d="M143.034 75.2432C142.435 76.4013 141.621 76.2089 141.11 75.9203" stroke="#263238" stroke-width="0.75" stroke-linecap="round" stroke-linejoin="round"/>
<path d="M143.045 72.6125C142.963 72.8752 142.797 73.0565 142.675 73.0195C142.552 72.9825 142.512 72.7346 142.593 72.4719C142.675 72.2092 142.841 72.0242 142.963 72.0649C143.085 72.1056 143.126 72.3498 143.045 72.6125Z" fill="#263238"/>
<path d="M140.574 71.8466C140.492 72.113 140.326 72.2943 140.204 72.2536C140.082 72.2129 140.041 71.9687 140.122 71.706C140.204 71.4433 140.374 71.262 140.492 71.3027C140.611 71.3434 140.655 71.5839 140.574 71.8466Z" fill="#263238"/>
<path d="M140.396 70.1372C140.494 70.1097 140.596 70.1028 140.697 70.1168C140.798 70.1308 140.895 70.1654 140.981 70.2186C141.068 70.2717 141.143 70.3422 141.202 70.4256C141.26 70.509 141.3 70.6035 141.321 70.7033" stroke="#263238" stroke-width="0.75" stroke-linecap="round" stroke-linejoin="round"/>
<path d="M142.523 71.1473C142.523 71.1473 143.386 70.2408 143.966 71.2028" stroke="#263238" stroke-width="0.75" stroke-linecap="round" stroke-linejoin="round"/>
<path d="M141.34 72.0797C141.262 72.4332 141.096 72.7611 140.856 73.0324C140.617 73.3037 140.312 73.5094 139.971 73.63L140.644 74.6993" stroke="#263238" stroke-width="0.75" stroke-linecap="round" stroke-linejoin="round"/>
<path d="M145.636 114.5L145.447 115.644C145.42 115.832 145.467 116.024 145.578 116.179C145.689 116.335 145.855 116.441 146.043 116.476L157.909 118.422C158.097 118.449 158.289 118.403 158.444 118.292C158.6 118.181 158.706 118.014 158.741 117.827L158.926 116.683L145.636 114.5Z" fill="white" stroke="#263238" stroke-width="0.75" stroke-linecap="round" stroke-linejoin="round"/>
<path d="M159.457 109.479L147.456 107.509C147.099 107.451 146.762 107.693 146.704 108.049L145.514 115.297C145.456 115.654 145.697 115.991 146.054 116.049L158.056 118.019C158.413 118.077 158.749 117.836 158.808 117.479L159.997 110.231C160.056 109.874 159.814 109.537 159.457 109.479Z" fill="white"/>
<path opacity="0.5" d="M159.457 109.479L147.456 107.509C147.099 107.451 146.762 107.693 146.704 108.049L145.514 115.297C145.456 115.654 145.697 115.991 146.054 116.049L158.056 118.019C158.413 118.077 158.749 117.836 158.808 117.479L159.997 110.231C160.056 109.874 159.814 109.537 159.457 109.479Z" fill="white"/>
<path d="M159.457 109.479L147.456 107.509C147.099 107.451 146.762 107.693 146.704 108.049L145.514 115.297C145.456 115.654 145.697 115.991 146.054 116.049L158.056 118.019C158.413 118.077 158.749 117.836 158.808 117.479L159.997 110.231C160.056 109.874 159.814 109.537 159.457 109.479Z" stroke="#263238" stroke-linecap="round" stroke-linejoin="round"/>
<path d="M154.826 110.83L154.171 113.05L151.951 114.637C151.637 115.609 151.267 116.561 150.841 117.49C150.813 117.542 150.799 117.6 150.799 117.659C150.799 117.718 150.814 117.776 150.843 117.827C150.872 117.878 150.914 117.922 150.964 117.953C151.014 117.984 151.071 118.001 151.13 118.004C151.437 118.004 151.796 117.86 151.992 117.264C151.992 117.264 152.077 118.433 152.799 117.719C152.799 117.719 153.239 118.851 153.927 117.96C153.927 117.96 155.522 118.197 155.777 117.046C156.033 115.895 156.41 113.868 156.41 113.868L157.424 111.488L154.826 110.83Z" fill="#858585" stroke="#263238" stroke-linecap="round" stroke-linejoin="round"/>
<path d="M151.977 116.809L152.228 115.096" stroke="#263238" stroke-width="0.75" stroke-linecap="round" stroke-linejoin="round"/>
<path d="M152.373 116.92C152.373 116.92 152.547 117.486 152.939 117.394C153.331 117.301 153.89 117.738 155.111 117.223" stroke="#263238" stroke-width="0.75" stroke-linecap="round" stroke-linejoin="round"/>
<path d="M155.943 83.017C155.943 83.017 161.493 98.4386 161.389 100.692C161.286 102.945 157.338 112.746 157.338 112.746L154.289 111.777L156.324 100.281L154.5 92.2929C154.5 92.2929 154.086 86.4358 155.943 83.017Z" fill="white" stroke="#263238" stroke-linecap="round" stroke-linejoin="round"/>
<path d="M157.009 100.026C157.213 99.8691 157.451 99.7602 157.703 99.707C157.955 99.6539 158.216 99.6579 158.467 99.7187" stroke="#263238" stroke-width="0.75" stroke-linecap="round" stroke-linejoin="round"/>
<path d="M153.402 112.021C153.291 111.875 153.209 111.709 153.158 111.533C152.944 111.529 152.737 111.606 152.578 111.748C152.42 111.89 152.321 112.088 152.301 112.3C152.282 112.513 152.344 112.725 152.475 112.893C152.606 113.062 152.795 113.175 153.006 113.209C153.227 113.245 153.454 113.192 153.636 113.062C153.819 112.932 153.942 112.734 153.979 112.513C153.741 112.412 153.539 112.24 153.402 112.021Z" fill="white"/>
<path d="M45.1176 79.4723L45.791 82.7912L38.3096 83.1057L39.6083 73.9075L44.6477 74.4921L45.1176 79.4723Z" fill="white"/>
<path d="M48.4706 74.4365L42.2139 76.2865C42.292 77.0037 42.4407 77.7113 42.6579 78.3992C43.0279 79.4648 45.2812 81.3592 46.7279 81.337C48.1746 81.3148 48.3374 76.7046 48.3374 76.7046L49.2106 76.2199C49.2606 76.1915 49.3039 76.1527 49.3379 76.1062C49.3718 76.0598 49.3955 76.0066 49.4074 75.9504C49.4193 75.8941 49.4191 75.8359 49.4068 75.7797C49.3946 75.7235 49.3706 75.6705 49.3364 75.6242L48.4706 74.4365Z" fill="#263238" stroke="#263238" stroke-width="0.75" stroke-linecap="round" stroke-linejoin="round"/>
<path d="M45.1176 79.4723L45.791 82.7912L38.3096 83.1057L39.6083 73.9075L44.6477 74.4921L45.1176 79.4723Z" stroke="#263238" stroke-linecap="round" stroke-linejoin="round"/>
<path d="M45.462 67.7803C45.462 67.7803 47.2787 68.1503 47.0937 66.1782C46.9087 64.2061 43.5232 65.4123 41.7583 65.6343C39.9934 65.8563 34.2954 67.9838 36.3119 71.3434C36.3119 71.3434 35.1242 73.2377 39.4014 76.416C39.4014 76.416 41.4327 75.4614 42.5464 76.8563L43.4159 75.1617L45.6359 71.262L45.462 67.7803Z" fill="#263238" stroke="#263238" stroke-linecap="round" stroke-linejoin="round"/>
<path d="M45.3281 67.4843C45.3281 67.4843 47.0671 68.4537 48.0661 67.2401C48.0661 67.2401 48.1771 69.8301 45.3281 67.4843Z" fill="#263238" stroke="#263238" stroke-linecap="round" stroke-linejoin="round"/>
<path d="M45.5102 67.2141C45.5102 67.2141 48.1002 69.941 48.0114 71.8095V73.5152L49.3805 75.0544C49.4187 75.0938 49.4477 75.1413 49.4654 75.1933C49.483 75.2453 49.4889 75.3006 49.4825 75.3551C49.4761 75.4097 49.4577 75.4621 49.4285 75.5087C49.3993 75.5552 49.3602 75.5947 49.3138 75.6242L48.5183 76.1755C48.5183 76.1755 48.7514 80.5415 47.3824 80.6969C46.0134 80.8523 43.7342 79.2169 43.2791 78.2549C42.9364 77.3723 42.6883 76.4557 42.5391 75.5206C42.1407 75.4127 41.7836 75.188 41.5139 74.8754C41.2442 74.5629 41.0743 74.1768 41.0258 73.7668C40.8667 72.3312 42.3134 72.3719 42.6871 73.3117L42.9905 74.0776L43.9303 74.0443C43.9303 74.0443 43.3938 72.6901 43.712 72.2905C44.0302 71.8909 45.2808 70.9178 44.7073 69.9891C44.1338 69.0604 44.3262 67.4805 45.5102 67.2141Z" fill="white" stroke="#263238" stroke-linecap="round" stroke-linejoin="round"/>
<path d="M46.9902 77.0303C47.098 77.2215 47.2631 77.3741 47.4623 77.4664C47.6615 77.5587 47.8847 77.586 48.1002 77.5446" stroke="#263238" stroke-width="0.75" stroke-linecap="round" stroke-linejoin="round"/>
<path d="M46.3096 71.8206C46.3096 71.8206 46.8979 71.0029 47.4566 71.7503" stroke="#263238" stroke-linecap="round" stroke-linejoin="round"/>
<path d="M47.2382 73.5263C47.2382 73.7816 47.1382 73.9925 47.0013 73.9962C46.8644 73.9999 46.746 73.7964 46.7386 73.5411C46.7312 73.2858 46.8385 73.0749 46.9754 73.0712C47.1123 73.0675 47.2308 73.2599 47.2382 73.5263Z" fill="#263238"/>
<path d="M35.3724 155.489L34.292 164.787L37.5073 165.283L39.2796 156.092L35.3724 155.489Z" fill="white" stroke="#263238" stroke-linecap="round" stroke-linejoin="round"/>
<path d="M33.8584 114.404C33.8584 114.404 33.9879 119.791 35.8897 123.58L36.3226 137.877L34.1285 160.913L39.0088 161.379L43.4488 137.285L44.9288 115.455L33.8584 114.404Z" fill="white" stroke="#263238" stroke-linecap="round" stroke-linejoin="round"/>
<path opacity="0.2" d="M44.2414 125.952L43.8344 123.388L41.9844 115.318L41.644 115.144L33.874 114.404C33.874 114.404 33.874 115.288 34.0479 116.594L37.8848 118.77C37.9753 120.136 38.2838 121.479 38.7987 122.747C38.8448 122.858 38.8617 122.979 38.8476 123.098C38.8336 123.217 38.7891 123.331 38.7185 123.428C38.6479 123.525 38.5535 123.602 38.4444 123.652C38.3354 123.702 38.2153 123.723 38.0957 123.713C37.6998 123.684 37.3557 123.713 37.3557 123.972C37.3557 124.572 40.2491 126.507 40.2491 126.507C40.2491 126.507 43.1684 135.942 43.0648 139.427L43.4607 137.281L44.2414 125.952Z" fill="black"/>
<path d="M45.1846 156.099L45.5361 165.453H48.7884L49.1362 156.099H45.1846Z" fill="white" stroke="#263238" stroke-linecap="round" stroke-linejoin="round"/>
<path d="M53.9676 166.77C52.894 166.443 51.8495 166.027 50.8448 165.527C50.3638 165.227 49.6905 164.247 49.1947 163.969C49.0906 163.924 48.9786 163.901 48.8654 163.901C48.7521 163.901 48.6401 163.924 48.536 163.969C48.2992 164.162 48.2882 165.164 48.2882 165.164C48.2882 165.164 47.8701 164.143 47.5667 163.969C47.1449 163.732 45.9979 163.662 45.6242 163.969C45.0026 164.476 44.7769 166.237 44.6548 167.029C44.6252 167.203 44.6548 168.165 44.6548 168.165H54.6447V167.725C54.6455 167.515 54.5806 167.31 54.4592 167.139C54.3378 166.968 54.1659 166.839 53.9676 166.77Z" fill="#263238" stroke="#263238" stroke-linecap="round" stroke-linejoin="round"/>
<path d="M51.9883 114.848L51.1891 136.46L49.8534 161.135H44.7696C44.7696 161.135 43.704 142.195 43.9704 136.715L41.3027 124.043C41.3027 124.043 38.5018 120.306 39.1678 115.773L51.9883 114.848Z" fill="white" stroke="#263238" stroke-linecap="round" stroke-linejoin="round"/>
<path d="M44.3184 159.3L44.4849 162.267H50.0534L50.4863 159.3H44.3184Z" fill="white" stroke="#263238" stroke-linecap="round" stroke-linejoin="round"/>
<path d="M33.7221 159.044L33.6074 162.012L39.15 162.541L39.8641 159.629L33.7221 159.044Z" fill="white" stroke="#263238" stroke-linecap="round" stroke-linejoin="round"/>
<path d="M60.4179 100.622L52.7256 95.7301L60.8323 87.6234L68.5283 92.5148L60.4179 100.622Z" fill="white" stroke="#263238" stroke-linecap="round" stroke-linejoin="round"/>
<path d="M60.8573 98.9491L54.6709 95.016L61.1903 88.4966L67.3767 92.4297L60.8573 98.9491Z" fill="white" stroke="#263238" stroke-width="0.75" stroke-linecap="round" stroke-linejoin="round"/>
<path d="M61.3094 92.1966L62.3898 91.1162L61.0023 90.2356L59.9219 91.3123L61.3094 92.1966Z" stroke="#263238" stroke-width="0.75" stroke-linecap="round" stroke-linejoin="round"/>
<path d="M59.6336 93.8763L60.714 92.7959L59.3228 91.9116L58.2461 92.992L59.6336 93.8763Z" stroke="#263238" stroke-width="0.75" stroke-linecap="round" stroke-linejoin="round"/>
<path d="M57.898 95.6117L58.9747 94.5313L57.5872 93.647L56.5068 94.7274L57.898 95.6117Z" stroke="#263238" stroke-width="0.75" stroke-linecap="round" stroke-linejoin="round"/>
<path d="M63.9548 88.885L62.9336 89.9099C62.8852 89.9581 62.8483 90.0166 62.8257 90.081C62.803 90.1454 62.7951 90.2141 62.8025 90.2819C62.81 90.3498 62.8326 90.4151 62.8688 90.4731C62.9049 90.531 62.9536 90.5801 63.0113 90.6166L64.4913 91.5675C64.6544 91.6715 64.8482 91.7169 65.0405 91.696C65.2329 91.6752 65.4124 91.5894 65.5495 91.4528L66.493 90.5056L63.9548 88.885Z" fill="#858585" stroke="#263238" stroke-linecap="round" stroke-linejoin="round"/>
<path d="M36.582 82.5692L37.9177 79.6351C37.9177 79.6351 45.6544 78.7693 47.719 85.2369L36.582 82.5692Z" fill="#858585" stroke="#263238" stroke-linecap="round" stroke-linejoin="round"/>
<path d="M32.1901 85.0703C32.1901 85.0703 30.2809 99.6964 30.7878 104.88C31.1874 108.98 33.8884 112.45 33.8884 112.45L37.8918 110.882L35.8568 104.88C35.8568 104.88 36.4895 94.0761 37.0889 91.5601L32.1901 85.0703Z" fill="#858585" stroke="#263238" stroke-linecap="round" stroke-linejoin="round"/>
<path d="M32.7295 111.733L33.858 113.083L38.483 111.281L37.8836 109.479L32.7295 111.733Z" fill="#858585" stroke="#263238" stroke-linecap="round" stroke-linejoin="round"/>
<path d="M32.1899 85.0703C32.1899 85.0703 31.5868 93.473 33.2999 99.3782C35.013 105.283 33.2999 114.981 33.2999 114.981C33.2999 114.981 41.1846 120.083 53.2799 116.18C53.2799 116.18 51.7814 87.4679 49.7797 85.8695C47.778 84.2711 36.4819 78.1698 32.1899 85.0703Z" fill="#858585" stroke="#263238" stroke-linecap="round" stroke-linejoin="round"/>
<path opacity="0.2" d="M53.2797 116.18C53.2797 116.18 52.7654 106.338 51.9403 97.8575C50.1902 93.6099 47.3301 87.9526 47.1784 95.8965C46.9564 107.385 54.0271 106.708 48.4253 108.71C47.1727 109.184 45.8309 109.376 44.4956 109.273C43.1602 109.169 41.8641 108.772 40.6997 108.11C40.6066 108.063 40.5 108.048 40.3975 108.069C40.2951 108.091 40.203 108.146 40.1365 108.227C40.0699 108.308 40.033 108.409 40.0318 108.513C40.0307 108.618 40.0652 108.72 40.1299 108.802C41.5359 110.589 43.6708 111.703 45.3099 112.343C45.4579 112.4 45.583 112.504 45.6658 112.639C45.7485 112.774 45.7843 112.933 45.7674 113.09C45.7505 113.248 45.6819 113.395 45.5724 113.51C45.4629 113.624 45.3185 113.699 45.1619 113.723C39.8857 114.504 35.7491 111.699 33.851 110.068C33.629 112.894 33.2627 114.981 33.2627 114.981C33.2627 114.981 41.1844 120.083 53.2797 116.18Z" fill="black"/>
<path d="M49.7874 85.8733C50.5087 86.2043 51.1346 86.7124 51.6068 87.3502C52.079 87.9881 52.3823 88.735 52.4884 89.5215C52.888 92.2743 55.4484 100.729 55.4484 100.729L56.2994 100.177C57.0099 100.497 57.5952 101.041 57.9644 101.727C58.3337 102.413 58.4664 103.201 58.3418 103.97C58.3418 103.97 56.2624 108.04 53.9906 107.274C51.6559 106.482 50.3498 104.573 49.1806 101.45C48.5627 99.7853 46.7793 94.7681 46.7793 94.7681" fill="#858585"/>
<path d="M49.7874 85.8733C50.5087 86.2043 51.1346 86.7124 51.6068 87.3502C52.079 87.9881 52.3823 88.735 52.4884 89.5215C52.888 92.2743 55.4484 100.729 55.4484 100.729L56.2994 100.177C57.0099 100.497 57.5952 101.041 57.9644 101.727C58.3337 102.413 58.4664 103.201 58.3418 103.97C58.3418 103.97 56.2624 108.04 53.9906 107.274C51.6559 106.482 50.3498 104.573 49.1806 101.45C48.5627 99.7853 46.7793 94.7681 46.7793 94.7681" stroke="#263238" stroke-linecap="round" stroke-linejoin="round"/>
<path d="M56.47 103.178C56.4834 103.396 56.4735 103.614 56.4404 103.829" stroke="#263238" stroke-width="0.75" stroke-linecap="round" stroke-linejoin="round"/>
<path d="M54.9414 104.88C54.9414 104.88 55.6407 103.77 55.5408 101.376C55.877 101.631 56.1337 101.976 56.2808 102.372" stroke="#263238" stroke-width="0.75" stroke-linecap="round" stroke-linejoin="round"/>
<path d="M56.8584 99.9444L59.5261 98.0426C59.6594 97.4513 59.9498 96.9069 60.3665 96.4667C60.7832 96.0265 61.311 95.7068 61.8941 95.5414C61.8941 95.5414 63.1262 93.5064 63.8255 93.7432C64.5248 93.98 62.993 94.8088 62.8598 95.8744L63.4259 96.6329C63.4259 96.6329 65.2759 96.3073 65.7273 95.7079C65.7273 95.7079 65.6274 96.977 64.8948 97.1879C64.8948 97.1879 64.8948 98.1536 64.3953 98.1203L60.7249 99.1563L58.59 103.141L56.8584 99.9444Z" fill="white" stroke="#263238" stroke-linecap="round" stroke-linejoin="round"/>
<path d="M45.9355 109.194C46.3574 109.155 46.7755 109.084 47.1861 108.98" stroke="#263238" stroke-width="0.75" stroke-linecap="round" stroke-linejoin="round"/>
<path d="M35.4502 103.13C35.4502 103.13 39.3833 109.146 45.0702 109.228" stroke="#263238" stroke-width="0.75" stroke-linecap="round" stroke-linejoin="round"/>
<path d="M55.707 100.011C55.707 100.011 58.4894 102.113 58.223 104.647L59.2257 102.727C59.2257 102.727 59.1924 101.11 56.891 99.3969L55.707 100.011Z" fill="#858585" stroke="#263238" stroke-linecap="round" stroke-linejoin="round"/>
<path d="M44.6564 168.165H54.6464V167.725C54.6463 167.617 54.6289 167.509 54.5946 167.406H44.6416C44.6416 167.743 44.6564 168.165 44.6564 168.165Z" fill="white" stroke="#263238" stroke-width="0.75" stroke-linecap="round" stroke-linejoin="round"/>
<path d="M42.5497 166.77C41.4761 166.443 40.4315 166.027 39.4269 165.527C38.9459 165.227 38.2725 164.247 37.7804 163.969C37.6758 163.924 37.5631 163.901 37.4492 163.901C37.3354 163.901 37.2227 163.924 37.1181 163.969C36.8813 164.162 36.8702 165.164 36.8702 165.164C36.8702 165.164 36.4558 164.143 36.1487 163.969C35.7269 163.732 34.5799 163.662 34.2062 163.969C33.5846 164.476 33.3589 166.237 33.2368 167.029C33.2072 167.203 33.2368 168.165 33.2368 168.165H43.2268V167.725C43.2275 167.515 43.1627 167.31 43.0413 167.139C42.9199 166.968 42.748 166.839 42.5497 166.77Z" fill="#263238" stroke="#263238" stroke-linecap="round" stroke-linejoin="round"/>
<path d="M33.2306 168.165H43.2206V167.725C43.2206 167.617 43.2031 167.509 43.1688 167.406H33.2158C33.2158 167.743 33.2306 168.165 33.2306 168.165Z" fill="white" stroke="#263238" stroke-width="0.75" stroke-linecap="round" stroke-linejoin="round"/>
<path d="M47.967 136.859C47.967 136.859 46.9051 138.691 45.1846 137.991" stroke="#263238" stroke-width="0.75" stroke-linecap="round" stroke-linejoin="round"/>
<path d="M40.5628 137.503C40.5628 137.503 38.6573 139.131 37.0811 137.991" stroke="#263238" stroke-width="0.75" stroke-linecap="round" stroke-linejoin="round"/>
<path d="M60.4463 90.1061L60.7127 91.4307H63.0733L61.153 90.983L61.2455 90.0802L60.4463 90.1061Z" fill="white"/>
</svg>
