<svg width="182" height="182" viewBox="0 0 182 182" fill="none" xmlns="http://www.w3.org/2000/svg">
<path d="M155.406 117.83L155.122 120.378L160.076 114.587C160.669 114.649 161.264 114.681 161.86 114.682" stroke="#263238" stroke-linecap="round" stroke-linejoin="round"/>
<path d="M149.2 100.256C148.549 101.239 148.141 102.362 148.01 103.532C147.54 107.766 150.86 111.77 155.876 113.623L155.621 115.898" stroke="#263238" stroke-linecap="round" stroke-linejoin="round"/>
<path d="M151.126 98.1489C150.804 98.4101 150.497 98.6909 150.209 98.9897" stroke="#263238" stroke-linecap="round" stroke-linejoin="round"/>
<path d="M169.704 98.149C167.443 96.5992 164.828 95.6428 162.1 95.368C159.218 95.0146 156.293 95.4447 153.634 96.6129" stroke="#263238" stroke-linecap="round" stroke-linejoin="round"/>
<path d="M165.308 114.34C170.04 113.36 173.625 110.336 174.044 106.412C174.349 103.667 173.064 101.021 170.768 98.9897" stroke="#263238" stroke-linecap="round" stroke-linejoin="round"/>
<path d="M153.638 100.963C154.038 101.037 154.45 101.032 154.848 100.947C155.247 100.862 155.625 100.699 155.96 100.468L157.729 101.84C157.605 101.88 157.616 101.618 157.747 101.611C157.878 101.603 157.977 101.723 158.068 101.818C158.483 102.259 159.181 102.273 159.775 102.146C160.368 102.018 160.947 101.782 161.551 101.804C161.91 101.841 162.264 101.923 162.603 102.047C165.035 102.801 167.564 103.179 170.083 103.551" stroke="#263238" stroke-linecap="round" stroke-linejoin="round"/>
<path d="M151.548 103.551C151.912 103.529 153.939 103.551 154.231 103.307L154.726 104.169L155.272 103.642C155.366 104.006 155.461 104.37 155.552 104.712C155.963 104.81 155.916 104.017 156.28 103.78C156.392 103.725 156.52 103.714 156.64 103.75C156.759 103.786 156.861 103.866 156.924 103.973C157.043 104.196 157.101 104.448 157.092 104.701L159.581 104.905L160.065 104.945C160.238 104.681 160.495 104.482 160.793 104.381C160.702 104.956 161.427 105.283 162.002 105.4C164.834 105.977 167.68 106.476 170.541 106.896" stroke="#263238" stroke-linecap="round" stroke-linejoin="round"/>
<path d="M152.654 107.504C152.884 107.664 153.164 107.365 153.444 107.329C153.724 107.293 153.954 107.504 154.201 107.631C154.449 107.759 154.856 107.704 154.871 107.427C154.929 107.791 155.381 107.922 155.748 107.973L165.307 109.316" stroke="#263238" stroke-linecap="round" stroke-linejoin="round"/>
<path d="M24.752 95.0695L28.5812 100.224L27.8132 93.4788C28.7287 93.0343 29.6044 92.5119 30.4304 91.9173C34.3543 89.0781 35.934 84.5099 34.4962 80.8298C33.488 78.26 31.1256 76.5128 28.1408 75.7885" stroke="#263238" stroke-linecap="round" stroke-linejoin="round"/>
<path d="M9.62825 86.9377C9.50892 88.1051 9.66861 89.284 10.0942 90.3775C11.6448 94.3452 16.4423 96.3472 21.7422 95.6556" stroke="#263238" stroke-linecap="round" stroke-linejoin="round"/>
<path d="M10.3522 84.1749C10.1896 84.557 10.0498 84.9484 9.93359 85.347" stroke="#263238" stroke-linecap="round" stroke-linejoin="round"/>
<path d="M26.8052 75.5409C24.0818 75.2153 21.3203 75.5809 18.7754 76.6038C16.0591 77.6309 13.67 79.3712 11.8594 81.6415" stroke="#263238" stroke-linecap="round" stroke-linejoin="round"/>
<path d="M13.8828 85.4963C14.6659 85.2521 15.3203 84.7076 15.7028 83.9821L17.8868 84.3752C17.7922 84.4662 17.683 84.2296 17.7958 84.1604C17.9087 84.0913 18.0506 84.1604 18.1598 84.1968C18.7349 84.3934 19.3574 84.084 19.8233 83.6945C20.2892 83.305 20.6896 82.8209 21.2393 82.5661C21.575 82.432 21.9258 82.3391 22.2839 82.2895C24.7883 81.8308 27.2016 80.9863 29.6076 80.1455" stroke="#263238" stroke-linecap="round" stroke-linejoin="round"/>
<path d="M13.2354 88.7614C13.5593 88.5685 15.3538 87.6476 15.4994 87.3054L16.3403 87.8405C16.4204 87.6003 16.5004 87.3564 16.5769 87.1125L17.3231 87.9315C17.7344 87.8296 17.3231 87.1489 17.5196 86.7776C17.5928 86.6768 17.7016 86.6076 17.8239 86.5839C17.9462 86.5603 18.073 86.584 18.1785 86.6502C18.3863 86.7897 18.5534 86.9819 18.6626 87.2071L20.9594 86.2316L21.4108 86.0423C21.4367 85.7297 21.5646 85.4343 21.7748 85.2015C21.9641 85.7584 22.7576 85.7074 23.3182 85.5436C26.0967 84.7428 28.8497 83.862 31.5773 82.901" stroke="#263238" stroke-linecap="round" stroke-linejoin="round"/>
<path d="M16.0527 91.7461C16.333 91.7825 16.4422 91.3821 16.6715 91.222C16.9009 91.0618 17.2066 91.1455 17.4833 91.1382C17.7599 91.131 18.0984 90.9016 17.9819 90.6505C18.204 90.9453 18.6663 90.8507 19.0121 90.7269L28.1121 87.4691" stroke="#263238" stroke-linecap="round" stroke-linejoin="round"/>
<path d="M135.746 32.6217H44.9867C43.2196 32.6217 41.7871 34.0542 41.7871 35.8213V117.583C41.7871 119.35 43.2196 120.783 44.9867 120.783H135.746C137.514 120.783 138.946 119.35 138.946 117.583V35.8213C138.946 34.0542 137.514 32.6217 135.746 32.6217Z" fill="white"/>
<path opacity="0.2" d="M138.946 80.9135V117.677C138.946 118.5 138.619 119.29 138.038 119.872C137.456 120.454 136.668 120.781 135.845 120.782H44.892C44.0686 120.782 43.2788 120.455 42.6965 119.873C42.1142 119.291 41.7871 118.501 41.7871 117.677V110.397H41.98V115.304C41.98 115.771 42.0719 116.232 42.2505 116.663C42.4291 117.094 42.6909 117.485 43.0208 117.815C43.3507 118.145 43.7424 118.406 44.1734 118.584C44.6044 118.762 45.0663 118.854 45.5327 118.853H133.399C133.865 118.854 134.327 118.762 134.758 118.584C135.189 118.406 135.581 118.145 135.911 117.815C136.24 117.485 136.502 117.094 136.681 116.663C136.859 116.232 136.951 115.771 136.951 115.304V86.3662C136.951 85.7107 136.691 85.082 136.227 84.6185C135.764 84.155 135.135 83.8946 134.48 83.8946H41.7871V80.9135H138.946Z" fill="black"/>
<path d="M135.746 32.6217H44.9867C43.2196 32.6217 41.7871 34.0542 41.7871 35.8213V117.583C41.7871 119.35 43.2196 120.783 44.9867 120.783H135.746C137.514 120.783 138.946 119.35 138.946 117.583V35.8213C138.946 34.0542 137.514 32.6217 135.746 32.6217Z" stroke="#263238" stroke-linecap="round" stroke-linejoin="round"/>
<path d="M130.488 91.3822V87.1707C130.488 86.966 130.448 86.7632 130.37 86.574C130.292 86.3847 130.177 86.2128 130.032 86.068C129.888 85.9233 129.716 85.8085 129.526 85.7304C129.337 85.6523 129.134 85.6123 128.93 85.6128H51.8053C51.3921 85.6128 50.9959 85.7769 50.7037 86.0691C50.4115 86.3613 50.2474 86.7575 50.2474 87.1707V91.3822C50.2474 91.7954 50.0833 92.1917 49.7911 92.4838C49.4989 92.776 49.1027 92.9401 48.6895 92.9401C48.2753 92.9401 47.8782 93.1046 47.5853 93.3975C47.2925 93.6903 47.1279 94.0875 47.1279 94.5017V102.812C47.1279 104.728 47.8892 106.566 49.2442 107.921C50.5992 109.276 52.437 110.037 54.3533 110.037C54.6613 110.037 54.9566 110.16 55.1744 110.377C55.3922 110.595 55.5145 110.89 55.5145 111.198V113.688C55.5145 114.607 55.8796 115.489 56.5294 116.138C57.1793 116.788 58.0607 117.153 58.9798 117.153H121.755C122.674 117.153 123.556 116.788 124.206 116.138C124.855 115.489 125.221 114.607 125.221 113.688V111.198C125.221 110.89 125.343 110.595 125.561 110.377C125.778 110.16 126.074 110.037 126.382 110.037C127.331 110.037 128.27 109.85 129.147 109.487C130.023 109.124 130.82 108.592 131.491 107.921C132.162 107.25 132.694 106.453 133.057 105.577C133.42 104.7 133.607 103.761 133.607 102.812V94.5017C133.607 94.0882 133.443 93.6915 133.151 93.3988C132.859 93.106 132.463 92.9411 132.049 92.9401C131.636 92.9401 131.239 92.7761 130.946 92.484C130.653 92.192 130.489 91.7957 130.488 91.3822Z" fill="#263238"/>
<path d="M56.155 87.9969H53.4578C53.1276 87.9969 52.811 88.1281 52.5775 88.3616C52.344 88.595 52.2129 88.9117 52.2129 89.2418V89.9334C52.2129 91.3676 53.3741 93.1876 54.8082 93.1876C56.2424 93.1876 57.4035 91.3676 57.4035 89.9334V89.2418C57.4026 88.9113 57.2706 88.5947 57.0366 88.3613C56.8025 88.128 56.4855 87.9969 56.155 87.9969Z" fill="white" stroke="#263238" stroke-linecap="round" stroke-linejoin="round"/>
<path d="M62.6079 87.9969H59.9106C59.5801 87.9969 59.2631 88.128 59.0291 88.3613C58.795 88.5947 58.6631 88.9113 58.6621 89.2418V89.9334C58.6621 91.3676 59.8233 93.1876 61.2574 93.1876C62.6916 93.1876 63.8528 91.3676 63.8528 89.9334V89.2418C63.8528 88.9117 63.7216 88.595 63.4881 88.3616C63.2547 88.1281 62.938 87.9969 62.6079 87.9969Z" fill="white" stroke="#263238" stroke-linecap="round" stroke-linejoin="round"/>
<path d="M69.0886 87.9969H66.3914C66.0612 87.9969 65.7446 88.1281 65.5111 88.3616C65.2776 88.595 65.1465 88.9117 65.1465 89.2418V89.9334C65.1465 91.3676 66.3076 93.1876 67.7382 93.1876C69.1687 93.1876 70.3335 91.3676 70.3335 89.9334V89.2418C70.3335 88.9117 70.2023 88.595 69.9689 88.3616C69.7354 88.1281 69.4188 87.9969 69.0886 87.9969Z" fill="white" stroke="#263238" stroke-linecap="round" stroke-linejoin="round"/>
<path d="M75.5525 87.9969H72.8552C72.5251 87.9969 72.2084 88.1281 71.975 88.3616C71.7415 88.595 71.6104 88.9117 71.6104 89.2418V89.9334C71.6104 91.3676 72.7715 93.1876 74.2057 93.1876C75.6398 93.1876 76.7973 91.3676 76.7973 89.9334V89.2418C76.7973 89.0783 76.7651 88.9165 76.7026 88.7654C76.64 88.6144 76.5483 88.4772 76.4327 88.3616C76.3171 88.246 76.1799 88.1543 76.0289 88.0917C75.8778 88.0291 75.7159 87.9969 75.5525 87.9969Z" fill="white" stroke="#263238" stroke-linecap="round" stroke-linejoin="round"/>
<path d="M82.0163 87.9969H79.3191C78.9889 87.9969 78.6723 88.1281 78.4388 88.3616C78.2054 88.595 78.0742 88.9117 78.0742 89.2418V89.9334C78.0742 91.3676 79.2354 93.1876 80.6695 93.1876C82.1037 93.1876 83.2649 91.3676 83.2649 89.9334V89.2418C83.2639 88.9113 83.1319 88.5947 82.8979 88.3613C82.6639 88.128 82.3468 87.9969 82.0163 87.9969Z" fill="white" stroke="#263238" stroke-linecap="round" stroke-linejoin="round"/>
<path d="M88.4858 87.9969H85.7886C85.4581 87.9969 85.141 88.128 84.907 88.3613C84.673 88.5947 84.541 88.9113 84.54 89.2418V89.9334C84.54 91.3676 85.7012 93.1876 87.1354 93.1876C88.5695 93.1876 89.7307 91.3676 89.7307 89.9334V89.2418C89.7307 88.9117 89.5995 88.595 89.3661 88.3616C89.1326 88.1281 88.816 87.9969 88.4858 87.9969Z" fill="white" stroke="#263238" stroke-linecap="round" stroke-linejoin="round"/>
<path d="M94.9499 87.9969H92.2527C91.9225 87.9969 91.6059 88.1281 91.3724 88.3616C91.139 88.595 91.0078 88.9117 91.0078 89.2418V89.9334C91.0078 91.3676 92.169 93.1876 93.5995 93.1876C95.03 93.1876 96.1948 91.3676 96.1948 89.9334V89.2418C96.1948 88.9117 96.0637 88.595 95.8302 88.3616C95.5967 88.1281 95.2801 87.9969 94.9499 87.9969Z" fill="white" stroke="#263238" stroke-linecap="round" stroke-linejoin="round"/>
<path d="M101.415 87.9969H98.7175C98.3874 87.9969 98.0707 88.1281 97.8373 88.3616C97.6038 88.595 97.4727 88.9117 97.4727 89.2418V89.9334C97.4727 91.3676 98.6338 93.1876 100.068 93.1876C101.502 93.1876 102.66 91.3676 102.66 89.9334V89.2418C102.66 88.9117 102.528 88.595 102.295 88.3616C102.062 88.1281 101.745 87.9969 101.415 87.9969Z" fill="white" stroke="#263238" stroke-linecap="round" stroke-linejoin="round"/>
<path d="M107.88 87.9969H105.197C105.034 87.9969 104.872 88.0291 104.721 88.0917C104.57 88.1542 104.432 88.2459 104.317 88.3615C104.201 88.4771 104.109 88.6144 104.047 88.7654C103.984 88.9164 103.952 89.0783 103.952 89.2418V89.9334C103.952 91.3676 105.113 93.1876 106.547 93.1876C107.982 93.1876 109.143 91.3676 109.143 89.9334V89.2418C109.142 89.0769 109.109 88.9137 109.045 88.7617C108.981 88.6097 108.888 88.4719 108.771 88.3561C108.653 88.2404 108.514 88.149 108.361 88.0874C108.208 88.0257 108.045 87.995 107.88 87.9969Z" fill="white" stroke="#263238" stroke-linecap="round" stroke-linejoin="round"/>
<path d="M114.347 87.9969H111.65C111.319 87.9969 111.002 88.128 110.768 88.3613C110.534 88.5947 110.402 88.9113 110.401 89.2418V89.9334C110.401 91.3676 111.563 93.1876 112.997 93.1876C114.431 93.1876 115.592 91.3676 115.592 89.9334V89.2418C115.592 88.9117 115.461 88.595 115.227 88.3616C114.994 88.1281 114.677 87.9969 114.347 87.9969Z" fill="white" stroke="#263238" stroke-linecap="round" stroke-linejoin="round"/>
<path d="M120.812 87.9969H118.115C117.785 87.9969 117.468 88.1281 117.235 88.3616C117.001 88.595 116.87 88.9117 116.87 89.2418V89.9334C116.87 91.3676 118.031 93.1876 119.462 93.1876C120.892 93.1876 122.057 91.3676 122.057 89.9334V89.2418C122.057 88.9117 121.926 88.595 121.692 88.3616C121.459 88.1281 121.142 87.9969 120.812 87.9969Z" fill="white" stroke="#263238" stroke-linecap="round" stroke-linejoin="round"/>
<path d="M127.277 87.997H124.58C124.25 87.997 123.933 88.1282 123.7 88.3617C123.466 88.5951 123.335 88.9118 123.335 89.2419V89.9335C123.335 91.364 124.489 93.184 125.945 93.184C127.401 93.184 128.536 91.364 128.536 89.9299V89.2383C128.536 89.0739 128.503 88.9112 128.439 88.7596C128.376 88.608 128.283 88.4706 128.165 88.3552C128.048 88.2398 127.91 88.1487 127.757 88.0872C127.605 88.0258 127.441 87.9951 127.277 87.997Z" fill="white" stroke="#263238" stroke-linecap="round" stroke-linejoin="round"/>
<path d="M56.155 101.698H53.4578C53.1276 101.698 52.811 101.829 52.5775 102.062C52.344 102.296 52.2129 102.613 52.2129 102.943V103.634C52.2129 105.069 53.3741 106.889 54.8082 106.889C56.2424 106.889 57.4035 105.069 57.4035 103.634V102.943C57.4026 102.612 57.2706 102.296 57.0366 102.062C56.8025 101.829 56.4855 101.698 56.155 101.698Z" fill="white" stroke="#263238" stroke-linecap="round" stroke-linejoin="round"/>
<path d="M62.6079 101.698H59.9106C59.5801 101.698 59.2631 101.829 59.0291 102.062C58.795 102.296 58.6631 102.612 58.6621 102.943V103.634C58.6621 105.069 59.8233 106.889 61.2574 106.889C62.6916 106.889 63.8528 105.069 63.8528 103.634V102.943C63.8528 102.613 63.7216 102.296 63.4881 102.062C63.2547 101.829 62.938 101.698 62.6079 101.698Z" fill="white" stroke="#263238" stroke-linecap="round" stroke-linejoin="round"/>
<path d="M69.0886 101.698H66.3914C66.0612 101.698 65.7446 101.829 65.5111 102.062C65.2776 102.296 65.1465 102.613 65.1465 102.943V103.634C65.1465 105.069 66.3076 106.889 67.7382 106.889C69.1687 106.889 70.3335 105.069 70.3335 103.634V102.943C70.3335 102.613 70.2023 102.296 69.9689 102.062C69.7354 101.829 69.4188 101.698 69.0886 101.698Z" fill="white" stroke="#263238" stroke-linecap="round" stroke-linejoin="round"/>
<path d="M75.5525 101.698H72.8552C72.5251 101.698 72.2084 101.829 71.975 102.062C71.7415 102.296 71.6104 102.613 71.6104 102.943V103.634C71.6104 105.069 72.7715 106.889 74.2057 106.889C75.6398 106.889 76.7973 105.069 76.7973 103.634V102.943C76.7973 102.779 76.7651 102.617 76.7026 102.466C76.64 102.315 76.5483 102.178 76.4327 102.062C76.3171 101.947 76.1799 101.855 76.0289 101.793C75.8778 101.73 75.7159 101.698 75.5525 101.698Z" fill="white" stroke="#263238" stroke-linecap="round" stroke-linejoin="round"/>
<path d="M82.0163 101.698H79.3191C78.9889 101.698 78.6723 101.829 78.4388 102.062C78.2054 102.296 78.0742 102.613 78.0742 102.943V103.634C78.0742 105.069 79.2354 106.889 80.6695 106.889C82.1037 106.889 83.2649 105.069 83.2649 103.634V102.943C83.2639 102.612 83.1319 102.296 82.8979 102.062C82.6639 101.829 82.3468 101.698 82.0163 101.698Z" fill="white" stroke="#263238" stroke-linecap="round" stroke-linejoin="round"/>
<path d="M88.4858 101.698H85.7886C85.4581 101.698 85.141 101.829 84.907 102.062C84.673 102.296 84.541 102.612 84.54 102.943V103.634C84.54 105.069 85.7012 106.889 87.1354 106.889C88.5695 106.889 89.7307 105.069 89.7307 103.634V102.943C89.7307 102.613 89.5995 102.296 89.3661 102.062C89.1326 101.829 88.816 101.698 88.4858 101.698Z" fill="white" stroke="#263238" stroke-linecap="round" stroke-linejoin="round"/>
<path d="M94.9499 101.698H92.2527C91.9225 101.698 91.6059 101.829 91.3724 102.062C91.139 102.296 91.0078 102.613 91.0078 102.943V103.634C91.0078 105.069 92.169 106.889 93.5995 106.889C95.03 106.889 96.1948 105.069 96.1948 103.634V102.943C96.1948 102.613 96.0637 102.296 95.8302 102.062C95.5967 101.829 95.2801 101.698 94.9499 101.698Z" fill="white" stroke="#263238" stroke-linecap="round" stroke-linejoin="round"/>
<path d="M101.415 101.698H98.7175C98.3874 101.698 98.0707 101.829 97.8373 102.062C97.6038 102.296 97.4727 102.613 97.4727 102.943V103.634C97.4727 105.069 98.6338 106.889 100.068 106.889C101.502 106.889 102.66 105.069 102.66 103.634V102.943C102.66 102.613 102.528 102.296 102.295 102.062C102.062 101.829 101.745 101.698 101.415 101.698Z" fill="white" stroke="#263238" stroke-linecap="round" stroke-linejoin="round"/>
<path d="M107.88 101.698H105.197C105.034 101.698 104.872 101.73 104.721 101.793C104.57 101.855 104.432 101.947 104.317 102.063C104.201 102.178 104.109 102.315 104.047 102.466C103.984 102.617 103.952 102.779 103.952 102.943V103.634C103.952 105.069 105.113 106.889 106.547 106.889C107.982 106.889 109.143 105.069 109.143 103.634V102.943C109.142 102.778 109.109 102.615 109.045 102.463C108.981 102.311 108.888 102.173 108.771 102.057C108.653 101.941 108.514 101.85 108.361 101.788C108.208 101.727 108.045 101.696 107.88 101.698Z" fill="white" stroke="#263238" stroke-linecap="round" stroke-linejoin="round"/>
<path d="M114.347 101.698H111.65C111.319 101.698 111.002 101.829 110.768 102.062C110.534 102.296 110.402 102.612 110.401 102.943V103.634C110.401 105.069 111.563 106.889 112.997 106.889C114.431 106.889 115.592 105.069 115.592 103.634V102.943C115.592 102.613 115.461 102.296 115.227 102.063C114.994 101.829 114.677 101.698 114.347 101.698Z" fill="white" stroke="#263238" stroke-linecap="round" stroke-linejoin="round"/>
<path d="M120.812 101.698H118.115C117.785 101.698 117.468 101.829 117.235 102.062C117.001 102.296 116.87 102.613 116.87 102.943V103.634C116.87 105.069 118.031 106.889 119.462 106.889C120.892 106.889 122.057 105.069 122.057 103.634V102.943C122.057 102.613 121.926 102.296 121.692 102.062C121.459 101.829 121.142 101.698 120.812 101.698Z" fill="white" stroke="#263238" stroke-linecap="round" stroke-linejoin="round"/>
<path d="M127.277 101.698H124.58C124.25 101.698 123.933 101.829 123.7 102.063C123.466 102.296 123.335 102.613 123.335 102.943V103.634C123.335 105.069 124.496 106.889 125.93 106.889C127.364 106.889 128.522 105.069 128.522 103.634V102.943C128.522 102.613 128.391 102.296 128.157 102.063C127.924 101.829 127.607 101.698 127.277 101.698Z" fill="white" stroke="#263238" stroke-linecap="round" stroke-linejoin="round"/>
<path d="M52.9221 95.0695H50.2322C49.902 95.0695 49.5854 95.2006 49.3519 95.4341C49.1185 95.6676 48.9873 95.9842 48.9873 96.3144V97.006C48.9873 98.4365 50.1485 100.26 51.5826 100.26C53.0168 100.26 54.1743 98.4401 54.1743 97.006V96.3144C54.1743 96.1503 54.1419 95.9878 54.0788 95.8363C54.0158 95.6848 53.9235 95.5472 53.8071 95.4315C53.6907 95.3158 53.5527 95.2243 53.4008 95.1621C53.2489 95.1 53.0862 95.0685 52.9221 95.0695Z" fill="white" stroke="#263238" stroke-linecap="round" stroke-linejoin="round"/>
<path d="M59.3874 95.0695H56.6902C56.36 95.0695 56.0434 95.2006 55.8099 95.4341C55.5765 95.6675 55.4453 95.9842 55.4453 96.3143V97.0059C55.4453 98.4365 56.6065 100.26 58.0406 100.26C59.4748 100.26 60.636 98.4401 60.636 97.0059V96.3143C60.635 95.9838 60.503 95.6672 60.269 95.4339C60.0349 95.2005 59.7179 95.0695 59.3874 95.0695Z" fill="white" stroke="#263238" stroke-linecap="round" stroke-linejoin="round"/>
<path d="M65.8559 95.0695H63.1587C62.8282 95.0695 62.5112 95.2005 62.2771 95.4339C62.0431 95.6672 61.9111 95.9838 61.9102 96.3143V97.0059C61.9102 98.4365 63.075 100.26 64.5055 100.26C65.936 100.26 67.1008 98.4401 67.1008 97.0059V96.3143C67.1008 95.9842 66.9696 95.6675 66.7362 95.4341C66.5027 95.2006 66.1861 95.0695 65.8559 95.0695Z" fill="white" stroke="#263238" stroke-linecap="round" stroke-linejoin="round"/>
<path d="M72.32 95.0695H69.6228C69.2926 95.0695 68.976 95.2006 68.7425 95.4341C68.5091 95.6675 68.3779 95.9842 68.3779 96.3143V97.0059C68.3779 98.4365 69.5391 100.26 70.9696 100.26C72.4001 100.26 73.5649 98.4401 73.5649 97.0059V96.3143C73.5649 96.1509 73.5327 95.989 73.4702 95.8379C73.4076 95.6869 73.3159 95.5497 73.2003 95.4341C73.0847 95.3185 72.9475 95.2268 72.7964 95.1642C72.6454 95.1017 72.4835 95.0695 72.32 95.0695Z" fill="white" stroke="#263238" stroke-linecap="round" stroke-linejoin="round"/>
<path d="M78.7851 95.0695H76.0769C75.7467 95.0695 75.4301 95.2006 75.1966 95.4341C74.9632 95.6675 74.832 95.9842 74.832 96.3143V97.0059C74.832 98.4365 75.9932 100.26 77.4274 100.26C78.8615 100.26 80.019 98.4401 80.019 97.0059V96.3143C80.019 95.9861 79.8894 95.6711 79.6583 95.4379C79.4272 95.2048 79.1133 95.0723 78.7851 95.0695Z" fill="white" stroke="#263238" stroke-linecap="round" stroke-linejoin="round"/>
<path d="M85.2488 95.0695H82.5515C82.2214 95.0695 81.9047 95.2006 81.6713 95.4341C81.4378 95.6675 81.3066 95.9842 81.3066 96.3143V97.0059C81.3066 98.4365 82.4678 100.26 83.902 100.26C85.3361 100.26 86.4973 98.4401 86.4973 97.0059V96.3143C86.4963 95.9838 86.3644 95.6672 86.1303 95.4339C85.8963 95.2005 85.5793 95.0695 85.2488 95.0695Z" fill="white" stroke="#263238" stroke-linecap="round" stroke-linejoin="round"/>
<path d="M91.728 95.0695H89.0307C88.7002 95.0695 88.3832 95.2005 88.1492 95.4339C87.9152 95.6672 87.7832 95.9838 87.7822 96.3143V97.0059C87.7822 98.4365 88.947 100.26 90.3775 100.26C91.8081 100.26 92.9729 98.4401 92.9729 97.0059V96.3143C92.9729 95.9842 92.8417 95.6675 92.6082 95.4341C92.3748 95.2006 92.0581 95.0695 91.728 95.0695Z" fill="white" stroke="#263238" stroke-linecap="round" stroke-linejoin="round"/>
<path d="M98.1824 95.0695H95.4851C95.155 95.0695 94.8383 95.2006 94.6049 95.4341C94.3714 95.6675 94.2402 95.9842 94.2402 96.3143V97.0059C94.2402 98.4365 95.4014 100.26 96.8319 100.26C98.2624 100.26 99.4272 98.4401 99.4272 97.0059V96.3143C99.4272 95.9842 99.2961 95.6675 99.0626 95.4341C98.8292 95.2006 98.5125 95.0695 98.1824 95.0695Z" fill="white" stroke="#263238" stroke-linecap="round" stroke-linejoin="round"/>
<path d="M104.647 95.0695H101.95C101.62 95.0695 101.303 95.2006 101.07 95.4341C100.836 95.6675 100.705 95.9842 100.705 96.3143V97.0059C100.705 98.4365 101.866 100.26 103.3 100.26C104.735 100.26 105.892 98.4401 105.892 97.0059V96.3143C105.892 95.9842 105.761 95.6675 105.527 95.4341C105.294 95.2006 104.977 95.0695 104.647 95.0695Z" fill="white" stroke="#263238" stroke-linecap="round" stroke-linejoin="round"/>
<path d="M111.112 95.0695H108.415C108.085 95.0695 107.768 95.2006 107.535 95.4341C107.301 95.6675 107.17 95.9842 107.17 96.3143V97.0059C107.17 98.4365 108.331 100.26 109.765 100.26C111.199 100.26 112.361 98.4401 112.361 97.0059V96.3143C112.36 95.9838 112.228 95.6672 111.994 95.4339C111.76 95.2005 111.443 95.0695 111.112 95.0695Z" fill="white" stroke="#263238" stroke-linecap="round" stroke-linejoin="round"/>
<path d="M117.573 95.0695H114.875C114.545 95.0695 114.228 95.2005 113.994 95.4339C113.76 95.6672 113.628 95.9838 113.627 96.3143V97.0059C113.627 98.4365 114.792 100.26 116.222 100.26C117.653 100.26 118.818 98.4401 118.818 97.0059V96.3143C118.818 95.9842 118.686 95.6675 118.453 95.4341C118.22 95.2006 117.903 95.0695 117.573 95.0695Z" fill="white" stroke="#263238" stroke-linecap="round" stroke-linejoin="round"/>
<path d="M124.044 95.0695H121.347C121.02 95.0743 120.708 95.2075 120.478 95.4405C120.249 95.6734 120.12 95.9873 120.12 96.3144V97.0059C120.12 98.4365 121.281 100.26 122.712 100.26C124.142 100.26 125.307 98.4401 125.307 97.0059V96.3144C125.307 96.1493 125.274 95.9859 125.211 95.8337C125.147 95.6815 125.054 95.5434 124.936 95.4276C124.819 95.3118 124.679 95.2204 124.526 95.159C124.373 95.0975 124.209 95.0671 124.044 95.0695Z" fill="white" stroke="#263238" stroke-linecap="round" stroke-linejoin="round"/>
<path d="M130.509 95.0695H127.811C127.481 95.0695 127.164 95.2006 126.931 95.4341C126.698 95.6675 126.566 95.9842 126.566 96.3143V97.0059C126.566 98.4365 127.728 100.26 129.162 100.26C130.596 100.26 131.753 98.4401 131.753 97.0059V96.3143C131.753 95.9842 131.622 95.6675 131.389 95.4341C131.155 95.2006 130.839 95.0695 130.509 95.0695Z" fill="white" stroke="#263238" stroke-linecap="round" stroke-linejoin="round"/>
<path d="M115.062 108.599H65.6743C65.029 108.599 64.5059 109.122 64.5059 109.768V113.313C64.5059 113.958 65.029 114.482 65.6743 114.482H115.062C115.707 114.482 116.23 113.958 116.23 113.313V109.768C116.23 109.122 115.707 108.599 115.062 108.599Z" fill="white" stroke="#263238" stroke-linecap="round" stroke-linejoin="round"/>
<path d="M121.675 108.945H118.977C118.647 108.945 118.33 109.076 118.097 109.31C117.864 109.543 117.732 109.86 117.732 110.19V110.882C117.732 112.316 118.894 114.136 120.328 114.136C121.762 114.136 122.919 112.316 122.919 110.882V110.19C122.919 109.86 122.788 109.543 122.555 109.31C122.321 109.076 122.005 108.945 121.675 108.945Z" fill="white" stroke="#263238" stroke-linecap="round" stroke-linejoin="round"/>
<path d="M61.7566 108.945H59.0593C58.7292 108.945 58.4125 109.076 58.1791 109.31C57.9456 109.543 57.8145 109.86 57.8145 110.19V110.882C57.8145 112.316 58.9756 114.136 60.4098 114.136C61.8439 114.136 63.0051 112.316 63.0051 110.882V110.19C63.0041 109.86 62.8722 109.543 62.6381 109.31C62.4041 109.076 62.0871 108.945 61.7566 108.945Z" fill="white" stroke="#263238" stroke-linecap="round" stroke-linejoin="round"/>
<path opacity="0.2" d="M56.3039 89.9735C56.4345 89.9741 56.5649 89.9863 56.6934 90.0099C56.6934 89.9844 56.6934 89.9589 56.6934 89.9334V89.2418C56.6924 89.0986 56.6348 88.9616 56.5332 88.8607C56.4316 88.7598 56.2942 88.7031 56.151 88.7031H53.4538C53.3112 88.7041 53.1747 88.7611 53.0739 88.862C52.9731 88.9628 52.916 89.0993 52.915 89.2418V89.9334C52.915 90.9272 53.643 92.1793 54.5021 92.4305C54.2364 91.3275 54.8333 89.9735 56.3039 89.9735Z" fill="black"/>
<path opacity="0.2" d="M62.9136 89.7879C62.996 89.7823 63.0787 89.7823 63.1611 89.7879V89.2273C63.1602 89.0847 63.1031 88.9483 63.0023 88.8474C62.9015 88.7466 62.765 88.6896 62.6224 88.6886H59.9252C59.782 88.6886 59.6446 88.7452 59.5429 88.8462C59.4413 88.9471 59.3838 89.0841 59.3828 89.2273V89.9189C59.3828 91.0109 60.2455 92.3759 61.2028 92.4669C60.7624 91.3385 61.3411 89.7879 62.9136 89.7879Z" fill="black"/>
<path opacity="0.2" d="M69.5724 89.6932H69.627V89.2382C69.627 89.0953 69.5702 88.9583 69.4692 88.8573C69.3681 88.7562 69.2311 88.6995 69.0882 88.6995H66.391C66.2478 88.6995 66.1104 88.7561 66.0088 88.857C65.9072 88.958 65.8496 89.095 65.8486 89.2382V89.9298C65.8486 91.04 66.7659 92.4778 67.7378 92.4778C67.785 92.4814 67.8325 92.4814 67.8798 92.4778C67.392 91.3275 67.9562 89.6932 69.5724 89.6932Z" fill="black"/>
<path opacity="0.2" d="M75.6251 89.5076C75.7764 89.5032 75.9278 89.5154 76.0764 89.544V89.2273C76.0764 89.0844 76.0197 88.9474 75.9186 88.8464C75.8176 88.7454 75.6806 88.6886 75.5377 88.6886H72.8405C72.6976 88.6886 72.5606 88.7454 72.4595 88.8464C72.3585 88.9474 72.3018 89.0844 72.3018 89.2273V89.9189C72.3018 90.96 73.1026 92.2849 74.0053 92.4669C73.3865 91.324 73.9216 89.5076 75.6251 89.5076Z" fill="black"/>
<path opacity="0.2" d="M82.4212 89.5075H82.5596V89.2345C82.5586 89.0913 82.501 88.9543 82.3994 88.8534C82.2978 88.7524 82.1604 88.6958 82.0172 88.6958H79.32C79.1774 88.6968 79.0409 88.7538 78.9401 88.8546C78.8393 88.9555 78.7822 89.0919 78.7812 89.2345V89.9261C78.7812 91.0363 79.6985 92.4741 80.6704 92.4741C80.7201 92.4777 80.77 92.4777 80.8196 92.4741C80.1826 91.3275 80.7177 89.5075 82.4212 89.5075Z" fill="black"/>
<path opacity="0.2" d="M88.9407 89.544H89.0244V89.2273C89.0235 89.0847 88.9664 88.9483 88.8656 88.8474C88.7647 88.7466 88.6283 88.6896 88.4857 88.6886H85.7884C85.6452 88.6886 85.5078 88.7452 85.4062 88.8462C85.3046 88.9471 85.2471 89.0841 85.2461 89.2273V89.9189C85.2461 91.0291 86.1634 92.4669 87.1353 92.4669C87.1946 92.4723 87.2543 92.4723 87.3136 92.4669C86.7166 91.3203 87.259 89.544 88.9407 89.544Z" fill="black"/>
<path opacity="0.2" d="M95.1792 89.5076C95.2826 89.509 95.3859 89.5163 95.4885 89.5294V89.2418C95.4885 89.099 95.4318 88.9619 95.3308 88.8609C95.2297 88.7599 95.0927 88.7031 94.9498 88.7031H92.2526C92.1097 88.7031 91.9727 88.7599 91.8717 88.8609C91.7706 88.9619 91.7139 89.099 91.7139 89.2418V89.9334C91.7139 91.0254 92.6166 92.4596 93.5812 92.4814C92.9369 91.3385 93.4684 89.5076 95.1792 89.5076Z" fill="black"/>
<path opacity="0.2" d="M101.952 89.6022V89.2382C101.952 89.0953 101.896 88.9583 101.795 88.8573C101.694 88.7562 101.557 88.6995 101.414 88.6995H98.7165C98.5736 88.6995 98.4365 88.7562 98.3355 88.8573C98.2345 88.9583 98.1777 89.0953 98.1777 89.2382V89.9298C98.1777 91.04 99.0914 92.4778 100.067 92.4778C100.165 92.4763 100.261 92.4603 100.354 92.4305C99.8303 91.3093 100.365 89.6531 101.952 89.6022Z" fill="black"/>
<path opacity="0.2" d="M107.89 89.4602C108.069 89.4599 108.248 89.4831 108.421 89.5294V89.2418C108.42 89.0986 108.362 88.9616 108.261 88.8607C108.159 88.7598 108.022 88.7031 107.879 88.7031H105.196C105.053 88.7041 104.917 88.7611 104.816 88.862C104.715 88.9628 104.658 89.0993 104.657 89.2418V89.9334C104.657 90.9599 105.436 92.2558 106.321 92.4523C105.64 91.313 106.168 89.4602 107.89 89.4602Z" fill="black"/>
<path opacity="0.2" d="M114.501 89.4602C114.63 89.4607 114.759 89.4728 114.887 89.4966V89.2418C114.886 89.0993 114.829 88.9628 114.728 88.862C114.627 88.7611 114.491 88.7041 114.348 88.7031H111.651C111.508 88.7031 111.37 88.7598 111.269 88.8607C111.167 88.9616 111.109 89.0986 111.108 89.2418V89.9334C111.108 91.0254 111.982 92.4123 112.928 92.4814C112.244 91.3385 112.768 89.4602 114.501 89.4602Z" fill="black"/>
<path opacity="0.2" d="M121.067 89.6459C121.162 89.6474 121.257 89.6547 121.351 89.6677V89.2418C121.351 89.099 121.294 88.9619 121.193 88.8609C121.092 88.7599 120.955 88.7031 120.812 88.7031H118.115C118.044 88.7031 117.974 88.7171 117.909 88.7441C117.843 88.7712 117.784 88.8109 117.734 88.8609C117.684 88.9109 117.644 88.9703 117.617 89.0357C117.59 89.101 117.576 89.1711 117.576 89.2418V89.9334C117.576 91.0254 118.45 92.4086 119.396 92.4814C118.868 91.3312 119.425 89.6459 121.067 89.6459Z" fill="black"/>
<path opacity="0.2" d="M127.816 89.5622V89.2418C127.816 89.099 127.759 88.9619 127.658 88.8609C127.557 88.7599 127.42 88.7031 127.277 88.7031H124.58C124.437 88.7031 124.3 88.7599 124.199 88.8609C124.098 88.9619 124.041 89.099 124.041 89.2418V89.9334C124.041 91.0436 124.955 92.4814 125.93 92.4814C126.071 92.4794 126.209 92.4497 126.338 92.3941C125.821 91.2948 126.309 89.6859 127.816 89.5622Z" fill="black"/>
<path opacity="0.2" d="M56.4898 103.012C56.5589 103.008 56.6282 103.008 56.6973 103.012V102.936C56.6963 102.792 56.6387 102.655 56.5371 102.554C56.4355 102.453 56.2981 102.397 56.1549 102.397H53.4577C53.3151 102.398 53.1786 102.455 53.0778 102.556C52.977 102.657 52.9199 102.793 52.9189 102.936V103.627C52.9189 104.737 53.8362 106.175 54.8081 106.175C54.8753 106.173 54.9423 106.166 55.0083 106.153C54.1929 105.047 54.688 103.012 56.4898 103.012Z" fill="black"/>
<path opacity="0.2" d="M62.8226 103.012C62.9361 103.012 63.0493 103.022 63.1611 103.041V102.946C63.1602 102.804 63.1031 102.667 63.0023 102.567C62.9015 102.466 62.765 102.409 62.6224 102.408H59.9252C59.782 102.408 59.6446 102.464 59.5429 102.565C59.4413 102.666 59.3838 102.803 59.3828 102.946V103.638C59.3828 104.748 60.3001 106.186 61.272 106.186H61.3521C60.5185 105.065 61.0099 103.012 62.8226 103.012Z" fill="black"/>
<path opacity="0.2" d="M69.2483 103.103C69.3704 103.103 69.4922 103.114 69.6123 103.136V102.943C69.6123 102.872 69.5984 102.802 69.5713 102.737C69.5442 102.671 69.5045 102.612 69.4545 102.562C69.4045 102.512 69.3451 102.472 69.2797 102.445C69.2144 102.418 69.1443 102.404 69.0736 102.404H66.3763C66.2331 102.404 66.0957 102.461 65.9941 102.562C65.8925 102.663 65.8349 102.8 65.834 102.943V103.634C65.834 104.726 66.7367 106.157 67.7013 106.182C66.9769 105.05 67.4829 103.103 69.2483 103.103Z" fill="black"/>
<path opacity="0.2" d="M75.8108 103.15C75.9045 103.151 75.9981 103.157 76.0911 103.168V102.943C76.0911 102.872 76.0772 102.802 76.0501 102.737C76.023 102.671 75.9833 102.612 75.9333 102.562C75.8833 102.512 75.8239 102.472 75.7585 102.445C75.6932 102.418 75.6231 102.404 75.5524 102.404H72.8551C72.7844 102.404 72.7143 102.418 72.649 102.445C72.5836 102.472 72.5242 102.512 72.4742 102.562C72.4242 102.612 72.3845 102.671 72.3574 102.737C72.3303 102.802 72.3164 102.872 72.3164 102.943V103.634C72.3164 104.745 73.23 106.182 74.2056 106.182H74.2493C73.5504 105.043 74.0709 103.15 75.8108 103.15Z" fill="black"/>
<path opacity="0.2" d="M82.1446 103.012C82.2839 103.012 82.4228 103.025 82.5596 103.052V102.946C82.5586 102.803 82.501 102.666 82.3994 102.565C82.2978 102.464 82.1604 102.408 82.0172 102.408H79.32C79.1774 102.409 79.0409 102.466 78.9401 102.567C78.8393 102.667 78.7822 102.804 78.7812 102.946V103.638C78.7812 104.748 79.6985 106.186 80.6704 106.186C79.8405 105.072 80.3282 103.012 82.1446 103.012Z" fill="black"/>
<path opacity="0.2" d="M88.7077 103.056C88.8138 103.056 88.9196 103.065 89.0244 103.081V102.943C89.0235 102.8 88.9664 102.664 88.8656 102.563C88.7647 102.462 88.6283 102.405 88.4857 102.404H85.7884C85.6452 102.404 85.5078 102.461 85.4062 102.562C85.3046 102.663 85.2471 102.8 85.2461 102.943V103.634C85.2461 104.745 86.1634 106.182 87.1353 106.182H87.2044C86.4182 105.054 86.9205 103.056 88.7077 103.056Z" fill="black"/>
<path opacity="0.2" d="M95.4121 103.194H95.4885V102.939C95.4885 102.796 95.4318 102.659 95.3308 102.558C95.2297 102.457 95.0927 102.401 94.9498 102.401H92.2526C92.1097 102.401 91.9727 102.457 91.8717 102.558C91.7706 102.659 91.7139 102.796 91.7139 102.939V103.631C91.7139 104.741 92.6275 106.179 93.5994 106.179C93.6705 106.178 93.7412 106.169 93.8105 106.153C93.1844 105.018 93.7049 103.194 95.4121 103.194Z" fill="black"/>
<path opacity="0.2" d="M101.92 103.056H101.942V102.943C101.942 102.872 101.928 102.802 101.9 102.737C101.873 102.671 101.834 102.612 101.784 102.562C101.734 102.512 101.674 102.472 101.609 102.445C101.544 102.418 101.474 102.404 101.403 102.404H98.7165C98.6457 102.404 98.5757 102.418 98.5103 102.445C98.4449 102.472 98.3855 102.512 98.3355 102.562C98.2855 102.612 98.2458 102.671 98.2187 102.737C98.1917 102.802 98.1777 102.872 98.1777 102.943V103.634C98.1777 104.745 99.0914 106.182 100.067 106.182C100.179 106.181 100.289 106.161 100.395 106.124C99.6556 104.996 100.169 103.056 101.92 103.056Z" fill="black"/>
<path opacity="0.2" d="M108.214 102.917H108.417C108.412 102.778 108.353 102.646 108.252 102.549C108.152 102.452 108.018 102.398 107.879 102.397H105.196C105.053 102.398 104.917 102.455 104.816 102.556C104.715 102.657 104.658 102.793 104.657 102.936V103.627C104.657 104.737 105.575 106.175 106.546 106.175C106.635 106.172 106.723 106.159 106.808 106.135C105.895 105.05 106.368 102.917 108.214 102.917Z" fill="black"/>
<path opacity="0.2" d="M114.875 103.012V102.946C114.874 102.804 114.817 102.667 114.716 102.567C114.615 102.466 114.479 102.409 114.336 102.408H111.639C111.496 102.408 111.358 102.464 111.257 102.565C111.155 102.666 111.098 102.803 111.097 102.946V103.638C111.097 104.748 112.014 106.186 112.986 106.186C113.11 106.184 113.233 106.162 113.35 106.121C112.589 104.992 113.091 103.012 114.875 103.012Z" fill="black"/>
<path opacity="0.2" d="M121.212 103.012H121.358V102.939C121.358 102.868 121.344 102.798 121.317 102.733C121.29 102.668 121.25 102.608 121.2 102.558C121.15 102.508 121.09 102.469 121.025 102.442C120.96 102.414 120.89 102.401 120.819 102.401H118.122C117.979 102.401 117.842 102.457 117.741 102.558C117.64 102.659 117.583 102.796 117.583 102.939V103.631C117.583 104.741 118.497 106.179 119.469 106.179C119.555 106.178 119.64 106.165 119.723 106.142C118.912 105.029 119.41 103.012 121.212 103.012Z" fill="black"/>
<path opacity="0.2" d="M127.583 103.289C127.663 103.289 127.743 103.289 127.816 103.289V102.925C127.816 102.782 127.759 102.645 127.658 102.544C127.557 102.443 127.42 102.386 127.277 102.386H124.58C124.437 102.386 124.3 102.443 124.199 102.544C124.098 102.645 124.041 102.782 124.041 102.925V103.616C124.041 104.726 124.955 106.164 125.93 106.164C125.366 105.036 125.912 103.289 127.583 103.289Z" fill="black"/>
<path opacity="0.2" d="M53.4181 96.4927H53.4654V96.3144C53.4644 96.1711 53.4068 96.0341 53.3052 95.9332C53.2036 95.8323 53.0662 95.7756 52.923 95.7756H50.2331C50.0902 95.7756 49.9531 95.8324 49.8521 95.9334C49.7511 96.0344 49.6943 96.1715 49.6943 96.3144V97.006C49.6943 98.1162 50.608 99.554 51.5835 99.554C51.6772 99.5516 51.7702 99.5369 51.8601 99.5103C51.1613 98.3746 51.6891 96.4927 53.4181 96.4927Z" fill="black"/>
<path opacity="0.2" d="M59.7477 96.4927H59.9297V96.307C59.9287 96.1638 59.8712 96.0268 59.7695 95.9259C59.6679 95.8249 59.5305 95.7683 59.3873 95.7683H56.6901C56.5475 95.7693 56.411 95.8263 56.3102 95.9271C56.2094 96.028 56.1523 96.1644 56.1514 96.307V96.9986C56.1514 98.1088 57.0686 99.5466 58.0405 99.5466C58.0938 99.5502 58.1474 99.5502 58.2007 99.5466C57.4836 98.4073 58.0005 96.4927 59.7477 96.4927Z" fill="black"/>
<path opacity="0.2" d="M66.3612 96.4928H66.394V96.3144C66.393 96.1718 66.336 96.0353 66.2352 95.9345C66.1343 95.8337 65.9979 95.7766 65.8553 95.7757H63.158C63.0865 95.7747 63.0155 95.7879 62.9491 95.8145C62.8827 95.8411 62.8222 95.8806 62.7711 95.9307C62.72 95.9807 62.6793 96.0404 62.6514 96.1063C62.6235 96.1721 62.6089 96.2429 62.6084 96.3144V97.006C62.6084 98.1162 63.5257 99.554 64.4976 99.554C64.5952 99.5528 64.6922 99.5368 64.7851 99.5067C64.1044 98.3746 64.625 96.4928 66.3612 96.4928Z" fill="black"/>
<path opacity="0.2" d="M72.6912 96.46H72.8587V96.3217C72.8587 96.1788 72.8019 96.0418 72.7009 95.9407C72.5998 95.8397 72.4628 95.783 72.3199 95.783H69.6227C69.4798 95.783 69.3428 95.8397 69.2418 95.9407C69.1407 96.0418 69.084 96.1788 69.084 96.3217V97.0133C69.084 98.1235 69.9976 99.5613 70.9695 99.5613C71.0355 99.5598 71.1013 99.5525 71.1661 99.5394C70.4126 98.4074 70.9222 96.46 72.6912 96.46Z" fill="black"/>
<path opacity="0.2" d="M78.9878 96.4928C79.1037 96.4929 79.2194 96.5026 79.3336 96.522V96.3145C79.3336 96.1716 79.2769 96.0346 79.1758 95.9335C79.0748 95.8325 78.9378 95.7758 78.7949 95.7758H76.0758C75.9329 95.7758 75.7959 95.8325 75.6949 95.9335C75.5939 96.0346 75.5371 96.1716 75.5371 96.3145V97.0061C75.5371 98.1163 76.4507 99.5541 77.4263 99.5541C76.7055 98.422 77.2188 96.4928 78.9878 96.4928Z" fill="black"/>
<path opacity="0.2" d="M85.4972 96.2598C85.5945 96.2602 85.6917 96.2662 85.7883 96.278C85.7783 96.1418 85.7172 96.0144 85.6173 95.9213C85.5175 95.8282 85.3862 95.7762 85.2496 95.7756H82.5524C82.4098 95.7766 82.2733 95.8337 82.1725 95.9345C82.0717 96.0353 82.0146 96.1718 82.0137 96.3144V97.006C82.0137 98.1162 82.931 99.554 83.9028 99.554C83.9727 99.5526 84.0422 99.5441 84.1103 99.5285C83.1639 98.4474 83.6262 96.2598 85.4972 96.2598Z" fill="black"/>
<path opacity="0.2" d="M92.0129 96.5364C92.0967 96.5364 92.1804 96.5364 92.2568 96.5364V96.2998C92.2559 96.1573 92.1988 96.0208 92.098 95.92C91.9972 95.8191 91.8607 95.7621 91.7181 95.7611H89.0209C88.8777 95.7611 88.7403 95.8178 88.6386 95.9187C88.537 96.0196 88.4795 96.1566 88.4785 96.2998V96.9914C88.4785 98.1016 89.3958 99.5394 90.3677 99.5394H90.4405C89.7598 98.411 90.273 96.5364 92.0129 96.5364Z" fill="black"/>
<path opacity="0.2" d="M98.721 96.3144C98.721 96.1715 98.6642 96.0344 98.5632 95.9334C98.4622 95.8324 98.3251 95.7756 98.1823 95.7756H95.485C95.4143 95.7756 95.3442 95.7896 95.2789 95.8166C95.2135 95.8437 95.1541 95.8834 95.1041 95.9334C95.054 95.9834 95.0144 96.0428 94.9873 96.1082C94.9602 96.1736 94.9463 96.2436 94.9463 96.3144V97.006C94.9463 98.1162 95.8599 99.554 96.8318 99.554C97.026 99.5492 97.216 99.4967 97.3851 99.4011C96.6498 98.3164 97.0939 96.46 98.721 96.3144Z" fill="black"/>
<path opacity="0.2" d="M105.197 96.46V96.3217C105.197 96.1788 105.14 96.0418 105.039 95.9407C104.938 95.8397 104.801 95.783 104.658 95.783H101.961C101.818 95.783 101.681 95.8397 101.58 95.9407C101.479 96.0418 101.422 96.1788 101.422 96.3217V97.0133C101.422 98.1235 102.336 99.5613 103.311 99.5613C103.467 99.5588 103.621 99.5228 103.762 99.4557C103.096 98.3455 103.573 96.551 105.197 96.46Z" fill="black"/>
<path opacity="0.2" d="M111.428 96.3508C111.504 96.3508 111.581 96.3508 111.653 96.3508V96.3035C111.652 96.1603 111.595 96.0233 111.493 95.9223C111.392 95.8214 111.254 95.7648 111.111 95.7648H108.414C108.271 95.7657 108.135 95.8228 108.034 95.9236C107.933 96.0244 107.876 96.1609 107.875 96.3035V96.9951C107.875 98.1053 108.792 99.5431 109.764 99.5431C109.833 99.542 109.901 99.5335 109.968 99.5176C109.124 98.422 109.608 96.3508 111.428 96.3508Z" fill="black"/>
<path opacity="0.2" d="M118.119 96.5875V96.3145C118.118 96.1719 118.061 96.0354 117.96 95.9346C117.859 95.8338 117.723 95.7767 117.58 95.7758H114.883C114.74 95.7758 114.603 95.8324 114.501 95.9333C114.399 96.0342 114.342 96.1713 114.341 96.3145V97.0061C114.341 98.1163 115.258 99.5541 116.23 99.5541C116.34 99.5523 116.449 99.5339 116.554 99.4995C115.961 98.3711 116.481 96.6312 118.119 96.5875Z" fill="black"/>
<path opacity="0.2" d="M124.278 96.3982C124.381 96.3996 124.483 96.4069 124.584 96.42V96.3145C124.584 96.1716 124.527 96.0346 124.426 95.9335C124.325 95.8325 124.188 95.7758 124.046 95.7758H121.348C121.278 95.7758 121.207 95.7897 121.142 95.8168C121.077 95.8438 121.017 95.8835 120.967 95.9335C120.917 95.9836 120.878 96.043 120.851 96.1083C120.823 96.1737 120.81 96.2437 120.81 96.3145V97.0061C120.81 98.1163 121.723 99.5541 122.695 99.5541C122.729 99.556 122.763 99.556 122.797 99.5541C121.982 98.4293 122.477 96.3982 124.278 96.3982Z" fill="black"/>
<path opacity="0.2" d="M130.797 96.6784C130.881 96.6727 130.964 96.6727 131.048 96.6784V96.3144C131.048 96.1715 130.991 96.0344 130.89 95.9334C130.789 95.8324 130.652 95.7756 130.509 95.7756H127.812C127.669 95.7756 127.532 95.8324 127.431 95.9334C127.33 96.0344 127.273 96.1715 127.273 96.3144V97.006C127.273 98.098 128.18 99.554 129.152 99.554C128.584 98.4074 129.133 96.6784 130.797 96.6784Z" fill="black"/>
<path opacity="0.2" d="M115.523 113.335V109.746C115.523 109.503 115.326 109.306 115.083 109.306H65.6518C65.4086 109.306 65.2114 109.503 65.2114 109.746V113.335C65.2114 113.578 65.4086 113.775 65.6518 113.775H115.083C115.326 113.775 115.523 113.578 115.523 113.335Z" fill="black"/>
<path opacity="0.2" d="M122.214 110.55V110.186C122.214 110.116 122.2 110.046 122.173 109.98C122.146 109.915 122.106 109.856 122.056 109.805C122.006 109.755 121.947 109.716 121.882 109.689C121.816 109.662 121.746 109.648 121.675 109.648H118.978C118.907 109.648 118.837 109.662 118.772 109.689C118.707 109.716 118.647 109.755 118.597 109.805C118.547 109.856 118.508 109.915 118.48 109.98C118.453 110.046 118.439 110.116 118.439 110.186V110.878C118.439 111.988 119.353 113.426 120.329 113.426C120.41 113.424 120.49 113.413 120.569 113.393C120.03 112.258 120.58 110.561 122.214 110.55Z" fill="black"/>
<path opacity="0.2" d="M61.9821 110.317C62.0882 110.318 62.194 110.327 62.2988 110.343V110.19C62.2979 110.047 62.2403 109.91 62.1387 109.809C62.0371 109.708 61.8997 109.651 61.7565 109.651H59.0592C58.9166 109.652 58.7802 109.709 58.6793 109.81C58.5785 109.911 58.5215 110.048 58.5205 110.19V110.882C58.5205 111.992 59.4378 113.43 60.4097 113.43H60.4716C59.6962 112.301 60.2058 110.317 61.9821 110.317Z" fill="black"/>
<path opacity="0.2" d="M45.7557 34.3979H134.979C135.592 34.3979 136.18 34.6415 136.614 35.0749C137.047 35.5084 137.291 36.0963 137.291 36.7093V57.0934H43.4443V36.7093C43.4443 36.0963 43.6879 35.5084 44.1213 35.0749C44.5548 34.6415 45.1427 34.3979 45.7557 34.3979Z" fill="black"/>
<path d="M127.684 38.2418H53.0641C52.4418 33.0743 51.3452 27.9749 49.7881 23.0084H130.975C129.393 27.9693 128.291 33.0705 127.684 38.2418Z" fill="white"/>
<path opacity="0.2" d="M128.419 33.3314C127.877 36.2944 127.691 38.2418 127.691 38.2418H53.0714C53.0714 38.2418 52.8821 36.3308 52.3252 33.3314H128.419Z" fill="black"/>
<path d="M127.684 38.2418H53.0641C52.4418 33.0743 51.3452 27.9749 49.7881 23.0084H130.975C129.393 27.9693 128.291 33.0705 127.684 38.2418V38.2418Z" stroke="#263238" stroke-linecap="round" stroke-linejoin="round"/>
<path d="M126.669 51.0692H53.4648V81.1866H126.669V51.0692Z" fill="#263238"/>
<g opacity="0.4">
<path opacity="0.4" d="M88.2422 78.522L88.628 78.5402C89.1134 71.0296 89.5987 63.507 90.084 55.9722C89.4652 63.5094 88.8513 71.026 88.2422 78.522Z" fill="white"/>
<path opacity="0.4" d="M86.9971 78.4273L87.3829 78.4601C88.225 70.9981 89.0658 63.5033 89.9054 55.9758C88.9372 63.5082 87.9677 70.992 86.9971 78.4273Z" fill="white"/>
<path opacity="0.4" d="M85.7852 78.289C85.9126 78.289 86.0436 78.3181 86.171 78.3327C87.3649 70.9508 88.5661 63.4973 89.7746 55.9722C88.4399 63.5045 87.1101 70.9435 85.7852 78.289Z" fill="white"/>
<path opacity="0.4" d="M84.5576 78.1034L84.9471 78.1653C86.4953 70.8853 88.0557 63.484 89.6281 55.9613C87.9295 63.4913 86.2393 70.872 84.5576 78.1034Z" fill="white"/>
<path opacity="0.4" d="M83.335 77.8742L83.7281 77.9543C85.6209 70.8126 87.5392 63.484 89.4829 55.9686C87.4154 63.4864 85.3661 70.7883 83.335 77.8742Z" fill="white"/>
<path opacity="0.4" d="M82.1191 77.5975L82.5123 77.6958C84.7436 70.7142 87.0368 63.4743 89.3372 55.965C86.9021 63.4743 84.4742 70.6815 82.1191 77.5975Z" fill="white"/>
<path opacity="0.4" d="M80.9072 77.2698L81.304 77.3863C83.852 70.6014 86.5201 63.4597 89.1919 55.9576C86.3854 63.4597 83.5899 70.5613 80.9072 77.2698Z" fill="white"/>
<path opacity="0.4" d="M79.7158 76.8986L80.1126 77.026C82.9918 70.4739 86.013 63.4451 89.056 55.954C85.8638 63.4451 82.7043 70.423 79.7158 76.8986Z" fill="white"/>
<path opacity="0.4" d="M78.5088 76.4727L78.9092 76.6183C82.0978 70.3139 85.4867 63.427 88.901 55.9468C85.3447 63.427 81.8139 70.252 78.5088 76.4727Z" fill="white"/>
<path opacity="0.4" d="M77.3291 75.9922L77.7295 76.1596C81.2093 70.1391 84.9658 63.4196 88.7551 55.9395C84.8129 63.4051 80.9218 70.0881 77.3291 75.9922Z" fill="white"/>
<path opacity="0.4" d="M76.1602 75.4536L76.5606 75.6465C80.317 69.9499 84.4412 63.3797 88.609 55.9323C84.2919 63.3797 80.0258 69.888 76.1602 75.4536Z" fill="white"/>
<path opacity="0.4" d="M75.0098 74.8565L75.4102 75.0749C79.4142 69.7351 83.9169 63.3505 88.4632 55.9213C84.3168 62.4665 79.826 68.7871 75.0098 74.8565Z" fill="white"/>
<path opacity="0.4" d="M73.8926 74.2014C74.0236 74.2851 74.1619 74.3616 74.2966 74.4416C79.3484 68.5576 84.0358 62.3702 88.3325 55.9141C83.9353 62.3272 79.1111 68.4368 73.8926 74.2014Z" fill="white"/>
<path opacity="0.4" d="M72.7754 73.4771L73.1722 73.7501C78.6233 68.1991 83.6383 62.2361 88.1726 55.9141C83.5442 62.1918 78.3935 68.067 72.7754 73.4771Z" fill="white"/>
<path opacity="0.4" d="M88.0261 55.8922C82.1694 63.2268 76.44 68.8215 71.708 72.6872L72.0975 72.9893C77.9395 67.8106 83.2733 62.0856 88.0261 55.8922Z" fill="white"/>
<path opacity="0.4" d="M87.8808 55.8812C81.6419 63.1612 75.5449 68.4829 70.6709 71.8317L71.0567 72.1629C75.8652 68.603 81.8057 63.1794 87.8808 55.8812Z" fill="white"/>
<path opacity="0.4" d="M87.7244 55.8702C81.1105 63.0956 74.6677 68.1043 69.6846 70.8998C69.8047 71.0236 69.9248 71.1473 70.0486 71.2638C74.9844 68.2426 81.2852 63.1138 87.7244 55.8702Z" fill="white"/>
<path opacity="0.4" d="M87.5906 55.8557C80.6163 63.0083 73.8386 67.6857 68.7754 69.9061L69.1394 70.3029C74.1517 67.8386 80.7765 63.0302 87.5906 55.8557Z" fill="white"/>
<path opacity="0.4" d="M67.9375 68.8433C68.0431 68.9889 68.1523 69.1345 68.2615 69.2764C73.3393 67.4018 80.2735 62.9283 87.4479 55.8448C80.1279 62.8955 73.0444 67.2235 67.9375 68.8433Z" fill="white"/>
<path opacity="0.4" d="M67.1953 67.7367C67.29 67.8896 67.3882 68.0424 67.4865 68.1953C72.5825 66.914 79.8188 62.7972 87.3027 55.8193C79.6732 62.7572 72.3095 66.7211 67.1953 67.7367Z" fill="white"/>
<path opacity="0.4" d="M66.5615 66.612C66.6416 66.7721 66.7253 66.9286 66.809 67.0888C71.905 66.3972 79.3889 62.6444 87.1567 55.823C79.2615 62.5788 71.6575 66.1752 66.5615 66.612Z" fill="white"/>
<path opacity="0.4" d="M66.0449 65.4617C66.1104 65.6218 66.1796 65.7856 66.2488 65.9458C71.3156 65.822 78.9888 62.4405 86.9968 55.7975C78.8978 62.3713 71.1045 65.5891 66.0449 65.4617Z" fill="white"/>
<path opacity="0.4" d="M89.4756 78.573H89.8578C89.9743 71.0503 90.0956 63.5179 90.2218 55.9758C89.967 63.5131 89.7182 71.0454 89.4756 78.573Z" fill="white"/>
<path opacity="0.4" d="M90.7055 78.5803H91.0913C90.8486 71.0576 90.606 63.5252 90.3633 55.9832L90.7055 78.5803Z" fill="white"/>
<path opacity="0.4" d="M91.9361 78.5475H92.322C91.7153 71.0491 91.1086 63.5264 90.502 55.9795C90.98 63.5167 91.4581 71.0394 91.9361 78.5475Z" fill="white"/>
<path opacity="0.4" d="M93.1844 78.471L93.5702 78.4419C92.5995 70.9993 91.6289 63.5106 90.6582 55.9758C91.493 63.5106 92.335 71.009 93.1844 78.471Z" fill="white"/>
<path opacity="0.4" d="M94.3965 78.3545L94.7823 78.3072C93.4622 70.952 92.1275 63.507 90.7783 55.9722C91.9941 63.507 93.2001 70.9677 94.3965 78.3545Z" fill="white"/>
<path opacity="0.4" d="M95.6229 78.1907L96.0123 78.1325C94.338 70.8889 92.6454 63.5021 90.9346 55.9722C92.507 63.5045 94.0698 70.9107 95.6229 78.1907Z" fill="white"/>
<path opacity="0.4" d="M96.8468 77.9832L97.2363 77.9104C95.2149 70.81 93.1631 63.496 91.0811 55.9685C93.0175 63.496 94.9395 70.8343 96.8468 77.9832Z" fill="white"/>
<path opacity="0.4" d="M98.0625 77.7285L98.4593 77.6375C96.1005 70.7215 93.669 63.4888 91.2266 55.965C93.5343 63.4901 95.813 70.7446 98.0625 77.7285Z" fill="white"/>
<path opacity="0.4" d="M99.2782 77.43L99.6713 77.3172C96.985 70.5941 94.1858 63.4852 91.3721 55.9576C94.0475 63.4779 96.712 70.6159 99.2782 77.43Z" fill="white"/>
<path opacity="0.4" d="M100.483 77.0769L100.883 76.9459C97.873 70.4594 94.6953 63.4779 91.5176 55.954C94.5679 63.4633 97.5964 70.4994 100.483 77.0769Z" fill="white"/>
<path opacity="0.4" d="M101.68 76.6729L102.081 76.5237C98.7684 70.3029 95.2303 63.4488 91.6631 55.9468C95.0883 63.4488 98.4844 70.3503 101.68 76.6729Z" fill="white"/>
<path opacity="0.4" d="M102.868 76.2179C103.003 76.1596 103.141 76.1087 103.272 76.0504C99.6683 70.1318 95.759 63.4306 91.8096 55.9395C95.6134 63.4306 99.3735 70.1828 102.868 76.2179Z" fill="white"/>
<path opacity="0.4" d="M104.043 75.7119L104.447 75.519C100.57 69.9389 96.2857 63.4124 91.9541 55.9358C96.1365 63.4051 100.271 69.9971 104.043 75.7119Z" fill="white"/>
<path opacity="0.4" d="M105.197 75.1405C105.331 75.0713 105.466 74.9949 105.597 74.9221C100.763 68.8315 96.2554 62.489 92.0928 55.9213C96.6646 63.3833 101.193 69.786 105.197 75.1405Z" fill="white"/>
<path opacity="0.4" d="M106.34 74.5107L106.748 74.2704C101.507 68.4847 96.6617 62.3519 92.2461 55.9139C96.559 62.3955 101.266 68.6061 106.34 74.5107Z" fill="white"/>
<path opacity="0.4" d="M92.3916 55.9031C96.944 62.2547 101.981 68.2446 107.458 73.8192L107.862 73.5462C102.215 68.113 97.0402 62.2109 92.3916 55.9031Z" fill="white"/>
<path opacity="0.4" d="M92.5371 55.8921C97.3121 62.1152 102.676 67.8639 108.553 73.0583C108.688 72.9601 108.815 72.8581 108.946 72.7562C104.2 68.8905 98.4266 63.2704 92.5371 55.8921Z" fill="white"/>
<path opacity="0.4" d="M92.6826 55.8812C98.7978 63.2231 104.775 68.6685 109.598 72.2285C109.729 72.1193 109.863 72.0101 109.991 71.8972C105.099 68.5557 98.9616 63.2195 92.6826 55.8812Z" fill="white"/>
<path opacity="0.4" d="M92.8203 55.8704C99.3177 63.1504 105.651 68.3155 110.602 71.3331C110.729 71.213 110.849 71.0856 110.966 70.9691C105.979 68.1772 99.4888 63.1504 92.8203 55.8704Z" fill="white"/>
<path opacity="0.4" d="M92.9736 55.8557C99.8423 63.0848 106.518 67.915 111.538 70.3611L111.902 69.9607C106.838 67.7658 100.006 63.0702 92.9736 55.8557Z" fill="white"/>
<path opacity="0.4" d="M112.437 69.3274C112.55 69.1818 112.655 69.0362 112.764 68.887C107.65 67.3036 100.501 62.961 93.1084 55.8448C100.345 62.9902 107.348 67.4783 112.437 69.3274Z" fill="white"/>
<path opacity="0.4" d="M113.227 68.2317L113.526 67.7658C108.404 66.8012 100.971 62.8263 93.2617 55.8302C100.829 62.8663 108.109 66.9941 113.227 68.2317Z" fill="white"/>
<path opacity="0.4" d="M113.933 67.0997C114.02 66.9395 114.104 66.7794 114.187 66.6156C109.091 66.2516 101.407 62.6516 93.4395 55.8157C101.258 62.7098 108.837 66.47 113.933 67.0997Z" fill="white"/>
<path opacity="0.4" d="M93.5488 55.7975C101.644 62.5169 109.419 65.8985 114.479 65.9494C114.552 65.7856 114.621 65.6219 114.69 65.4581C109.638 65.6655 101.761 62.4441 93.5488 55.7975Z" fill="white"/>
</g>
<path opacity="0.2" d="M79.7168 56.5182C78.3372 60.0563 79.8296 70.3503 89.785 70.3503C99.7404 70.3503 103.355 63.1176 102.951 58.6476L116.241 56.5073C116.241 56.5073 120.314 67.7622 111.665 75.6355C103.016 83.5089 73.0374 82.9993 66.7001 77.0151C60.3629 71.0309 63.8791 59.2082 63.8791 59.2082L79.7168 56.5182Z" fill="black"/>
<path d="M138.044 41.2521V38.7696C138.044 38.6777 138.073 38.5882 138.127 38.5142C138.182 38.4402 138.258 38.3855 138.346 38.3583L140.166 37.7904V35.308C140.166 35.0106 140.284 34.7255 140.494 34.5152C140.705 34.305 140.99 34.1868 141.287 34.1868H143.471C143.579 34.1848 143.683 34.2247 143.762 34.298C143.841 34.3714 143.888 34.4725 143.893 34.58V35.3808C143.893 35.4902 143.85 35.5952 143.773 35.6729C143.696 35.7506 143.592 35.7948 143.482 35.7957H140.705V38.2236C140.703 38.2968 140.684 38.3685 140.648 38.4321C140.611 38.4957 140.56 38.5492 140.497 38.5876L138.947 39.5267V41.2557L138.044 41.2521Z" fill="#999999" stroke="#263238" stroke-linecap="round" stroke-linejoin="round"/>
<path d="M140.439 41.2521H138.044V48.4156H140.439V41.2521Z" fill="#263238"/>
<path d="M143.434 40.6442H140.438V49.0234H143.434V40.6442Z" fill="#757575"/>
<path opacity="0.2" d="M143.427 45.7474H140.438V49.0234H143.427V45.7474Z" fill="black"/>
<path d="M143.434 40.6442H140.438V49.0234H143.434V40.6442Z" stroke="#263238" stroke-linecap="round" stroke-linejoin="round"/>
<path d="M40.2953 48.412H42.6904V41.2485H40.2953V48.412Z" fill="#263238"/>
<path d="M37.3002 49.0199H40.2959V40.6406H37.3002V49.0199Z" fill="#757575"/>
<path opacity="0.2" d="M40.2994 45.7474H37.3037V48.9434H40.2994V45.7474Z" fill="black"/>
<path d="M37.3002 49.0199H40.2959V40.6406H37.3002V49.0199Z" stroke="#263238" stroke-linecap="round" stroke-linejoin="round"/>
<path d="M42.3302 45.2597C42.5464 44.6923 42.5799 44.0714 42.4259 43.484C42.2718 42.8966 41.938 42.3721 41.4711 41.9837L39.7094 40.5277C39.5973 40.4333 39.4669 40.3629 39.3264 40.3211C39.1859 40.2793 39.0383 40.2668 38.8928 40.2846C38.7473 40.3024 38.607 40.3499 38.4807 40.4243C38.3544 40.4987 38.2448 40.5984 38.1587 40.717L31.1736 50.3521C31.0407 50.5324 30.9692 50.7506 30.9697 50.9745V61.3231C30.9697 61.462 30.9973 61.5995 31.0509 61.7276C31.1045 61.8558 31.183 61.972 31.2819 62.0695C31.3808 62.1671 31.4981 62.244 31.627 62.2958C31.7558 62.3476 31.8937 62.3733 32.0326 62.3714C32.3106 62.3714 32.5773 62.2609 32.7739 62.0643C32.9705 61.8677 33.0809 61.6011 33.0809 61.3231V52.9183C33.0816 52.7109 33.1464 52.5087 33.2666 52.3395L38.49 45.0595C38.5357 44.9956 38.5942 44.9419 38.6618 44.9018C38.7294 44.8616 38.8045 44.836 38.8826 44.8264C38.9606 44.8168 39.0397 44.8235 39.115 44.8461C39.1903 44.8687 39.26 44.9067 39.3199 44.9576L40.2808 45.773C40.5187 45.9749 40.8206 46.0858 41.1326 46.086C41.3921 46.0845 41.6451 46.0048 41.8587 45.8575C42.0723 45.7101 42.2366 45.5018 42.3302 45.2597Z" fill="white" stroke="#263238" stroke-linecap="round" stroke-linejoin="round"/>
<path d="M40.8883 44.3169C41.1637 44.3169 41.387 44.0937 41.387 43.8183C41.387 43.5428 41.1637 43.3196 40.8883 43.3196C40.6129 43.3196 40.3896 43.5428 40.3896 43.8183C40.3896 44.0937 40.6129 44.3169 40.8883 44.3169Z" fill="#999999" stroke="#263238" stroke-linecap="round" stroke-linejoin="round"/>
<path d="M135.824 37.7905H44.915V51.87H135.824V37.7905Z" fill="#263238"/>
<path opacity="0.2" d="M134.509 38.8497H46.1918C45.9144 38.8497 45.6895 39.0746 45.6895 39.3521V41.6307C45.6895 41.9081 45.9144 42.133 46.1918 42.133H134.509C134.787 42.133 135.011 41.9081 135.011 41.6307V39.3521C135.011 39.0746 134.787 38.8497 134.509 38.8497Z" fill="white"/>
<path d="M127.684 54.7019H53.0641C50.9612 49.8953 49.8471 44.7147 49.7881 39.4685H130.975C130.975 46.5228 127.684 54.7019 127.684 54.7019Z" fill="white"/>
<g opacity="0.7">
<path opacity="0.7" d="M59.1006 53.5591C59.1006 53.5591 60.7349 53.4717 61.6486 52.9221C62.5622 52.3724 62.4967 53.4171 63.0209 53.4863C63.545 53.5554 64.7826 53.1223 65.4378 53.1223C66.093 53.1223 65.5943 53.5227 66.3333 53.4863C67.0722 53.4499 66.6754 53.5227 67.0613 53.4499L70.2244 52.9221C70.2244 52.9221 71.8297 52.6127 72.1536 52.7692C72.4776 52.9257 72.9035 53.6974 73.3767 53.4972C73.8499 53.297 73.5987 53.1332 74.3121 53.1332C74.7532 53.1352 75.1918 53.1989 75.6153 53.3225C75.6153 53.3225 75.6808 53.1368 76.0084 53.1332H76.5944C76.5944 53.1332 77.8357 53.4608 78.0322 53.4608C78.2288 53.4608 79.6957 53.1368 79.7467 53.1332C79.7976 53.1295 81.2027 52.7692 81.2027 52.7692C81.5007 53.0808 81.8784 53.3048 82.2947 53.4171C82.8261 53.4863 83.3867 53.3443 83.7871 53.5227C84.1875 53.701 85.5051 53.4499 85.5051 53.4499C85.8195 53.4519 86.1333 53.4762 86.4443 53.5227C86.852 53.6157 87.2767 53.6032 87.6782 53.4863C88.4164 53.2911 89.191 53.2786 89.935 53.4499C91.118 53.6646 92.2064 53.1259 92.7087 53.1223C93.211 53.1186 95.2203 53.3443 95.9119 53.3443C96.6035 53.3443 98.4344 53.5918 99.7084 53.4499C100.982 53.3079 101.816 53.6282 102.671 53.6282C103.527 53.6282 104.44 53.5918 104.637 53.5918C104.834 53.5918 105.78 52.973 107.134 53.1223C108.488 53.2715 107.283 52.9366 108.117 53.1223C108.95 53.3079 109.609 53.4863 109.962 53.5227C110.246 53.5392 110.53 53.527 110.81 53.4863L112.266 53.3807H119.525" stroke="#263238" stroke-linecap="round" stroke-linejoin="round"/>
<path opacity="0.7" d="M57.5898 50.7489C57.5898 50.7489 62.0852 50.7489 62.897 50.6761C63.7087 50.6033 64.1418 50.1884 64.575 50.1884C65.0082 50.1884 67.1958 50.6033 67.1958 50.6033C67.2596 50.4676 67.3638 50.3549 67.4941 50.2806C67.6244 50.2063 67.7745 50.1741 67.9238 50.1884C68.5171 50.1884 68.215 50.243 68.761 50.4614C69.307 50.6798 69.0231 50.4614 69.3106 50.6761C69.7393 50.8686 70.1925 51.0009 70.6574 51.0692C70.6574 51.0692 72.6849 51.1639 72.7614 50.6761C72.8378 50.1884 73.8534 51.0692 73.8534 51.0692C73.8534 51.0692 76.6052 50.6761 77.6681 50.6761C78.731 50.6761 81.3954 50.4614 81.3954 50.4614C81.3954 50.4614 83.5794 50.7489 83.6814 50.7489C83.7833 50.7489 84.1436 51.3204 84.5331 51.0692C84.9226 50.8181 85.2975 50.5305 85.7598 50.6033C86.1891 50.7098 86.6045 50.8662 86.9974 51.0692L88.013 50.5305L89.1778 50.6033C89.1778 50.6033 90.3644 51.3932 91.2125 51.0692C91.8582 50.8112 92.4889 50.5171 93.1017 50.1884L94.1464 51.0692H94.8307L96.8582 50.6761C97.0142 50.8679 97.2246 51.0081 97.4616 51.0782C97.6987 51.1484 97.9515 51.1452 98.1868 51.0692C99.0458 50.8217 107.254 51.0692 109.343 51.0692C111.433 51.0692 111.891 50.5305 111.891 50.5305L113.5 51.0692H121.508" stroke="#263238" stroke-linecap="round" stroke-linejoin="round"/>
</g>
<path opacity="0.2" d="M128.446 52.598C128.005 53.9084 127.685 54.7019 127.685 54.7019H53.0648C53.0648 54.7019 52.7008 53.9375 52.2021 52.598H128.446Z" fill="black"/>
<path opacity="0.2" d="M130 47.087C129.749 48.179 129.472 49.2456 129.199 50.1883H51.3907C51.1214 49.2638 50.8447 48.2191 50.6045 47.087H130Z" fill="black"/>
<path d="M127.684 54.7019H53.0641C50.9612 49.8953 49.8471 44.7147 49.7881 39.4685H130.975C130.975 46.5228 127.684 54.7019 127.684 54.7019Z" stroke="#263238" stroke-linecap="round" stroke-linejoin="round"/>
<path d="M44.8969 37.066H42.6729V52.6016H44.8969V37.066Z" fill="#757575"/>
<path opacity="0.2" d="M44.8523 47.9934H42.6865V52.6016H44.8523V47.9934Z" fill="black"/>
<path d="M44.8969 37.066H42.6729V52.6016H44.8969V37.066Z" stroke="#263238" stroke-linecap="round" stroke-linejoin="round"/>
<path d="M138.062 37.066H135.838V52.6016H138.062V37.066Z" fill="#757575"/>
<path opacity="0.2" d="M138.062 47.9934H135.819V52.6017H138.062V47.9934Z" fill="black"/>
<path d="M138.062 37.066H135.838V52.6016H138.062V37.066Z" stroke="#263238" stroke-linecap="round" stroke-linejoin="round"/>
<path d="M135.857 36.4146V47.7459H44.8785V36.4146H44.0049V48.5066H136.73V36.4146H135.857Z" fill="#999999" stroke="#263238" stroke-linecap="round" stroke-linejoin="round"/>
<path d="M141.233 55.5027V80.9135C141.233 81.3421 141.063 81.7532 140.76 82.0563C140.456 82.3594 140.045 82.5296 139.617 82.5296H41.1074C40.6787 82.5296 40.2677 82.3594 39.9646 82.0563C39.6615 81.7532 39.4912 81.3421 39.4912 80.9135V55.5027C39.4912 55.074 39.6615 54.663 39.9646 54.3599C40.2677 54.0568 40.6787 53.8865 41.1074 53.8865H86.4982V55.5027C86.4982 55.5027 78.7486 62.2257 65.3862 64.7046C67.3008 73.3714 77.7622 79.9926 90.3857 79.9926C103.009 79.9926 113.471 73.3641 115.389 64.7046C102.008 62.2257 94.2587 55.5027 94.2587 55.5027V53.8719H139.628C139.84 53.8734 140.05 53.9167 140.246 53.9995C140.442 54.0823 140.619 54.2028 140.769 54.3543C140.918 54.5058 141.035 54.6852 141.115 54.8822C141.195 55.0793 141.235 55.2901 141.233 55.5027Z" fill="white" stroke="#263238" stroke-linecap="round" stroke-linejoin="round"/>
<path d="M141.233 55.5027V80.9135C141.233 81.126 141.191 81.3365 141.109 81.5328C141.028 81.7291 140.908 81.9075 140.758 82.0576C140.607 82.2077 140.429 82.3267 140.232 82.4077C140.036 82.4887 139.825 82.5301 139.613 82.5297H41.1071C40.8946 82.5301 40.684 82.4887 40.4875 82.4077C40.291 82.3267 40.1124 82.2077 39.962 82.0576C39.8115 81.9075 39.6921 81.7291 39.6107 81.5328C39.5292 81.3365 39.4873 81.126 39.4873 80.9135V55.5027C39.4883 55.0734 39.6592 54.6619 39.9628 54.3584C40.2664 54.0548 40.6778 53.8838 41.1071 53.8829H86.4979V55.5027C86.4979 55.5027 78.7447 62.2221 65.3859 64.7046C67.3005 73.3714 77.7619 79.9926 90.3891 79.9926C103.016 79.9926 113.47 73.3641 115.389 64.7046C102.008 62.2221 94.2584 55.5027 94.2584 55.5027V53.8719H139.627C140.056 53.8758 140.466 54.0496 140.767 54.3554C141.068 54.6611 141.235 55.0737 141.233 55.5027Z" fill="white"/>
<path opacity="0.2" d="M139.049 55.8922V79.352C139.049 79.5079 139.018 79.6624 138.958 79.8064C138.898 79.9504 138.81 80.0811 138.7 80.1911C138.589 80.301 138.458 80.388 138.314 80.447C138.169 80.506 138.015 80.5359 137.859 80.535H42.0756C41.9201 80.5355 41.766 80.5052 41.6223 80.4459C41.4786 80.3866 41.348 80.2995 41.238 80.1896C41.1281 80.0796 41.0409 79.949 40.9817 79.8053C40.9224 79.6615 40.8921 79.5075 40.8926 79.352V55.8922C40.8921 55.7364 40.9223 55.5819 40.9815 55.4378C41.0407 55.2936 41.1277 55.1626 41.2376 55.052C41.3474 54.9415 41.478 54.8537 41.6218 54.7936C41.7655 54.7336 41.9198 54.7024 42.0756 54.7019H86.4836V55.5027C86.4836 55.5027 78.7304 62.2221 65.3716 64.7046C67.2862 73.3715 77.7476 79.9926 90.3747 79.9926C103.002 79.9926 113.456 73.3642 115.374 64.7046C101.994 62.2221 94.2441 55.5027 94.2441 55.5027V54.7019H137.869C138.183 54.7048 138.483 54.8315 138.704 55.0544C138.925 55.2773 139.049 55.5784 139.049 55.8922Z" fill="white"/>
<path d="M141.233 55.5027V80.9135C141.233 81.126 141.191 81.3365 141.109 81.5328C141.028 81.7291 140.908 81.9075 140.758 82.0576C140.607 82.2077 140.429 82.3267 140.232 82.4077C140.036 82.4887 139.825 82.5301 139.613 82.5297H41.1071C40.8946 82.5301 40.684 82.4887 40.4875 82.4077C40.291 82.3267 40.1124 82.2077 39.962 82.0576C39.8115 81.9075 39.6921 81.7291 39.6107 81.5328C39.5292 81.3365 39.4873 81.126 39.4873 80.9135V55.5027C39.4883 55.0734 39.6592 54.6619 39.9628 54.3584C40.2664 54.0548 40.6778 53.8838 41.1071 53.8829H86.4979V55.5027C86.4979 55.5027 78.7447 62.2221 65.3859 64.7046C67.3005 73.3714 77.7619 79.9926 90.3891 79.9926C103.016 79.9926 113.47 73.3641 115.389 64.7046C102.008 62.2221 94.2584 55.5027 94.2584 55.5027V53.8719H139.627C140.056 53.8758 140.466 54.0496 140.767 54.3554C141.068 54.6611 141.235 55.0737 141.233 55.5027V55.5027Z" stroke="#263238" stroke-linecap="round" stroke-linejoin="round"/>
<path opacity="0.2" d="M108.69 90.061L113.528 103.554C113.528 103.554 115.621 88.7032 116.869 88.7032C118.118 88.7032 120.808 96.8241 120.808 96.8241C120.808 96.8241 122.467 92.5871 124.04 92.4342C125.612 92.2814 127.036 102.837 127.036 102.837L127.28 126.268L125.296 161.703C125.296 161.703 112.639 147.762 108.949 144.17C105.258 140.577 101.73 132.671 100.711 131.066C99.692 129.46 99.4336 121.056 99.4336 121.056C100.724 119.405 101.398 117.355 101.341 115.261C101.341 115.261 104.311 110.288 104.129 106.619C103.947 102.95 103.489 88.6923 108.69 90.061Z" fill="black" fill-opacity="0.7"/>
<path d="M146.769 155.428L127.608 165.507C127.608 165.405 125.089 161.325 122.046 156.709C120.67 154.62 119.185 152.425 117.776 150.438C115.468 147.187 112.534 144.381 112.283 143.769C111.555 141.949 105.942 135.135 104.686 132.485C103.431 129.835 103.143 121.591 102.59 119.651C102.037 117.71 103.624 115.858 104.898 114.955C106.172 114.052 107.507 111.679 107.507 111.679C107.507 111.679 106.099 106.19 106.084 103.398C106.07 100.606 105.12 90.8618 106.255 89.9518C107.391 89.0418 108.407 89.424 108.69 90.05C109.622 92.1139 110.46 97.3046 111.177 99.696C111.894 102.088 113.24 109.025 113.903 109.524C114.565 110.023 115.745 108.152 115.745 108.152C115.745 108.152 115.858 102.328 116.109 99.9144L115.745 92.2704C115.745 92.2704 115.064 87.6768 116.648 87.24C118.832 86.6394 119.629 88.0116 119.876 88.5904C120.124 89.1692 121.143 92.5034 121.143 92.5034L121.201 92.7327C121.201 92.7546 121.201 92.7764 121.201 92.8019V92.8419C121.218 92.905 121.236 92.9742 121.256 93.0494C121.296 93.2023 121.343 93.3843 121.394 93.5918C121.878 95.4882 122.81 99.2847 122.77 100.22C122.715 101.483 122.275 108.479 122.897 109.932L123.866 100.268C123.866 100.268 122.304 92.8201 122.759 91.7463C123.214 90.6725 125.358 91.8591 125.613 92.2814C125.868 92.7036 127.95 95.2589 128.321 96.2344L128.685 97.2099C128.685 97.2099 129.198 94.9022 130.403 95.5028C131.608 96.1034 131.757 99.0372 131.841 100.318C131.925 101.6 132.798 109.841 132.933 109.855C133.068 109.87 134.458 114.15 134.269 116.979C133.872 123.032 134.92 127.535 134.957 129.857C134.993 132.179 133.242 137.559 133.242 137.559C133.304 137.665 134.447 139.609 134.76 141.316C134.989 142.568 139.07 147.092 142.404 150.692C144.723 153.175 146.667 155.206 146.769 155.428Z" fill="white"/>
<path opacity="0.4" d="M122.049 156.717C120.673 154.627 119.188 152.432 117.779 150.445C115.471 147.194 112.537 144.388 112.286 143.776C111.558 141.956 105.945 135.142 104.689 132.492C103.434 129.843 103.146 121.598 102.593 119.658C102.039 117.718 103.627 115.865 104.901 114.962C106.175 114.06 107.51 111.686 107.51 111.686C107.51 111.686 106.102 106.197 106.087 103.405C106.073 100.613 105.123 90.8691 106.258 89.9591C107.394 89.0491 108.409 89.4313 108.693 90.0574C109.625 92.1212 110.462 97.3119 111.18 99.7034C111.897 102.095 113.243 109.033 113.906 109.531C114.568 110.03 115.748 108.159 115.748 108.159C115.748 108.159 115.861 102.335 116.112 99.9218L115.748 92.2778C115.748 92.2778 115.067 87.6841 116.65 87.2473C118.834 86.6467 119.632 88.019 119.879 88.5977C120.127 89.1765 121.146 92.5107 121.146 92.5107L121.204 92.74C121.204 92.7619 121.204 92.7837 121.204 92.8092V92.8492C121.219 92.9123 121.237 92.9815 121.259 93.0567C121.299 93.2096 121.346 93.3916 121.397 93.5991C120.833 92.7073 120.057 91.9465 119.02 91.7463C116.108 91.1785 116.738 94.4181 117.014 96.3618C117.171 97.6517 117.141 98.9574 116.923 100.238L117.651 99.8198C117.127 100.755 116.377 108.53 116.377 110.259C116.377 111.988 115.009 112.563 113.782 112.058C112.555 111.552 112.119 103.616 111.187 102.193C110.255 100.77 107.663 103.489 107.547 105.975C107.43 108.461 109.749 115.876 109.199 117.623C108.65 119.37 108.657 125.995 108.657 125.995L107.987 124.288C108.031 124.521 107.987 125.303 106.586 127.608C106.059 128.442 105.719 129.379 105.588 130.357C105.456 131.334 105.537 132.328 105.825 133.271C106.68 135.161 111.019 140.14 111.747 140.653C111.747 140.653 112.275 138.491 113.931 139.066C113.367 139.963 112.957 140.947 112.716 141.978C112.373 143.565 115.828 144.581 116.909 146.092C117.571 147.012 118.015 149.819 122.049 156.717Z" fill="white"/>
<path opacity="0.4" d="M142.426 150.696C139.019 147.263 133.024 143.995 133.388 143.139C133.875 141.989 133.256 139.539 132.208 137.552C131.16 135.565 132.572 132.339 132.572 132.339L133.22 134.214C133.738 132.052 133.799 129.805 133.398 127.618C132.736 123.902 132.219 125.209 132.219 125.209C132.219 125.209 132.354 121.86 132.947 120.033C133.54 118.205 134.039 113.768 133.22 111.144C132.401 108.519 130.672 109.014 130.21 109.917C129.748 110.82 130.243 114.34 130.625 115.494C131.007 116.647 129.38 118.588 129.347 117.146C129.314 115.705 128.699 111.686 128.699 111.686L129.933 103.616L128.699 97.2062C128.699 97.2062 129.212 94.8984 130.417 95.499C131.622 96.0996 131.771 99.0335 131.855 100.315C131.939 101.596 132.812 109.837 132.947 109.852C133.082 109.866 134.472 114.147 134.283 116.975C133.886 123.028 134.935 127.531 134.971 129.853C135.007 132.176 133.256 137.556 133.256 137.556C133.318 137.661 134.461 139.605 134.774 141.312C135.004 142.564 139.084 147.089 142.418 150.689L142.426 150.696Z" fill="white"/>
<path opacity="0.4" d="M128.321 96.2344C128.39 96.4164 128.449 96.5657 128.492 96.6858C127.335 93.9958 125.362 94.8294 125.012 95.5938C124.663 96.3582 125.839 101.101 126.104 101.836C126.37 102.572 125.049 108.443 124.856 110.387C124.663 112.331 124.15 112.727 124.15 112.727C122.843 112.826 122.694 109.218 122.694 108.723C122.719 109.137 122.8 109.546 122.934 109.939L123.902 100.275C123.902 100.275 122.304 92.8201 122.759 91.7463C123.214 90.6725 125.358 91.8591 125.613 92.2814C125.868 92.7036 127.95 95.2589 128.321 96.2344Z" fill="white"/>
<path d="M146.768 155.428C146.52 154.867 135.153 143.416 134.756 141.312C134.435 139.558 133.234 137.552 133.234 137.552C133.234 137.552 134.985 132.183 134.949 129.85C134.912 127.517 133.857 123.025 134.261 116.971C134.45 114.143 133.063 109.863 132.925 109.848C132.787 109.833 131.913 101.592 131.833 100.311C131.753 99.0299 131.604 96.0961 130.395 95.4955C129.187 94.8949 128.677 97.2026 128.677 97.2026L128.313 96.2271C127.949 95.2516 125.86 92.6963 125.605 92.2741C125.35 91.8518 123.21 90.6615 122.751 91.739C122.292 92.8164 123.89 100.253 123.89 100.253L122.929 109.928C122.307 108.472 122.747 101.48 122.802 100.217C122.857 98.9535 121.146 92.4997 121.146 92.4997C121.146 92.4997 120.119 89.1801 119.879 88.5831C119.639 87.9861 118.834 86.6321 116.65 87.2327C115.067 87.6695 115.748 92.2631 115.748 92.2631L116.112 99.9071C115.868 102.331 115.748 108.144 115.748 108.144C115.748 108.144 114.568 110.012 113.906 109.517C113.243 109.022 111.897 102.087 111.18 99.6887C110.462 97.29 109.625 92.1066 108.693 90.0427C108.409 89.4167 107.394 89.0345 106.258 89.9445C105.123 90.8545 106.069 100.595 106.087 103.391C106.105 106.186 107.51 111.672 107.51 111.672C107.51 111.672 106.175 114.03 104.901 114.948C103.627 115.865 102.039 117.699 102.593 119.643C103.146 121.587 103.434 129.835 104.689 132.478C105.945 135.12 111.544 141.942 112.286 143.762C112.537 144.373 115.471 147.18 117.779 150.43C122.311 156.811 127.607 165.354 127.607 165.5" stroke="#263238" stroke-linecap="round" stroke-linejoin="round"/>
<path d="M107.507 111.69C107.507 111.69 108.409 116.163 108.377 116.913C108.377 116.913 107.587 120.368 107.579 122.606C107.027 123.45 106.531 124.329 106.094 125.238C105.789 126.046 105.243 128.033 105.468 129.14" stroke="#263238" stroke-linecap="round" stroke-linejoin="round"/>
<path d="M105.857 118.3C105.857 118.3 108.071 118.318 107.929 119.25" stroke="#263238" stroke-linecap="round" stroke-linejoin="round"/>
<path d="M107.579 122.606C107.579 122.606 106.16 121.991 105.661 122.817" stroke="#263238" stroke-linecap="round" stroke-linejoin="round"/>
<path d="M115.752 108.159C115.752 108.159 115.65 111.588 114.747 111.315" stroke="#263238" stroke-linecap="round" stroke-linejoin="round"/>
<path d="M122.929 109.928C122.929 109.928 122.667 111.803 123.373 112.381" stroke="#263238" stroke-linecap="round" stroke-linejoin="round"/>
<path d="M128.688 97.2098C128.688 97.2098 129.671 101.942 129.897 103.063C130.123 104.184 128.779 109.906 128.805 111.395C128.83 112.884 129.467 115.013 129.38 116.014" stroke="#263238" stroke-linecap="round" stroke-linejoin="round"/>
<path d="M132.612 133.148C132.612 133.148 132.296 136.238 133.246 137.559" stroke="#263238" stroke-linecap="round" stroke-linejoin="round"/>
<path d="M113.527 139.263C113.527 139.263 111.409 141.192 112.184 143.565" stroke="#263238" stroke-linecap="round" stroke-linejoin="round"/>
<path d="M127.451 115.21C127.483 116.571 126.686 118.158 126.603 120.04" stroke="#263238" stroke-linecap="round" stroke-linejoin="round"/>
<path d="M120.702 113.994C121.154 115.108 120.171 117.532 120.021 118.442C119.962 119.154 120.04 119.871 120.251 120.553" stroke="#263238" stroke-linecap="round" stroke-linejoin="round"/>
<path d="M133.387 117.831C133.205 119.014 132.368 119.858 132.208 123.498" stroke="#263238" stroke-linecap="round" stroke-linejoin="round"/>
<path d="M112.719 113.648C113.33 114.314 112.919 117.496 113.083 118.016" stroke="#263238" stroke-linecap="round" stroke-linejoin="round"/>
<path d="M124.123 95.3207C124.123 95.3207 126.205 93.7955 127.996 95.5937" stroke="#263238" stroke-linecap="round" stroke-linejoin="round"/>
<path d="M116.953 91.8155C116.953 91.8155 117.317 91.2076 119.075 91.3568C120.833 91.5061 121.146 92.4962 121.146 92.4962" stroke="#263238" stroke-linecap="round" stroke-linejoin="round"/>
<path d="M111.817 102.208C111.817 102.208 111.227 101.338 109.673 101.625C108.118 101.913 107.427 104.111 107.427 104.111" fill="white"/>
<path d="M111.817 102.208C111.817 102.208 111.227 101.338 109.673 101.625C108.118 101.913 107.427 104.111 107.427 104.111" stroke="#263238" stroke-linecap="round" stroke-linejoin="round"/>
<path d="M132.936 109.855C132.936 109.855 131.64 107.977 130.082 108.781" stroke="#263238" stroke-linecap="round" stroke-linejoin="round"/>
<path opacity="0.2" d="M77.7316 96.0959C79.9156 97.7885 78.0738 108.177 78.0738 108.177L78.2667 111.559L82.0123 109.928L83.7194 117.153C83.7194 117.153 83.6758 119.8 85.0626 120.793C85.0626 120.793 85.4048 126.73 85.0626 131.069C84.7204 135.408 77.7826 140.508 75.3911 145.061C72.9996 149.615 57.4022 162.999 57.4022 162.999L44.1963 156.717L53.744 118.154L62.298 107.158L67.3685 94.5089C67.3685 94.5089 68.2385 102.772 67.7325 108.341L77.7316 96.0959Z" fill="black" fill-opacity="0.7"/>
<path d="M81.4089 119.173C81.0777 120.768 81.8748 129.507 81.7365 130.687C81.5982 131.866 74.6458 139.787 74.2963 140.387C73.9469 140.988 69.2986 143.663 68.2175 144.941C63.1652 150.834 60.4061 156.261 58.1893 161.703C57.7635 162.752 57.3558 163.804 56.9554 164.859L36.9062 153.211C38.5916 151.122 40.1823 149.265 41.6383 147.576C44.5503 144.151 46.8689 141.41 48.0046 138.822C48.3531 138.161 48.7523 137.529 49.1985 136.929C49.6499 136.289 50.0539 135.761 50.0539 135.761C50.0539 135.761 48.5979 131.659 48.9365 130.37C49.275 129.082 48.5178 118.489 48.5178 118.489C48.5178 118.489 47.5314 111.278 46.5595 109.458C46.3209 108.983 46.2128 108.453 46.2465 107.922C46.2938 106.259 47.2584 104.162 47.7316 101.734C48.365 98.4582 48.0592 96.8384 50.0467 97.9704C52.0341 99.1025 51.1059 105.978 51.1059 105.978L54.1089 112.632C54.8988 111.023 54.1089 106.328 54.0689 105.218C54.0689 105.036 54.0689 104.734 54.0397 104.34C53.9779 102.426 53.8505 98.44 54.0143 96.8675C54.0143 96.7802 54.0143 96.7001 54.0434 96.6273C54.2873 95.0038 55.1572 89.8387 55.7105 89.2636C56.5331 88.4118 57.8399 87.6947 59.0702 89.6276C59.7582 90.7196 59.4633 99.3791 59.4633 99.3791C59.4633 99.3791 62.3171 95.9357 63.1834 95.0948C64.0497 94.254 66.6778 92.7179 67.3803 94.4979C68.0829 96.2778 65.4912 101.778 65.4912 101.778C66.0335 103.052 66.0991 106.579 66.0991 106.579C66.0991 106.579 67.3257 110.987 68.0792 110.947H68.112C68.3304 110.9 68.5706 110.099 68.8218 108.974C69.4406 106.219 70.114 101.505 70.6418 101.094L71.0058 100.802C71.0224 100.781 71.042 100.763 71.064 100.748L71.1987 100.628C72.4873 99.4811 75.2027 96.933 75.2027 96.933C75.2027 96.933 75.3956 95.7137 77.7725 96.0886C80.1495 96.4635 76.7169 103.478 76.7169 103.478C76.2401 105.709 75.5085 111.449 75.5085 111.449C75.2864 113.837 75.4175 120.255 75.4175 120.255C75.4175 120.255 76.5422 116.52 76.4694 115.159C76.3966 113.797 78.7044 110.463 79.3814 109.604C80.0585 108.745 83.0797 109.047 82.2388 110.696C81.398 112.345 81.7401 117.572 81.4089 119.173Z" fill="white"/>
<path opacity="0.4" d="M47.9933 138.837C48.3418 138.176 48.741 137.543 49.1872 136.944C49.1872 136.944 48.0042 140.22 47.8877 141.964C47.8113 143.114 44.7828 145.105 41.627 147.591C44.5571 144.166 46.8576 141.425 47.9933 138.837Z" fill="white"/>
<path opacity="0.4" d="M49.1878 136.944C49.6392 136.303 50.0432 135.776 50.0432 135.776C50.0432 135.776 48.5872 131.673 48.9257 130.385C49.2643 129.096 48.5071 118.504 48.5071 118.504C48.5071 118.504 47.5207 111.293 46.5488 109.473L48.8129 113.43C48.8129 113.43 48.5909 116.556 49.2351 118.271C49.8794 119.985 50.6911 125.216 50.6911 125.216C50.6911 125.216 49.7375 129.613 50.0614 131.196C50.3854 132.78 51.845 132.205 51.845 132.205C51.845 132.205 52.5621 135.102 49.1878 136.944Z" fill="white"/>
<path opacity="0.4" d="M54.469 107.158C56.0306 116.302 53.3406 113.772 52.3688 111.799C51.3969 109.826 49.1146 106.091 47.3965 106.888C46.914 107.115 46.5098 107.48 46.2354 107.937C46.2827 106.273 47.2473 104.177 47.7205 101.749C48.3538 98.4728 48.0481 96.853 50.0355 97.9851C52.023 99.1171 51.0948 105.993 51.0948 105.993L54.0978 112.647C54.8876 111.038 54.0978 106.342 54.0577 105.232C54.0577 105.05 54.0577 104.748 54.0286 104.355C54.1487 105.196 54.2943 106.131 54.469 107.158Z" fill="white"/>
<path opacity="0.4" d="M58.2908 98.1235C58.2908 98.1235 56.6055 95.9176 55.1423 96.0305C54.891 96.0441 54.6492 96.1309 54.4467 96.2804C54.2443 96.4298 54.09 96.6352 54.0029 96.8713C54.0029 96.7839 54.0029 96.7039 54.0321 96.6311C54.2759 95.0076 55.1459 89.8425 55.6992 89.2673C56.5218 88.4156 57.8286 87.6985 59.0589 89.6313C59.7468 90.7233 59.452 99.3829 59.452 99.3829C59.452 99.3829 62.3058 95.9395 63.1721 95.0986C64.0384 94.2578 66.6665 92.7217 67.369 94.5017C68.0715 96.2816 65.4798 101.782 65.4798 101.782C66.0222 103.056 66.0877 106.583 66.0877 106.583C66.0877 106.583 67.3144 110.991 68.0679 110.951C66.408 114.074 65.3015 107.169 65.3015 107.169C65.549 105.742 64.6681 102.648 64.7555 101.833C64.8428 101.017 63.2267 98.1344 60.504 98.9206C57.7812 99.7069 59.7468 110.467 59.7468 110.467C59.2088 111.324 58.8958 112.303 58.8368 113.313C57.996 112.276 58.8368 109.309 58.8368 109.309C58.0906 106.47 58.2908 98.1235 58.2908 98.1235Z" fill="white"/>
<path opacity="0.4" d="M70.9799 100.792C69.8187 102.011 69.9789 105.094 68.7959 108.963C69.4147 106.208 70.0881 101.494 70.6159 101.083L70.9799 100.792Z" fill="white"/>
<path opacity="0.4" d="M81.409 119.174C81.0778 120.768 81.8749 129.507 81.7366 130.687C81.5983 131.866 74.6459 139.787 74.2964 140.387C73.947 140.988 69.2987 143.663 68.2177 144.941C63.1653 150.834 60.4062 156.261 58.1895 161.703C59.0245 158.882 60.0322 156.116 61.207 153.419C63.5985 148.042 64.574 147.085 66.0082 145.549C67.4423 144.013 67.2858 140.748 67.2858 140.748C68.3443 140.493 69.4294 140.365 70.5181 140.366C72.3381 140.366 77.7253 132.685 79.5781 131.338C81.4308 129.992 81.7621 129.992 79.5781 127.021C77.3941 124.051 78.0129 127.498 77.3577 127.385C76.7025 127.273 76.3458 128.707 76.3458 128.707C76.1165 125.678 74.1618 122.155 73.7505 121.274C73.3391 120.393 74.7478 115.228 74.4566 113.79C74.1654 112.352 75.7088 103.598 75.7088 103.598C75.7088 103.598 75.5159 100.238 72.4728 100.227C72.0058 100.202 71.5445 100.341 71.1697 100.62C72.4583 99.4739 75.1737 96.9259 75.1737 96.9259C75.1737 96.9259 75.3666 95.7065 77.7435 96.0814C80.1204 96.4563 76.6879 103.471 76.6879 103.471C76.2111 105.702 75.4795 111.442 75.4795 111.442C75.2574 113.83 75.3885 120.247 75.3885 120.247C75.3885 120.247 76.5132 116.513 76.4404 115.151C76.3676 113.79 78.6754 110.456 79.3524 109.597C80.0294 108.738 83.0506 109.04 82.2098 110.689C81.369 112.338 81.7402 117.572 81.409 119.174Z" fill="white"/>
<path d="M56.9515 164.892C59.423 158.365 62.1858 151.995 68.2173 144.959C69.3093 143.7 73.943 141.025 74.296 140.406C74.6491 139.787 81.6015 131.881 81.7362 130.705C81.8709 129.529 81.0774 120.786 81.4086 119.192C81.7398 117.597 81.354 112.341 82.1912 110.703C83.0284 109.065 80.0072 108.767 79.3338 109.611C78.6604 110.456 76.3599 113.819 76.4218 115.166C76.4837 116.513 75.3698 120.262 75.3698 120.262C75.3698 120.262 75.2388 113.845 75.4608 111.457C75.4608 111.457 76.1888 105.716 76.6693 103.485C76.6693 103.485 80.0982 96.4672 77.7249 96.096C75.3516 95.7247 75.1551 96.9405 75.1551 96.9405C75.1551 96.9405 71.3658 100.5 70.616 101.083C69.8662 101.665 68.8433 110.765 68.0899 110.936C67.3364 111.107 66.0769 106.568 66.0769 106.568C66.0769 106.568 66.0114 103.041 65.4691 101.767C65.4691 101.767 68.0571 96.2816 67.3582 94.4871C66.6593 92.6926 64.0313 94.2468 63.1613 95.084C62.2913 95.9212 59.4412 99.3683 59.4412 99.3683C59.4412 99.3683 59.7361 90.7015 59.0481 89.6168C57.8178 87.6766 56.5001 88.3937 55.6884 89.2528C55.1351 89.8279 54.2651 94.993 54.0213 96.6165C53.7774 98.2399 54.0213 104.093 54.0467 105.207C54.0722 106.321 54.8767 111.013 54.0868 112.622L51.0838 105.968C51.0838 105.968 52.0156 99.0844 50.0245 97.9596C48.0335 96.8349 48.3429 98.4583 47.7095 101.723C47.0761 104.988 45.5692 107.642 46.5374 109.466C47.5057 111.289 48.4957 118.497 48.4957 118.497C48.4957 118.497 49.2456 129.089 48.9143 130.377C48.5831 131.666 50.0427 135.772 50.0427 135.772C50.0427 135.772 48.3611 137.989 47.9934 138.833C46.2972 142.688 42.0056 146.903 36.9023 153.244" stroke="#263238" stroke-linecap="round" stroke-linejoin="round"/>
<path d="M59.4514 99.3901C59.0287 100.015 58.8146 100.758 58.8399 101.512C58.8399 102.895 59.7463 110.467 59.7463 110.467C59.7463 110.467 59.0874 111.246 59.0547 111.923" stroke="#263238" stroke-linecap="round" stroke-linejoin="round"/>
<path d="M75.377 120.244C75.4764 121.522 75.8056 122.773 76.3488 123.935C77.2006 125.616 76.924 126.544 76.6328 127.538C76.4377 128.41 76.334 129.299 76.3234 130.192" stroke="#263238" stroke-linecap="round" stroke-linejoin="round"/>
<path d="M54.4183 111.14C54.4183 111.14 55.0517 113.149 53.876 114.103" stroke="#263238" stroke-linecap="round" stroke-linejoin="round"/>
<path d="M68.1011 110.936C68.1011 110.936 68.2249 111.726 67.1074 111.799" stroke="#263238" stroke-linecap="round" stroke-linejoin="round"/>
<path d="M75.6065 101.836C75.6065 101.836 72.8037 98.7786 70.627 101.083" stroke="#263238" stroke-linecap="round" stroke-linejoin="round"/>
<path d="M64.25 100.118C64.25 100.118 62.9578 98.4839 61.8367 98.5821C60.7156 98.6804 59.2014 99.3648 59.0303 100.264" stroke="#263238" stroke-linecap="round" stroke-linejoin="round"/>
<path d="M76.873 126.556C77.3251 127.202 77.6545 127.926 77.8449 128.692" stroke="#263238" stroke-linecap="round" stroke-linejoin="round"/>
<path d="M69.5937 114.129C68.7237 115.748 69.1387 118.497 68.8184 119.25" stroke="#263238" stroke-linecap="round" stroke-linejoin="round"/>
<path d="M60.3772 111.439C60.581 112.37 59.9368 113.888 59.8385 115.006C59.7402 116.123 60.6538 117.849 60.4864 119.417" stroke="#263238" stroke-linecap="round" stroke-linejoin="round"/>
<path d="M54.4692 115.253C54.4692 115.253 53.7085 117.008 53.7413 118.165C53.774 119.323 54.1853 121.86 54.1853 121.86" stroke="#263238" stroke-linecap="round" stroke-linejoin="round"/>
<path d="M48.8739 115.17C48.8739 115.17 48.5972 116.99 49.2379 118.271C49.8785 119.552 50.5009 122.275 50.5009 122.275" stroke="#263238" stroke-linecap="round" stroke-linejoin="round"/>
<path d="M50.042 135.772C50.3775 135.679 50.6774 135.487 50.9026 135.222C51.1279 134.956 51.2681 134.629 51.3051 134.283" stroke="#263238" stroke-linecap="round" stroke-linejoin="round"/>
<path d="M68.3411 141.319C68.3411 141.319 69.0363 143.893 67.7041 145.549" stroke="#263238" stroke-linecap="round" stroke-linejoin="round"/>
<path d="M46.2529 107.631C46.2529 107.631 48.2112 105.72 49.6927 107.333" stroke="#263238" stroke-linecap="round" stroke-linejoin="round"/>
<path d="M54.0322 96.631C54.0322 96.631 55.4882 95.1059 57.1917 96.7366" stroke="#263238" stroke-linecap="round" stroke-linejoin="round"/>
</svg>
